<svg viewBox="0 0 8431 6229" xmlns="http://www.w3.org/2000/svg" xml:space="preserve" style="fill-rule:evenodd;clip-rule:evenodd;stroke-linecap:round;stroke-linejoin:round;stroke-miterlimit:10"><g transform="translate(-11.41 -34.224) scale(11.4078)"><path d="M369.5 549C523.311 549 648 428.565 648 280S523.311 11 369.5 11 91 131.435 91 280s124.689 269 278.5 269Z" style="fill:url(#a);fill-rule:nonzero"/><path d="m87.466 292.31.755 9.372a272.53 272.53 0 0 0 6.419 37.011c3.008 12.158 6.771 24.142 11.601 35.709a270.238 270.238 0 0 0 16.683 33.653A274.127 274.127 0 0 0 144.249 439a271.186 271.186 0 0 1-19.368-31.96 269.109 269.109 0 0 1-14.824-34c-8.26-23.248-13.136-47.511-14.653-71.905L95 291.98c-.081-3.054-.045-6.109-.072-9.155-.081-3.054.179-6.1.269-9.146l.198-4.573.098-2.283c.045-.763.135-1.518.207-2.273l.862-9.103.215-2.274.333-2.265.673-4.521.665-4.521c.116-.755.215-1.51.341-2.256l.449-2.239 1.804-8.956c.27-1.501.674-2.968 1.051-4.443l1.131-4.426c.763-2.95 1.464-5.909 2.416-8.808l2.675-8.738c.988-2.881 2.065-5.736 3.098-8.6l1.562-4.295 1.778-4.218c1.203-2.803 2.335-5.632 3.592-8.409 2.684-5.484 5.181-11.046 8.224-16.357l2.191-4.018 1.096-2.005 1.194-1.952 4.777-7.828c1.607-2.594 3.412-5.076 5.109-7.619l2.577-3.792c.889-1.25 1.831-2.456 2.747-3.679l5.531-7.333 5.855-7.099c1.894-2.403 4.022-4.634 6.078-6.907l3.098-3.41 1.553-1.701 1.635-1.632 6.518-6.517c2.191-2.152 4.535-4.165 6.788-6.256l3.412-3.107c1.168-1.007 2.371-1.97 3.556-2.951 2.388-1.952 4.732-3.948 7.147-5.866 4.966-3.671 9.796-7.497 14.995-10.856l3.834-2.594 1.921-1.293 1.985-1.207 7.919-4.833c21.424-12.366 44.392-22.328 68.474-28.672 5.971-1.77 12.094-2.924 18.164-4.313 3.053-.607 6.133-1.067 9.203-1.605l4.607-.79c1.535-.234 3.088-.382 4.633-.581l9.284-1.12 9.329-.668 4.66-.338 4.678-.104 9.356-.209 9.356.217 4.678.104 4.66.339 9.347.677 9.284 1.119c1.545.2 3.098.347 4.634.582l4.606.789c3.062.547 6.15.998 9.203 1.606 6.07 1.388 12.194 2.542 18.165 4.313 24.081 6.352 47.058 16.288 68.464 28.68l7.919 4.833 1.985 1.206 1.921 1.294 3.834 2.594c5.199 3.359 10.03 7.185 14.995 10.856 2.415 1.918 4.759 3.914 7.147 5.866 1.185.99 2.389 1.953 3.556 2.951l3.412 3.107c2.254 2.091 4.597 4.095 6.788 6.248l6.519 6.517 1.634 1.631 1.553 1.701 3.098 3.41c2.056 2.283 4.175 4.504 6.079 6.908l5.854 7.098 5.522 7.342c.916 1.223 1.858 2.429 2.747 3.679l2.577 3.792c1.697 2.543 3.502 5.025 5.109 7.619l4.777 7.828 1.194 1.952 1.096 2.005 2.191 4.018c3.043 5.302 5.54 10.864 8.224 16.349 1.257 2.777 2.389 5.606 3.592 8.409l1.778 4.217 1.562 4.296c1.024 2.863 2.11 5.718 3.098 8.599l2.676 8.73c.96 2.899 1.652 5.858 2.406 8.808l1.131 4.426c.377 1.475.781 2.95 1.051 4.443l1.805 8.955.448 2.239c.135.747.225 1.502.342 2.257l1.346 9.042.333 2.265.215 2.273.871 9.103c.063.764.162 1.519.207 2.274l.098 2.282.198 4.573c.09 3.046.359 6.092.269 9.147-.027 3.054.009 6.1-.071 9.155l-.404 9.155c-1.509 24.393-6.376 48.657-14.645 71.896a268.91 268.91 0 0 1-14.815 34A270.454 270.454 0 0 1 596.724 439a273.028 273.028 0 0 0 21.334-30.945 269.053 269.053 0 0 0 16.692-33.653c4.831-11.567 8.593-23.551 11.601-35.709a273.054 273.054 0 0 0 6.429-37.02l.754-9.38c.179-3.133.251-6.266.377-9.398.188-3.133.018-6.274.027-9.416l-.045-4.712-.027-2.352c-.027-.781-.09-1.57-.135-2.351l-.592-9.407-.153-2.352-.269-2.343-1.078-9.372c-.099-.781-.17-1.562-.278-2.343l-.395-2.325-1.572-9.32c-.233-1.562-.601-3.098-.933-4.634l-1.024-4.617c-.682-3.081-1.338-6.17-2.254-9.199l-2.568-9.12c-.951-3.011-2.002-5.996-2.999-8.999l-1.526-4.495-1.742-4.417c-1.176-2.942-2.29-5.91-3.529-8.825-2.648-5.762-5.127-11.62-8.161-17.217-11.511-22.693-26.569-43.702-44.204-62.411l-6.734-6.916c-2.263-2.291-4.687-4.426-7.021-6.647l-3.538-3.298c-1.212-1.067-2.451-2.1-3.681-3.15-2.47-2.083-4.903-4.2-7.408-6.248-5.145-3.922-10.173-8.001-15.579-11.602l-3.986-2.777-2.003-1.389-2.065-1.301-8.251-5.19c-22.349-13.303-46.574-23.742-71.877-30.589-6.276-1.883-12.723-3.141-19.116-4.625-3.214-.651-6.456-1.155-9.688-1.745l-4.849-.841c-1.625-.252-3.259-.426-4.884-.634l-9.778-1.223-9.823-.755-4.912-.374-4.92-.13-9.85-.234-9.85.26-4.92.131-4.912.373-9.823.755-9.778 1.223c-1.625.217-3.259.382-4.884.634l-4.849.841c-3.232.582-6.474 1.085-9.688 1.745-6.393 1.475-12.831 2.742-19.116 4.625l-4.732 1.31c-1.581.426-3.161.868-4.705 1.406l-9.329 3.072c-1.563.486-3.089 1.067-4.615 1.658l-4.58 1.752c-3.053 1.172-6.123 2.3-9.086 3.671l-8.961 3.94c-2.936 1.414-5.846 2.89-8.764 4.339-1.454.737-2.927 1.44-4.364 2.195l-4.256 2.395c-2.819 1.623-5.701 3.15-8.467 4.851-44.589 26.78-81.313 65.579-104.452 110.912-3.034 5.597-5.513 11.446-8.17 17.208-1.239 2.915-2.353 5.892-3.529 8.825l-1.742 4.417-1.526 4.495c-.997 3.003-2.057 5.988-3.008 8.999l-2.568 9.12c-.925 3.02-1.563 6.118-2.245 9.199l-1.024 4.617c-.341 1.536-.709 3.072-.933 4.634l-1.572 9.32-.404 2.343c-.117.781-.188 1.562-.278 2.343l-.539 4.686-.539 4.686-.269 2.343-.153 2.351-.592 9.407c-.045.781-.108 1.571-.135 2.352l-.027 2.351-.045 4.712c.009 3.142-.161 6.275.027 9.407.126 3.142.198 6.274.377 9.407Z" style="fill:url(#b);fill-rule:nonzero"/><ellipse cx="187.5" cy="510" rx="148.5" ry="11" style="fill:#252323;fill-opacity:.49"/><ellipse cx="567.5" cy="514" rx="148.5" ry="11" style="fill:#252323;fill-opacity:.49"/><path d="M88.258 443.708s-11.374 3.746-12.794-5.619c-1.422-9.368 2.369-21.076-12.32-25.288-14.69-4.215-36.014-4.684-35.066 21.542.948 26.223 16.113 51.045 56.864 51.98l3.316-42.615Z" style="fill:#754c29;fill-rule:nonzero"/><path d="M75.463 438.09c-1.422-9.368 2.369-21.076-12.32-25.288-14.69-4.215-36.014-4.684-35.066 21.542M300.076 415.611s11.847 30.441-1.422 60.41c0 0 2.843 29.035-2.369 32.782-6.287 4.518-29.381 3.747-33.646-.468-4.265-4.213-4.739-21.542-4.739-21.542l42.176-71.182Z" style="fill:#fff4d7;fill-rule:nonzero"/><path d="M300.076 415.611s10.899 38.403-1.422 60.41v11.24s-6.634 2.343-40.752-.468l42.174-71.182Z" style="fill:#754c29;fill-rule:nonzero"/><path d="M88.258 443.708s-11.374 3.746-12.794-5.619c-1.422-9.368 2.369-21.076-12.32-25.288-14.69-4.215-36.014-4.684-35.066 21.542.948 26.223 16.113 51.045 56.864 51.98l3.316-42.615ZM300.076 415.611s11.847 30.441-1.422 60.41c0 0 2.843 29.035-2.369 32.782-6.287 4.518-29.381 3.747-33.646-.468-4.265-4.213-4.739-21.542-4.739-21.542l42.176-71.182Z" style="fill:none;fill-rule:nonzero;stroke:#451a0f;stroke-width:4px"/><path d="M215.255 505.056s32.549-.333 44.07-8.43c21.324-14.989 42.313-54.268 47.387-67.435 3.791-9.836 12.32-21.076 16.111-40.273 3.007-15.231 2.369-45.893 2.369-45.893-21.829-20.991-32.484-21.487-105.946-16.854-73.462 4.633-79.323 26.259-85.97 30.902 0 0-20.584 22.123-28.431 36.526-9.952 18.264-18.007 42.616-18.007 42.616s-12.32 14.048-11.848 32.313c.473 18.265 8.057 27.629 8.057 27.629 3.443 2.444 28.529 8.964 37.435 10.304 0 0 27.886 4.269 43.122 1.872 3.376-.53 47.599-2.645 51.651-3.277Z" style="fill:#fff4d7;fill-rule:nonzero"/><path d="M133.274 357.074s-36.013 35.122-46.439 79.141c0 0-14.514 14.688-11.847 40.744 1.423 13.9 8.056 19.199 8.056 19.199s17.059-9.834 36.961.937c0 0 13.742-4.213 21.798-3.279 8.056.937 22.272 2.341 22.272 2.341s9.952-6.556 17.059-5.151c7.107 1.405 27.011 4.213 35.066-3.746 0 0 19.902-47.297-10.9-64.158-30.802-16.858-43.596-23.414-44.543-48.702.002.001-17.057-2.339-27.483-17.326Z" style="fill:#754c29;fill-rule:nonzero"/><path d="M133.274 357.074s-20.584 22.123-28.431 36.526c-9.952 18.264-18.007 42.616-18.007 42.616s-12.32 14.048-11.847 32.313c.473 18.265 8.056 27.629 8.056 27.629 3.795 4.224 33.159 9.701 37.435 10.304 0 0 28.08 5.26 43.122 1.873 5.633-1.268 45.611-2.858 51.653-3.279 0 0 32.549-.333 44.069-8.43 21.325-14.989 42.314-54.268 47.388-67.435 3.791-9.837 12.32-21.076 16.111-40.273 3.007-15.231 2.369-45.894 2.369-45.894" style="fill:none;fill-rule:nonzero;stroke:#451a0f;stroke-width:4px"/><path d="M287.346 391.881c-.053.132-.117.204-.195.217a.543.543 0 0 1-.209-.006 2.702 2.702 0 0 1-.312-.098c-.489-.193-1.118-.357-1.883-.492a20.38 20.38 0 0 0-1.191-.157 30.358 30.358 0 0 0-1.071-.1l.292 1.366c.037.19.088.349.151.475.063.124.098.205.104.24.012.078-.017.15-.087.217a.437.437 0 0 1-.233.118c-.106.017-.186-.048-.238-.192a2.334 2.334 0 0 0-.057-.188 3.361 3.361 0 0 1-.102-.476 17.515 17.515 0 0 0-.18-.859l-.09-.43a7.18 7.18 0 0 1-.067-.366 2.037 2.037 0 0 0-.092-.062.324.324 0 0 1-.099-.105 1.612 1.612 0 0 1-.133-.35c-.008-.051 0-.092.024-.124a.74.74 0 0 1 .113-.117 244.383 244.383 0 0 1-.545-3.044 18.658 18.658 0 0 1-.089-.633 12.87 12.87 0 0 0-.05-.386c-.042.014-.167.052-.376.113-.21.063-.376.118-.5.167-.438.178-.77.335-.993.468a6.63 6.63 0 0 0-.638.435 1.084 1.084 0 0 1-.171.131.452.452 0 0 1-.17.065c-.058.009-.111-.011-.162-.057a.31.31 0 0 1-.096-.188c-.021-.136.183-.328.61-.577a9.415 9.415 0 0 1 1.415-.672c.289-.111.661-.227 1.117-.346.455-.119.882-.21 1.281-.273.684-.107 1.277-.124 1.782-.05.504.073.9.227 1.188.458.289.232.46.522.516.871.07.448.003.854-.203 1.215-.206.36-.503.691-.889.993-.387.302-.92.659-1.6 1.072a9.393 9.393 0 0 1-.513.322c-.171.101-.285.168-.345.208a.422.422 0 0 0 .025.094c.797.051 1.585.127 2.368.229l.234.03a42.44 42.44 0 0 1 1.807.278c.39.074.593.153.606.239.017.085-.002.194-.054.327Zm-2.381-5.526c-.237-.167-.574-.28-1.011-.339-.436-.059-.95-.042-1.54.051a9.182 9.182 0 0 0-.83.153 10.537 10.537 0 0 0 .099.915l.313 1.701.251 1.317c.063-.017.184-.07.362-.16a4.94 4.94 0 0 0 .448-.252c.847-.505 1.465-.976 1.852-1.413.388-.437.544-.894.469-1.371-.037-.233-.174-.435-.413-.602ZM287.655 385.637l-.353.056a.595.595 0 0 1-.392-.092c-.141-.079-.216-.151-.226-.217-.013-.078.013-.158.076-.241.064-.083.135-.131.213-.143a.632.632 0 0 1 .294.128c.066.048.143.113.228.195.086.081.131.132.134.153l.026.161Zm1.234 6.696a.33.33 0 0 1-.2.081c-.101.008-.199-.141-.295-.447-.096-.305-.237-.893-.425-1.761-.119-.571-.232-1.132-.341-1.681-.108-.548-.19-.972-.244-1.27a.326.326 0 0 1 .01-.182c.019-.044.064-.071.135-.082.164-.026.278.025.342.153.063.129.126.386.187.771l.188 1.262c.113.72.226 1.292.336 1.721.004.021.071.244.204.668.097.291.153.486.169.586a.192.192 0 0 1-.066.181ZM293.836 389.929c-.612.382-1.438.693-2.479.938.062.486.117.883.165 1.188.063.406.142.774.23 1.103.034.127.054.215.062.265a.56.56 0 0 1-.029.305.237.237 0 0 1-.194.156c-.128.021-.205-.015-.234-.105a34.642 34.642 0 0 1-.114-.556 18.628 18.628 0 0 1-.137-.762l-.225-1.497c-.035.006-.102.021-.196.041a3.683 3.683 0 0 1-.281.057c-.171.027-.275-.077-.313-.313-.027-.171.003-.263.089-.276.027-.005.117.004.267.023.148.021.272.022.372.007l-.485-3.021a20.94 20.94 0 0 0-.358.018c-.181.011-.317-.002-.407-.04a.237.237 0 0 1-.156-.193c-.029-.186-.007-.284.064-.295a.689.689 0 0 1 .302.039 1.043 1.043 0 0 0 .448.061.77.77 0 0 1 .086-.254c.032-.05.105-.082.219-.101.143-.022.218-.005.227.052a.347.347 0 0 1-.014.117.418.418 0 0 0-.008.16c.452-.006.973.046 1.563.154.59.107 1.113.278 1.569.513.457.234.712.53.768.886.076.505-.189.949-.801 1.33Zm-.295-1.946a4.606 4.606 0 0 0-1.327-.403 9.384 9.384 0 0 0-1.439-.126c.079.411.176.957.29 1.636.114.679.188 1.129.224 1.349a6.27 6.27 0 0 0 1.342-.38c.467-.188.852-.401 1.152-.641.302-.242.435-.476.398-.704-.046-.299-.26-.542-.64-.731ZM283.783 399.452c-.018.146-.052.222-.101.229-.05.008-.091-.01-.124-.052a1.01 1.01 0 0 1-.098-.177 1.609 1.609 0 0 0-.455-.557c-.187-.143-.372-.2-.558-.171-.498.079-.804.472-.915 1.18-.11.706-.095 1.513.048 2.416.211-.048.445-.119.704-.214.259-.096.43-.157.514-.186.488-.187.814-.292.979-.318.142-.021.224.031.243.159a.89.89 0 0 1-.014.33c-.024.121-.079.188-.165.201a.566.566 0 0 1-.22-.009 1.088 1.088 0 0 0-.417 0c-.113.019-.343.091-.688.217l-.835.264c.028.178.128.67.298 1.474.269 1.242.462 2.237.58 2.985a.69.69 0 0 1 .002.29c-.021.058-.073.094-.158.106-.101.017-.184-.029-.251-.135a.971.971 0 0 1-.136-.373c-.129-.819-.385-2.096-.768-3.831l-.075-.338c-.056.016-.234.076-.535.182a3.97 3.97 0 0 1-.664.192.35.35 0 0 1-.206-.021.178.178 0 0 1-.105-.147c-.028-.179.021-.281.148-.309.184-.037.405-.087.665-.154a6.38 6.38 0 0 0 .597-.176c-.184-1.168-.175-2.141.027-2.921.202-.779.616-1.22 1.242-1.318.229-.035.449-.013.663.071.214.084.393.198.535.343.144.146.226.285.247.421.015.087.012.202-.004.347ZM284.77 399.226l-.353.056a.601.601 0 0 1-.392-.092c-.141-.08-.216-.152-.226-.217-.013-.078.013-.158.076-.241a.342.342 0 0 1 .213-.144c.113.019.21.062.295.129.065.048.142.113.227.194.086.082.131.133.134.154l.026.161Zm1.235 6.695a.324.324 0 0 1-.201.081c-.102.009-.199-.141-.295-.446-.096-.305-.237-.894-.425-1.762a148.34 148.34 0 0 1-.585-2.951.327.327 0 0 1 .01-.182c.019-.043.063-.07.135-.081.164-.026.278.025.342.153.064.129.126.386.187.77l.188 1.263c.113.72.227 1.292.337 1.721.004.021.071.244.204.668a4.6 4.6 0 0 1 .168.586.19.19 0 0 1-.065.18ZM291.844 404.258c.059.045.091.085.097.121a.569.569 0 0 1-.061.312c-.054.121-.115.188-.187.198-.121.02-.227-.041-.314-.181a1.338 1.338 0 0 1-.177-.508 91.29 91.29 0 0 1-.211-1.543l-.054-.408c-.026-.163-.086-.273-.183-.331a23.223 23.223 0 0 1-.677 1.55 5.76 5.76 0 0 1-.879 1.295c-.372.419-.792.666-1.263.74-.228.035-.416-.008-.564-.131a.821.821 0 0 1-.272-.526c-.045-.284.02-.694.199-1.229a9.818 9.818 0 0 1 .745-1.661 8.04 8.04 0 0 1 1-1.443c.229-.256.416-.433.561-.531.146-.1.278-.159.398-.178a.695.695 0 0 1 .37.051.968.968 0 0 1 .356.25.782.782 0 0 1 .198.418c.034.222.008.44-.082.658l.173-.081c.078-.013.14.076.185.267.025.113.069.343.135.689l.163.861.129.681c.042.22.076.393.104.52a.336.336 0 0 0 .111.14Zm-2.805.042c.312-.34.577-.731.797-1.171.219-.438.453-.974.704-1.604.052-.228.059-.465.02-.715a.617.617 0 0 0-.196-.369.44.44 0 0 0-.384-.108c-.178.028-.387.185-.627.47a7.641 7.641 0 0 0-.844 1.245 9.212 9.212 0 0 0-.676 1.479c-.165.479-.227.847-.187 1.104.034.214.15.305.35.273.383-.062.731-.263 1.043-.604ZM298.769 397.203a.243.243 0 0 1-.179.12 1.239 1.239 0 0 1-.229-.024 1.154 1.154 0 0 0-.356-.004 15.49 15.49 0 0 0-1.155.236 8.314 8.314 0 0 0-1.056.319c.075.34.18.875.313 1.609s.265 1.508.393 2.319c.054.341.108.723.164 1.146.056.421.08.685.074.787a.287.287 0 0 1-.113.214.48.48 0 0 1-.239.115.162.162 0 0 1-.139-.045.233.233 0 0 1-.077-.141l-.048-.375a27.82 27.82 0 0 0-.259-2.062c-.092-.583-.204-1.249-.337-1.999a33.547 33.547 0 0 0-.262-1.387c-1.399.381-2.327.677-2.783.887a.924.924 0 0 1-.282.088.614.614 0 0 1-.395-.08c-.136-.073-.212-.163-.229-.271-.011-.07.003-.126.04-.164a.27.27 0 0 1 .153-.074c.401-.085.74-.16 1.015-.225a70.673 70.673 0 0 0 2.351-.645 4.696 4.696 0 0 1-.058-.472c-.004-.095.012-.145.047-.15a.505.505 0 0 1 .389.104c.024.018.051.069.08.156.027.088.044.146.049.174.155-.032.406-.108.752-.229.75-.241 1.268-.386 1.553-.431.341-.054.576-.047.703.021.087.044.144.142.167.291a.3.3 0 0 1-.047.192Z" style="fill-rule:nonzero;stroke:#000;stroke-width:1px;stroke-linecap:butt;stroke-linejoin:miter"/><path d="m154.99 456.667 8.528 52.449s1.897 7.025 9.005 9.834c7.109 2.808 30.323 3.278 35.537-.469 5.212-3.746 7.109-12.643 7.109-12.643l5.685-49.171M86.757 436.997s-12.321 14.049-11.847 32.314c.474 18.264 8.056 27.628 8.056 27.628s-2.371 12.177 5.212 14.987c7.582 2.81 26.537 4.683 32.222-4.681l2.371-37.933" style="fill:#754c29;fill-rule:nonzero"/><path d="M217.111 488.696s-1.221 26.531-9.05 29.785c-7.829 3.254-37.041 3.575-42.234-4.444-5.194-8.02-3.779-16.365-3.779-16.365s8.915-5.719 14.815-6.089c5.862-.369 17.814 1.67 23.37 1.603 7.921-.093 16.878-4.49 16.878-4.49ZM120.814 498.495s1.843 9.447-4.649 13.296c-6.492 3.85-30.511 1.604-31.81-2.566-1.298-4.17-1.623-11.227-1.623-11.227s6.492-5.453 19.476-5.453c12.983 0 18.606 5.95 18.606 5.95Z" style="fill:#fff4d7;fill-rule:nonzero"/><path d="m154.99 456.667 8.528 52.449s1.897 7.025 9.005 9.834c7.109 2.808 30.323 3.278 35.537-.469 5.212-3.746 7.109-12.643 7.109-12.643l5.685-49.171M86.757 436.997s-12.321 14.049-11.847 32.314c.474 18.264 8.056 27.628 8.056 27.628s-2.371 12.177 5.212 14.987c7.582 2.81 26.537 4.683 32.222-4.681l2.371-37.933" style="fill:none;fill-rule:nonzero;stroke:#451a0f;stroke-width:4px"/><path d="m217.798 202.389-61.91-87.009s-8.686-11.432-20.252-1.95c-11.566 9.482-4.126 16.878-4.126 16.878l58.498 78.648s-6.946 8.453-13.985 4.997l-83.026-100.6s-7.412-12.732-20.796 3.659c-8.772 10.745-.537 16.515-.537 16.515l77.867 95.729" style="fill:#754c29;fill-rule:nonzero"/><path d="M325.191 343.026s19.766-22.404 16.585-49.641c-4.265-36.531-26.063-52.45-26.063-52.45s8.452-76.914-24.167-82.889c-12.794-2.344-45.492 45.891-45.492 45.891s-21.147-3.872-43.596.468c-21.798 4.215-38.383 17.796-38.383 17.796s-55.997-27.844-63.972-14.986c-18.007 29.034 20.85 80.082 20.85 80.082s-8.629 31.899 12.32 69.779c3.237 5.852 23.817 23.47 47.296 15.478 16.012-5.45 42.289 1.312 47.381 3.501 5.092 2.189 21.698 5.908 36.754-4.157 15.055-10.065 46.359-13.764 60.487-28.872Z" style="fill:#fff4d7;fill-rule:nonzero"/><path d="M207.198 289.169s-11.373-4.215-29.38 1.404M256.48 278.866s11.372-10.77 25.115-11.707" style="fill:none;fill-rule:nonzero;stroke:#451a0f;stroke-width:3px"/><path d="M200.121 273.653c5.073.541 9.494-1.835 9.872-5.306.379-3.471-3.427-6.723-8.501-7.264-5.073-.54-9.493 1.835-9.872 5.306-.379 3.472 3.427 6.724 8.501 7.264ZM257.641 260.142c4.253-2.519 6.137-7.141 4.207-10.323-1.93-3.183-6.942-3.721-11.196-1.203-4.253 2.519-6.137 7.141-4.207 10.324 1.93 3.182 6.943 3.721 11.196 1.202Z" style="fill:#754c29;fill-rule:nonzero"/><path d="M229.943 376.742s16.585 6.555 32.698-3.747" style="fill:none;fill-rule:nonzero;stroke:#451a0f;stroke-width:4px"/><path d="M222.362 338.808s3.416 10.617 23.318 4.999c19.903-5.617 16.013-16.235 16.013-16.235s-20.85 5.619-21.324-7.961c0-.002 5.686 14.981-18.007 19.197Z" style="fill:#f27070;fill-rule:nonzero;stroke:#451a0f;stroke-width:4px"/><path d="M219.992 300.876c-4.092 4.55 11.374 21.074 20.377 18.733 9.004-2.343 16.583-16.39 13.741-22.48-2.842-6.089-13.74-3.279-18.954-2.81-5.214.47-11.374 2.343-15.164 6.557Z" style="fill:#451a0f;fill-rule:nonzero"/><path d="m220.861 339.043 7.054 10.158 1.137-9.273s2.226 2.071 3.98 1.685c3.54-.779 2.843-4.214 2.843-4.214s1.137 3.09 4.549 1.966c3.413-1.124 2.854-5.28 2.854-5.28s1.148 3.834 4.538 2.752c3.378-1.079 2.11-4.125 2.11-4.125s2.137 2.808 4.471 2.21c2.967-.761 2.78-4.12 2.78-4.12l6.149 8.667.284-10.959-10.959 1.023-10.881-2.672-7.031 7.728-12.376 4.218-1.502.236Z" style="fill:#fff200;fill-rule:nonzero;stroke:#fff200;stroke-width:1px"/><path d="M201.986 327.103s6.633 11.708 18.006 11.24c11.374-.469 22.747-6.556 20.377-18.734 0 0 .883 14.456 21.324 7.962 13.268-4.216 9.476-22.948 9.476-22.948" style="fill:none;fill-rule:nonzero;stroke:#451a0f;stroke-width:4px"/><path d="m261.817 328.108.539 2.446 2.52.249-2.186 1.264.539 2.445-1.891-1.666-2.187 1.263 1.017-2.292-1.89-1.665 2.52.248 1.019-2.292Z" style="fill:#fff;fill-rule:nonzero"/><path d="m236.884 252.869.054.018.007.027c-.632.596-1.266 1.192-1.896 1.791l-5.72 5.434-1.312 1.246c-.029.028-.054.077-.11.065-.07-.027-.086-.09-.101-.151-.034-.127-.064-.254-.095-.381l-2.337-9.813c-.03-.123-.062-.245-.071-.372.042-.142.075-.161.213-.136.849.151 1.694.327 2.54.488.865.165 1.729.335 2.591.509.72.143 1.439.288 2.161.427.492.095.983.2 1.478.286.3.053.6.117.898.178.46.095.922.18 1.382.274.11.02.218.055.318.11Z"/><path d="M225.342 250.684c.05.091.045.194.067.289.796 3.333 1.591 6.668 2.384 10.001.038.158.074.316.11.474-.22-.035-.428-.121-.641-.186-2.705-.833-5.408-1.67-8.111-2.504l-3.019-.935a1.811 1.811 0 0 0-.145-.037l-.005-.026a.884.884 0 0 1 .044-.041c.126-.2.331-.314.511-.452.552-.415 1.098-.839 1.648-1.256.478-.363.953-.73 1.431-1.094.691-.526 1.377-1.057 2.071-1.581.827-.625 1.646-1.261 2.472-1.886.318-.241.642-.479.949-.734.058-.05.123-.135.226-.071.013.013.015.026.008.039ZM228.404 263.42l5.415-5.137c1.112-1.056 2.225-2.113 3.339-3.168.047-.043.101-.138.156-.102.056.037-.016.119-.039.178l-3.733 9.092-3.08 7.486c-.015.037-.01.095-.074.097-.097-.104-.127-.235-.158-.365l-1.128-4.735c-.244-1.024-.49-2.049-.73-3.074-.021-.09-.078-.193.032-.272Z" style="fill-opacity:.8"/><path d="M228.404 263.42c-.017.078.013.151.03.224.64 2.688 1.279 5.375 1.92 8.062.013.053.023.105.034.159-.223-.142-.406-.335-.604-.507a964.448 964.448 0 0 1-3.073-2.677l-2.844-2.483-4.142-3.61-3.124-2.724a.422.422 0 0 1-.057-.055c.031-.045.062-.015.087-.007l3.348 1.032c1.329.41 2.659.818 3.989 1.23 1.416.437 2.833.877 4.248 1.316a.555.555 0 0 0 .188.04Z" style="fill-opacity:.4"/><path d="m225.342 250.684-.012-.033c-.051-.021-.074-.065-.088-.112-.019-.057-.032-.114-.046-.171l-2.799-11.748c-.033-.135-.065-.269-.023-.409a.061.061 0 0 1 .02-.009c.298.262.562.553.839.834 1.268 1.278 2.533 2.56 3.798 3.842 1.179 1.193 2.355 2.389 3.534 3.583l6.237 6.317c.029.029.055.061.081.091-.416-.039-.816-.149-1.223-.225-.689-.129-1.381-.251-2.067-.397-.494-.106-.992-.194-1.488-.295-.866-.176-1.734-.344-2.6-.515-.862-.168-1.725-.339-2.586-.505-.475-.093-.949-.181-1.423-.274-.056-.01-.108-.014-.154.026Z" style="fill-opacity:.8"/><path d="m222.374 238.211 2.911 12.217c.018.074.03.151.046.224-.356.269-.712.536-1.065.807l-2.906 2.217-3.456 2.644-1.757 1.339c-.036.027-.071.058-.119.063.065-.314.182-.615.28-.917.975-3.011 1.954-6.018 2.932-9.027l1.056-3.249c.475-1.461.949-2.923 1.425-4.383.196-.602.392-1.203.59-1.804.013-.046.014-.101.063-.131Z" style="fill-opacity:.4"/><path d="M173.118 311.49c-1.62-.513-4.243.459-4.243.459l.871 3.938s3.408-.607 4.15-1.559c.741-.952.842-2.325-.778-2.838Z"/><path d="M165.032 299.374c-6.459 2.479-9.662 9.66-7.154 16.045 2.508 6.383 9.777 9.547 16.236 7.07 6.459-2.478 9.662-9.662 7.154-16.045-2.509-6.384-9.778-9.548-16.236-7.07Zm13.248 13.305c.366 3.598-4.709 4.779-4.709 4.779l.591 2.876-1.811.461-.76-2.878-1.319.339.573 2.918-1.828.333-.731-2.891-3.644.697-.106-2.161s.534-.105 1.249-.347c.715-.242.501-.959.501-.959l-1.701-7.424s-.306-.951-.585-1.144c-.278-.194-2.124.181-2.124.181l-.373-1.894 3.564-.9-.561-2.889 1.841-.472.696 2.804 1.295-.231-.551-2.86 1.816-.363.708 2.832s4.433-.666 5.33 2.394c.528 1.799-.832 3.123-.832 3.123s3.092-.041 3.471 3.676Z"/><path d="M172.039 308.4c.554-1.081-.18-2.435-1.367-2.447-1.187-.012-3.068.443-3.068.443l.817 3.625s3.064-.542 3.618-1.621Z"/><path d="m341.028 287.627 30.75-1.692s9.74.639 9.082-9.235c-.814-12.202-14.362-9.659-14.362-9.659l-32.373.049s-5.861-11.972-12.282-19.857l84.291-50.064s6.181-4.546.388-12.526c-8.328-11.469-22.072-3.34-22.072-3.34l-76.863 40.996" style="fill:#754c29;fill-rule:nonzero"/><path d="m341.028 287.627 30.75-1.692s9.74.639 9.082-9.235c-.814-12.202-14.362-9.659-14.362-9.659l-32.373.049s-5.861-11.972-12.282-19.857l84.291-50.064s6.181-4.546.388-12.526c-8.328-11.469-22.072-3.34-22.072-3.34l-76.863 40.996" style="fill:none;fill-rule:nonzero;stroke:#451a0f;stroke-width:4px"/><path d="m378.891 213.349 27.243-16.181s6.181-4.546.388-12.526c-8.328-11.47-22.072-3.34-22.072-3.34l-19.919 10.624" style="fill:#fff4d7;fill-rule:nonzero"/><path d="m378.891 213.349 27.243-16.181s6.181-4.546.388-12.526c-8.328-11.47-22.072-3.34-22.072-3.34l-19.919 10.624" style="fill:none;fill-rule:nonzero;stroke:#451a0f;stroke-width:4px"/><path d="M371.778 285.934s9.741.639 9.082-9.234c-.814-12.202-14.362-9.659-14.362-9.659" style="fill:#fff4d7;fill-rule:nonzero"/><path d="M371.778 285.934s9.741.639 9.082-9.234c-.814-12.202-14.362-9.659-14.362-9.659" style="fill:none;fill-rule:nonzero;stroke:#451a0f;stroke-width:4px"/><path d="m115.94 141.157-22.944-27.801s-7.412-12.732-20.796 3.659c-8.773 10.745-.537 16.515-.537 16.515l24.304 29.879M174.194 141.112l-18.308-25.732s-8.685-11.432-20.251-1.95c-11.566 9.482-4.126 16.878-4.126 16.878l18.409 24.75" style="fill:#fff4d7;fill-rule:nonzero"/><path d="m120 286.241-99.867-37.76s-12.649-7.191-16.044 5.56c-3.395 12.75 7.969 17.881 7.969 17.881l107.82 47.068" style="fill:#754c29;fill-rule:nonzero"/><path d="m46.47 258.439-26.337-9.958s-12.649-7.191-16.044 5.56c-3.395 12.75 7.969 17.881 7.969 17.881l30.317 13.234" style="fill:#fff4d7;fill-rule:nonzero"/><path d="M339.881 281.676c-1.896-21.075-24.168-40.742-24.168-40.742s9.952-73.056-24.167-82.889c-13.472-3.883-45.492 45.891-45.492 45.891s-1.068-.084-2.891-.201l2.465-3.924-10.458-.883-.435 4.117c-5.896-.255-12.559-.155-19.515.096l-3.589-4.729-22.268 5.135 1.285 4.437c-6.097 2.474-9.761 4.647-14.996 7.476l-4.758-3.551-9.055 6.05 3.816 3.243c-1.505.879-1.579.997-1.579.997s-53.703-26.825-63.972-14.985c-19.902 22.948 20.85 80.082 20.85 80.082a46.8 46.8 0 0 0-.31 1.968l-4.949-1.71-.343 26.601 4.509 4.85c.704 8.293 2.514 12.311 2.514 12.311s.305-.6.924-1.495c-.471.157-.867 0-1.157-.571l1.818-.323a20.927 20.927 0 0 1 2.614-2.784c3.444-5.478 7.416-15.039 7.416-15.039s-5.925-24.587 13.146-28.616l1.073-13.982s37.245-28.009 81.231-31.028c43.986-3.016 70 6.172 70 6.172s23.082 22.804 28.836 38.184c2.249 6.01 4.457 8.655 6.315 9.658l2.336-.415c4.476-4.846 2.954-9.401 2.954-9.401Z" style="fill:#754c29;fill-rule:nonzero"/><path d="M127.115 275.119s-22.746-40.275-14.216-52.918c8.531-12.644 39.331 13.113 39.331 13.113s-18.956 17.797-25.115 39.805ZM262.167 211.898s18.48-35.122 28.906-31.843c10.426 3.278 13.269 51.98 13.269 51.98s-23.222-18.73-42.175-20.137Z" style="fill:#fff4d7;fill-rule:nonzero"/><path d="M233.059 202.238 216.003 92.951s-1.826-13.641 13.557-15.739c15.383-2.098 20.157 12.056 20.157 12.056l26.521 130.527" style="fill:#754c29;fill-rule:nonzero"/><path d="m223.071 138.237-7.068-45.286s-1.826-13.641 13.557-15.739c15.383-2.098 20.157 12.056 20.157 12.056l9.565 47.078" style="fill:#fff4d7;fill-rule:nonzero"/><path d="M276.238 219.796 249.717 89.269s-4.774-14.153-20.157-12.056c-15.383 2.098-13.557 15.738-13.557 15.738l17.056 109.287s-5.376-1.602-15.261.152l-62.636-88.222s-7.816-8.882-19.527-.738c-11.711 8.144-4.126 16.878-4.126 16.878l57.257 77.31c-1.173.386-12.745 6.335-12.745 6.335l-81.816-99.399s-7.034-12.744-19.538-.386c-12.504 12.357-3.003 19.359-3.003 19.359l60.443 74.865" style="fill:none;fill-rule:nonzero;stroke:#451a0f;stroke-width:4px"/><path d="M164.076 222.199s-52.21-26.589-63.972-14.985c-11.761 11.604-4.369 47 20.85 80.082L20.133 248.481s-15.411-6.879-16.974 7.408c-1.563 14.288 8.899 16.033 8.899 16.033l107.82 47.068s4.414 55.065 50.132 56.61M267.437 176.072s17.063-19.811 26.44-18.268c9.378 1.544 28.432 24.538 21.836 83.13 0 0 26.227 26.925 26.618 60.908.39 33.983-27.744 51.746-39.857 54.063" style="fill:none;fill-rule:nonzero;stroke:#451a0f;stroke-width:4px"/><path d="M159.687 268.839c-.049.47-.217 1.061-.502 1.771-.171.43-.359.849-.564 1.257a5.624 5.624 0 0 1-.558.932.283.283 0 0 1-.005.16c-.017.042-.054.08-.116.111-.046.023-.083.032-.112.023-.029-.008-.056-.034-.079-.08a8.16 8.16 0 0 1-.157-.398 9.124 9.124 0 0 0-.361-.802 41.403 41.403 0 0 0-.718-1.367c-.25-.472-.424-.805-.521-.997-.15-.298-.245-.561-.28-.785-.016-.145.034-.247.151-.305a.281.281 0 0 1 .122-.032c.041-.002.069.014.084.042.008.028.026.131.055.306.028.177.077.334.146.471.193.382.409.793.652 1.238.302.574.51.972.623 1.195.191.382.304.609.337.69.148-.164.32-.436.52-.817.2-.379.36-.715.482-1.006.241-.618.384-1.135.429-1.552a2.015 2.015 0 0 0-.19-1.136c-.207-.412-.607-.563-1.2-.456-.591.107-1.304.371-2.136.791a8.238 8.238 0 0 0-.974.604 2.302 2.302 0 0 0-.343.267.664.664 0 0 1-.14.119c-.042.021-.097.007-.168-.039a.44.44 0 0 1-.158-.17c-.012-.026-.006-.058.018-.099a.468.468 0 0 1 .143-.133c.283-.195.528-.355.734-.487.206-.127.453-.265.743-.41.924-.467 1.728-.741 2.415-.826.686-.085 1.155.121 1.405.62.197.397.272.831.223 1.3ZM163.272 264.169a3.879 3.879 0 0 1-.52.567 9.067 9.067 0 0 1-.628.546c-.266.205-.54.397-.819.581a21.31 21.31 0 0 1-.546.347 60.111 60.111 0 0 0 .828 1.528c.185-.125.458-.322.818-.592l.265-.192c.292-.218.488-.441.586-.678.056-.116.103-.186.143-.206.036-.017.075-.012.117.014.042.028.073.06.094.101.045.092-.007.245-.157.457-.15.212-.337.406-.561.583-.185.15-.397.312-.636.481-.238.172-.395.285-.471.334.467.853.882 1.454 1.24 1.801.173-.025.337-.061.49-.108.154-.049.342-.129.565-.242.224-.113.422-.249.596-.411.174-.16.301-.317.382-.464.081-.148.102-.263.064-.337a.347.347 0 0 0-.082-.107.845.845 0 0 0-.122-.086l-.085-.048c-.039-.023-.064-.042-.075-.063-.025-.051.017-.104.129-.16a.297.297 0 0 1 .262-.004c.094.039.16.101.2.182.082.162.09.357.025.587-.066.23-.2.46-.401.683a2.485 2.485 0 0 1-.758.57 5.47 5.47 0 0 1-.787.335c-.214.065-.396.077-.546.031-.191-.075-.397-.271-.616-.587-.219-.315-.49-.749-.812-1.299-.083.075-.181.15-.292.227-.11.078-.196.132-.257.164a.227.227 0 0 1-.177.018.21.21 0 0 1-.129-.112.222.222 0 0 1-.027-.102c0-.031.012-.056.035-.075.157-.104.272-.177.346-.222l.309-.202c-.351-.645-.639-1.168-.867-1.569a1.456 1.456 0 0 0-.178.101l-.348.184a.151.151 0 0 1-.126.015.135.135 0 0 1-.081-.063c-.06-.123-.021-.245.122-.368.056-.041.127-.09.215-.151.088-.06.147-.097.177-.113a.477.477 0 0 1 .238-.321c.021-.01.046-.002.074.025a.228.228 0 0 1 .056.063c.328-.186.707-.424 1.138-.717.283-.196.705-.527 1.263-1l.251-.201c.051-.027.092-.01.122.051.034.058.018.134-.046.224ZM168.415 266.575c.037.194.059.376.064.546.005.168-.021.266-.075.294-.087.044-.381-.093-.881-.41a9.726 9.726 0 0 1-1.198-.872c-.009.321-.005.664.011 1.025.017.361.045.582.086.664a.126.126 0 0 0 .053.048.12.12 0 0 0 .081.027.262.262 0 0 0 .059.003c.033 0 .053.01.063.033.013.024.013.072-.001.138a2.735 2.735 0 0 0-.024.131 1.815 1.815 0 0 1-.019.097 1.237 1.237 0 0 0-.019.133c-.005.041-.014.136-.027.286-.013.15-.035.233-.065.249a.2.2 0 0 1-.181.004.327.327 0 0 1-.145-.156c-.087-.172-.158-.577-.209-1.212a24.758 24.758 0 0 1-.089-1.789 54.233 54.233 0 0 0-1.625-1.311l-.332-.242a9.488 9.488 0 0 1-.313-.225.663.663 0 0 1-.158-.141c-.036-.07-.027-.12.024-.145.045-.023.147-.005.306.051.159.056.327.148.506.276.196.136.466.335.808.599.344.264.612.48.805.65.03-1.27.054-1.968.071-2.099a.987.987 0 0 1 .083-.308c.034-.061.116-.126.248-.192a.556.556 0 0 1 .167-.056c.051-.005.082 0 .093.021.012.027-.007.102-.057.229-.064.166-.1.29-.11.37-.02.112-.04.372-.059.776-.019.403-.032.783-.039 1.135l-.014.39c.418.335.813.624 1.185.863.373.24.593.341.665.307.03-.015.046-.049.046-.097a1.691 1.691 0 0 0-.021-.252c-.002-.029-.012-.082-.025-.155-.014-.071-.009-.114.017-.127.036-.017.063-.022.083-.015.019.006.042.034.067.085.024.055.058.18.095.374ZM174.905 263.692a.423.423 0 0 1-.175.173l-1.26.759-.868.533-.453.276c-.041.02-.089.014-.148-.021a.295.295 0 0 1-.123-.119c-.018-.036-.021-.068-.006-.097a.271.271 0 0 1 .056-.079.367.367 0 0 0 .048-.046c-.133-.278-.453-.919-.959-1.923-.375-.741-.693-1.301-.957-1.681a14.485 14.485 0 0 1-.419-.614.22.22 0 0 1-.005-.208.305.305 0 0 1 .133-.145.107.107 0 0 1 .104 0 .4.4 0 0 1 .113.111c.137.146.337.444.597.892.261.449.519.924.771 1.426.215.426.412.824.591 1.191.181.368.301.615.365.743l.368-.218.558-.333c.275-.184.582-.405.917-.662.271-.208.438-.326.499-.357.057-.026.104-.021.146.024a.644.644 0 0 1 .114.17.214.214 0 0 1-.007.205ZM177.657 256.977c-.076.092-.199.2-.369.33-.188.147-.432.319-.732.518a13.75 13.75 0 0 1-.741.463c.096.227.392.867.892 1.92.499 1.054.871 1.83 1.117 2.329.271-.143.623-.342 1.054-.597.366-.21.572-.326.618-.349a.557.557 0 0 1 .277-.064.227.227 0 0 1 .206.136c.037.072.05.128.042.168-.007.043-.048.083-.125.123-.03.015-.118.047-.262.104a1.371 1.371 0 0 0-.274.099c-.239.121-.709.376-1.41.768a.313.313 0 0 1-.047.125.219.219 0 0 1-.074.07.233.233 0 0 1-.104.022.094.094 0 0 1-.088-.041l-.323.211c-.371.25-.652.424-.846.521-.167.085-.312.113-.434.085-.066-.017-.126-.08-.181-.187-.015-.029-.018-.075-.008-.138.01-.063.034-.102.069-.121a.83.83 0 0 1 .14-.017.54.54 0 0 0 .214-.055c.189-.095.459-.245.815-.449l.338-.199-.518-1.144a17.757 17.757 0 0 1-.145-.323 6.09 6.09 0 0 0-.112-.244l-1.179-2.527c-.51.301-.752.445-.727.432-.498.301-.792.477-.884.522a.459.459 0 0 1-.286.038.285.285 0 0 1-.221-.155.232.232 0 0 1-.024-.171.206.206 0 0 1 .107-.121c.04-.019.082-.037.125-.053.043-.015.086-.03.13-.048.139-.036.268-.084.385-.145.111-.056.32-.171.625-.349.306-.176.51-.295.615-.353a.283.283 0 0 1-.014-.199.236.236 0 0 1 .126-.145c.032-.015.066-.009.107.022.041.03.074.071.1.121.29-.158.787-.49 1.492-1a.619.619 0 0 0 .159-.186.633.633 0 0 1 .092-.131.243.243 0 0 1 .174-.012.216.216 0 0 1 .146.117c.052.098.039.19-.037.279ZM183.247 256.968c-.134.087-.438.322-.912.701-.471.383-.817.669-1.033.861l.359.702c.183.355.341.657.478.9.054.094.119.196.195.303.077.107.13.186.161.233.122.168.193.269.21.305a.707.707 0 0 1 .045.288c.001.136-.015.214-.051.231-.036.017-.078.017-.126-.003a.333.333 0 0 1-.126-.099c-.165-.203-.388-.555-.667-1.059a42.835 42.835 0 0 1-.776-1.444 4.718 4.718 0 0 1-.135.103c-.062.047-.118.084-.165.117a.45.45 0 0 1-.18.042c-.068.004-.111-.015-.129-.05-.02-.041-.021-.078-.004-.112a.52.52 0 0 1 .071-.099l.063-.065c.145-.168.242-.275.292-.328l-.916-1.667a6.723 6.723 0 0 1-.785.509c-.198.1-.36.121-.483.063a.517.517 0 0 1-.242-.213c-.023-.046 0-.085.066-.117.009-.005.077-.019.205-.038.127-.02.232-.051.312-.092.163-.082.409-.237.739-.466l-.051-.123a.38.38 0 0 1-.025-.221.327.327 0 0 1 .021-.126.135.135 0 0 1 .058-.058c.096-.048.199.036.307.249a18.958 18.958 0 0 1 1.236-.9c.305-.204.576-.366.815-.487.193-.097.308-.109.347-.032.03.062.048.15.054.269.005.118-.021.191-.075.22-.021.01-.047.01-.079-.003a.191.191 0 0 0-.067-.019.567.567 0 0 0-.213.07c-.157.08-.455.269-.891.572a17.7 17.7 0 0 0-.932.679l.886 1.625c.239-.208.611-.516 1.117-.926.508-.409.81-.637.907-.685.04-.022.072-.029.093-.024.022.005.042.027.063.068.079.161.066.274-.037.346ZM186.848 252.291c-.1.145-.272.333-.521.567-.25.233-.458.415-.628.546-.265.203-.54.397-.82.579-.281.184-.462.298-.546.347.154.292.314.591.48.899l.348.631c.185-.125.458-.323.818-.594l.266-.191c.292-.218.487-.442.585-.678.056-.117.104-.185.144-.206.036-.019.075-.014.117.014a.25.25 0 0 1 .094.1c.046.09-.006.244-.157.457a2.747 2.747 0 0 1-.561.582c-.185.149-.396.313-.635.483-.238.17-.396.282-.471.332.467.853.881 1.454 1.241 1.801.172-.024.336-.06.489-.109.154-.047.342-.127.565-.242.224-.112.423-.249.597-.409a1.95 1.95 0 0 0 .382-.466c.082-.146.102-.26.063-.337a.312.312 0 0 0-.081-.105.78.78 0 0 0-.122-.088 1.64 1.64 0 0 1-.085-.048c-.039-.021-.064-.041-.075-.062-.025-.051.018-.105.129-.161a.309.309 0 0 1 .261-.004.384.384 0 0 1 .201.182c.083.162.09.357.025.589-.065.23-.199.458-.4.685a2.517 2.517 0 0 1-.759.568c-.31.157-.572.267-.787.333-.214.066-.397.077-.547.033-.191-.075-.397-.272-.616-.587a20.26 20.26 0 0 1-.812-1.301 3.528 3.528 0 0 1-.548.393.22.22 0 0 1-.178.017.207.207 0 0 1-.127-.112.217.217 0 0 1-.028-.101.09.09 0 0 1 .036-.075c.157-.104.273-.179.345-.221l.309-.203a97.538 97.538 0 0 0-.867-1.569 1.903 1.903 0 0 0-.179.099l-.346.186a.155.155 0 0 1-.126.014.12.12 0 0 1-.08-.063c-.061-.121-.021-.244.121-.366.056-.041.127-.092.215-.153.087-.058.147-.096.177-.113a.475.475 0 0 1 .239-.32c.02-.01.045-.002.075.024.03.027.048.048.055.063.328-.184.708-.422 1.138-.716.284-.195.705-.528 1.263-1l.25-.203c.052-.026.093-.008.124.053.029.06.013.135-.05.226Z" style="fill-rule:nonzero;stroke:#000;stroke-width:1px;stroke-linecap:butt;stroke-linejoin:miter"/><path d="M266.643 243.379c-.185-.012-.626-.005-1.328.022-.698.025-1.214.055-1.545.08-.025.143-.077.442-.153.897a31.32 31.32 0 0 0-.18 1.163 4.405 4.405 0 0 0-.028.414c-.004.153-.007.26-.012.327a4.097 4.097 0 0 1-.016.427c-.013.07-.066.17-.158.296-.092.126-.161.188-.206.179-.045-.008-.083-.039-.114-.09a.37.37 0 0 1-.049-.177c-.012-.303.026-.783.114-1.438.109-.801.202-1.423.28-1.869l-.195.001c-.089 0-.167-.001-.233-.007a.495.495 0 0 1-.195-.083c-.065-.045-.094-.09-.086-.135.009-.052.033-.088.073-.107a.432.432 0 0 1 .132-.041l.104-.019c.25-.054.415-.09.498-.102l.302-2.172c-.492-.007-.851-.031-1.076-.07-.251-.044-.416-.136-.49-.277a.592.592 0 0 1-.076-.361c.01-.059.056-.08.141-.066.012.003.084.039.214.108.133.07.25.113.353.131.206.036.541.063 1.004.078.002-.014.014-.063.037-.148a.455.455 0 0 1 .127-.223.428.428 0 0 1 .109-.101.144.144 0 0 1 .091-.014c.124.022.16.168.113.439.094-.003.305-.007.635-.008.329-.002.705.008 1.128.029.421.022.785.06 1.089.112.246.044.359.114.341.209a.763.763 0 0 1-.135.286c-.076.114-.149.163-.22.151-.025-.005-.049-.024-.071-.056a.224.224 0 0 0-.049-.065.645.645 0 0 0-.244-.082c-.201-.036-.606-.064-1.219-.087a19.14 19.14 0 0 0-1.33-.013l-.302 2.112c.364-.029.922-.058 1.672-.085.75-.027 1.186-.03 1.309-.009.052.009.086.024.103.045.016.018.02.054.011.105-.034.203-.126.3-.27.294ZM273.001 245.538a4.615 4.615 0 0 1-1.704 1.218c-.653.271-1.279.354-1.879.248a2.366 2.366 0 0 1-.95-.391 1.883 1.883 0 0 1-.641-.778c-.144-.318-.182-.677-.111-1.077.121-.684.423-1.362.908-2.033a7.967 7.967 0 0 1 1.846-1.804.543.543 0 0 1 .204-.085.715.715 0 0 1 .209.007.416.416 0 0 1 .179.082c.057.044.081.088.071.132a.276.276 0 0 1-.053.106c-.03.044-.051.071-.059.083a.706.706 0 0 0 .143.012c.056-.001.166.014.327.042.188.033.436.107.744.227.309.117.532.221.668.312.386.26.665.558.831.89.168.333.223.667.163 1.002a3.632 3.632 0 0 1-.896 1.807Zm.346-2.64c-.134-.265-.357-.507-.672-.722a1.752 1.752 0 0 0-.685-.25 4.86 4.86 0 0 0-.372-.046l-.359-.053c-.31-.054-.454-.146-.431-.275a.813.813 0 0 1 .032-.125.249.249 0 0 1 .034-.073.46.46 0 0 0-.351.058 6.55 6.55 0 0 0-1.534 1.535c-.396.571-.645 1.147-.75 1.735-.096.548-.03.972.201 1.268.23.296.585.489 1.061.572.542.095 1.102.036 1.675-.184a3.88 3.88 0 0 0 1.484-.996c.414-.446.669-.94.764-1.483.069-.374.036-.693-.097-.961ZM281.196 248.737a.41.41 0 0 1-.26.038 1.048 1.048 0 0 1-.182-.046.135.135 0 0 1-.083-.101c-.041-.107-.058-.405-.05-.896a38.51 38.51 0 0 1 .065-1.686c.18-1.918.23-2.904.154-2.958a10.4 10.4 0 0 0-.486.819 29.96 29.96 0 0 0-.809 1.59c-.344.705-.594 1.188-.754 1.448-.16.263-.288.417-.383.467a1.043 1.043 0 0 1-.211.097.404.404 0 0 1-.201.031c-.064-.012-.104-.028-.122-.048-.016-.019-.029-.074-.04-.162-.009-.1-.018-.414-.025-.938-.008-.522 0-.993.018-1.409l.015-.417c.038-.858.046-1.338.025-1.442-.143.088-.302.312-.479.669-.176.359-.396.87-.66 1.536-.231.512-.549 1.354-.955 2.527-.019.07-.08.126-.179.168a.49.49 0 0 1-.258.045c-.104-.019-.144-.129-.122-.332.029-.201.063-.642.098-1.319.038-.679.068-1.277.093-1.793.035-.731.03-1.418-.016-2.059-.012-.201-.015-.313-.012-.341.018-.097.079-.167.183-.212a.566.566 0 0 1 .322-.038c.052.008.071.22.06.63-.013.41-.041.924-.084 1.542l-.026.326a52.79 52.79 0 0 0-.031.683c-.052 1.011-.093 1.641-.125 1.896.262-.727.539-1.454.833-2.181l.162-.41c.263-.659.509-1.149.739-1.473.23-.322.478-.459.741-.412.085.014.14.249.167.702.027.454.017.977-.027 1.567a16.88 16.88 0 0 0-.039 1.241c.001.407.019.693.048.858a75.324 75.324 0 0 0 .887-1.691 28.957 28.957 0 0 1 1.518-2.718 1.08 1.08 0 0 1 .243-.261c.072-.051.185-.063.338-.036.086.015.111.398.078 1.151-.031.754-.103 1.62-.209 2.601-.067 1.398-.041 2.172.08 2.32.082.101.117.199.099.296-.007.045-.052.088-.138.131ZM287.756 248.141c-.482.54-1.05.947-1.702 1.216-.653.272-1.279.354-1.88.248a2.349 2.349 0 0 1-.95-.391 1.861 1.861 0 0 1-.64-.777c-.145-.32-.183-.679-.111-1.079.12-.685.424-1.36.908-2.031a7.955 7.955 0 0 1 1.846-1.806.559.559 0 0 1 .203-.084.72.72 0 0 1 .21.007.423.423 0 0 1 .181.082c.056.043.078.087.069.133a.272.272 0 0 1-.052.104c-.03.046-.051.073-.06.085.041.007.087.01.142.01.057 0 .166.014.327.042.187.034.436.109.745.227.31.117.533.221.668.313.386.26.665.557.831.89.168.332.223.666.164 1.001a3.659 3.659 0 0 1-.899 1.81Zm.345-2.64c-.134-.267-.356-.507-.67-.722-.174-.118-.402-.201-.685-.252a4.629 4.629 0 0 0-.371-.044l-.361-.054c-.31-.055-.453-.146-.429-.274.006-.046.019-.087.03-.126a.258.258 0 0 1 .035-.073.477.477 0 0 0-.351.058 6.514 6.514 0 0 0-1.533 1.537c-.397.568-.646 1.147-.752 1.735-.095.548-.028.97.201 1.268.231.296.586.487 1.064.573.539.095 1.099.034 1.673-.185a3.886 3.886 0 0 0 1.483-.997c.415-.446.672-.94.768-1.481.065-.377.032-.697-.102-.963Z" style="fill-rule:nonzero;stroke:#000;stroke-width:1px"/><path d="M677.734 444.898s11.384 3.697 12.806-5.544c1.424-9.243-2.37-20.796 12.332-24.952 14.703-4.159 36.046-4.621 35.097 21.255-.948 25.876-16.127 50.367-56.914 51.29l-3.321-42.049Z" style="fill:#febc12;fill-rule:nonzero"/><path d="M465.737 417.173s-11.858 30.037 1.422 59.608c0 0-2.845 28.649 2.373 32.346 6.292 4.458 29.404 3.697 33.67-.462 4.269-4.156 4.743-21.256 4.743-21.256l-42.208-70.236Z" style="fill:#fff4d7;fill-rule:nonzero"/><path d="M465.737 417.173s-10.909 37.893 1.422 59.608v11.09s6.642 2.312 40.788-.462l-42.21-70.236Z" style="fill:#febc12;fill-rule:nonzero"/><path d="M677.734 444.898s11.384 3.697 12.806-5.544c1.424-9.243-2.37-20.796 12.332-24.952 14.703-4.159 36.046-4.621 35.097 21.255-.948 25.876-16.127 50.367-56.914 51.29l-3.321-42.049ZM465.737 417.173s-11.858 30.037 1.422 59.608c0 0-2.845 28.649 2.373 32.346 6.292 4.458 29.404 3.697 33.67-.462 4.269-4.156 4.743-21.256 4.743-21.256l-42.208-70.236Z" style="fill:none;fill-rule:nonzero;stroke:#451a0f;stroke-width:4px"/><path d="M632.676 359.415s-16.199-28.41-98.935-34.741c-82.736-6.33-93.14 20.879-93.14 20.879s-.64 30.253 2.37 45.284c3.793 18.941 12.328 30.032 16.126 39.737 5.076 12.992 26.083 51.75 47.424 66.54 11.531 7.99 44.107 8.318 44.107 8.318l51.696 3.234c15.175 2.772 43.158-1.847 43.158-1.847s23.372-.667 37.467-10.167c0 0 7.59-9.241 8.064-27.262.474-18.021-11.858-31.884-11.858-31.884s-8.061-24.029-18.023-42.05c-7.852-14.211-28.456-36.041-28.456-36.041Z" style="fill:#fff4d7;fill-rule:nonzero"/><path d="M632.677 359.415s36.045 34.655 46.481 78.089c0 0 15.178 26.8 11.858 40.202-3.321 13.4-8.064 18.944-8.064 18.944s-17.074-9.703-36.993.924c0 0-13.754-4.156-21.818-3.234-8.063.924-22.289 2.309-22.289 2.309s-9.959-6.468-17.074-5.082c-7.115 1.386-27.034 4.156-35.097-3.697 0 0-19.917-46.668 10.909-63.305 30.828-16.634 43.632-23.103 44.582-48.055-.001.001 17.07-2.308 27.505-17.095Z" style="fill:#febc12;fill-rule:nonzero"/><path d="M440.601 345.552s-.64 30.254 2.37 45.284c3.793 18.942 12.328 30.032 16.126 39.738 5.076 12.992 26.083 51.75 47.424 66.539 11.531 7.991 44.107 8.318 44.107 8.318 5.944.449 51.696 3.235 51.696 3.235 15.175 2.772 43.158-1.847 43.158-1.847s33.866-3.665 37.467-10.168c0 0 7.59-9.241 8.064-27.261.474-18.021-11.858-31.885-11.858-31.885s-8.061-24.028-18.023-42.049c-7.853-14.211-28.457-36.04-28.457-36.04" style="fill:none;fill-rule:nonzero;stroke:#451a0f;stroke-width:4px"/><path d="M464.334 386.611c.183-.298.375-.59.578-.876a9.15 9.15 0 0 1 .642-.811c.32-.749.66-1.573 1.024-2.469.365-.897.798-1.767 1.294-2.609a13.023 13.023 0 0 1 1.722-2.31 6.457 6.457 0 0 1 2.259-1.577c.854-.355 1.831-.502 2.937-.45 1.104.049 2.365.396 3.814 1.014 1.128.486 2.004 1.019 2.629 1.617.623.6 1.038 1.211 1.23 1.843.193.63.198 1.257.007 1.879a3.921 3.921 0 0 1-1.053 1.687c-.513.499-1.168.912-1.974 1.23-.807.315-1.71.476-2.712.469-.998-.007-2.065-.196-3.188-.569-1.121-.375-2.253-.995-3.373-1.861a61.699 61.699 0 0 0-2.156 1.566c-.632.486-1.167.92-1.601 1.306-.526.436-.979.856-1.357 1.261l-.722-.34Zm12.136-9.997a6.56 6.56 0 0 1 1.221.366c.367.152.685.3.953.445.316.173.595.35.839.537-1.747.624-3.38 1.336-4.883 2.161-1.504.826-2.871 1.641-4.084 2.469.894.656 1.794 1.1 2.68 1.337.887.238 1.722.314 2.497.237a5.986 5.986 0 0 0 2.115-.6 5.483 5.483 0 0 0 1.59-1.181c.425-.464.739-.973.946-1.517.208-.547.275-1.08.214-1.595-.062-.517-.271-1.002-.622-1.455-.352-.453-.88-.82-1.588-1.107-.849-.346-1.648-.516-2.408-.502a6.34 6.34 0 0 0-2.191.428 8.327 8.327 0 0 0-1.998 1.123 13.747 13.747 0 0 0-1.776 1.615 21.096 21.096 0 0 0-1.548 1.882 26.166 26.166 0 0 0-1.28 1.915 30.077 30.077 0 0 1 3.256-2.735 64.516 64.516 0 0 1 3.01-2.058 45.131 45.131 0 0 1 3.057-1.765ZM476.632 391.694c.498-1.409 1.085-2.594 1.747-3.558.661-.965 1.293-1.755 1.896-2.366a12.138 12.138 0 0 1 2.105-1.77c.255.233.529.4.824.504.295.108.572.175.832.204.284.043.582.047.888.01-.822.402-1.571.852-2.248 1.353a21.67 21.67 0 0 0-1.848 1.518 17.177 17.177 0 0 0-1.452 1.504c-.415.49-.762.933-1.036 1.333.44-.406.908-.805 1.412-1.19a40.491 40.491 0 0 1 1.534-1.116c.52-.359 1.033-.703 1.541-1.028.504-.326.992-.633 1.461-.923a89.608 89.608 0 0 1 3.229-1.911 4 4 0 0 0-.168.933 3.32 3.32 0 0 0 .067.841c.059.289.197.547.415.77-.977.402-1.731.83-2.248 1.301-.518.47-.9.898-1.139 1.288-.294.463-.447.93-.457 1.404a102.526 102.526 0 0 0 3.212-1.623c.022.131.042.266.065.399-1.092.563-2.2 1.11-3.328 1.64-.34-.035-.679-.073-1.019-.112-.158-.783-.104-1.488.145-2.12.247-.63.555-1.176.915-1.638a7.287 7.287 0 0 1 1.479-1.431 71.807 71.807 0 0 0-4.21 2.772 35.098 35.098 0 0 0-2.648 2.065c-.421.364-.804.738-1.143 1.121a30.73 30.73 0 0 1-.823-.174Z" style="fill-rule:nonzero"/><path d="M491.153 387.565c-.013-.005.009.018.069.066.06.048.151.101.275.16a2.683 2.683 0 0 0 1.166.224c-1.056.263-1.922.572-2.595.935-.674.364-1.205.757-1.587 1.186-.382.428-.647.879-.785 1.356a4.879 4.879 0 0 0-.193 1.426c.009.472.064.925.169 1.362.102.438.197.836.282 1.194.256-.001.581-.047.967-.135a5.905 5.905 0 0 0 1.19-.424c.408-.194.804-.45 1.189-.77a4.972 4.972 0 0 0 1.006-1.133 2.339 2.339 0 0 1-1.009-.481 2.067 2.067 0 0 1-.586-.785 1.928 1.928 0 0 1-.141-.931c.027-.325.144-.629.343-.914.193-.287.482-.538.855-.756.37-.218.841-.367 1.402-.448.337.833.544 1.57.611 2.214.066.645.028 1.221-.113 1.728a5.25 5.25 0 0 0 .765-.203 5.49 5.49 0 0 0 .849-.387l.201.304c-.36.202-.706.357-1.037.47a5.142 5.142 0 0 1-.937.233 3.49 3.49 0 0 1-1.236 1.521 6.35 6.35 0 0 1-1.838.867 8.786 8.786 0 0 1-2.013.343 12.34 12.34 0 0 1-1.76-.023c-.504-1.07-.803-2.007-.919-2.807-.113-.799-.097-1.486.038-2.066.136-.576.37-1.056.695-1.439a4.267 4.267 0 0 1 1.088-.934c.399-.239.811-.42 1.242-.546.429-.127.82-.219 1.171-.283.351-.062.637-.097.86-.105.226-.007.33-.015.316-.019Zm1.809 1.55c-.613.201-1.067.476-1.361.83-.296.355-.454.713-.473 1.075-.018.362.094.694.341.997.244.301.603.502 1.065.601a5.34 5.34 0 0 0 .477-1.541c.094-.575.076-1.228-.049-1.962Z" style="fill-rule:nonzero"/><path d="M499.484 385.258c.278.186.578.299.902.341.321.042.621.048.894.013.316-.035.632-.104.953-.209a30.488 30.488 0 0 0-2.332 2.405 39.128 39.128 0 0 0-2.004 2.497c-.608.83-1.16 1.637-1.65 2.417-.488.783-.92 1.5-1.289 2.157a29.302 29.302 0 0 1 2.091-2.094 71.931 71.931 0 0 1 1.926-1.698 61.238 61.238 0 0 1 1.953-1.556c.55.441 1.105.876 1.666 1.309-.419 1.05-.86 1.959-1.324 2.727a17.358 17.358 0 0 1-1.322 1.92c-.414.511-.781.91-1.093 1.194-.312.286-.525.472-.637.562a102.225 102.225 0 0 0 5.253-3.507l.13.385a103.979 103.979 0 0 1-6.774 4.388c-.58-.038-1.162-.08-1.742-.128a3.402 3.402 0 0 1-.202-.905 4.794 4.794 0 0 1 0-.968c.035-.364.128-.76.28-1.186-.429.463-.818.919-1.169 1.364-.107.21-.204.396-.281.56a4.618 4.618 0 0 0-.188.428c-.065.13-.111.249-.136.362-.215-.012-.431-.025-.647-.036.139-.847.352-1.673.629-2.478.281-.804.597-1.581.949-2.334.352-.754.725-1.47 1.12-2.151a42.548 42.548 0 0 1 4.044-5.779Zm.71 5.335a42.508 42.508 0 0 0-2.614 2.281c-.499.468-1.013.981-1.549 1.537-.093.173-.2.398-.314.682a5.69 5.69 0 0 0-.285.933c-.072.342-.1.691-.088 1.05.013.359.103.705.272 1.033a6.03 6.03 0 0 0 1.215-.913 9.116 9.116 0 0 0 1-1.138c.295-.4.56-.814.794-1.239.234-.422.441-.838.616-1.244.394-.945.711-1.94.953-2.982Z" style="fill-rule:nonzero"/><path d="M500.912 400.28c-.127-.69-.098-1.417.077-2.184.173-.766.446-1.546.812-2.338a20.16 20.16 0 0 1 1.332-2.397 47.786 47.786 0 0 1 1.642-2.38 83.032 83.032 0 0 1 1.75-2.299c.593-.752 1.162-1.46 1.709-2.126.031.241.104.465.22.67.089.175.215.344.374.511.158.167.368.281.631.341a42.213 42.213 0 0 0-1.897 2.069c-.62.724-1.21 1.456-1.769 2.194a35.36 35.36 0 0 0-1.538 2.189c-.467.72-.876 1.397-1.222 2.032a12.16 12.16 0 0 0-.796 1.741c-.186.526-.263.963-.233 1.314a106.203 106.203 0 0 0 5.619-4.582c.05.126.098.253.147.38a105.906 105.906 0 0 1-5.678 4.579c-.131.049-.269.09-.409.124a5.696 5.696 0 0 1-.39.1 3.2 3.2 0 0 1-.381.062Z" style="fill-rule:nonzero"/><path d="M515.156 396.183c.034.122.07.241.104.361a106.334 106.334 0 0 1-5.868 5.373l-.58.161c.175-.701.156-1.284-.044-1.748a1.638 1.638 0 0 0-.412-.549c-.187-.169-.443-.301-.768-.397-.325-.098-.732-.145-1.225-.146-.496-.001-1.086.069-1.774.203.458-.675.907-1.352 1.35-2.034.062.014.132.021.209.023a4.247 4.247 0 0 1 .581.072 4.934 4.934 0 0 1 .253-1.681c.173-.491.402-.925.683-1.304.282-.38.601-.711.965-.992a8.7 8.7 0 0 1 1.103-.739c.874-.478 1.865-.826 2.976-1.057-.075.497-.063.911.034 1.241.099.332.224.642.378.928.154.287.299.579.441.876.135.295.217.653.239 1.071.016.352-.086.662-.304.932-.22.27-.493.501-.819.69a5.806 5.806 0 0 1-1.036.47 8.03 8.03 0 0 1-.92.26c-.187.065-.404.145-.647.244a2.012 2.012 0 0 0-.573.327.608.608 0 0 1 .146-.396c.096-.109.214-.202.36-.286-.217-.256-.446-.638-.689-1.147a3.927 3.927 0 0 1-.364-1.705c-.447.405-.789.824-1.024 1.261a5.015 5.015 0 0 0-.487 1.215c.263.1.53.237.801.406.273.173.51.397.709.678a3 3 0 0 1 .458 1.043c.104.414.124.908.065 1.486a104.84 104.84 0 0 0 5.679-5.14Zm-4.732 1.619a3.465 3.465 0 0 0 1.237-.554c.354-.261.635-.576.836-.943a2.64 2.64 0 0 0 .316-1.213c.013-.439-.1-.896-.33-1.37a9.237 9.237 0 0 0-1.8.49 6.22 6.22 0 0 0-1.311.706c.024.317.055.599.095.846.04.25.098.484.175.704.08.223.181.441.308.657.128.217.286.441.474.677Z" style="fill-rule:nonzero"/><path d="M513.632 402.511c-.005-1.493.142-2.77.422-3.836.282-1.066.588-1.95.918-2.649.396-.82.841-1.513 1.332-2.083.327.138.654.211.977.217.324.008.62-.018.882-.071.295-.051.585-.143.871-.273a14.423 14.423 0 0 0-1.711 1.946 19.166 19.166 0 0 0-1.239 1.92 12.864 12.864 0 0 0-.828 1.764 21.635 21.635 0 0 0-.486 1.468c.28-.511.596-1.023.939-1.537.345-.51.704-1.01 1.073-1.499.369-.486.741-.954 1.11-1.404.371-.449.732-.873 1.088-1.271a53.314 53.314 0 0 1 2.436-2.643c.065.234.169.464.311.692.119.188.273.385.462.586.191.204.434.379.723.519a33.73 33.73 0 0 0-1.649 2.826 16.122 16.122 0 0 1 1.722-1.954 44.876 44.876 0 0 1 1.697-1.573 45.247 45.247 0 0 1 1.784-1.461c-.018.399.001.765.06 1.099.058.297.152.586.283.863.131.279.344.484.639.613-1.042 1.24-1.811 2.309-2.266 3.231-.459.921-.763 1.692-.894 2.318-.143.727-.127 1.359.051 1.893a109.275 109.275 0 0 0 4.101-5.338l.22.346a108.75 108.75 0 0 1-4.048 5.231 106.2 106.2 0 0 1-.989.66 3.709 3.709 0 0 1-.69-1.794 7.212 7.212 0 0 1 .062-1.967c.11-.659.282-1.297.515-1.919.232-.621.466-1.178.705-1.671.236-.494.442-.897.623-1.213.182-.316.288-.501.319-.55l-.357.279c-.222.173-.503.413-.845.723a22.95 22.95 0 0 0-1.134 1.098c-.415.425-.815.884-1.201 1.376a11.26 11.26 0 0 0-1.033 1.579 5.87 5.87 0 0 0-.615 1.737 3.713 3.713 0 0 0-.071.565c-.004.16.004.292.022.397.018.129.038.234.061.314-.338.17-.677.339-1.017.505a5.487 5.487 0 0 1-.195-1.244c-.022-.433-.021-.871.009-1.314.027-.443.078-.878.149-1.304.07-.426.155-.836.25-1.228a26.7 26.7 0 0 1 .785-2.706 43.62 43.62 0 0 0-3.918 4.879 16.383 16.383 0 0 0-1.564 2.76c-.283.037-.568.067-.851.098ZM537.142 404.596a14.532 14.532 0 0 1-.077-1.038 8.355 8.355 0 0 1 .021-1.028c-.211-.784-.453-1.641-.718-2.57-.267-.93-.46-1.877-.582-2.841a12.105 12.105 0 0 1-.03-2.858 6.096 6.096 0 0 1 .901-2.598c.495-.792 1.23-1.491 2.206-2.11.975-.619 2.278-1.102 3.925-1.484 1.283-.293 2.382-.4 3.308-.304.928.099 1.678.333 2.251.714.571.382.977.876 1.211 1.486.234.611.294 1.266.171 1.974-.125.707-.428 1.43-.92 2.168-.492.736-1.166 1.408-2.03 2.005-.861.595-1.895 1.086-3.091 1.46-1.196.375-2.556.557-4.057.538a55.329 55.329 0 0 0-.818 2.527 25.772 25.772 0 0 0-.514 1.99 13.292 13.292 0 0 0-.334 1.811l-.823.158Zm3.871-15.172a7.789 7.789 0 0 1 1.284-.444 12.2 12.2 0 0 1 1.106-.22 7.474 7.474 0 0 1 1.066-.08c-1.105 1.548-2.045 3.091-2.8 4.646-.755 1.554-1.393 3.019-1.891 4.399 1.179-.014 2.228-.196 3.133-.541.906-.341 1.67-.779 2.282-1.306a6.09 6.09 0 0 0 1.431-1.749 5.202 5.202 0 0 0 .611-1.891 4.304 4.304 0 0 0-.155-1.774 3.251 3.251 0 0 0-.839-1.394c-.389-.371-.879-.629-1.473-.776-.596-.148-1.285-.12-2.081.08-.953.234-1.747.579-2.389 1.046a6.436 6.436 0 0 0-1.596 1.649 7.796 7.796 0 0 0-.977 2.083 12.619 12.619 0 0 0-.468 2.342 18.998 18.998 0 0 0-.101 2.417c.018.804.066 1.565.148 2.282.238-1.451.572-2.82.995-4.11a56.912 56.912 0 0 1 1.236-3.43 41.245 41.245 0 0 1 1.478-3.229ZM560.252 392.698a112.886 112.886 0 0 1-2.616 6.186c-.266.305-.535.61-.807.915-.669-.544-1.138-1.132-1.42-1.76-.282-.63-.463-1.215-.545-1.758-.081-.545-.1-.999-.054-1.366.047-.369.08-.574.104-.619-.047.102-.133.333-.265.686-.132.354-.286.77-.466 1.246-.181.477-.383.983-.614 1.522a15.392 15.392 0 0 1-.728 1.506 9.76 9.76 0 0 1-.767 1.212c-.256.34-.491.55-.701.63-.403.156-.718.067-.948-.263-.228-.331-.382-.8-.461-1.407a12.462 12.462 0 0 1-.069-2.07c.034-.772.104-1.532.211-2.279.105-.749.239-1.432.404-2.048.163-.615.349-1.07.569-1.366.366.029.715-.006 1.037-.103.325-.095.609-.212.852-.347a3.68 3.68 0 0 0 .78-.535c-.36.666-.689 1.377-.985 2.136a28.94 28.94 0 0 0-.785 2.262c-.226.75-.413 1.47-.557 2.154a15.549 15.549 0 0 0-.288 1.778c-.046.502-.042.887.012 1.159.052.271.176.363.368.273.123-.065.298-.268.518-.614.217-.345.46-.782.72-1.311.26-.528.532-1.122.809-1.783a88.18 88.18 0 0 0 .816-2.017 70.703 70.703 0 0 0 1.803-5.393c.151.239.338.457.558.653.186.179.404.343.658.497.253.151.549.249.883.289-.36.821-.657 1.558-.883 2.217-.229.66-.407 1.251-.533 1.773a9.354 9.354 0 0 0-.235 1.382c-.028.4-.025.749.015 1.042.066.7.283 1.218.654 1.552a111.886 111.886 0 0 0 2.64-6.303l.316.272Z" style="fill-rule:nonzero"/><path d="M559.828 389.601c.368-.028.72-.128 1.05-.302.332-.174.611-.357.837-.55.265-.233.516-.48.753-.746a26.451 26.451 0 0 0-.598 3.307 41.36 41.36 0 0 0-.251 3.164c.191-.956.42-1.876.682-2.761.263-.882.512-1.667.749-2.355.273-.804.551-1.556.835-2.248.757.05 1.517.093 2.282.129.234 1.148.355 2.184.371 3.1.014.919-.028 1.713-.118 2.387-.093.671-.202 1.21-.327 1.61-.122.4-.206.657-.245.765a110.229 110.229 0 0 0 2.818-5.977l.34.244a112.19 112.19 0 0 1-3.656 7.521c-.55.296-1.101.591-1.653.878a3.41 3.41 0 0 1-.706-.635 4.98 4.98 0 0 1-.571-.799 4.261 4.261 0 0 1-.444-1.138c-.062.368-.124.735-.176 1.1-.05.363-.096.724-.134 1.084.051.897.123 1.718.227 2.458.1.743.198 1.381.295 1.918.116.624.243 1.185.382 1.68-.2.124-.402.246-.604.367a12.69 12.69 0 0 1-1.077-2.322 20.106 20.106 0 0 1-.677-2.43 21.704 21.704 0 0 1-.372-2.383 34.278 34.278 0 0 1-.155-2.224 32.211 32.211 0 0 1 .143-4.842Zm3.995-1.187a59.214 59.214 0 0 0-.533 1.621 52.445 52.445 0 0 0-.529 1.75 32.445 32.445 0 0 0-.538 2.146c.016.199.052.447.112.744.056.301.151.611.281.935.132.325.307.637.529.933.219.296.509.533.868.705a6.26 6.26 0 0 0 .59-1.451 8.323 8.323 0 0 0 .262-1.515 9.428 9.428 0 0 0-.002-1.475 15.645 15.645 0 0 0-.171-1.381 15.934 15.934 0 0 0-.869-3.012Z" style="fill-rule:nonzero"/><path d="m610.862 456.913-8.536 51.752s-1.898 6.932-9.013 9.703c-7.115 2.771-30.35 3.235-35.569-.462-5.216-3.697-7.115-12.476-7.115-12.476l-5.69-48.517M679.156 437.504s12.332 13.862 11.858 31.884c-.474 18.022-8.063 27.262-8.063 27.262s2.372 12.015-5.217 14.787c-7.589 2.773-26.56 4.622-32.251-4.618l-2.373-37.429" style="fill:#febc12;fill-rule:nonzero"/><path d="M548.685 488.516s1.223 26.179 9.059 29.39c7.836 3.21 37.074 3.527 42.272-4.386s3.781-16.147 3.781-16.147-8.922-5.643-14.827-6.009c-5.867-.363-17.831 1.649-23.391 1.583-7.929-.093-16.894-4.431-16.894-4.431ZM645.069 498.184s-1.844 9.322 4.653 13.12c6.498 3.799 30.539 1.583 31.838-2.532 1.3-4.114 1.625-11.078 1.625-11.078s-6.498-5.38-19.493-5.38c-12.995 0-18.623 5.87-18.623 5.87Z" style="fill:#fff4d7;fill-rule:nonzero"/><path d="m610.862 456.913-8.536 51.752s-1.898 6.932-9.013 9.703c-7.115 2.771-30.35 3.235-35.569-.462-5.216-3.697-7.115-12.476-7.115-12.476l-5.69-48.517M679.156 437.504s12.332 13.862 11.858 31.884c-.474 18.022-8.063 27.262-8.063 27.262s2.372 12.015-5.217 14.787c-7.589 2.773-26.56 4.622-32.251-4.618l-2.373-37.429" style="fill:none;fill-rule:nonzero;stroke:#451a0f;stroke-width:4px"/><path d="m644.382 307.493 89.5-86.351s9.43-6.068-1.131-19.212c-10.562-13.144-18.417-10.103-26.11-2.589-7.699 7.512-75.742 81.617-75.742 81.617s-7.231-31.267-14.524-39.629l63.402-77.748s7.337-10.097 3.71-17.459c-3.629-7.362-13.277-17.232-20.706-12.239-7.435 4.992-71.854 85.87-71.854 85.87s-.724 3.311-8.703-4.484l9.47-120.66s4.753-15.444-12.719-16.54c-17.472-1.097-15.629 11.332-15.629 11.332l-8.609 119.227s3.893-6.007-5.177 2.643l-18.658-80.702s-2.055-10.391-14.393-6.52c-12.34 3.869-8.061 17.026-8.061 17.026l20.917 70.525-63.258-100.475s-7.274-13.668-19.829-2.603c-10.263 9.047.247 21.67.247 21.67l55.491 90.462s-40.897 5.52-41.225 8.672l-28.075-21.451s-7.555-5.843-12.142 1.979c-4.586 7.821 1.792 12.911 1.792 12.911l25.453 22.465s-1.278 6.239-5.074 6.5l-65.093-38.289s-17.307-8.721-21.667 2.943c-4.358 11.664 7.154 21.719 7.154 21.719l67.12 42.946-4.404 30.173s6.485-78.686 92.605-75.46c67.574 2.532 100.509 20.447 102.011 72.165 0 0 18.864-.234 14.965 32.683l8.946-33.117Z" style="fill:#febc12;fill-rule:nonzero"/><path d="m529.365 211.598-63.258-100.474s-7.274-13.668-19.829-2.603c-10.263 9.047.247 21.669.247 21.669l55.491 90.463s-40.897 5.52-41.225 8.671l-28.075-21.45s-7.555-5.843-12.142 1.979c-4.586 7.821 1.792 12.911 1.792 12.911l25.453 22.464s-1.278 6.24-5.074 6.5l-65.093-38.289s-17.307-8.72-21.667 2.944c-4.358 11.664 7.154 21.719 7.154 21.719l67.12 42.945" style="fill:none;fill-rule:nonzero;stroke:#451a0f;stroke-width:4px"/><path d="M632.676 359.414c20.872-37.428 12.333-68.851 12.333-68.851s38.892-50.37 20.869-79.018c-7.981-12.687-64.027 14.786-64.027 14.786s-16.599-13.399-38.415-17.558c-22.47-4.283-43.633-.462-43.633-.462s-32.724-47.594-45.531-45.282c-32.646 5.896-24.188 81.788-24.188 81.788s-21.818 15.708-26.087 51.753c-3.183 26.876 16.604 48.981 16.604 48.981 9.069 11.45 52.432 24.679 61.85 29.586 9.417 4.908 18.177 8.535 34.603 3.628 16.426-4.907 49.046-1.282 58.912-1.282 4.819.003 25.896-2.64 36.71-18.069Z" style="fill:#fff4d7;fill-rule:nonzero"/><path d="M665.876 211.545c-8.563-9.734-47.307 7.019-59.989 12.877l-9.348-7.545-3.61 4.419c-3.759-2.032-8.332-4.397-13.01-6.55l.269-6.837-22.2-5.802-.678 5.826c-3.483-.317-7.376-.467-11.306-.507l-1.335-5.53-15.161 1.161 1.207 4.641c-6.36.263-10.91.614-10.91.614s-32.046-49.113-45.531-45.282c-34.146 9.703-24.188 81.788-24.188 81.788s-22.293 19.406-24.189 40.201c0 0-1.642 4.853 3.516 9.84 7.167-22.869 28.281-61.374 89.049-59.098 67.575 2.532 100.51 20.447 102.012 72.165 0 0 17.79 1.852 20.033 24.258.997 1.284 2.087 4.358 2.087 4.358s5.261-30.729 2.415-45.979c0 .001 40.79-56.373 20.867-79.018Z" style="fill:#febc12;fill-rule:nonzero"/><path d="M638.844 278.55s22.765-39.74 14.228-52.216c-8.537-12.476-39.363 12.939-39.363 12.939s18.967 17.559 25.135 39.277ZM503.676 216.169s-18.492-34.656-28.929-31.421c-10.434 3.235-13.28 51.29-13.28 51.29s23.242-18.483 42.209-19.869Z" style="fill:#fff4d7;fill-rule:nonzero"/><path d="M558.693 292.412s11.383-4.159 29.404 1.385M509.369 282.245s-11.383-10.627-25.135-11.551" style="fill:none;fill-rule:nonzero;stroke:#451a0f;stroke-width:3px"/><path d="M564.463 264.694c-5.078.533-8.887 3.742-8.508 7.168.379 3.425 4.803 5.769 9.88 5.235 5.078-.533 8.887-3.742 8.508-7.167-.379-3.425-4.803-5.769-9.88-5.236ZM515.248 252.365c-4.256-2.485-9.272-1.954-11.204 1.186-1.932 3.14-.048 7.7 4.208 10.186 4.256 2.485 9.272 1.954 11.204-1.186 1.932-3.14.048-7.7-4.208-10.186Z" style="fill:#febc12;fill-rule:nonzero"/><path d="M543.514 341.391s-6.639 23.103-26.557 17.559c-19.921-5.544-12.806-28.647-12.806-28.647s20.869 5.544 21.343-7.856c0 0-5.691 14.785 18.02 18.944Z" style="fill:#f27070;fill-rule:nonzero;stroke:#451a0f;stroke-width:4px"/><path d="M524.072 329.379s-3.32 10.165-4.269 17.559" style="fill:none;fill-rule:nonzero;stroke:#451a0f;stroke-width:4px"/><path d="M545.887 303.963c4.094 4.489-11.384 20.793-20.393 18.484-9.011-2.312-16.599-16.174-13.754-22.181 2.845-6.007 13.754-3.236 18.973-2.773 5.212.462 11.381 2.312 15.174 6.47Z" style="fill:#451a0f;fill-rule:nonzero"/><path d="m544.71 342.118-7.059 10.023-1.14-9.15s-2.226 2.044-3.981 1.663c-3.544-.769-2.846-4.158-2.846-4.158s-1.139 3.049-4.554 1.94c-3.415-1.11-2.856-5.21-2.856-5.21s-1.15 3.783-4.542 2.715c-3.383-1.064-2.11-4.07-2.11-4.07s-2.139 2.77-4.476 2.18c-2.969-.751-2.783-4.065-2.783-4.065l-6.154 8.552-.284-10.813 10.969 1.009 10.891-2.636 7.037 7.625 12.387 4.162 1.501.233Z" style="fill:#fff200;fill-rule:nonzero;stroke:#fff200;stroke-width:1px"/><path d="M563.911 329.841s-6.639 11.553-18.023 11.091c-11.383-.462-22.764-6.469-20.393-18.485 0 0-.883 14.264-21.343 7.856-13.277-4.159-9.483-22.643-9.483-22.643" style="fill:none;fill-rule:nonzero;stroke:#451a0f;stroke-width:4px"/><path d="m503.718 331.328-.539 2.413-2.523.246 2.189 1.247-.54 2.413 1.892-1.644 2.19 1.247-1.019-2.263 1.892-1.642-2.523.245-1.019-2.262Z" style="fill:#fff;fill-rule:nonzero"/><path d="m596.428 281.221-1.803 3.075-.733 8.822.735 4.127 2.761 1.509 2.916 1.078 8.227.713 1.161-1.167 2.205.322 1.7-1.574.946-13.773-.97-1.66-1.75 3.257-.78 2.077-2.625-5.316-3.611 4.377-1.849-6.417-4.265 5.576-2.265-5.026Z" style="fill:#3b52a4;fill-rule:nonzero;stroke:#000;stroke-width:1px;stroke-linecap:butt;stroke-linejoin:miter"/><path d="m580.883 248.415 1.902 1.328-2.092 2.846 2.786 1.917 2.061-2.804 1.913 1.314-2.124 2.89.327.229-1.09 1.794-.478-.334-1.985 2.701c-.397.282-.733.415-1.011.403-.278-.011-.64-.125-1.089-.341a9.09 9.09 0 0 1-1.275-.747l1.178-1.63c.405.245.757.256 1.06.034l1.259-1.711-2.308-1.62.071-1.133-3.226 4.39-2.119-1.005 6.24-8.521ZM590.233 254.873l-.59.803 1.081-.46 4.159 2.901c.409.496.135 1.367-.827 2.615l-4.065 5.53c-.431.38-.996.343-1.697-.115l-4.807-3.352c-.735-.47-.926-1.061-.573-1.774l5.192-7.066 2.127.918Zm-1.332 1.81-3.472 4.727 3.516 2.453 3.472-4.727-3.516-2.453ZM596.503 259.283l5.557 3.875 1.205.851-2.742 3.732a6.124 6.124 0 0 1-1.509 1.671c-.598.454-1.345.779-2.246.979-.898.198-1.694.152-2.386-.137-.691-.291-2.097-1.213-4.215-2.765l1.293-1.734 1.207.823-.454-.837 3.253-4.426-.605-.422 1.642-1.61Zm.784 3.303-3.543 4.82c.576.533 1.196.819 1.861.867.666.046 1.227-.085 1.69-.393.46-.305 1.364-1.438 2.713-3.395l-2.721-1.899ZM604.56 264.867l1.871 1.306-3.23 4.383 1.06.759-1.266 1.346-.84-.578-.403.547 3.369 2.339-1.611 1.793-5.794-4.06 1.677-1.698.398.276.401-.547-.618-.432 1.267-1.382.482.328 3.237-4.38ZM456.73 254.683l3.751 5.298c.378-.728.5-1.368.365-1.92-.134-.552-.533-1.243-1.198-2.077l-.839.348-.582-2.204 2.498-1.028 3.663 5.058c.263-.364.348-.878.255-1.541-.088-.664-.472-1.431-1.149-2.297l-.781.324-.526-2.161 2.28-.938c1.469 2.174 2.276 3.688 2.424 4.541.148.854.19 1.571.123 2.154-.066.582-.27 1.219-.612 1.909l-.747-.147 1.448 2.003-1.739 1.586-2.625-3.594c.07.693-.036 1.289-.318 1.788l-.576-.027 1.305 1.888-1.57 1.642-6.742-9.246 1.892-1.359ZM469.148 248.755l2.064-.084.086.763 2.861-1.187.615 2.207-1.558.655 5.308 5.441-1.633 1.435-5.44-5.562.031 7.741-2.196.231-.042-7.67-2.048.842-.739-2.122 2.703-1.122-.012-1.568Zm4.059 6.798 1.623.724-1.171 2.849-1.625-.708 1.173-2.865ZM475.672 246.943l7.609-3.159.564 2.261-5.197 2.158 1.956 4.47c.227.66.71.784 1.451.371l2.587-1.075-.73-1.652-1.732.727-.875-1.999 3.869-1.598 2.517 5.751.233.552-1.922 1.265-.733-1.676-.481 1.065-3.098 1.294c-.741.191-1.355.139-1.843-.155-.487-.292-.904-.834-1.256-1.619l-1.838-4.203 1.002-1.149-1.889.793-.194-2.422ZM487.514 241.162l2.294-.925.301.69 2.45-1.017c.637-.159 1.109.028 1.415.56l2.78 6.391c.197 1.115.134 1.903-.189 2.361-.324.458-.81.821-1.46 1.092l-.935-2.133c.41-.132.181-1.108-.692-2.932l-1.185-2.711-1.228.511 3.104 7.096-2.151 1.367-3.273-7.5-.953.396 3.157 7.217-2.2 1.254-3.114-7.1.586-.785-1.004.417-.308-2.326 2.919-1.211-.314-.712ZM494.705 238.976l3.937-1.635.598 2.147-.636.264 2.449 5.597.809-.336.742 2.012-3.937 1.635-.671-2.059.848-.344-2.211-5.096.693-.878-1.944.807-.677-2.114ZM539.62 269.219l-.103-.029c-2.894-.833-5.164-2.724-6.23-5.187-.93-2.15-1.12-7.516 1.834-10.106 2.894-2.54 5.89-3.337 9.434-2.511 3.736.87 5.333 3.759 5.398 3.882l.321.593-4.699 2.747-.391-.525c-.006-.009-.799-1.053-1.869-1.502-.617-.258-2.579-.571-4.258 1.061-1.864 1.81-.927 4.217-.407 4.991.884 1.319 2.572 1.948 4.303 1.601 1.496-.3 2.325-1.42 2.718-2.155l-3.985-1.098.396-1.363 5.484 1.512-.208.686c-.039.131-.999 3.179-4.11 3.803-2.32.465-4.6-.404-5.813-2.215-1.008-1.506-1.683-4.552.599-6.767 2.013-1.955 4.606-1.885 5.858-1.359.894.375 1.612 1.019 2.039 1.469l2.356-1.378c-.599-.766-1.915-2.106-4.07-2.61-3.076-.718-5.581-.044-8.123 2.186-2.313 2.03-2.262 6.66-1.466 8.504.896 2.07 2.829 3.667 5.302 4.378l.086.024c2.741.756 5.207-.1 5.919-.612l.866 1.137c-1.104.797-4.013 1.715-7.181.843ZM564.745 349.44l-3.036 2.304 2.366 2.959 3.036-2.304-2.366-2.959Z" style="fill-rule:nonzero"/><path d="m560.086 349.737 5.13-3.888.003.002.024-.016 4.009 5.019 2.998-2.273-6.333-7.928-8.151 6.178 2.32 2.906Z"/><path d="m558.025 351.338-2.321-2.904-2.987 2.266 2.321 2.904 2.987-2.266ZM570.875 352.916l2.335 2.922 2.996-2.273-2.335-2.922-2.996 2.273Z" style="fill-rule:nonzero"/><path d="m568.783 354.521-5.154 3.909-4.012-5.025-2.988 2.263 6.348 7.949 8.143-6.172-2.337-2.924Z"/><path d="M462.811 358.284s-26.721-5.547-35.042-34.566c-8.321-29.018-3.113-52.612 22.315-78.9 0 0-7.111-66.241 19.079-80.276 17.52-9.39 50.642 43.769 50.642 43.769l8.27-.669-19.627-66.567s-4.379-13.141 8.061-17.026c12.44-3.886 15.289 8.062 15.289 8.062l16.426 75.104 6.57.427L563.349 89.4s-.702-11.605 15.629-11.333c16.331.272 12.827 17.768 12.827 17.768l-9.578 119.432 8.703 4.485 67.672-81.67s7.332-13.188 21.682 2.347c9.856 10.668.438 22.403.438 22.403l-65.045 79.158" style="fill:none;fill-rule:nonzero;stroke:#451a0f;stroke-width:4px"/><path d="M595.966 377.486s50.399 2.889 50.399-71.808l10.829-10.551 12.13-52.329s4.192-24.773-4.765-32.918c-6.498-5.908-29.457 3.799-29.457 3.799M535.925 378.82s-16.596 6.469-32.724-3.696" style="fill:none;fill-rule:nonzero;stroke:#451a0f;stroke-width:4px"/><path d="m644.382 307.493 89.5-86.351s9.43-6.068-1.131-19.212c-10.562-13.144-18.417-10.103-26.11-2.589-6.148 6-51.358 58.656-69.082 77.93" style="fill:#febc12;fill-rule:nonzero"/><path d="m644.382 307.493 89.5-86.351s9.43-6.068-1.131-19.212c-10.562-13.144-18.417-10.103-26.11-2.589-6.148 6-51.358 58.656-69.082 77.93" style="fill:none;fill-rule:nonzero;stroke:#451a0f;stroke-width:4px"/><path d="m616.376 241.328 63.402-77.748s7.337-10.097 3.71-17.459c-3.629-7.362-13.277-17.232-20.706-12.239-7.434 4.992-70.986 84.798-70.986 84.798" style="fill:#febc12;fill-rule:nonzero"/><path d="m616.376 241.328 63.402-77.748s7.337-10.097 3.71-17.459c-3.629-7.362-13.277-17.232-20.706-12.239-7.434 4.992-70.986 84.798-70.986 84.798" style="fill:none;fill-rule:nonzero;stroke:#451a0f;stroke-width:4px"/></g><defs><linearGradient id="a" x1="0" y1="0" x2="1" y2="0" gradientUnits="userSpaceOnUse" gradientTransform="rotate(-90 459.25 89.751) scale(538.002)"><stop offset="0" style="stop-color:#e29c27;stop-opacity:1"/><stop offset=".13" style="stop-color:#e2922e;stop-opacity:1"/><stop offset=".35" style="stop-color:#e1793f;stop-opacity:1"/><stop offset=".63" style="stop-color:#e04f5c;stop-opacity:1"/><stop offset="1" style="stop-color:#cd333d;stop-opacity:1"/></linearGradient><linearGradient id="b" x1="0" y1="0" x2="1" y2="0" gradientUnits="userSpaceOnUse" gradientTransform="rotate(90.012 208.784 161.852) scale(784.35)"><stop offset="0" style="stop-color:#9e005d;stop-opacity:1"/><stop offset="0" style="stop-color:#a1035b;stop-opacity:1"/><stop offset=".03" style="stop-color:#ba1e4a;stop-opacity:1"/><stop offset=".07" style="stop-color:#ce343c;stop-opacity:1"/><stop offset=".11" style="stop-color:#de4531;stop-opacity:1"/><stop offset=".16" style="stop-color:#e9512a;stop-opacity:1"/><stop offset=".23" style="stop-color:#ffac12;stop-opacity:1"/><stop offset=".42" style="stop-color:#ffac12;stop-opacity:1"/><stop offset=".55" style="stop-color:#ef5c27;stop-opacity:1"/><stop offset=".63" style="stop-color:#e8612f;stop-opacity:1"/><stop offset=".7" style="stop-color:#dc6b3e;stop-opacity:1"/><stop offset=".76" style="stop-color:#cb7853;stop-opacity:1"/><stop offset=".82" style="stop-color:#b5896e;stop-opacity:1"/><stop offset=".87" style="stop-color:#9a9e8f;stop-opacity:1"/><stop offset=".92" style="stop-color:#7bb7b5;stop-opacity:1"/><stop offset=".95" style="stop-color:#65c8d0;stop-opacity:1"/><stop offset="1" style="stop-color:#65c8d0;stop-opacity:1"/></linearGradient></defs></svg>