<svg viewBox="0 0 6318 5244" xmlns="http://www.w3.org/2000/svg" xml:space="preserve" style="fill-rule:evenodd;clip-rule:evenodd;stroke-linecap:round;stroke-linejoin:round;stroke-miterlimit:10"><path d="M222.999 83.734c0 30.582-26.376 55.373-58.915 55.373-24.914 0-46.215-14.531-54.828-35.072l-7.241 6.81c3.329 6.738 7.939 12.946 13.694 18.354 12.92 12.148 30.103 18.833 48.375 18.833 18.275 0 35.454-6.685 48.374-18.833 12.92-12.142 20.038-28.288 20.038-45.465h-9.497Z" style="fill:#1b75ba;fill-rule:nonzero" transform="translate(-3060.666 -405.48) scale(38.1536)"/><path d="M213.504 83.734c0 25.611-22.17 46.447-49.42 46.447-22.34 0-41.266-14.004-47.358-33.166l-7.469 7.02c8.613 20.541 29.913 35.072 54.827 35.072 32.54 0 58.916-24.791 58.916-55.373h-9.496Z" style="fill:#26a8df;fill-rule:nonzero" transform="translate(-3060.666 -405.48) scale(38.1536)"/><path d="m223.127 72.934 13.765 12.758h-27.53l13.765-12.758Z" style="fill:#26a8df;fill-rule:nonzero" transform="translate(-3060.666 -405.48) scale(38.1536)"/><path d="M113.508 107.28s.066.116.199.343c.133.228.318.567.584 1a56.26 56.26 0 0 0 2.412 3.686 53.29 53.29 0 0 0 4.331 5.333c1.799 1.959 4.007 4.021 6.59 6.087a56.047 56.047 0 0 0 8.955 5.82c3.381 1.767 7.142 3.28 11.168 4.44 4.027 1.151 8.338 1.852 12.744 2.133 1.102.098 2.213.08 3.324.116l.418.009.404-.009.845-.022c.565-.018 1.13-.023 1.69-.045 2.208-.143 4.449-.33 6.652-.718 2.218-.326 4.392-.853 6.543-1.419.537-.148 1.064-.322 1.591-.482.527-.17 1.064-.308 1.581-.509 1.035-.38 2.085-.723 3.082-1.165 4.04-1.669 7.844-3.7 11.205-6.083a59.225 59.225 0 0 0 8.927-7.72c2.569-2.713 4.668-5.556 6.377-8.296a54.833 54.833 0 0 0 4.007-7.814c.509-1.205.903-2.361 1.278-3.423.323-1.08.655-2.062.864-2.972.114-.455.223-.884.328-1.285.09-.406.17-.79.246-1.143a26.71 26.71 0 0 0 .357-1.812l.256-1.517-.18 1.526c-.048.5-.143 1.111-.266 1.83-.062.357-.124.745-.195 1.156-.09.41-.18.843-.28 1.303-.176.924-.475 1.923-.755 3.021-.337 1.085-.689 2.263-1.154 3.494a48.499 48.499 0 0 1-3.808 8.015c-1.667 2.816-3.727 5.744-6.287 8.564a55.952 55.952 0 0 1-8.955 8.024c-.854.616-1.752 1.192-2.64 1.79-.926.544-1.833 1.137-2.792 1.655-.964.513-1.918 1.062-2.925 1.522-.498.236-1.002.477-1.505.714-.513.214-1.03.433-1.548.647-1.025.455-2.098.808-3.157 1.205-.527.205-1.078.353-1.615.527-.541.165-1.082.348-1.633.499-2.203.589-4.43 1.138-6.705 1.478-2.26.388-4.553.575-6.856.714-.57.022-1.13.026-1.695.04l-.845.018-.442.008-.427-.008c-1.14-.041-2.275-.027-3.4-.13a59.558 59.558 0 0 1-13.019-2.298 56.922 56.922 0 0 1-11.311-4.722 56.638 56.638 0 0 1-8.969-6.1l-.959-.794c-.309-.268-.598-.54-.893-.808-.574-.536-1.173-1.049-1.7-1.593a54.35 54.35 0 0 1-2.915-3.138 53.188 53.188 0 0 1-4.16-5.511 45.277 45.277 0 0 1-2.245-3.793c-.243-.447-.414-.795-.532-1.027-.133-.241-.19-.361-.19-.361Z" style="fill:#4dcbf7;fill-rule:nonzero" transform="translate(-3060.666 -405.48) scale(38.1536)"/><path d="M93.65 133.417s-1.765.547-1.986-.819c-.22-1.367.368-3.075-1.912-3.69-2.281-.615-5.591-.683-5.444 3.143.147 3.826 2.501 7.447 8.827 7.583l.515-6.217Z" style="fill:#754c29;fill-rule:nonzero" transform="translate(-3060.666 -405.48) scale(38.1536)"/><path d="M91.662 132.6c-.221-1.367.368-3.075-1.913-3.689-2.28-.615-5.59-.683-5.443 3.142M126.53 129.32s1.839 4.441-.221 8.813c0 0 .442 4.236-.367 4.783-.976.659-4.561.546-5.223-.069-.663-.614-.736-3.142-.736-3.142l6.547-10.385Z" style="fill:#fff4d7;fill-rule:nonzero" transform="translate(-3060.666 -405.48) scale(38.1536)"/><path d="M126.53 129.32s1.692 5.603-.221 8.813v1.64s-1.03.342-6.326-.068l6.547-10.385Z" style="fill:#754c29;fill-rule:nonzero" transform="translate(-3060.666 -405.48) scale(38.1536)"/><path d="M93.65 133.417s-1.765.547-1.986-.819c-.22-1.367.368-3.075-1.912-3.69-2.281-.615-5.591-.683-5.444 3.143.147 3.826 2.501 7.447 8.827 7.583l.515-6.217ZM126.53 129.32s1.839 4.441-.221 8.813c0 0 .442 4.236-.367 4.783-.976.659-4.561.546-5.223-.069-.663-.614-.736-3.142-.736-3.142l6.547-10.385Z" style="fill:none;fill-rule:nonzero;stroke:#451a0f;stroke-width:.4px" transform="translate(-3060.666 -405.48) scale(38.1536)"/><path d="M113.367 142.367s5.052-.049 6.841-1.23c3.31-2.187 6.568-7.917 7.356-9.838.589-1.435 1.913-3.075 2.501-5.875.467-2.222.368-6.695.368-6.695-3.389-3.063-5.043-3.135-16.447-2.459-11.404.676-12.314 3.831-13.346 4.508 0 0-3.195 3.228-4.413 5.329-1.545 2.664-2.796 6.217-2.796 6.217s-1.912 2.049-1.839 4.714c.073 2.664 1.251 4.031 1.251 4.031.534.356 4.429 1.307 5.811 1.503 0 0 4.329.623 6.694.273.524-.077 7.389-.386 8.019-.478Z" style="fill:#fff4d7;fill-rule:nonzero" transform="translate(-3060.666 -405.48) scale(38.1536)"/><path d="M100.636 120.778s-5.59 5.124-7.209 11.545c0 0-2.253 2.143-1.839 5.944.221 2.028 1.251 2.801 1.251 2.801s2.648-1.434 5.738.137c0 0 2.133-.615 3.383-.478 1.251.136 3.458.341 3.458.341s1.545-.956 2.648-.751c1.103.205 4.193.614 5.444-.547 0 0 3.089-6.9-1.692-9.36-4.782-2.459-6.768-3.415-6.915-7.105 0 .001-2.648-.341-4.267-2.527Z" style="fill:#754c29;fill-rule:nonzero" transform="translate(-3060.666 -405.48) scale(38.1536)"/><path d="M100.641 120.778s-3.196 3.228-4.414 5.329c-1.545 2.664-2.795 6.217-2.795 6.217s-1.913 2.049-1.839 4.714c.073 2.665 1.25 4.031 1.25 4.031.589.616 5.148 1.415 5.812 1.503 0 0 4.359.767 6.694.273.874-.185 7.08-.417 8.018-.478 0 0 5.053-.049 6.841-1.23 3.311-2.187 6.569-7.917 7.357-9.838.588-1.435 1.912-3.075 2.501-5.875.467-2.222.368-6.695.368-6.695" style="fill:none;fill-rule:nonzero;stroke:#451a0f;stroke-width:.4px" transform="translate(-3060.666 -405.48) scale(38.1536)"/><path d="M124.556 125.858c-.009.019-.018.029-.031.031a.069.069 0 0 1-.032-.001.274.274 0 0 1-.048-.014 1.67 1.67 0 0 0-.293-.072 4.914 4.914 0 0 0-.185-.023c-.07-.007-.126-.011-.166-.014l.045.199a.251.251 0 0 0 .024.069c.01.019.015.03.016.035.002.012-.003.022-.014.032a.06.06 0 0 1-.036.017c-.016.003-.029-.007-.037-.028a.531.531 0 0 1-.024-.097 5.645 5.645 0 0 0-.028-.125l-.014-.063-.011-.053a.085.085 0 0 0-.014-.009.054.054 0 0 1-.015-.015.164.164 0 0 1-.021-.051c-.001-.008 0-.014.004-.018a.131.131 0 0 1 .017-.018c-.05-.258-.078-.406-.084-.444l-.014-.092-.008-.056-.058.016a1.18 1.18 0 0 0-.232.093.982.982 0 0 0-.126.082.064.064 0 0 1-.026.01.034.034 0 0 1-.025-.008.045.045 0 0 1-.015-.028c-.003-.02.028-.048.095-.084a1.475 1.475 0 0 1 .393-.149c.07-.017.137-.03.199-.039.106-.016.198-.018.276-.008.078.011.14.033.185.067a.197.197 0 0 1 .08.127.249.249 0 0 1-.032.177.508.508 0 0 1-.138.145c-.06.044-.143.096-.248.157a1.664 1.664 0 0 1-.133.077.04.04 0 0 0 .004.014c.123.007.246.018.367.033l.036.005c.127.016.22.029.281.04.061.011.092.022.094.035.003.012 0 .028-.008.048Zm-.37-.806a.367.367 0 0 0-.157-.05.858.858 0 0 0-.239.008c-.069.01-.112.017-.129.022l.005.052a.75.75 0 0 0 .011.081l.048.248.039.193a.626.626 0 0 0 .126-.061c.131-.073.227-.142.287-.206.061-.063.085-.13.073-.2-.006-.034-.027-.063-.064-.087ZM124.605 124.947l-.055.008a.101.101 0 0 1-.061-.013c-.022-.012-.033-.022-.035-.032-.002-.011.002-.023.012-.035a.055.055 0 0 1 .033-.021.096.096 0 0 1 .045.019.254.254 0 0 1 .057.05.226.226 0 0 0 .004.024Zm.191.977a.051.051 0 0 1-.031.012c-.015.001-.031-.021-.046-.066a4.3 4.3 0 0 1-.066-.257l-.052-.245a8.472 8.472 0 0 1-.038-.185c-.002-.012-.002-.02.001-.027.003-.006.01-.01.021-.012.026-.003.043.004.053.023.01.019.02.056.029.112l.029.184c.018.105.036.189.053.251 0 .004.011.036.031.098a.838.838 0 0 1 .027.085c.001.011-.002.02-.011.027ZM125.565 125.573a1.341 1.341 0 0 1-.385.137c.01.071.018.129.026.173.009.059.021.113.035.161.005.019.009.031.01.039a.072.072 0 0 1-.005.044.035.035 0 0 1-.03.023c-.02.003-.032-.002-.036-.015l-.018-.081a2.014 2.014 0 0 1-.021-.112l-.035-.218-.031.006a.649.649 0 0 1-.043.008c-.027.004-.043-.011-.049-.045-.004-.025.001-.039.014-.041l.042.004a.221.221 0 0 0 .057.001l-.075-.441a1 1 0 0 0-.056.003.18.18 0 0 1-.063-.006c-.014-.006-.022-.015-.024-.028-.004-.028-.001-.042.01-.043a.12.12 0 0 1 .047.005.17.17 0 0 0 .069.009.114.114 0 0 1 .014-.037c.005-.007.016-.012.034-.015.022-.003.034 0 .035.008.001.003 0 .009-.002.017a.045.045 0 0 0-.001.023c.07 0 .151.007.242.023.092.015.173.04.244.075.071.034.11.077.119.129.012.074-.029.138-.124.194Zm-.046-.284a.78.78 0 0 0-.206-.059 1.485 1.485 0 0 0-.223-.018l.045.239.034.196a.982.982 0 0 0 .209-.055.703.703 0 0 0 .178-.094c.047-.035.068-.069.062-.102-.007-.044-.04-.079-.099-.107ZM124.003 126.962c-.003.021-.008.032-.016.033-.008.001-.014-.001-.019-.007a.15.15 0 0 1-.015-.026.224.224 0 0 0-.071-.081.114.114 0 0 0-.087-.025c-.077.011-.124.069-.142.172a1.08 1.08 0 0 0 .008.352.886.886 0 0 0 .109-.031l.08-.027a.926.926 0 0 1 .152-.046c.022-.004.035.004.038.023a.135.135 0 0 1-.003.048c-.003.018-.012.027-.025.029a.078.078 0 0 1-.034-.001.175.175 0 0 0-.065 0 .773.773 0 0 0-.107.032l-.129.038c.004.026.019.098.046.215.042.181.072.326.09.436a.096.096 0 0 1 0 .042c-.003.008-.011.014-.024.015-.016.003-.029-.004-.039-.019a.126.126 0 0 1-.021-.055c-.021-.119-.06-.306-.12-.559l-.011-.049a1.203 1.203 0 0 0-.083.027.73.73 0 0 1-.103.028.08.08 0 0 1-.032-.003c-.01-.004-.015-.012-.017-.022-.004-.026.004-.041.023-.045.029-.005.063-.013.103-.022.041-.01.072-.019.093-.026a1.018 1.018 0 0 1 .004-.426c.032-.114.096-.178.193-.193a.236.236 0 0 1 .186.061c.022.021.035.041.038.061a.172.172 0 0 1 0 .051ZM124.155 126.929l-.054.008a.1.1 0 0 1-.061-.013c-.022-.012-.034-.022-.035-.032-.002-.011.002-.023.011-.035a.055.055 0 0 1 .034-.021.1.1 0 0 1 .045.019.46.46 0 0 1 .036.028c.013.012.02.019.02.023l.004.023Zm.192.977a.054.054 0 0 1-.031.012c-.016.001-.031-.021-.046-.066a3.128 3.128 0 0 1-.066-.257l-.053-.245-.038-.185a.047.047 0 0 1 .002-.027c.003-.006.01-.01.021-.011.025-.004.043.003.053.022.01.019.019.056.029.112l.029.184c.018.105.035.189.052.252l.032.097a.58.58 0 0 1 .026.085.028.028 0 0 1-.01.027ZM125.254 127.663c.009.006.014.012.015.017a.083.083 0 0 1-.009.046c-.009.017-.018.027-.03.029-.018.003-.035-.006-.048-.027a.182.182 0 0 1-.028-.074l-.033-.225-.008-.06c-.004-.023-.013-.039-.028-.048a3.654 3.654 0 0 1-.105.226.837.837 0 0 1-.137.189.336.336 0 0 1-.196.108.11.11 0 0 1-.087-.019.118.118 0 0 1-.043-.077.398.398 0 0 1 .031-.179 1.432 1.432 0 0 1 .271-.453.552.552 0 0 1 .087-.077.159.159 0 0 1 .062-.026.12.12 0 0 1 .058.007c.02.008.038.02.055.037a.119.119 0 0 1 .031.061.17.17 0 0 1-.013.096l.027-.012c.012-.002.021.011.028.039l.021.1.026.126a2.47 2.47 0 0 0 .036.175c.002.007.008.014.017.021Zm-.435.006a.76.76 0 0 0 .123-.171 3 3 0 0 0 .11-.234.259.259 0 0 0 .003-.104.088.088 0 0 0-.031-.054.068.068 0 0 0-.059-.016c-.028.004-.06.027-.098.069a1.333 1.333 0 0 0-.236.397.354.354 0 0 0-.029.161c.005.031.024.044.055.04a.29.29 0 0 0 .162-.088ZM126.33 126.635a.035.035 0 0 1-.028.017.14.14 0 0 1-.035-.003.205.205 0 0 0-.055-.001 2.545 2.545 0 0 0-.344.081 13.378 13.378 0 0 1 .11.573c.008.05.017.106.025.168a.775.775 0 0 1 .012.114c0 .012-.006.023-.018.032a.076.076 0 0 1-.037.016c-.008.002-.015-.001-.021-.006a.028.028 0 0 1-.012-.021l-.008-.055a3.726 3.726 0 0 0-.04-.3c-.014-.085-.032-.183-.052-.292-.021-.109-.034-.177-.041-.202a3.397 3.397 0 0 0-.432.129.175.175 0 0 1-.044.013.097.097 0 0 1-.061-.012c-.021-.01-.033-.024-.036-.039-.001-.01.001-.019.007-.024.005-.006.013-.009.023-.011a4.04 4.04 0 0 0 .158-.033c.097-.023.218-.054.365-.094a.428.428 0 0 1-.009-.069c-.001-.014.002-.021.007-.022a.082.082 0 0 1 .061.016c.003.002.007.01.012.022l.008.026c.024-.005.063-.016.116-.034.117-.035.197-.056.241-.063.053-.007.09-.006.11.003.013.007.022.021.025.043.002.009-.001.018-.007.028Z" style="fill-rule:nonzero;stroke:#000;stroke-width:.1px;stroke-linecap:butt;stroke-linejoin:miter" transform="translate(-3060.666 -405.48) scale(38.1536)"/><path d="m104.009 135.307 1.324 7.651s.294 1.025 1.398 1.435c1.103.41 4.707.478 5.516-.068.809-.547 1.104-1.845 1.104-1.845l.882-7.173M93.416 132.438s-1.913 2.049-1.84 4.714c.074 2.665 1.251 4.031 1.251 4.031s-.368 1.776.809 2.186c1.177.41 4.12.683 5.002-.683l.368-5.534" style="fill:#754c29;fill-rule:nonzero" transform="translate(-3060.666 -405.48) scale(38.1536)"/><path d="M113.651 139.98s-.19 3.871-1.405 4.345c-1.216.475-5.75.522-6.557-.648-.806-1.17-.586-2.387-.586-2.387s1.384-.835 2.299-.889c.911-.054 2.766.244 3.628.234 1.23-.014 2.621-.655 2.621-.655ZM98.702 141.409s.286 1.378-.722 1.94c-1.007.561-4.736.234-4.938-.375-.201-.608-.252-1.637-.252-1.637s1.008-.796 3.024-.796c2.015 0 2.888.868 2.888.868Z" style="fill:#fff4d7;fill-rule:nonzero" transform="translate(-3060.666 -405.48) scale(38.1536)"/><path d="m104.009 135.307 1.324 7.651s.294 1.025 1.398 1.435c1.103.41 4.707.478 5.516-.068.809-.547 1.104-1.845 1.104-1.845l.882-7.173M93.416 132.438s-1.913 2.049-1.84 4.714c.074 2.665 1.251 4.031 1.251 4.031s-.368 1.776.809 2.186c1.177.41 4.12.683 5.002-.683l.368-5.534" style="fill:none;fill-rule:nonzero;stroke:#451a0f;stroke-width:.4px" transform="translate(-3060.666 -405.48) scale(38.1536)"/><path d="m113.758 98.212-9.611-12.694s-1.348-1.667-3.144-.284c-1.795 1.383-.64 2.462-.64 2.462l9.081 11.474s-1.078 1.233-2.171.729L94.384 85.223s-1.151-1.858-3.228.534c-1.362 1.567-.084 2.409-.084 2.409l12.088 13.965" style="fill:#754c29;fill-rule:nonzero" transform="translate(-3060.666 -405.48) scale(38.1536)"/><path d="M130.43 118.729s3.068-3.269 2.574-7.242c-.662-5.33-4.046-7.652-4.046-7.652s1.312-11.221-3.751-12.092c-1.987-.342-7.062 6.694-7.062 6.694s-3.283-.564-6.768.069c-3.384.615-5.959 2.596-5.959 2.596s-8.693-4.062-9.931-2.186c-2.795 4.235 3.237 11.683 3.237 11.683s-1.339 4.653 1.913 10.179c.502.854 3.697 3.424 7.342 2.258 2.485-.795 6.565.192 7.355.511.791.319 3.368.862 5.706-.606 2.337-1.469 7.196-2.008 9.39-4.212Z" style="fill:#fff4d7;fill-rule:nonzero" transform="translate(-3060.666 -405.48) scale(38.1536)"/><path d="M112.111 110.873s-1.765-.615-4.561.205M119.762 109.369s1.765-1.571 3.899-1.708" style="fill:none;fill-rule:nonzero;stroke:#451a0f;stroke-width:.4px" transform="translate(-3060.666 -405.48) scale(38.1536)"/><path d="M111.014 108.609c.788.079 1.474-.268 1.533-.774.059-.507-.532-.981-1.32-1.06-.787-.079-1.474.268-1.532.774-.059.507.532.981 1.319 1.06ZM119.943 106.638c.661-.368.953-1.042.654-1.506-.3-.465-1.078-.543-1.738-.176-.661.368-.953 1.042-.654 1.506.3.465 1.078.543 1.738.176Z" style="fill:#754c29;fill-rule:nonzero" transform="translate(-3060.666 -405.48) scale(38.1536)"/><path d="M115.644 123.648s2.575.956 5.076-.547" style="fill:none;fill-rule:nonzero;stroke:#451a0f;stroke-width:.4px" transform="translate(-3060.666 -405.48) scale(38.1536)"/><path d="M114.467 118.115s.53 1.548 3.62.729c3.089-.82 2.485-2.369 2.485-2.369s-3.236.82-3.31-1.161c0 0 .883 2.186-2.795 2.801Z" style="fill:#f27070;fill-rule:nonzero;stroke:#451a0f;stroke-width:.4px" transform="translate(-3060.666 -405.48) scale(38.1536)"/><path d="M114.098 112.58c-.636.664 1.765 3.074 3.163 2.733 1.398-.342 2.574-2.391 2.133-3.279-.441-.889-2.133-.479-2.942-.41-.81.068-1.766.341-2.354.956Z" style="fill:#451a0f;fill-rule:nonzero" transform="translate(-3060.666 -405.48) scale(38.1536)"/><path d="m114.233 118.148 1.095 1.482.176-1.353s.346.303.618.246c.55-.113.441-.615.441-.615s.177.451.707.287c.529-.164.443-.77.443-.77s.178.559.704.401c.525-.157.328-.601.328-.601s.331.409.694.322c.46-.111.431-.601.431-.601l.955 1.264.044-1.598-1.701.149-1.69-.39-1.091 1.128-1.921.615-.233.034Z" style="fill:#fff200;fill-rule:nonzero;stroke:#fff200;stroke-width:.4px" transform="translate(-3060.666 -405.48) scale(38.1536)"/><path d="M111.303 116.407s1.03 1.708 2.795 1.64c1.766-.068 3.532-.956 3.164-2.733 0 0 .137 2.109 3.31 1.162 2.06-.615 1.471-3.348 1.471-3.348" style="fill:none;fill-rule:nonzero;stroke:#451a0f;stroke-width:.4px" transform="translate(-3060.666 -405.48) scale(38.1536)"/><path d="m120.592 116.553.084.357.391.036-.339.185.083.356-.293-.243-.34.185.158-.335-.293-.243.391.037.158-.335Z" style="fill:#fff;fill-rule:nonzero" transform="translate(-3060.666 -405.48) scale(38.1536)"/><path d="m1392.66 3622.663.343.114c0 .038.039.115.039.153-3.74 3.32-7.517 6.638-11.218 9.958a27063.034 27063.034 0 0 0-33.88 30.256c-2.594 2.327-5.189 4.616-7.783 6.944-.191.152-.305.42-.649.343-.42-.153-.496-.496-.61-.84-.191-.686-.382-1.411-.573-2.098-4.578-18.2-9.195-36.437-13.811-54.636-.191-.687-.382-1.373-.42-2.06.229-.801.42-.916 1.26-.763 4.997.84 10.034 1.831 15.032 2.709 5.112.915 10.225 1.87 15.337 2.823l12.82 2.404c2.9.534 5.8 1.106 8.737 1.564 1.793.305 3.548.649 5.342.992 2.709.534 5.456 1.03 8.165 1.526.648.115 1.297.305 1.87.61Z"/><path d="M114.931 105.26c.008.013.007.028.01.042l.37 1.459.017.069c-.034-.005-.066-.017-.099-.027l-1.259-.365-.469-.137-.023-.005v-.004l.007-.006c.019-.029.051-.046.079-.066.086-.06.17-.122.256-.183l.222-.16.321-.23c.129-.091.256-.184.384-.275.049-.035.1-.07.147-.107.009-.008.02-.02.035-.011.002.002.003.004.002.006ZM115.406 107.117l.84-.75.519-.462c.007-.006.015-.02.024-.015.009.006-.003.018-.006.026l-.58 1.327-.478 1.092c-.002.005-.001.014-.011.014-.015-.015-.02-.034-.025-.053a139.41 139.41 0 0 0-.175-.691 58.87 58.87 0 0 1-.113-.449c-.003-.013-.012-.028.005-.039Z" style="fill-opacity:.8" transform="translate(-3060.666 -405.48) scale(38.1536)"/><path d="M115.406 107.118c-.002.011.003.022.005.032l.298 1.177a.155.155 0 0 1 .005.023c-.034-.021-.063-.049-.093-.074-.16-.13-.319-.26-.477-.391l-.442-.362-.643-.527a169.22 169.22 0 0 1-.494-.405c.005-.007.01-.002.014-.001l.52.151.619.179.659.192c.01.003.019.006.029.006Z" style="fill-opacity:.4" transform="translate(-3060.666 -405.48) scale(38.1536)"/><path d="m114.93 105.259-.002-.005c-.008-.003-.011-.009-.014-.016l-.007-.025-.434-1.714c-.005-.02-.01-.039-.004-.06l.003-.001c.046.038.088.081.131.122l.589.56.549.523.968.921.012.014c-.064-.006-.126-.022-.189-.033-.107-.019-.215-.037-.321-.058l-.231-.043-.404-.075-.401-.074-.221-.04c-.009-.001-.017-.002-.024.004Z" style="fill-opacity:.8" transform="translate(-3060.666 -405.48) scale(38.1536)"/><path d="m114.472 103.44.452 1.782.007.033c-.055.039-.111.078-.165.118l-.452.323-.536.386-.273.195c-.005.004-.011.009-.018.009.01-.046.028-.089.043-.134l.455-1.316.164-.474.221-.64.092-.263c.002-.007.002-.015.01-.019Z" style="fill-opacity:.4" transform="translate(-3060.666 -405.48) scale(38.1536)"/><path d="M1014.94 3948.99c-9.577-2.861-25.106 2.557-25.106 2.557l5.151 21.9s20.183-3.358 24.571-8.661c4.388-5.303 4.998-12.934-4.617-15.796Z"/><path d="M967.057 3881.497c-38.23 13.811-57.23 53.758-42.35 89.317 14.84 35.521 57.916 53.148 96.146 39.337 38.268-13.774 57.23-53.759 42.389-89.318-14.88-35.521-57.917-53.148-96.185-39.336Zm78.482 74.056c2.174 20.03-27.89 26.593-27.89 26.593l3.51 16.024-10.722 2.557-4.502-16.025-7.821 1.908 3.395 16.215-10.835 1.87-4.312-16.101-21.595 3.891-.648-12.018s3.167-.61 7.402-1.946c4.235-1.335 2.976-5.341 2.976-5.341l-10.073-41.32s-1.793-5.304-3.472-6.372c-1.64-1.069-12.59.992-12.59.992l-2.175-10.53 21.099-4.999-3.32-16.1 10.912-2.633 4.12 15.643 7.67-1.297-3.282-15.91 10.76-2.023 4.197 15.758s26.25-3.701 31.553 13.315c3.128 10.035-4.922 17.398-4.922 17.398s18.314-.228 20.565 20.45Z"/><path d="M1008.568 3931.783c3.281-6.028-1.069-13.544-8.089-13.62-7.02-.077-18.16 2.441-18.16 2.441l4.806 20.183s18.162-3.014 21.443-9.004Z"/><path d="m132.887 110.649 4.774-.247s1.512.093 1.409-1.347c-.126-1.78-2.229-1.409-2.229-1.409l-5.026.007s-.91-1.747-1.906-2.897l13.085-7.304s.959-.663.06-1.827c-1.293-1.673-3.426-.487-3.426-.487l-11.932 5.981" style="fill:#754c29;fill-rule:nonzero" transform="translate(-3060.666 -405.48) scale(38.1536)"/><path d="m132.887 110.649 4.774-.247s1.512.093 1.409-1.347c-.126-1.78-2.229-1.409-2.229-1.409l-5.026.007s-.91-1.747-1.906-2.897l13.085-7.304s.959-.663.06-1.827c-1.293-1.673-3.426-.487-3.426-.487l-11.932 5.981" style="fill:none;fill-rule:nonzero;stroke:#451a0f;stroke-width:.4px" transform="translate(-3060.666 -405.48) scale(38.1536)"/><path d="m138.765 99.813 4.23-2.361s.959-.663.06-1.827c-1.293-1.673-3.427-.487-3.427-.487l-3.092 1.55" style="fill:#fff4d7;fill-rule:nonzero" transform="translate(-3060.666 -405.48) scale(38.1536)"/><path d="m138.765 99.813 4.23-2.361s.959-.663.06-1.827c-1.293-1.673-3.427-.487-3.427-.487l-3.092 1.55" style="fill:none;fill-rule:nonzero;stroke:#451a0f;stroke-width:.4px" transform="translate(-3060.666 -405.48) scale(38.1536)"/><path d="M137.662 110.4s1.512.093 1.409-1.347c-.126-1.78-2.229-1.409-2.229-1.409" style="fill:#fff4d7;fill-rule:nonzero" transform="translate(-3060.666 -405.48) scale(38.1536)"/><path d="M137.662 110.4s1.512.093 1.409-1.347c-.126-1.78-2.229-1.409-2.229-1.409" style="fill:none;fill-rule:nonzero;stroke:#451a0f;stroke-width:.4px" transform="translate(-3060.666 -405.48) scale(38.1536)"/><path d="m97.946 89.278-3.562-4.055s-1.151-1.858-3.228.534c-1.362 1.567-.084 2.409-.084 2.409l3.773 4.359M106.988 89.273l-2.842-3.754s-1.348-1.667-3.144-.284c-1.795 1.383-.64 2.462-.64 2.462l2.858 3.611" style="fill:#fff4d7;fill-rule:nonzero" transform="translate(-3060.666 -405.48) scale(38.1536)"/><path d="m98.577 110.446-15.503-5.509s-1.964-1.049-2.491.811c-.527 1.86 1.237 2.609 1.237 2.609l16.738 6.866" style="fill:#754c29;fill-rule:nonzero" transform="translate(-3060.666 -405.48) scale(38.1536)"/><path d="m87.162 106.39-4.088-1.453s-1.964-1.049-2.491.811c-.527 1.86 1.237 2.609 1.237 2.609l4.707 1.93" style="fill:#fff4d7;fill-rule:nonzero" transform="translate(-3060.666 -405.48) scale(38.1536)"/><path d="M132.71 109.78c-.294-3.075-3.752-5.944-3.752-5.944s1.545-10.657-3.751-12.092c-2.092-.566-7.062 6.695-7.062 6.695s-.166-.012-.449-.029l.382-.573-1.623-.129-.068.601a41.704 41.704 0 0 0-3.029.014l-.557-.69-3.457.749.2.647c-.947.361-1.516.678-2.328 1.091l-.739-.518-1.406.883.593.473c-.234.128-.245.145-.245.145s-8.337-3.913-9.931-2.186c-3.09 3.348 3.236 11.683 3.236 11.683a7.147 7.147 0 0 0-.048.287l-.768-.25-.053 3.881.7.708c.109 1.21.39 1.796.39 1.796s.047-.088.143-.218c-.073.023-.134 0-.179-.084l.282-.047c.102-.122.235-.264.406-.406.534-.799 1.151-2.194 1.151-2.194s-.92-3.587 2.041-4.175l.166-2.039s5.782-4.086 12.611-4.527c6.828-.44 10.866.901 10.866.901s3.583 3.326 4.477 5.57c.349.877.691 1.263.98 1.409l.362-.061c.695-.707.459-1.371.459-1.371Z" style="fill:#754c29;fill-rule:nonzero" transform="translate(-3060.666 -405.48) scale(38.1536)"/><path d="M99.681 108.821s-3.531-5.875-2.206-7.72c1.324-1.844 6.105 1.913 6.105 1.913s-2.942 2.597-3.899 5.807ZM120.646 99.601s2.869-5.124 4.487-4.646c1.619.479 2.06 7.584 2.06 7.584s-3.605-2.733-6.547-2.938Z" style="fill:#fff4d7;fill-rule:nonzero" transform="translate(-3060.666 -405.48) scale(38.1536)"/><path d="m116.128 98.19-2.648-15.943s-.283-1.99 2.105-2.296c2.388-.306 3.129 1.759 3.129 1.759l4.117 19.042" style="fill:#754c29;fill-rule:nonzero" transform="translate(-3060.666 -405.48) scale(38.1536)"/><path d="m114.577 88.854-1.097-6.607s-.283-1.99 2.105-2.296c2.388-.306 3.129 1.759 3.129 1.759l1.485 6.868" style="fill:#fff4d7;fill-rule:nonzero" transform="translate(-3060.666 -405.48) scale(38.1536)"/><path d="m122.83 100.752-4.117-19.042s-.741-2.065-3.129-1.759c-2.388.306-2.104 2.296-2.104 2.296l2.647 15.943s-.834-.234-2.369.022l-9.723-12.87s-1.214-1.296-3.032-.108-.64 2.463-.64 2.463l8.888 11.278c-.182.056-1.978.924-1.978.924L94.572 85.398s-1.092-1.859-3.033-.056c-1.941 1.803-.466 2.824-.466 2.824l9.383 10.922" style="fill:none;fill-rule:nonzero;stroke:#451a0f;stroke-width:.4px" transform="translate(-3060.666 -405.48) scale(38.1536)"/><path d="M105.419 101.102s-8.105-3.879-9.931-2.187c-1.826 1.693-.679 6.857 3.236 11.683l-15.651-5.662s-2.392-1.004-2.635 1.081c-.243 2.084 1.382 2.338 1.382 2.338l16.737 6.867s.686 8.033 7.783 8.259M121.463 94.374s2.648-2.89 4.104-2.665c1.456.225 4.414 3.58 3.39 12.127 0 0 4.071 3.928 4.132 8.886.061 4.957-4.307 7.549-6.187 7.887" style="fill:none;fill-rule:nonzero;stroke:#451a0f;stroke-width:.4px" transform="translate(-3060.666 -405.48) scale(38.1536)"/><path d="M104.738 107.907a.953.953 0 0 1-.078.259 2.042 2.042 0 0 1-.087.183.81.81 0 0 1-.087.136c.002.009.002.017-.001.023-.002.007-.008.012-.018.017-.007.003-.013.004-.017.003-.005-.001-.009-.005-.012-.012-.003-.004-.011-.024-.025-.058a1.186 1.186 0 0 0-.056-.117 8.35 8.35 0 0 0-.111-.199 8.092 8.092 0 0 1-.081-.146.416.416 0 0 1-.044-.114c-.002-.021.006-.036.024-.045a.043.043 0 0 1 .019-.004.012.012 0 0 1 .013.006.724.724 0 0 1 .008.044.233.233 0 0 0 .023.069c.03.056.064.116.101.181l.097.174c.03.056.047.089.052.101a.624.624 0 0 0 .081-.119c.031-.056.056-.105.075-.147a.892.892 0 0 0 .066-.227.278.278 0 0 0-.029-.165c-.032-.06-.094-.083-.186-.067a1.344 1.344 0 0 0-.558.26c-.007.003-.015.001-.026-.006a.067.067 0 0 1-.025-.025c-.002-.003-.001-.008.003-.014a.073.073 0 0 1 .022-.019 1.349 1.349 0 0 1 .23-.131c.143-.068.268-.108.374-.121.107-.012.18.018.219.091.03.058.042.121.034.189ZM105.294 107.226a1.308 1.308 0 0 1-.305.247l-.085.05.075.131.054.092.127-.086.041-.028a.259.259 0 0 0 .091-.099c.009-.017.016-.027.022-.03.006-.003.012-.002.018.002a.036.036 0 0 1 .015.015c.007.013-.001.035-.025.066a.391.391 0 0 1-.087.085 1.708 1.708 0 0 1-.171.119c.072.125.136.212.192.263a.566.566 0 0 0 .164-.051.395.395 0 0 0 .152-.128c.012-.021.015-.038.01-.049a.101.101 0 0 0-.013-.016l-.019-.012-.013-.007a.03.03 0 0 1-.012-.009c-.004-.008.003-.015.02-.024a.049.049 0 0 1 .041 0 .062.062 0 0 1 .031.026c.013.024.014.052.004.086a.257.257 0 0 1-.063.1.397.397 0 0 1-.117.083.881.881 0 0 1-.122.049.157.157 0 0 1-.085.004.232.232 0 0 1-.096-.085 3.129 3.129 0 0 1-.126-.19.438.438 0 0 1-.045.033c-.017.012-.031.019-.04.024-.01.004-.019.006-.028.003a.033.033 0 0 1-.02-.017.043.043 0 0 1-.004-.014c0-.005.002-.009.006-.011l.053-.033.048-.029a12.99 12.99 0 0 0-.134-.229c-.012.006-.021.01-.028.015l-.054.026c-.007.004-.013.005-.019.003a.02.02 0 0 1-.013-.01c-.009-.018-.003-.035.019-.053l.033-.022.028-.017a.071.071 0 0 1 .037-.047c.003-.001.007 0 .011.004a.036.036 0 0 1 .009.009c.051-.027.11-.062.177-.104.043-.029.109-.077.196-.146l.039-.03c.007-.004.014-.001.018.008.006.008.003.019-.007.033ZM106.093 107.578c.006.028.01.055.01.08.001.024-.003.039-.011.043-.014.006-.059-.014-.137-.06a1.578 1.578 0 0 1-.186-.127c-.001.046-.001.096.002.149a.31.31 0 0 0 .013.097.019.019 0 0 0 .008.007.024.024 0 0 0 .013.004h.009c.005 0 .008.002.01.005.002.004.002.011 0 .02a.088.088 0 0 0-.004.019l-.003.015a.26.26 0 0 0-.003.019l-.004.042c-.002.022-.006.034-.01.036a.03.03 0 0 1-.028.001.051.051 0 0 1-.023-.023.59.59 0 0 1-.032-.177 3.076 3.076 0 0 1-.014-.261 8.082 8.082 0 0 0-.252-.191l-.052-.035-.049-.033a.092.092 0 0 1-.024-.021c-.006-.01-.004-.017.004-.021.007-.003.022-.001.047.007a.352.352 0 0 1 .079.041 4.632 4.632 0 0 1 .25.182c.005-.185.008-.287.011-.306a.166.166 0 0 1 .013-.045c.005-.009.018-.019.038-.028a.083.083 0 0 1 .026-.008c.008-.001.013 0 .015.003.002.004-.001.015-.009.033a.208.208 0 0 0-.017.054 5.263 5.263 0 0 0-.015.279l-.002.057c.064.049.126.091.183.126.058.035.093.049.104.044.004-.002.007-.007.007-.014a.395.395 0 0 0-.003-.037l-.004-.022c-.002-.011-.002-.017.002-.019.006-.002.01-.003.013-.002.003.001.007.005.011.013a.313.313 0 0 1 .014.054ZM107.1 107.158a.073.073 0 0 1-.027.025l-.196.111-.134.077-.071.041c-.006.002-.013.002-.023-.003a.047.047 0 0 1-.019-.018c-.002-.005-.003-.01-.001-.014l.009-.012.008-.006-.149-.281a2.21 2.21 0 0 0-.214-.335.03.03 0 0 1-.001-.03.043.043 0 0 1 .021-.021.015.015 0 0 1 .016 0 .079.079 0 0 1 .018.016.814.814 0 0 1 .092.13c.041.066.081.135.12.208l.092.174.056.108.057-.031.087-.049c.043-.027.09-.059.142-.097.043-.03.068-.047.078-.052.009-.003.016-.003.023.004a.084.084 0 0 1 .017.025c.005.009.005.019-.001.03ZM107.529 106.177a.347.347 0 0 1-.057.049 2.913 2.913 0 0 1-.229.143 36.412 36.412 0 0 0 .312.62c.042-.021.096-.05.163-.088l.096-.05a.096.096 0 0 1 .043-.01c.015.001.026.007.032.02.006.011.008.019.007.025-.001.006-.008.012-.02.018l-.04.015a.217.217 0 0 0-.043.014c-.037.018-.11.055-.219.112a.036.036 0 0 1-.007.018c-.004.005-.007.009-.011.011a.047.047 0 0 1-.017.003c-.006 0-.01-.002-.013-.006l-.05.031a1.776 1.776 0 0 1-.132.076.108.108 0 0 1-.067.012c-.01-.002-.02-.012-.028-.027-.003-.004-.003-.011-.001-.02.001-.01.005-.015.01-.018l.022-.003a.067.067 0 0 0 .033-.008c.03-.013.071-.035.127-.065l.052-.029-.08-.167-.023-.047-.017-.036-.183-.368-.113.063a4.004 4.004 0 0 1-.137.076.075.075 0 0 1-.045.005.044.044 0 0 1-.034-.022.033.033 0 0 1-.004-.025.03.03 0 0 1 .017-.018l.019-.008a.172.172 0 0 0 .021-.007.275.275 0 0 0 .059-.021c.018-.008.05-.025.097-.051l.096-.051a.037.037 0 0 1-.002-.029.035.035 0 0 1 .019-.021c.005-.002.01-.002.017.003.006.004.011.01.015.018.045-.023.123-.072.232-.146a.11.11 0 0 0 .025-.027.085.085 0 0 1 .014-.02.041.041 0 0 1 .027-.001c.01.002.018.008.023.017.008.014.006.027-.006.04ZM108.396 106.176a5.183 5.183 0 0 0-.302.228l.056.102a3.302 3.302 0 0 0 .104.176.335.335 0 0 1 .025.034l.033.044c.005.008.007.022.007.042 0 .02-.002.031-.008.034a.025.025 0 0 1-.019-.001.048.048 0 0 1-.02-.014 1.173 1.173 0 0 1-.104-.155 9.636 9.636 0 0 1-.12-.21.913.913 0 0 1-.047.032.077.077 0 0 1-.028.006c-.01.001-.017-.002-.02-.007-.003-.006-.003-.012 0-.017a.067.067 0 0 1 .011-.014.804.804 0 0 1 .055-.057l-.142-.244a1.108 1.108 0 0 1-.122.075c-.031.014-.056.017-.075.009a.082.082 0 0 1-.038-.031c-.003-.007 0-.013.011-.017a.187.187 0 0 1 .031-.006.182.182 0 0 0 .049-.013c.025-.012.063-.035.115-.068a.228.228 0 0 1-.008-.018.051.051 0 0 1-.004-.032c0-.009.001-.015.003-.019s.005-.006.009-.008c.015-.007.031.005.048.036l.068-.049a2.444 2.444 0 0 1 .25-.153c.03-.015.048-.016.054-.005a.095.095 0 0 1 .008.039c.001.017-.003.028-.011.032-.004.002-.008.002-.013 0a.033.033 0 0 0-.01-.003.086.086 0 0 0-.033.01 2.592 2.592 0 0 0-.283.183l.137.237c.038-.03.095-.075.174-.135.079-.06.126-.093.141-.1a.033.033 0 0 1 .014-.004c.004.001.007.004.01.01.012.024.01.04-.006.051ZM108.956 105.493a.54.54 0 0 1-.081.083 1.504 1.504 0 0 1-.225.164l-.084.051.074.131.054.092c.029-.019.071-.047.127-.087l.041-.028a.245.245 0 0 0 .091-.099c.009-.017.016-.027.023-.03.005-.003.011-.002.018.002a.04.04 0 0 1 .014.015c.008.013-.001.035-.024.067a.41.41 0 0 1-.087.084 2.219 2.219 0 0 1-.172.119c.073.125.137.212.193.263a.444.444 0 0 0 .164-.051.384.384 0 0 0 .151-.128c.013-.021.016-.038.01-.049a.044.044 0 0 0-.012-.015.127.127 0 0 0-.019-.013l-.013-.007a.03.03 0 0 1-.012-.009c-.004-.008.003-.015.02-.024a.05.05 0 0 1 .04 0 .065.065 0 0 1 .032.026c.013.024.014.052.004.086a.257.257 0 0 1-.063.1.38.38 0 0 1-.117.083.887.887 0 0 1-.123.049.154.154 0 0 1-.084.004c-.03-.01-.062-.039-.096-.085a2.84 2.84 0 0 1-.126-.19.438.438 0 0 1-.085.057.035.035 0 0 1-.048-.013c-.002-.005-.004-.01-.004-.015 0-.005.002-.008.006-.011a1.25 1.25 0 0 1 .053-.032l.048-.03-.134-.229c-.012.006-.022.01-.028.015l-.054.027c-.007.003-.013.004-.019.002a.025.025 0 0 1-.013-.009c-.009-.018-.003-.036.019-.054l.033-.022.028-.017a.067.067 0 0 1 .037-.046c.003-.002.007-.001.012.003l.008.009c.051-.027.11-.061.177-.104.044-.029.109-.077.196-.146l.039-.03c.008-.003.014-.001.019.008.004.009.002.02-.008.033Z" style="fill-rule:nonzero;stroke:#000;stroke-width:.1px;stroke-linecap:butt;stroke-linejoin:miter" transform="translate(-3060.666 -405.48) scale(38.1536)"/><path d="M121.34 104.192a6.674 6.674 0 0 0-.446.015l-.024.13a3.513 3.513 0 0 0-.027.17.519.519 0 0 0-.005.061.471.471 0 0 1-.002.047.624.624 0 0 1-.002.063.118.118 0 0 1-.025.043c-.014.018-.025.027-.032.026-.007-.001-.013-.006-.017-.013a.05.05 0 0 1-.008-.026 1.244 1.244 0 0 1 .018-.21c.017-.117.031-.208.043-.273l-.03.001-.036-.001a.09.09 0 0 1-.031-.013c-.01-.006-.014-.013-.013-.019.002-.008.005-.013.011-.016a.083.083 0 0 1 .021-.006 2.626 2.626 0 0 1 .093-.018l.047-.316a1.176 1.176 0 0 1-.167-.011c-.039-.006-.064-.019-.076-.04a.086.086 0 0 1-.012-.053c.002-.008.009-.011.022-.009l.033.015a.196.196 0 0 0 .055.02c.032.005.084.009.156.011l.006-.022a.064.064 0 0 1 .02-.032.044.044 0 0 1 .017-.015.022.022 0 0 1 .014-.002c.019.003.024.025.017.064l.099-.001c.051 0 .109.001.175.004.065.003.122.009.169.016.038.007.056.017.053.031a.116.116 0 0 1-.021.042c-.012.016-.023.023-.034.022a.021.021 0 0 1-.011-.008.03.03 0 0 0-.008-.01.113.113 0 0 0-.038-.012 2.872 2.872 0 0 0-.395-.014l-.047.308a5.428 5.428 0 0 1 .462-.014c.009.001.014.003.016.006.003.003.004.008.002.016-.005.029-.019.044-.042.043ZM122.327 104.506a.73.73 0 0 1-.264.178.559.559 0 0 1-.292.036.387.387 0 0 1-.148-.057.279.279 0 0 1-.099-.114.249.249 0 0 1-.017-.157.688.688 0 0 1 .141-.296c.075-.098.17-.186.286-.264a.08.08 0 0 1 .032-.012.118.118 0 0 1 .032.001.07.07 0 0 1 .028.012c.009.006.013.013.011.019 0 .004-.003.009-.008.016a.087.087 0 0 0-.009.012l.022.002c.009-.001.026.002.051.006a.647.647 0 0 1 .115.033.59.59 0 0 1 .104.045c.06.038.103.082.129.13a.213.213 0 0 1 .025.146.515.515 0 0 1-.139.264Zm.054-.385a.297.297 0 0 0-.104-.105.27.27 0 0 0-.107-.037l-.058-.007-.055-.007c-.048-.008-.071-.022-.067-.041a.12.12 0 0 1 .005-.018.043.043 0 0 1 .005-.01.075.075 0 0 0-.054.008.99.99 0 0 0-.239.224.62.62 0 0 0-.116.253c-.015.08-.005.142.031.185a.266.266 0 0 0 .165.084.523.523 0 0 0 .26-.027.595.595 0 0 0 .23-.146.41.41 0 0 0 .119-.216.203.203 0 0 0-.015-.14ZM123.6 104.975a.069.069 0 0 1-.04.005.113.113 0 0 1-.028-.007c-.007-.002-.011-.007-.013-.014a.456.456 0 0 1-.008-.131c.001-.072.004-.154.01-.246.028-.28.036-.424.024-.432a4.285 4.285 0 0 0-.201.352 2.628 2.628 0 0 1-.117.211.213.213 0 0 1-.059.068.172.172 0 0 1-.033.014.064.064 0 0 1-.031.005c-.01-.002-.017-.004-.019-.007-.003-.003-.005-.011-.007-.024a4 4 0 0 1-.001-.342l.003-.061c.006-.125.007-.195.004-.21-.023.013-.047.045-.075.097a3.605 3.605 0 0 0-.102.224 4.672 4.672 0 0 0-.149.369c-.002.01-.012.018-.027.025-.016.006-.03.008-.04.006-.017-.003-.023-.019-.019-.048a3.46 3.46 0 0 0 .015-.193l.014-.261a2.308 2.308 0 0 0-.002-.301l-.002-.049c.003-.015.012-.025.028-.031a.087.087 0 0 1 .05-.006c.008.001.011.032.01.092-.002.06-.007.135-.013.225l-.004.047a4.68 4.68 0 0 1-.025.377c.041-.106.084-.212.13-.318l.025-.06c.041-.096.079-.168.115-.215.035-.047.074-.067.115-.06.013.002.021.036.026.102a1.65 1.65 0 0 1-.005.229 2.781 2.781 0 0 0-.006.181c0 .059.003.101.008.125l.057-.1.08-.147c.079-.149.158-.281.236-.396a.15.15 0 0 1 .038-.038c.011-.008.029-.01.052-.006.014.003.018.058.012.168-.004.11-.016.237-.032.38-.01.204-.006.317.012.338.013.015.019.029.016.043-.001.007-.008.013-.022.02ZM124.619 104.886a.723.723 0 0 1-.265.177.534.534 0 0 1-.291.036.375.375 0 0 1-.148-.057.276.276 0 0 1-.099-.113.246.246 0 0 1-.018-.158.71.71 0 0 1 .141-.296c.076-.097.171-.185.287-.263a.094.094 0 0 1 .032-.013c.009-.001.02 0 .032.001.01.002.019.006.028.012.009.007.012.013.011.02a.056.056 0 0 1-.008.015.163.163 0 0 1-.009.012.752.752 0 0 1 .188.041.513.513 0 0 1 .104.046c.06.038.103.081.129.13a.217.217 0 0 1 .025.146.523.523 0 0 1-.139.264Zm.053-.385a.298.298 0 0 0-.104-.106.298.298 0 0 0-.106-.037.982.982 0 0 0-.058-.006l-.056-.008c-.048-.008-.07-.021-.066-.04l.004-.018a.027.027 0 0 1 .006-.011c-.022-.003-.04-.001-.055.009a.985.985 0 0 0-.238.224.635.635 0 0 0-.117.253c-.014.08-.004.141.032.185a.266.266 0 0 0 .165.084c.084.013.17.004.26-.027a.615.615 0 0 0 .23-.146.417.417 0 0 0 .119-.216.207.207 0 0 0-.016-.14Z" style="fill-rule:nonzero;stroke:#000;stroke-width:.1px" transform="translate(-3060.666 -405.48) scale(38.1536)"/><path d="M164.084 28.365c24.33 0 45.213 13.861 54.206 33.635l7.17-6.738c-3.267-6.212-7.635-11.947-13.001-16.99-12.92-12.147-30.099-18.832-48.375-18.832-18.271 0-35.454 6.685-48.374 18.832-12.92 12.143-20.038 28.289-20.038 45.462h9.497c0-30.579 26.376-55.369 58.915-55.369Z" style="fill:#26a8df;fill-rule:nonzero" transform="translate(-3060.666 -405.48) scale(38.1536)"/><path d="M164.084 37.291c21.742 0 40.246 13.263 46.841 31.631l7.365-6.921c-8.993-19.774-29.876-33.635-54.206-33.635-32.539 0-58.916 24.79-58.916 55.368h9.497c0-25.607 22.169-46.443 49.419-46.443Z" style="fill:#1b75ba;fill-rule:nonzero" transform="translate(-3060.666 -405.48) scale(38.1536)"/><path d="M105.045 94.538 91.28 81.779h27.53l-13.765 12.759Z" style="fill:#26a8df;fill-rule:nonzero" transform="translate(-3060.666 -405.48) scale(38.1536)"/><path d="M223.128 72.934v10.63l-13.765 2.128 13.765-12.758Z" style="fill:#4dcbf7;fill-rule:nonzero" transform="translate(-3060.666 -405.48) scale(38.1536)"/><path d="m209.363 85.694 13.765-2.129 13.765 2.129h-27.53Z" style="fill:#1b75ba;fill-rule:nonzero" transform="translate(-3060.666 -405.48) scale(38.1536)"/><path d="m105.045 84.43 13.765-2.651H91.28l13.765 2.651Z" style="fill:#4dcbf7;fill-rule:nonzero" transform="translate(-3060.666 -405.48) scale(38.1536)"/><path d="M105.045 94.538V84.43l13.765-2.651-13.765 12.759Z" style="fill:#1b75ba;fill-rule:nonzero" transform="translate(-3060.666 -405.48) scale(38.1536)"/><path d="M223.009 55.856s-.076-.138-.227-.401c-.152-.264-.371-.661-.675-1.165a62.985 62.985 0 0 0-2.792-4.293 61.633 61.633 0 0 0-5.019-6.217 65.31 65.31 0 0 0-3.48-3.503c-.627-.602-1.31-1.169-2.004-1.79-.346-.303-.693-.615-1.054-.914-.365-.29-.736-.589-1.111-.884a65.296 65.296 0 0 0-10.413-6.788c-3.931-2.061-8.309-3.829-12.991-5.194-4.691-1.348-9.71-2.191-14.843-2.508-1.282-.112-2.573-.094-3.87-.13l-.484-.009-.475.009-.983.027c-.655.018-1.315.027-1.965.058-2.579.17-5.185.393-7.754.844-2.583.379-5.119.986-7.621 1.642-.622.169-1.239.375-1.857.558-.612.196-1.239.357-1.842.589-1.206.442-2.426.839-3.594 1.352-4.715 1.932-9.131 4.324-13.044 7.109-3.907 2.78-7.397 5.833-10.374 9.01-2.992 3.16-5.428 6.471-7.408 9.666a63.101 63.101 0 0 0-4.643 9.104c-.271.71-.575 1.379-.798 2.053-.233.669-.461 1.312-.674 1.932-.371 1.259-.755 2.401-.997 3.463-.133.527-.262 1.027-.376 1.495-.099.473-.194.915-.284 1.33a33.508 33.508 0 0 0-.409 2.106c-.19 1.152-.289 1.763-.289 1.763s.076-.616.213-1.771c.057-.581.171-1.29.318-2.125.072-.415.148-.865.228-1.343.105-.473.214-.977.333-1.513.209-1.071.555-2.231.888-3.507.199-.63.403-1.286.617-1.964.204-.683.484-1.37.736-2.093a56.867 56.867 0 0 1 4.444-9.305c1.937-3.266 4.335-6.667 7.317-9.934a64.395 64.395 0 0 1 10.413-9.3c3.965-2.856 8.457-5.324 13.257-7.323 1.187-.527 2.431-.942 3.661-1.401.612-.241 1.249-.411 1.875-.612.632-.191 1.254-.401 1.89-.58l1.923-.504.964-.254.973-.21 1.952-.415c.65-.134 1.31-.228 1.97-.339 2.626-.447 5.29-.661 7.958-.817.66-.027 1.316-.031 1.971-.045l.983-.017.508-.009.494.013c1.32.045 2.64.031 3.945.156 5.233.348 10.347 1.241 15.119 2.642a65.972 65.972 0 0 1 13.143 5.458 66.468 66.468 0 0 1 10.432 7.069c.375.308.745.616 1.111.919.361.308.693.629 1.035.937.669.62 1.363 1.219 1.975 1.848a63.075 63.075 0 0 1 3.395 3.637 61.286 61.286 0 0 1 4.848 6.395 55.537 55.537 0 0 1 2.626 4.4c.285.518.484.924.622 1.192.142.263.213.401.213.401Z" style="fill:#4dcbf7;fill-rule:nonzero" transform="translate(-3060.666 -405.48) scale(38.1536)"/><path d="M236.011 62.731s1.809.523 2.034-.785c.227-1.308-.376-2.943 1.96-3.532 2.336-.588 5.727-.654 5.576 3.009-.15 3.662-2.562 7.129-9.043 7.259l-.527-5.951Z" style="fill:#febc12;fill-rule:nonzero" transform="translate(-3060.666 -405.48) scale(38.1536)"/><path d="M202.326 58.807s-1.884 4.252.226 8.437c0 0-.452 4.055.377 4.578 1 .631 4.672.523 5.35-.065.678-.589.754-3.009.754-3.009l-6.707-9.941Z" style="fill:#fff4d7;fill-rule:nonzero" transform="translate(-3060.666 -405.48) scale(38.1536)"/><path d="M202.327 58.805s-1.733 5.363.226 8.437v1.57s1.055.327 6.481-.066l-6.707-9.941Z" style="fill:#febc12;fill-rule:nonzero" transform="translate(-3060.666 -405.48) scale(38.1536)"/><path d="M236.011 62.731s1.809.523 2.034-.785c.227-1.308-.376-2.943 1.96-3.532 2.336-.588 5.727-.654 5.576 3.009-.15 3.662-2.562 7.129-9.043 7.259l-.527-5.951ZM202.326 58.807s-1.884 4.252.226 8.437c0 0-.452 4.055.377 4.578 1 .631 4.672.523 5.35-.065.678-.589.754-3.009.754-3.009l-6.707-9.941Z" style="fill:none;fill-rule:nonzero;stroke:#451a0f;stroke-width:.4px" transform="translate(-3060.666 -405.48) scale(38.1536)"/><path d="M228.853 50.631s-2.574-4.021-15.72-4.917c-13.145-.896-14.798 2.955-14.798 2.955s-.102 4.282.376 6.41c.603 2.681 1.959 4.25 2.562 5.624.807 1.839 4.145 7.325 7.535 9.418 1.833 1.131 7.008 1.177 7.008 1.177l8.214.458c2.412.392 6.858-.261 6.858-.261s3.713-.095 5.953-1.439c0 0 1.205-1.308 1.281-3.859.075-2.551-1.884-4.513-1.884-4.513s-1.281-3.401-2.864-5.951c-1.247-2.012-4.521-5.102-4.521-5.102Z" style="fill:#fff4d7;fill-rule:nonzero" transform="translate(-3060.666 -405.48) scale(38.1536)"/><path d="M228.854 50.63s5.727 4.905 7.385 11.052c0 0 2.412 3.794 1.884 5.691-.527 1.896-1.281 2.681-1.281 2.681s-2.713-1.373-5.878.131c0 0-2.185-.589-3.466-.458-1.282.131-3.542.327-3.542.327s-1.582-.916-2.713-.72c-1.13.197-4.295.589-5.576-.523 0 0-3.165-6.605 1.733-8.96 4.898-2.354 6.933-3.27 7.084-6.801 0 0 2.712-.327 4.37-2.42Z" style="fill:#febc12;fill-rule:nonzero" transform="translate(-3060.666 -405.48) scale(38.1536)"/><path d="M198.334 48.669s-.102 4.282.377 6.41c.602 2.681 1.958 4.25 2.562 5.624.806 1.839 4.144 7.325 7.535 9.418 1.832 1.131 7.008 1.177 7.008 1.177.944.064 8.214.458 8.214.458 2.411.392 6.857-.261 6.857-.261s5.381-.519 5.953-1.439c0 0 1.206-1.308 1.281-3.859.076-2.551-1.884-4.513-1.884-4.513s-1.281-3.401-2.863-5.951c-1.248-2.012-4.522-5.101-4.522-5.101" style="fill:none;fill-rule:nonzero;stroke:#451a0f;stroke-width:.4px" transform="translate(-3060.666 -405.48) scale(38.1536)"/><path d="M202.107 54.48a2.62 2.62 0 0 1 .091-.124c.032-.04.066-.079.102-.115.051-.106.105-.222.163-.349.058-.127.127-.25.206-.369.078-.12.17-.228.273-.327a1.055 1.055 0 0 1 .826-.287c.175.007.376.056.606.143.179.069.318.144.418.229a.62.62 0 0 1 .195.261.398.398 0 0 1 .001.266.55.55 0 0 1-.167.239.978.978 0 0 1-.314.174 1.292 1.292 0 0 1-.431.066 1.857 1.857 0 0 1-1.042-.344 8.845 8.845 0 0 0-.343.222c-.1.069-.185.13-.254.185a2.14 2.14 0 0 0-.216.178l-.114-.048Zm1.928-1.415a1.443 1.443 0 0 1 .479.191 5.623 5.623 0 0 0-.776.306 8.298 8.298 0 0 0-.649.349c.142.093.285.156.426.189.141.034.273.045.396.034.124-.011.236-.039.337-.085a.871.871 0 0 0 .252-.167.646.646 0 0 0 .15-.215.423.423 0 0 0 .034-.226.395.395 0 0 0-.098-.205.581.581 0 0 0-.253-.157 1.068 1.068 0 0 0-.731-.011 1.405 1.405 0 0 0-.317.159c-.1.068-.194.144-.282.229a3.229 3.229 0 0 0-.449.537c.169-.145.342-.274.517-.387a7.521 7.521 0 0 1 .964-.541ZM204.059 55.2c.079-.2.172-.367.278-.504.105-.136.205-.248.301-.335.109-.101.221-.184.334-.25a.4.4 0 0 0 .131.071.644.644 0 0 0 .274.03c-.131.057-.25.121-.358.192a3.425 3.425 0 0 0-.293.215 2.587 2.587 0 0 0-.396.401c.07-.057.145-.113.225-.168a7.768 7.768 0 0 1 .488-.304c.08-.046.158-.089.232-.13.172-.095.343-.185.514-.271a.435.435 0 0 0-.017.251c.01.041.032.078.066.109a1.261 1.261 0 0 0-.357.185.93.93 0 0 0-.181.182.355.355 0 0 0-.072.199c.173-.075.342-.151.51-.23l.01.056c-.173.08-.349.157-.529.233l-.161-.016a.466.466 0 0 1 .023-.3.88.88 0 0 1 .145-.232c.066-.076.144-.144.235-.203a12.821 12.821 0 0 0-.669.393 5.184 5.184 0 0 0-.421.292 1.772 1.772 0 0 0-.181.159l-.131-.025Z" style="fill-rule:nonzero" transform="translate(-3060.666 -405.48) scale(38.1536)"/><path d="m206.366 54.616.011.009c.01.007.024.015.044.023a.444.444 0 0 0 .185.031 1.938 1.938 0 0 0-.412.133.904.904 0 0 0-.252.168.478.478 0 0 0-.125.192.62.62 0 0 0-.031.202c.002.066.011.13.027.192l.045.169a.935.935 0 0 0 .692-.348.394.394 0 0 1-.161-.068.321.321 0 0 1-.093-.111.25.25 0 0 1 .032-.262.398.398 0 0 1 .136-.106.677.677 0 0 1 .223-.064c.053.118.086.222.097.313a.607.607 0 0 1-.018.245.89.89 0 0 0 .256-.083l.032.043a.94.94 0 0 1-.313.099.516.516 0 0 1-.197.215 1.073 1.073 0 0 1-.292.123 1.53 1.53 0 0 1-.32.049c-.107.004-.2.003-.279-.004a1.318 1.318 0 0 1-.146-.397.703.703 0 0 1 .006-.292.468.468 0 0 1 .11-.204.642.642 0 0 1 .173-.132.906.906 0 0 1 .198-.078 1.918 1.918 0 0 1 .322-.055.982.982 0 0 0 .05-.002Zm.288.219a.469.469 0 0 0-.216.118.248.248 0 0 0-.076.152.19.19 0 0 0 .055.141.29.29 0 0 0 .169.085.703.703 0 0 0 .068-.496Z" style="fill-rule:nonzero" transform="translate(-3060.666 -405.48) scale(38.1536)"/><path d="M207.69 54.289a.366.366 0 0 0 .144.048.618.618 0 0 0 .142.002c.05-.005.1-.015.151-.029a4.465 4.465 0 0 0-.37.34 5.949 5.949 0 0 0-.581.695 7.822 7.822 0 0 0-.205.306c.108-.107.219-.205.333-.297a8.395 8.395 0 0 1 .616-.46c.087.062.175.124.265.185a2.544 2.544 0 0 1-.421.658 1.752 1.752 0 0 1-.275.248c.288-.159.566-.325.835-.496l.021.054c-.345.217-.704.424-1.077.621a12.777 12.777 0 0 1-.276-.018.422.422 0 0 1-.033-.128.624.624 0 0 1 .045-.304 3.3 3.3 0 0 0-.186.193 1.874 1.874 0 0 0-.096.191 3.385 3.385 0 0 0-.103-.005c.022-.12.056-.237.1-.351a3.42 3.42 0 0 1 .329-.635 6.075 6.075 0 0 1 .642-.818Zm.113.755a5.332 5.332 0 0 0-.415.323 7.126 7.126 0 0 0-.246.217.935.935 0 0 0-.095.229.531.531 0 0 0-.014.149c.002.051.016.1.043.146a.97.97 0 0 0 .193-.129 1.418 1.418 0 0 0 .285-.337c.037-.059.07-.118.098-.176.062-.133.113-.274.151-.422Z" style="fill-rule:nonzero" transform="translate(-3060.666 -405.48) scale(38.1536)"/><path d="M207.917 56.415a.679.679 0 0 1 .012-.309 1.59 1.59 0 0 1 .129-.331c.059-.112.13-.225.212-.339.082-.114.169-.226.261-.337a15.63 15.63 0 0 1 .549-.626.301.301 0 0 0 .095.167c.025.024.058.04.1.048a6.368 6.368 0 0 0-.827.913 4.432 4.432 0 0 0-.194.288c-.055.09-.097.172-.127.246a.438.438 0 0 0-.037.186c.31-.209.608-.426.893-.648l.024.054c-.289.222-.59.438-.902.648a1.09 1.09 0 0 1-.127.031c-.022.004-.042.008-.061.009Z" style="fill-rule:nonzero" transform="translate(-3060.666 -405.48) scale(38.1536)"/><path d="m210.181 55.836.017.051c-.296.26-.607.514-.933.761l-.092.022a.343.343 0 0 0-.007-.247.246.246 0 0 0-.065-.078.338.338 0 0 0-.122-.056.812.812 0 0 0-.195-.021c-.079 0-.173.01-.282.029.073-.095.144-.191.214-.288l.034.004.041.002c.014.002.032.004.051.008a.632.632 0 0 1 .149-.423.703.703 0 0 1 .153-.14c.057-.04.116-.075.175-.105.139-.067.297-.117.473-.149a.358.358 0 0 0 .006.175.607.607 0 0 0 .06.132c.024.04.047.081.07.124a.39.39 0 0 1 .038.151.177.177 0 0 1-.049.132.468.468 0 0 1-.13.098 1.248 1.248 0 0 1-.31.103 1.82 1.82 0 0 0-.103.035.308.308 0 0 0-.091.046c0-.022.008-.041.023-.056a.209.209 0 0 1 .057-.041.715.715 0 0 1-.109-.162.5.5 0 0 1-.058-.241.685.685 0 0 0-.24.35.787.787 0 0 1 .127.058.383.383 0 0 1 .185.243.55.55 0 0 1 .011.211c.314-.236.615-.479.902-.728Zm-.752.229a.606.606 0 0 0 .197-.078.435.435 0 0 0 .133-.134.351.351 0 0 0 .05-.171.375.375 0 0 0-.053-.194 1.56 1.56 0 0 0-.286.069.983.983 0 0 0-.208.1c.004.045.009.085.015.12a.515.515 0 0 0 .077.192c.02.031.045.063.075.096Z" style="fill-rule:nonzero" transform="translate(-3060.666 -405.48) scale(38.1536)"/><path d="M209.938 56.731a1.882 1.882 0 0 1 .213-.918 1.32 1.32 0 0 1 .211-.294.48.48 0 0 0 .156.03.683.683 0 0 0 .278-.049 2.2 2.2 0 0 0-.272.276 2.714 2.714 0 0 0-.197.272 1.68 1.68 0 0 0-.131.249 2.915 2.915 0 0 0-.077.208c.044-.072.094-.145.149-.217.055-.073.112-.143.17-.213a7.055 7.055 0 0 1 .349-.378c.127-.131.256-.256.388-.374.01.033.026.065.049.098a.42.42 0 0 0 .188.156 5.311 5.311 0 0 0-.147.213c-.042.067-.081.129-.115.187a2.47 2.47 0 0 1 .274-.277c.099-.085.188-.159.269-.222a7.19 7.19 0 0 1 .284-.207.644.644 0 0 0 .009.155c.01.043.025.084.045.123a.192.192 0 0 0 .102.087 2.395 2.395 0 0 0-.36.457 1.34 1.34 0 0 0-.142.328.47.47 0 0 0 .008.268c.228-.249.445-.501.652-.756l.034.049c-.203.25-.418.497-.643.741l-.157.093a.492.492 0 0 1-.109-.254.895.895 0 0 1 .009-.278c.018-.094.045-.184.082-.272a2.51 2.51 0 0 1 .211-.408l.051-.078-.057.04a2.95 2.95 0 0 0-.505.452 1.57 1.57 0 0 0-.164.224.763.763 0 0 0-.109.325.266.266 0 0 0 .013.101l-.162.072a.737.737 0 0 1-.031-.177 1.447 1.447 0 0 1 .026-.37 3.416 3.416 0 0 1 .164-.557 6.797 6.797 0 0 0-.623.691 2.274 2.274 0 0 0-.248.39l-.135.014ZM213.674 57.026a2.43 2.43 0 0 1-.013-.147.996.996 0 0 1 .004-.145 35.642 35.642 0 0 0-.114-.364 2.416 2.416 0 0 1-.093-.402 1.52 1.52 0 0 1-.004-.404.792.792 0 0 1 .143-.368c.078-.112.195-.211.35-.299.155-.088.362-.156.624-.21a1.84 1.84 0 0 1 .525-.043.858.858 0 0 1 .358.101.455.455 0 0 1 .193.211.47.47 0 0 1 .027.279.763.763 0 0 1-.147.307 1.142 1.142 0 0 1-.322.283 1.894 1.894 0 0 1-.491.207c-.19.053-.406.079-.645.076-.051.131-.094.25-.13.358a3.313 3.313 0 0 0-.081.282 1.56 1.56 0 0 0-.053.256l-.131.022Zm.615-2.147c.07-.028.138-.049.204-.063.065-.014.124-.024.175-.031.061-.008.118-.012.17-.011a4.478 4.478 0 0 0-.445.657c-.12.22-.221.427-.3.623a1.59 1.59 0 0 0 .497-.077c.144-.048.266-.11.363-.185a.89.89 0 0 0 .227-.247.682.682 0 0 0 .097-.268.54.54 0 0 0-.024-.251.445.445 0 0 0-.134-.197.52.52 0 0 0-.234-.11.763.763 0 0 0-.33.011 1.138 1.138 0 0 0-.38.148.964.964 0 0 0-.253.234c-.068.09-.119.188-.156.295a1.604 1.604 0 0 0-.074.331 2.448 2.448 0 0 0-.016.342c.003.114.01.222.023.323.038-.205.091-.399.159-.582a5.727 5.727 0 0 1 .431-.942ZM217.345 55.342c-.127.293-.266.585-.416.876l-.128.129a.701.701 0 0 1-.225-.249.885.885 0 0 1-.087-.249.658.658 0 0 1 .008-.281c-.008.015-.021.048-.042.098l-.074.176a5.24 5.24 0 0 1-.098.215 2.272 2.272 0 0 1-.115.214 1.523 1.523 0 0 1-.122.171.276.276 0 0 1-.112.089c-.064.022-.114.01-.15-.037a.42.42 0 0 1-.074-.199 1.698 1.698 0 0 1-.011-.293c.006-.109.017-.217.034-.323a2.32 2.32 0 0 1 .064-.29.551.551 0 0 1 .091-.193.518.518 0 0 0 .164-.014.764.764 0 0 0 .26-.125 2.6 2.6 0 0 0-.157.302 3.717 3.717 0 0 0-.213.625 1.964 1.964 0 0 0-.046.252.539.539 0 0 0 .002.164c.008.038.028.051.059.038a.291.291 0 0 0 .082-.086c.034-.049.073-.111.114-.186.042-.075.085-.159.129-.252a9.15 9.15 0 0 0 .416-1.049.454.454 0 0 0 .089.092.557.557 0 0 0 .104.071c.04.021.087.035.14.041-.057.116-.104.22-.14.313a2.668 2.668 0 0 0-.085.251 1.246 1.246 0 0 0-.037.196.636.636 0 0 0 .003.147c.01.099.045.173.103.22.152-.296.292-.594.42-.892l.05.038Z" style="fill-rule:nonzero" transform="translate(-3060.666 -405.48) scale(38.1536)"/><path d="M217.279 54.904a.453.453 0 0 0 .166-.043.657.657 0 0 0 .133-.078c.042-.033.082-.068.12-.105a3.5 3.5 0 0 0-.095.468c-.02.154-.034.303-.04.448.03-.136.067-.266.108-.391.042-.125.082-.236.119-.333a5.62 5.62 0 0 1 .133-.319c.12.007.241.014.363.019.037.162.056.309.059.438.002.131-.005.243-.019.338a1.33 1.33 0 0 1-.091.336c.16-.28.309-.562.448-.846l.054.035c-.177.357-.37.712-.581 1.064l-.263.125a.582.582 0 0 1-.112-.09.593.593 0 0 1-.161-.274c-.01.052-.02.104-.028.155-.008.052-.016.103-.022.154.009.127.02.243.037.348.016.105.031.195.046.271.019.089.039.168.061.238a4.519 4.519 0 0 1-.096.052 1.743 1.743 0 0 1-.171-.329 2.674 2.674 0 0 1-.167-.681 4.656 4.656 0 0 1-.001-1Zm.634-.168a7.619 7.619 0 0 0-.168.477c-.031.094-.06.196-.086.304a.826.826 0 0 0 .062.237c.021.046.049.09.084.132a.357.357 0 0 0 .138.1.827.827 0 0 0 .094-.205 1.034 1.034 0 0 0 .041-.423 1.892 1.892 0 0 0-.027-.196 2.034 2.034 0 0 0-.138-.426Z" style="fill-rule:nonzero" transform="translate(-3060.666 -405.48) scale(38.1536)"/><path d="m225.386 64.432-1.357 7.325s-.301.981-1.432 1.373c-1.13.392-4.822.458-5.651-.066-.829-.523-1.131-1.765-1.131-1.765l-.904-6.867M236.237 61.685s1.959 1.962 1.884 4.513c-.076 2.551-1.282 3.858-1.282 3.858s.377 1.701-.828 2.093c-1.206.393-4.221.654-5.125-.653l-.377-5.298" style="fill:#febc12;fill-rule:nonzero" transform="translate(-3060.666 -405.48) scale(38.1536)"/><path d="M215.507 68.905s.194 3.705 1.439 4.16c1.245.454 5.891.499 6.717-.621.826-1.12.601-2.286.601-2.286s-1.418-.798-2.356-.85c-.932-.051-2.833.233-3.717.224-1.259-.013-2.684-.627-2.684-.627ZM230.821 70.273s-.292 1.32.74 1.857c1.032.538 4.852.224 5.059-.358.206-.582.258-1.568.258-1.568s-1.033-.762-3.098-.762c-2.064 0-2.959.831-2.959.831Z" style="fill:#fff4d7;fill-rule:nonzero" transform="translate(-3060.666 -405.48) scale(38.1536)"/><path d="m225.386 64.432-1.357 7.325s-.301.981-1.432 1.373c-1.13.392-4.822.458-5.651-.066-.829-.523-1.131-1.765-1.131-1.765l-.904-6.867M236.237 61.685s1.959 1.962 1.884 4.513c-.076 2.551-1.282 3.858-1.282 3.858s.377 1.701-.828 2.093c-1.206.393-4.221.654-5.125-.653l-.377-5.298" style="fill:none;fill-rule:nonzero;stroke:#451a0f;stroke-width:.4px" transform="translate(-3060.666 -405.48) scale(38.1536)"/><path d="m230.712 43.282 14.221-12.222s1.498-.859-.18-2.72c-1.678-1.86-2.926-1.429-4.149-.366-1.223 1.063-12.034 11.552-12.034 11.552s-1.149-4.426-2.308-5.609l10.074-11.004s1.166-1.429.59-2.471c-.577-1.042-2.11-2.439-3.29-1.733-1.182.707-11.417 12.154-11.417 12.154s-.115.469-1.383-.634l1.505-17.078s.755-2.186-2.021-2.341c-2.776-.156-2.483 1.604-2.483 1.604l-1.368 16.875s.618-.851-.823.374l-2.964-11.423s-.327-1.47-2.287-.923c-1.961.548-1.281 2.41-1.281 2.41l3.324 9.982-10.051-14.221s-1.156-1.934-3.151-.368c-1.631 1.28.039 3.067.039 3.067l8.817 12.804s-6.498.781-6.55 1.227l-4.461-3.036s-1.2-.827-1.929.28c-.729 1.107.285 1.828.285 1.828l4.044 3.179s-.203.883-.806.92l-10.343-5.419s-2.749-1.235-3.442.416c-.693 1.651 1.136 3.074 1.136 3.074l10.665 6.079-.7 4.271s1.031-11.137 14.714-10.681c10.737.358 15.97 2.894 16.208 10.214 0 0 2.997-.033 2.378 4.626l1.421-4.687Z" style="fill:#febc12;fill-rule:nonzero" transform="translate(-3060.666 -405.48) scale(38.1536)"/><path d="m212.438 29.709-10.051-14.221s-1.156-1.934-3.151-.368c-1.631 1.28.039 3.067.039 3.067l8.817 12.804s-6.498.781-6.55 1.227l-4.461-3.036s-1.2-.827-1.929.28c-.729 1.107.285 1.827.285 1.827l4.044 3.18s-.203.883-.806.92l-10.343-5.419s-2.749-1.235-3.442.416c-.693 1.651 1.136 3.074 1.136 3.074l10.665 6.079" style="fill:none;fill-rule:nonzero;stroke:#451a0f;stroke-width:.4px" transform="translate(-3060.666 -405.48) scale(38.1536)"/><path d="M228.853 50.632c3.316-5.298 1.959-9.745 1.959-9.745s6.18-7.13 3.316-11.184c-1.268-1.796-10.173 2.092-10.173 2.092s-2.637-1.896-6.104-2.485c-3.57-.606-6.932-.065-6.932-.065s-5.2-6.736-7.234-6.409c-5.188.834-3.844 11.576-3.844 11.576s-3.466 2.223-4.145 7.325c-.505 3.804 2.639 6.933 2.639 6.933 1.441 1.62 8.33 3.493 9.827 4.187 1.496.695 2.888 1.208 5.498.513 2.61-.694 7.793-.181 9.36-.181.766 0 4.115-.374 5.833-2.557Z" style="fill:#fff4d7;fill-rule:nonzero" transform="translate(-3060.666 -405.48) scale(38.1536)"/><path d="M234.128 29.7c-1.361-1.378-7.517.994-9.532 1.823l-1.485-1.068-.573.625a39.465 39.465 0 0 0-2.068-.927l.043-.968-3.527-.821-.108.825a25.742 25.742 0 0 0-1.796-.072l-.212-.783-2.409.165.192.657c-1.011.037-1.734.086-1.734.086s-5.092-6.951-7.234-6.409c-5.426 1.374-3.843 11.576-3.843 11.576s-3.543 2.747-3.844 5.69c0 0-.261.687.559 1.393 1.139-3.237 4.493-8.687 14.149-8.364 10.736.358 15.969 2.894 16.208 10.214 0 0 2.827.262 3.183 3.433.158.182.332.617.332.617s.835-4.35.383-6.508c0 0 6.481-7.979 3.316-11.184Z" style="fill:#febc12;fill-rule:nonzero" transform="translate(-3060.666 -405.48) scale(38.1536)"/><path d="M229.832 39.184s3.617-5.624 2.261-7.39c-1.357-1.766-6.255 1.831-6.255 1.831s3.014 2.485 3.994 5.559ZM208.356 30.357s-2.938-4.905-4.596-4.447c-1.658.457-2.11 7.259-2.11 7.259s3.693-2.616 6.706-2.812Z" style="fill:#fff4d7;fill-rule:nonzero" transform="translate(-3060.666 -405.48) scale(38.1536)"/><path d="M217.098 41.147s1.809-.589 4.672.196M209.261 39.709s-1.809-1.504-3.994-1.635" style="fill:none;fill-rule:nonzero;stroke:#451a0f;stroke-width:.4px" transform="translate(-3060.666 -405.48) scale(38.1536)"/><path d="M218.015 37.224c-.807.075-1.412.53-1.352 1.014.061.485.763.817 1.57.742.807-.076 1.412-.53 1.352-1.015-.06-.485-.763-.817-1.57-.741ZM210.195 35.48c-.677-.352-1.474-.277-1.781.168-.307.444-.007 1.089.669 1.441.676.352 1.473.277 1.78-.168.307-.444.008-1.09-.668-1.441Z" style="fill:#febc12;fill-rule:nonzero" transform="translate(-3060.666 -405.48) scale(38.1536)"/><path d="M214.686 48.08s-1.055 3.27-4.22 2.485c-3.165-.784-2.035-4.054-2.035-4.054s3.316.784 3.392-1.112c0 0-.905 2.093 2.863 2.681Z" style="fill:#f27070;fill-rule:nonzero;stroke:#451a0f;stroke-width:.4px" transform="translate(-3060.666 -405.48) scale(38.1536)"/><path d="M211.596 46.379s-.528 1.439-.679 2.486" style="fill:none;fill-rule:nonzero;stroke:#451a0f;stroke-width:.4px" transform="translate(-3060.666 -405.48) scale(38.1536)"/><path d="M215.063 42.781c.65.635-1.809 2.943-3.24 2.616-1.432-.327-2.638-2.289-2.186-3.14.452-.85 2.186-.458 3.015-.392.828.065 1.808.327 2.411.916Z" style="fill:#451a0f;fill-rule:nonzero" transform="translate(-3060.666 -405.48) scale(38.1536)"/><path d="m214.875 48.182-1.121 1.419-.181-1.295s-.354.289-.633.235c-.563-.109-.452-.588-.452-.588s-.181.431-.724.274c-.542-.157-.453-.737-.453-.737s-.183.535-.722.384c-.537-.15-.335-.576-.335-.576s-.34.392-.711.309c-.472-.107-.443-.576-.443-.576l-.977 1.211-.046-1.531 1.743.143 1.731-.373 1.118 1.079 1.968.589.238.033Z" style="fill:#fff200;fill-rule:nonzero;stroke:#fff200;stroke-width:.4px" transform="translate(-3060.666 -405.48) scale(38.1536)"/><path d="M217.926 46.445s-1.055 1.635-2.863 1.569c-1.809-.065-3.617-.915-3.24-2.616 0 0-.141 2.019-3.392 1.112-2.109-.589-1.506-3.205-1.506-3.205" style="fill:none;fill-rule:nonzero;stroke:#451a0f;stroke-width:.4px" transform="translate(-3060.666 -405.48) scale(38.1536)"/><path d="m208.363 46.655-.085.342-.401.035.348.176-.086.342.301-.233.348.176-.162-.32.3-.232-.401.034-.162-.32Z" style="fill:#fff;fill-rule:nonzero" transform="translate(-3060.666 -405.48) scale(38.1536)"/><path d="m223.093 39.562-.286.435-.117 1.249.117.584.439.214.463.152 1.307.101.185-.165.35.046.27-.223.15-1.949-.154-.235-.278.46-.124.295-.417-.753-.574.62-.293-.909-.678.79-.36-.712Z" style="fill:#3b52a4;fill-rule:nonzero;stroke:#000;stroke-width:.4px;stroke-linecap:butt;stroke-linejoin:miter" transform="translate(-3060.666 -405.48) scale(38.1536)"/><path d="m220.623 34.92.302.188-.332.403.442.272.328-.397.304.186-.338.409.052.032-.173.254-.076-.047-.315.382a.296.296 0 0 1-.161.057.512.512 0 0 1-.173-.048 1.56 1.56 0 0 1-.203-.106l.187-.231c.065.035.121.037.169.005l.2-.242-.367-.229.011-.161-.512.622-.337-.143.992-1.206ZM222.108 35.834l-.094.114.172-.065.661.41c.065.07.021.194-.131.37l-.646.783c-.069.054-.159.049-.27-.016l-.764-.475c-.117-.066-.147-.15-.091-.251l.825-1 .338.13Zm-.212.256-.551.669.558.347.552-.669-.559-.347ZM223.105 36.457l.883.549.192.12-.436.528a.902.902 0 0 1-.24.237.966.966 0 0 1-.357.138.692.692 0 0 1-.379-.019c-.11-.041-.333-.172-.669-.391l.205-.246.192.117-.072-.119.517-.626-.097-.06.261-.228Zm.125.468-.563.682c.091.075.19.116.296.123a.46.46 0 0 0 .268-.056c.073-.043.217-.204.431-.481l-.432-.268ZM224.384 37.249l.297.185-.513.62.169.108-.202.19-.133-.082-.064.078.535.331-.256.254-.92-.575.266-.24.063.039.064-.078-.098-.061.201-.196.077.047.514-.62ZM200.896 35.809l.596.749c.06-.103.079-.193.058-.271-.021-.079-.085-.176-.19-.294l-.134.049-.092-.312.397-.146.582.716c.042-.051.055-.124.04-.218-.014-.094-.075-.202-.182-.325l-.124.046-.084-.306.362-.133c.234.308.362.522.386.643.023.121.03.222.019.305a.764.764 0 0 1-.097.27l-.119-.021.23.284-.276.224-.417-.508a.38.38 0 0 1-.051.253l-.091-.004.207.267-.249.232-1.072-1.308.301-.192ZM202.87 34.968l.328-.012.014.108.454-.168.098.312-.248.093.844.77-.26.203-.864-.787.005 1.096-.349.032-.007-1.085-.325.119-.118-.3.43-.159-.002-.222Zm.645.962.258.103-.186.403-.258-.1.186-.406ZM203.906 34.713l1.209-.447.09.32-.826.306.311.632c.036.094.113.111.231.053l.411-.152-.116-.234-.276.103-.139-.283.615-.226.4.814.037.078-.305.179-.117-.237-.076.15-.492.183a.417.417 0 0 1-.293-.021.508.508 0 0 1-.2-.23l-.292-.595.159-.162-.3.112-.031-.343ZM205.789 33.895l.364-.131.048.097.389-.144c.101-.022.176.004.225.08l.442.904c.031.158.021.269-.03.334a.518.518 0 0 1-.232.155l-.149-.302c.065-.019.029-.157-.11-.415l-.188-.384-.195.072.493 1.005-.342.193-.52-1.061-.151.056.501 1.021-.349.178-.495-1.005.093-.111-.159.059-.049-.329.463-.172-.049-.1ZM206.931 33.584l.625-.231.095.304-.101.037.389.792.129-.047.118.285-.626.231-.106-.291.134-.049-.351-.721.11-.124-.309.114-.107-.3ZM214.067 37.863l-.016-.004c-.46-.118-.821-.385-.99-.734-.148-.304-.178-1.064.291-1.43.46-.36.936-.473 1.499-.356.594.123.848.532.858.55l.051.084-.747.388-.062-.074c-.001-.001-.127-.149-.297-.212a.716.716 0 0 0-.676.15c-.296.256-.147.597-.065.706.141.187.409.276.684.227a.636.636 0 0 0 .432-.305l-.634-.156.063-.193.872.214-.033.098a.864.864 0 0 1-.653.538c-.369.066-.731-.057-.924-.314-.16-.213-.267-.644.095-.958a.987.987 0 0 1 .931-.192c.142.053.256.144.324.208l.374-.195a1.178 1.178 0 0 0-.646-.369c-.489-.102-.887-.007-1.291.309-.368.287-.36.943-.233 1.204.142.293.45.519.842.619l.014.004c.436.107.827-.014.941-.087l.137.161c-.175.113-.637.243-1.141.119ZM218.058 49.218l-.482.326.376.419.482-.326-.376-.419Z" style="fill-rule:nonzero" transform="translate(-3060.666 -405.48) scale(38.1536)"/><path d="m5230.836 1473.928 31.095-20.984.153-.077 24.304 27.09 18.199-12.248-38.42-42.808-49.41 33.346 14.079 15.681Z"/><path d="m216.99 49.486-.368-.411-.475.32.369.411.474-.32ZM219.033 49.709l.371.413.476-.322-.371-.413-.476.322Z" style="fill-rule:nonzero" transform="translate(-3060.666 -405.48) scale(38.1536)"/><path d="m5283.526 1499.796-31.248 21.1-24.342-27.128-18.085 12.247 38.46 42.923 49.37-33.346-14.155-15.796Z"/><path d="M201.863 50.47s-4.246-.785-5.568-4.892c-1.322-4.107-.494-7.446 3.546-11.167 0 0-1.13-9.376 3.031-11.362 2.784-1.329 8.047 6.195 8.047 6.195l1.314-.095-3.119-9.422s-.696-1.86 1.281-2.41c1.977-.55 2.429 1.142 2.429 1.142l2.61 10.63 1.044.06 1.359-16.736s-.111-1.642 2.484-1.604c2.594.039 2.038 2.515 2.038 2.515l-1.522 16.904 1.382.635 10.753-11.559s1.165-1.867 3.445.332c1.566 1.51.069 3.171.069 3.171l-10.334 11.204" style="fill:none;fill-rule:nonzero;stroke:#451a0f;stroke-width:.4px" transform="translate(-3060.666 -405.48) scale(38.1536)"/><path d="M223.02 53.187s8.008.409 8.008-10.163l1.721-1.494 1.927-7.406s.666-3.506-.757-4.659c-1.033-.836-4.681.537-4.681.537M213.48 53.378s-2.637.915-5.199-.523" style="fill:none;fill-rule:nonzero;stroke:#451a0f;stroke-width:.4px" transform="translate(-3060.666 -405.48) scale(38.1536)"/><path d="m230.712 43.281 14.22-12.222s1.498-.859-.18-2.719c-1.678-1.86-2.926-1.43-4.148-.367-.977.85-8.16 8.302-10.976 11.031" style="fill:#febc12;fill-rule:nonzero" transform="translate(-3060.666 -405.48) scale(38.1536)"/><path d="m230.712 43.281 14.22-12.222s1.498-.859-.18-2.719c-1.678-1.86-2.926-1.43-4.148-.367-.977.85-8.16 8.302-10.976 11.031" style="fill:none;fill-rule:nonzero;stroke:#451a0f;stroke-width:.4px" transform="translate(-3060.666 -405.48) scale(38.1536)"/><path d="m226.263 33.916 10.073-11.004s1.166-1.429.59-2.471c-.577-1.042-2.11-2.439-3.29-1.732-1.181.706-11.279 12.002-11.279 12.002" style="fill:#febc12;fill-rule:nonzero" transform="translate(-3060.666 -405.48) scale(38.1536)"/><path d="m226.263 33.916 10.073-11.004s1.166-1.429.59-2.471c-.577-1.042-2.11-2.439-3.29-1.732-1.181.706-11.279 12.002-11.279 12.002" style="fill:none;fill-rule:nonzero;stroke:#451a0f;stroke-width:.4px" transform="translate(-3060.666 -405.48) scale(38.1536)"/></svg>