<svg viewBox="0 0 8809 3443" xmlns="http://www.w3.org/2000/svg" xml:space="preserve" style="fill-rule:evenodd;clip-rule:evenodd;stroke-linejoin:round;stroke-miterlimit:2"><path d="M250.82 79.127c-.13-2.024-.26-4.048-.371-6.073-.111-2.123-.24-4.266-.352-6.39-.074-1.449-.185-2.997-.222-4.505-.037-1.25.445-3.314-.185-4.445-.37-.675-1.185-.873-1.907-1.012l-2.832-.536a27.675 27.675 0 0 0 3.739-1.211c.278-.119.556-.238.741-.476.167-.218.222-.516.259-.774.426-2.778.148-5.715.148-8.534-.018-2.857-.018-5.735-.037-8.593-.018-2.719-.018-5.457-.037-8.176 0-.893.352-2.858-.074-3.652-.333-.654-1.129-.615-1.74-.694a9.941 9.941 0 0 0-1.889-.04c-.944.06-1.87.218-2.795.377 1.222-.357 2.481-.536 3.703-.853.796-.199 1.573-.476 2.314-.893.444-.258.926-.496 1.185-.973.111-.198.148-.456.203-.694.112-.496.13-1.012.167-1.528.074-1.409.13-2.818.148-4.247a40.33 40.33 0 0 0 0-2.144c0-.456-.166-.893-.203-1.369a10.085 10.085 0 0 0-2.037-5.259c-1.148-1.469-2.722-2.54-4.462-3.036a9.426 9.426 0 0 0-1.962-.318C164.099.36 87.376.261 12.32 3.059c-.296.02-.611-.02-.907.06-.315.079-.611.218-.907.337-.611.238-1.222.476-1.815.794-1.148.595-2.222 1.389-2.962 2.5-.426.655-.722 1.37-1.111 2.045-.204.337-.463.595-.629.952-.797 1.707-1.593 3.433-2.685 4.942C.23 16.157-.103 18.499.026 20.305c.167 2.461.223 4.942.426 7.402.334 3.91.019 7.839.426 11.769.056.555.148 1.191.537 1.548.278.258.648.357 1 .436 1.148.278 2.314.536 3.462.814-1.426.992-3.555 1.072-4.314 2.699-.241.536-.278 1.131-.315 1.727-.129 2.103-.314 4.187-.444 6.271a73.77 73.77 0 0 0-.13 2.818 42.401 42.401 0 0 1-.185 2.659c-.185 2.084-.685 4.783-.092 6.827.574 1.965 2.869 2.044 4.443 2.52-.833.1-1.462.834-1.962 1.568-.241.377-.426.754-.648 1.131-.204.338-.389.675-.556 1.032a13.149 13.149 0 0 0-.814 2.223c-.13.516-.204.913-.223 1.449l-.055 1.429c-.037.952-.056 1.905-.074 2.857A194.525 194.525 0 0 0 .471 85.2c.018 1.846-.389 3.632.333 5.438.722 1.806 1.963 3.353 3.518 4.366 1.259.833 2.684 1.27 4.165 1.349 75.483 3.552 152.224 3.513 230.15-.02 2.055-.099 4.036-.972 5.554-2.48.723-.715 1.352-1.35 1.907-2.263a44.556 44.556 0 0 0 1.852-3.374c1.333-2.758 3.092-5.854 2.87-9.089Z" style="fill:url(#a);fill-rule:nonzero" transform="translate(-.288 -32.002) scale(35.0947)"/><path d="M242.623 92.248c-77.917 3.635-154.613 3.697-230.068.02-3.35 0-6.478-2.67-7.737-6.017-.555-1.479-.684-3.102-.592-4.704a4.43 4.43 0 0 1 .111-.842c.111-.431.296-.801.333-1.253.019-.246.056-.452.074-.698.13-1.273.167-2.567.259-3.841.056-.719.13-1.458.315-2.156.204-.801.537-1.52 1.11-2.013 2.481-2.074 7.348-2.033 10.957-2.115a50.914 50.914 0 0 0 1.943-.083 72.946 72.946 0 0 1 4.72-.143 59.8 59.8 0 0 1-11.142-1.089 58.088 58.088 0 0 1-5.2-1.232 5.726 5.726 0 0 1-1.241-.473c-.536-.267-.999-.657-1.24-1.232-.203-.493-.185-1.068-.185-1.582.019-.513-.055-1.047-.018-1.56.037-1.109.166-2.178.259-3.266.093-.883.185-1.766.241-2.67.129-2.362.259-4.724.425-7.086.056-.719.13-1.499.574-1.992.278-.308.629-.452.981-.596.962-.39 1.943-.677 2.943-.862.462-.103.962-.103 1.425-.247.537-.185.944-.308 1.517-.369 5.497-.719 10.994-1.418 16.509-2.136.648-.083 1.314-.165 1.981-.247-8.292-1.109-16.602-2.259-24.893-3.368-.37-.062-.722-.103-1.092-.144-.333-.041-.685-.103-.907-.37l-.056-.061c-.166-.247-.185-.534-.222-.842-.37-4.971.056-10.105-.203-15.137-.019-.288-.093-1.684-.167-3.286-.111-2.301-.259-4.95-.314-4.95-.352-5.525 3.46-10.29 8.457-10.475C87.492.235 164.188.338 242.382 3.152c5.016.185 8.866 4.97 8.477 10.536-.13 1.89.204 3.717-.222 5.628-.093.451-.222.903-.537 1.211-.277.267-.648.37-.999.452-.944.247-1.888.514-2.832.76-1.258.329-2.498.637-3.775.801-7.552.883-15.066 1.787-22.598 2.691l-.611.061c-.241.021-.481.062-.722.082.611-.02 1.203-.02 1.795-.02 9.439-.185 18.897-.349 28.354-.534.259 0 .555 0 .759.185.241.205.296.554.333.883.056.452.056.883.056 1.294-.019 1.335-.223 2.608-.223 3.964 0 1.191.26 2.362.26 3.594a258.53 258.53 0 0 1-.13 5.319 206.967 206.967 0 0 1-.796 12.159c-.055.596-.129 1.212-.481 1.643-.278.329-.685.514-1.073.658a4.665 4.665 0 0 1-.741.246c-5.552 1.766-11.623.37-17.323 1.458-.37.062-.759.144-1.11.247-.13.02-.259.061-.371.102.463.041.926.062 1.389.124a299.886 299.886 0 0 1 18.655 2.074c.722.103 1.536.246 1.962.904.333.493.333 1.17.333 1.787v2.033c0 2.054 0 4.108.093 6.161.111 2.712.259 5.423.425 8.154.074 1.335.149 2.67.241 3.985.407 5.442-3.387 10.207-8.347 10.454Z" style="fill:url(#b);fill-rule:nonzero" transform="translate(-.288 -32.002) scale(35.0947)"/><path d="M249.616 34.017a326.9 326.9 0 0 1-.13 5.979c-3.203.369-6.331.669-9.405 1.108-.722.092-1.425.185-2.147.3-2.648.346-5.296.67-7.943.946-1.315.139-2.648.278-3.981.416-.851.092-1.61.508-2.425.623-1.148.162-2.407-.207-3.573-.3a43.895 43.895 0 0 0-3.888-.115 62.802 62.802 0 0 0-7.776.646c-5.184.739-10.294 1.963-15.441 3.024-8.239 1.709-16.515 3.025-24.846 3.879a87.054 87.054 0 0 1 13.46 2.747c-1.666.162-3.333.323-4.999.439-5.295.415-10.59.623-15.885.738-5.295.116-10.609.116-15.904.093-5.295 0-10.608-.023-15.904.023-5.295.069-10.59.208-15.885.508a223.73 223.73 0 0 0-7.924.6l-1.981.208c-.796.092-1.574.369-2.388.485-6.313.923-12.627 2.077-18.866 3.601-9.701 2.378-19.458 4.709-29.326 5.54l-5.351.416c-8.498 2.124-17.681 2.563-26.012 3.832-2.833.439-5.721.67-8.61.808a52.702 52.702 0 0 1-5.202-1.385 5.36 5.36 0 0 1-1.241-.531c-.536-.3-.999-.739-1.24-1.385-.204-.554-.185-1.2-.185-1.778.018-.577-.056-1.177-.019-1.754.037-1.247.167-2.447.26-3.671 7.627-.785 15.459-3.555 22.791-4.871 9.423-1.685 19.032-2.678 28.53-3.347 10.757-.739 21.495.854 32.214.854 9.943 0 19.848-1.085 29.734-2.078a8070.564 8070.564 0 0 0 57.746-6.025 565.945 565.945 0 0 1-12.553-.416 745.026 745.026 0 0 1-15.996-.877c-1.24-.069-2.518-.277-3.74-.115-1.277.184-2.573.23-3.851.207a27.134 27.134 0 0 1-7.535-1.2c-1.444-.439-2.888-1.016-4.351-1.339-2.481-.531-5.017-.369-7.554-.416-9.423-.161-18.699-3.255-28.123-3.139-2.48.023-4.943.277-7.405.554-2.611.3-5.24.6-7.869.692-1.166.047-2.37.139-3.499-.184-.87-.254-1.87-.139-2.759-.162l-4.776-.138a434.61 434.61 0 0 0-9.572-.162c-12.09-.069-24.143.762-36.232.646-5.147-.046-10.405-.184-15.497-1.108l-.055-.069c-.167-.277-.185-.6-.222-.947-.371-5.586.055-11.358-.204-17.014a351.97 351.97 0 0 1-.167-3.693c6.166-.67 12.368-.831 18.533-1.385 12.071-1.108 24.143-1.593 36.269-1.524 24.013.138 47.971 2.055 71.909 4.317 23.958 2.262 47.859 5.056 71.817 7.18 12.108 1.062 24.235 1.731 36.362 1.731 3.554 0 7.146-.277 10.738-.6-.019 1.5-.222 2.932-.222 4.455.055 1.455.314 2.771.296 4.133Zm.389 39.222c-.093-2.308-.093-4.617-.093-6.926-7.646-1.038-15.311-2.1-22.994-2.77-13.183-1.131-26.439-.946-39.639-.277-2.74.139-5.443.231-8.165.647-1.315.207-2.629.415-3.944.6a306.4 306.4 0 0 1-15.848 1.916c-2.055.185-4.128.369-6.202.531l16.052-.139 16.052-.138 8.016-.069c1.333-.024 2.666-.024 4.018-.047.555 0 1.148.047 1.703-.115.333-.092.667-.254 1-.323 1.203-.231 2.536.069 3.74.161l3.98.277c2.648.208 5.314.439 7.961.67 4.185.392 8.35.831 12.516 1.293 4.555.508 9.072 1.177 13.608 1.87-10.294 1.223-20.569 2.493-30.882 3.208-23.735 1.64-47.47 3.694-71.242 3.094-23.439-.577-46.823-2.262-70.28-2.147-12.367.046-24.716.3-37.047.762-9.109.323-18.329.277-27.419 1.431-.186.762-.26 1.616-.315 2.424-.093 1.431-.13 2.886-.259 4.317 10.127.508 20.365-.346 30.474-.369 12.349-.023 24.698.115 37.047.485 23.402.692 46.785 2.308 70.169 2.816 23.809.531 47.562-1.593 71.316-3.093 12.257-.762 24.587-.785 36.843-.947h.26a499.109 499.109 0 0 1-.426-9.142Z" style="fill:url(#c);fill-rule:nonzero" transform="translate(-.288 -32.002) scale(35.0947)"/><path d="M5.803 65.321c-.019 1.154-.019 2.332.277 3.417-.537-.3-.999-.739-1.24-1.385-.204-.554-.185-1.201-.185-1.778.018-.577-.056-1.177-.019-1.754.074-2.24.408-4.433.5-6.672.13-2.655.259-5.31.426-7.965.056-.808.13-1.685.574-2.239.278-.346.629-.508.981-.669a13.908 13.908 0 0 1 2.944-.97c.463-.116.963-.115 1.426-.277.536-.208.944-.346 1.518-.416 5.498-.808 10.997-1.593 16.514-2.401-5.906 1.501-11.812 2.955-17.736 4.456-1.148.277-2.685.277-3.648 1.223-.203.185-.37.416-.536.647-.149.208-.278.439-.445.646-.315.347-.426.901-.574 1.385a19.137 19.137 0 0 0-.666 4.364c-.019.554-.019 1.131-.074 1.685l-.056.415c-.018.162-.092.277-.129.439-.297 1.131-.26 2.378-.13 3.532.056.416.167.831.241 1.247.185.992.055 2.054.037 3.07ZM219.012 23.398a313.82 313.82 0 0 0-1-.07h1.593c-.185 0-.389.046-.593.07ZM224.456 57.633c1.536.185 3.073.37 4.61.508-.371.069-.76.162-1.111.277-1.185-.277-2.37-.554-3.499-.785ZM247.08 54.793c.24-1.2.185-2.447.092-3.67-.129-2.263-.278-4.548-.407-6.81-.019-.439-.074-.924-.352-1.201-.222-.231-.537-.231-.815-.208l-6.831.277a17.652 17.652 0 0 0 7.128-2.424c.648-.392 1.314-.877 1.555-1.685.13-.415.13-.877.13-1.339-.038-3.578-.537-7.572-.889-11.127-1.074-1.27-2.685-1.431-4.166-1.547-5.961-.462-11.941-.9-17.885-1.362-1.425-.115-3.017-.185-4.536-.277 9.443-.208 18.903-.392 28.364-.6.259 0 .556 0 .759.208.241.231.297.623.334.992.203 2.032-.186 3.902-.186 5.91 0 1.339.26 2.655.26 4.04-.093 6.418-.371 13.113-.945 19.646-.055.67-.129 1.362-.481 1.847-.278.369-.685.577-1.074.739-.24.115-.481.207-.74.277.333-.462.555-1.062.685-1.686Z" style="fill:#eb924d;fill-rule:nonzero" transform="translate(-.288 -32.002) scale(35.0947)"/><path d="M4.504 21.633c-.037-.671-.37-8.154-.481-8.154C3.671 8.01 7.485 3.293 12.484 3.11 87.531.243 164.262.345 242.493 3.13c5.017.183 8.869 4.92 8.48 10.431-.13 1.87.204 3.68-.222 5.571-.093.447-.222.894-.537 1.199-.278.265-.648.366-1 .448-.944.244-1.87.528-2.815.752.815-.813 1.76-1.769 2.13-2.948.259-.793.055-1.485-.204-2.237-.37-1.179-.444-2.297-.481-3.538-.056-1.525.185-3.7-.908-4.92-.833-.915-1.925-1.708-2.962-2.277-2.574-1.383-5.555-1.688-8.388-1.81-.148 0-.278-.02-.426-.02-5.221-.183-10.461-.204-15.683.386-.63.061-1.185.264-1.796.386-.759.163-1.667-.04-2.444-.081a450.963 450.963 0 0 0-5.314-.264 458.506 458.506 0 0 0-10.647-.305c-2.667-.041-5.314-.041-7.981-.041h-2.518c-1.611 0-3.222 0-4.851-.02-2.241 0-4.481 0-6.722-.021h-.314c-3.555 0-7.092-.02-10.647-.02-1.778 0-3.555 0-5.314-.02-.815 0-1.722.122-2.518-.041-.815-.163-1.463-.712-2.315-.793-.778-.081-1.574.061-2.333.142-1.944.163-3.87.366-5.796.61-.87.102-1.833.265-2.407.976-.203.244-.352.549-.592.753-.537.427-1.296.142-1.926-.102a12.338 12.338 0 0 0-3.907-.813c-1.203-.061-2.388.183-3.592.101-.759-.04-1.481-.244-2.222-.406-2.925-.631-5.981-.671-8.925-.915a142.639 142.639 0 0 0-6.591-.387c-7.092-.284-14.202-.122-21.276.204-3.555.162-7.091.366-10.646.61-1.63.101-3.426.488-5.037.244-.463-.061-.907-.265-1.37-.366-.481-.102-.963-.082-1.463-.082-1.962.021-3.944.041-5.906.041-2.296.02-4.611 0-6.925 0-.778 0-1.537.163-2.296.163-.704 0-1.389-.163-2.093-.163-1.463.02-2.907.325-4.259.935-.518.244-1.055.509-1.629.488-1.037-.061-1.741-1.138-2.685-1.626-2.222-1.159-4.518 1.057-6.795.162-1.13-.447-2.278-.386-3.481-.386-1.519-.02-3.037-.02-4.555-.02-5.148.02-10.295.223-15.406.793a97.052 97.052 0 0 0-7.628 1.159c-1.222.244-2.463.63-3.704.793-.389.061-.666.04-1 .305-1.499 1.159-5.666 7.645-2.703 9.942.185.142.389.264.611.366.315.142.648.203.981.325.334.143.76.041 1.111.041.852 0 1.704 0 2.537-.02.908 0 1.815-.021 2.667.264-1.926.427-3.852.854-5.796 1.281-.63.142-1.259.285-1.833.569-.111.061-.204.061-.315.122-.407.183-.722.712-.87 1.139-.389 1.118-.148 2.338-.315 3.497-.296 2.074.074 4.311.259 6.364.241 2.643.537 5.307.889 7.95-.37-.061-.722-.102-1.092-.142-.352-.041-.723-.102-.963-.407-.167-.244-.185-.529-.222-.834-.278-4.92.148-10.003-.093-14.984ZM250.977 81.176c-.259-4.22-.481-8.44-.666-12.66-.111-2.849-.093-5.698-.093-8.547 0-.642-.018-1.327-.333-1.863-.426-.686-1.241-.835-1.963-.942A287.39 287.39 0 0 0 229.256 55c5.556 1.242 11.296 2.828 16.574 4.52 1.037.342 1.111 1.263 1.536 2.399.408 1.135.445 2.42.482 3.641.018.514.018 1.028-.13 1.521-.315 1.093-1.314 1.692-2.203 2.206.666.215 1.333.429 2.018.664.167.065.333.108.445.258.129.149.185.406.203.642.259 2.035.056 4.177.074 6.233.019 1.328.019 2.657.037 3.985.019.364.13.707.204 1.092a5.742 5.742 0 0 1-.167 2.314c-.407 1.542-1.314 2.913-2.481 3.791-2.018 1.521-4.537 1.842-6.944 2.035-4.018.343-8.055.3-12.055.75-1.333.128-2.648.278-3.981.407-2.648.257-5.315.471-7.963.685-5.018.385-10.055.685-15.073.878-11.888.472-23.795.429-35.702.343-1.444 0-2.889-.021-4.333-.021-1.167 0-2.278.171-3.426.042-2.796-.321-5.574.258-8.351.622-3.241.407-6.722.449-9.518-1.478-.889-.622-1.759-1.457-2.796-1.478-.852-.022-1.648.535-2.426.964-1.482.813-3.111 1.263-4.741 1.499-.037 0-.055 0-.092.021-3.463.514-6.796.236-10.259-.042-2.537-.193-5.203.299-7.629-.75-1.87-.793-3.833-1.928-5.759-1.307-.685.214-1.296.643-1.945.943-1.259.578-2.648.685-3.999.771l-2.556.128c-3.537.129-7.092.107-10.629-.064-1.481-.086-3-.064-4.425-.557-1-.343-1.982-.129-3.019-.043-4.296.322-8.61.407-12.925.236a106.454 106.454 0 0 1-5.259-.321c-.852-.065-1.741-.257-2.593-.257-.592 0-1.129.214-1.722.214-3.574-.022-7.129-.086-10.703-.129-6.092-.064-12.203-.15-18.295-.214-4.167.664-7.666-.171-11.796-1.05-3.389-.728-7.074-2.313-8.481-5.955-.592-1.52-.685-3.213-.63-4.84.019-.493.056-.964 0-1.457-.055-.45-.185-.857-.24-1.307-.185-1.478.203-3.191.518-4.626.167-.729.371-1.5.834-2.057.407-.514.981-.814 1.555-1.028 1.519-.557 3.13-.685 4.722-.793 2.296-.15 4.592-.321 6.889-.471.463-.021.925-.043 1.388-.086a3.724 3.724 0 0 1-.092-.792l.018-.107c-1.407-.043-2.814-.043-4.222-.064-3.629.085-8.481.064-10.962 2.206-1.111.964-1.315 2.742-1.426 4.327-.111 1.563-.148 3.17-.333 4.734-.056.471-.222.857-.334 1.306-.074.3-.092.579-.111.879-.092 1.649.037 3.363.593 4.905 1.241 3.513 4.37 6.276 7.74 6.276 75.496 3.834 152.233 3.791 230.192-.021 4.981-.257 8.777-5.227 8.425-10.946Z" style="fill:#eb924d;fill-rule:nonzero" transform="translate(-.288 -32.002) scale(35.0947)"/><path d="M17.597 53.339c0 1.247.037 2.516.092 3.763.019.623.056 1.247.093 1.87.018.462 0 .97.074 1.408.074.369.148.693.148 1.085.037 1.062.074 2.147.13 3.209.074 2.147.166 4.271.24 6.418.111 2.747.204 5.471.315 8.218.055 1.524.259 2.84.907 4.133.13.254.241.508.389.738.241.393.537.67.907.878 1.352.738 2.888 1.131 4.351 1.408 2.259.439 4.536.554 6.813.646 30.012 1.316 60.06 2.655 90.09 1.732 3.666-.116 7.461-.231 10.868 1.477-1.555-3.463-5.314-3.971-8.498-4.063-33.363-.946-66.744-2.008-99.995-5.471-.907-.092-1.907-.231-2.555-1.062-.463-.577-.648-1.408-.796-2.193-1.703-8.565-2.037-17.545-1-26.272.056-.531.185-1.108.167-1.639-.019-.554-.074-1.108-.074-1.685a36.243 36.243 0 0 1 .111-3.486c-.13-.277-.445-.277-.685-.231-.63.093-1.259.162-1.907.254.037.762 0 1.478-.074 2.239-.019.254.018.439.037.693.037.508-.037 1.039-.056 1.524-.037.738-.055 1.5-.074 2.239-.018.716-.037 1.431-.018 2.17ZM134.31 90.739c.37-1.178 1.61-1.385 2.629-1.409 8.09-.207 16.163-.392 24.253-.6 7.628-.184 15.274-.369 22.902-.577 2.463-.069 5.092-.069 7.128 1.662-.037-.369-.092-.738-.129-1.108.87-.185 1.703-.415 2.592-.323.481.046.981-.162 1.462-.231 1.13-.185 2.278-.254 3.407-.323 6.276-.346 12.571-.462 18.866-.854 1.592-.093 3.166-.231 4.758-.37 1.574-.138 3.166-.254 4.721-.531.222-.046.426-.138.648-.161l.889-.069c1.592-.162 3.203-.531 4.684-1.386 1.851-1.062 3.48-2.955 4.073-5.379.259-1.085.315-2.216.37-3.347a160.5 160.5 0 0 0-.185-15.514c-.204-.253-.722.208-.796.578a112.29 112.29 0 0 0-1.703 11.404c-.222 2.285-.408 4.709-1.537 6.51-1.24 1.962-3.314 2.747-5.277 3.301-10.423 3.001-21.198 3.302-31.881 3.579-9.961.254-19.921.531-29.863.784-8.295-.346-16.793 1.293-25.032.185-2.314-.323-4.647-.831-6.961-.416-.166.024-.352.07-.481.231-.093.116-.111.277-.148.439-.278 1.201.166 2.724.611 3.925Z" style="fill:#eb924d;fill-rule:nonzero" transform="translate(-.288 -32.002) scale(35.0947)"/><path d="M237.23 68.806c-.018-4.386-.055-8.772-.092-13.181-.019-4.225-.056-8.427-.074-12.651-.038-5.079.129-10.204-.352-15.237-.093-.993-.296-2.008-.278-3.001.019-1.501-.222-2.655-.759-4.086-.685-1.939-1.666-3.717-2.777-5.333-2.407-3.555-5.869-3.717-9.479-3.901-3.796-.185-7.573-.023-11.35-.047-4.221-.023-8.461-.046-12.682-.092-5.147-.046-10.275-.115-15.422-.185l-15.441-.207c-2.573-.023-5.147-.07-7.72-.093-.537 0-1.093-.069-1.611.093-.333.092-.63.254-.963.3-1.148.138-2.462-.231-3.592-.508.149-3.301.611-6.58 1.389-9.765a97.209 97.209 0 0 1-3.629 9.58c-.092.208-.185.416-.352.508-.166.092-.37.069-.536.046-.389-.069-.797-.115-1.185-.231-.889-.277-1.833-.161-2.759-.161-3.981-.046-7.943-.069-11.923-.093-7.813-.046-15.626-.023-23.421.047-8.368.069-16.736-.07-25.123-.116-2.278-.023-4.555-.046-6.814-.046-.981 0-1.925-.046-2.869.208-.981.277-2.185.046-3.185-.023-.555-.046-1.148-.116-1.592-.554-.444-.416-.648-1.085-.852-1.732l-1.221-4.017c.074 1.57.185 3.117.388 4.664.056.507.093 1.154-.277 1.408-.111.069-.26.092-.389.115-.444.046-.907.185-1.352.07-.851-.208-1.703-.139-2.573-.139-9.479.023-18.94-.023-28.438-.069-5.313-.023-18.088-3.394-19.829 5.61-.24 1.246-.222 2.539-.296 3.832-.185 3.878-.074 7.78-.018 11.681.148 12.859.444 25.718.851 38.553.056 1.962.13 3.948.334 5.91.166 1.547.074 3.578 1.055 4.779.333.415.574.808.87 1.292.592.947 1.407 1.663 2.296 2.171 1.907 1.108 4.11 1.408 6.221 1.523 6.887.416 13.755.762 20.624 1.039 6.925.277 13.83.531 20.755.693 6.924.161 13.83.277 20.754.323 6.276.046 12.553.069 18.829.092h9.609c3.462 0 7.646-1.339 10.831.716 1.592 1.016 2.925 2.655 3.684 4.686a24.436 24.436 0 0 1 .111-4.94 46.517 46.517 0 0 1 7.572-.762c1.093-.023 2.148.185 3.24.162 1.296 0 2.574-.023 3.851-.023 5.147-.047 10.294-.093 15.441-.162l9.572-.138c6.924-.093 13.83-.301 20.754-.624 1.241-.069 2.5-.115 3.74-.185a564.64 564.64 0 0 0 28.586-2.1c.815-.093 1.592-.185 2.351-.37 1.222-.3 2.37-.831 3.37-1.893 1.222-1.292 2.407-2.678 3.221-4.386 1.278-2.77.945-5.91.926-9.05Zm-5.147 5.98c-.5 1.039-1.425 2.077-2.184 2.862-.186.185-.463.416-1.185.577-.537.139-1.167.208-1.815.277-9.127.901-18.681 1.593-28.382 2.101-1.24.069-2.462.116-3.703.162a669.45 669.45 0 0 1-20.625.623c-19.68.3-39.065.462-57.653.462-8.331 0-16.662-.023-25.012-.093-6.851-.069-13.83-.161-20.681-.323-6.85-.161-13.811-.392-20.68-.669a992.1 992.1 0 0 1-20.569-1.039c-1.5-.069-3.203-.254-4.407-.947-.296-.184-.444-.323-.481-.369-.222-.369-.5-.808-.815-1.27-.018-.231-.037-.484-.055-.692-.037-.416-.056-.808-.093-1.201-.148-1.662-.222-3.37-.296-5.425a1652.493 1652.493 0 0 1-.852-38.391l-.018-2.17c-.056-3.163-.093-6.141.055-9.073.019-.323.019-.669.037-1.039.019-.715.037-1.362.111-1.731.167-.785 1.944-1.593 5.629-1.593 1.814 0 3.758.185 5.461.346 1.463.162 2.852.277 4.037.277 8.461.046 16.94.069 25.42.069h4.758c6.332 0 12.663.024 19.014.07l6.109.046c4.462.046 8.943.069 13.405.069 1.87 0 3.777 0 5.665-.023 4.721-.046 9.424-.069 14.145-.069 15.977 0 32.27.231 48.007.438 12.349.162 25.142.324 37.658.393l.611.023c1.111 0 2.185-.023 3.295-.023 1.074-.023 2.148-.023 3.203-.023 1.556 0 2.851.023 4.018.092h.129c3.389.185 4.962.416 5.888 1.778.944 1.385 1.592 2.655 2.037 3.878.333.947.333 1.201.333 1.57-.019 1.2.129 2.239.222 3.07.019.231.056.508.093.739.333 3.509.314 7.111.314 10.943-.018 1.2-.018 2.401 0 3.601l.167 25.764c.018.577.018 1.108.037 1.639.018 1.823.056 3.439-.352 4.294Z" style="fill:url(#d);fill-rule:nonzero" transform="translate(-.288 -32.002) scale(35.0947)"/><path d="m17.67 45.19 5.666-1.409-.241-.669-5.869.877.444 1.201ZM230.88 24.113l6.572.67v-1.824l-7.109.392.537.762ZM231.342 59.411l7.277 1.731-.149-1.454-7.813-.854.685.577ZM210.07 51.655c-5.536-3.856-14.737-2.678-19.125 2.516-2.759 3.278-2.907 9.396 0 12.651 6.387 7.179 17.607 4.109 21.661-4.756.074-.092.148-.184.241-.254 3.092-3.486.889-9.28-2.777-10.157Z" style="fill:#eb924d;fill-rule:nonzero" transform="translate(-.288 -32.002) scale(35.0947)"/><path d="M211.384 48.26c-5.536-3.855-14.737-2.678-19.125 2.516-2.759 3.279-2.907 9.396 0 12.651 6.387 7.18 17.607 4.11 21.662-4.755.074-.093.148-.185.24-.254 3.092-3.486.889-9.281-2.777-10.158Z" style="fill:url(#e);fill-rule:nonzero" transform="translate(-.288 -32.002) scale(35.0947)"/><path d="M210.07 50.454c-5.536-3.855-14.737-2.677-19.125 2.517-2.759 3.278-2.907 9.396 0 12.651 6.387 7.179 17.607 4.109 21.661-4.756.074-.092.148-.185.241-.254 3.092-3.486.889-9.28-2.777-10.158Z" style="fill:url(#f);fill-rule:nonzero" transform="translate(-.288 -32.002) scale(35.0947)"/><path d="M189.019 37.433c-3.499-2.447-9.294-1.685-12.053 1.593-1.74 2.078-1.832 5.933 0 7.988 4.036 4.525 11.109 2.585 13.664-3.001.055-.046.092-.116.148-.162 1.944-2.216.555-5.864-1.759-6.418Z" style="fill:#eb924d;fill-rule:nonzero" transform="translate(-.288 -32.002) scale(35.0947)"/><path d="M189.852 35.286c-3.499-2.447-9.294-1.685-12.053 1.593-1.74 2.055-1.832 5.933 0 7.988 4.037 4.525 11.109 2.585 13.664-3.001.055-.046.092-.116.148-.162 1.944-2.216.555-5.864-1.759-6.418Z" style="fill:url(#g);fill-rule:nonzero" transform="translate(-.288 -32.002) scale(35.0947)"/><path d="M189.019 36.672c-3.499-2.448-9.294-1.686-12.053 1.592-1.74 2.078-1.832 5.934 0 7.988 4.036 4.525 11.109 2.586 13.664-3.001.055-.046.092-.115.148-.162 1.944-2.216.555-5.863-1.759-6.417Z" style="fill:url(#h);fill-rule:nonzero" transform="translate(-.288 -32.002) scale(35.0947)"/><path d="M46.534 60.842c-3.499-2.447-9.294-1.685-12.053 1.593-1.74 2.055-1.833 5.933 0 7.988 4.036 4.525 11.109 2.586 13.664-3.001.055-.046.092-.116.148-.162 1.944-2.216.555-5.863-1.759-6.418Z" style="fill:#eb924d;fill-rule:nonzero" transform="translate(-.288 -32.002) scale(35.0947)"/><path d="M47.367 58.695c-3.499-2.447-9.294-1.685-12.053 1.593-1.74 2.078-1.833 5.933 0 7.988 4.036 4.525 11.109 2.586 13.664-3.001.055-.046.092-.116.148-.162 1.944-2.216.555-5.863-1.759-6.418Z" style="fill:url(#i);fill-rule:nonzero" transform="translate(-.288 -32.002) scale(35.0947)"/><path d="M46.534 60.081c-3.499-2.447-9.294-1.685-12.053 1.593-1.74 2.054-1.833 5.933 0 7.987 4.036 4.525 11.109 2.586 13.664-3.001.055-.046.092-.115.148-.161 1.944-2.217.555-5.864-1.759-6.418Z" style="fill:url(#j);fill-rule:nonzero" transform="translate(-.288 -32.002) scale(35.0947)"/><path d="M232.972 51.422c-.018 7.895-.389 15.906-1.074 23.94-.185 2.147-1.648 3.786-3.425 3.924-67.058 5.333-134.394 6.164-201.434.762-1.815-.161-3.259-1.87-3.407-4.04-1.074-15.744-2.203-32.481-1.666-48.318.074-2.539.185-5.056.37-7.526.148-2.216 1.704-3.925 3.555-3.994 71.576-2.493 138.949-2.424 202.064 1.801 1.74.115 3.184 1.685 3.425 3.763 1.074 9.511 1.611 19.507 1.592 29.688Z" style="fill:url(#k);fill-rule:nonzero" transform="translate(-.288 -32.002) scale(35.0947)"/><path d="M228.251 74.9a1382.886 1382.886 0 0 1-58.449 3.44c-13.812.531-27.457.831-40.88.923a7.461 7.461 0 0 1-1.036 0c-2.518.047-5.036.047-7.536.047-31.622 0-62.948-1.247-93.07-3.671-1.13-16.46-2.37-34.975-1.5-51.827.037-1.108.111-2.193.185-3.278 32.27-1.085 61.671-1.639 89.905-1.639 13.515 0 26.605.138 39.343.369.203.023.407.023.61.023l3.444.069c11.794.254 23.291.647 34.511 1.155a1394.51 1394.51 0 0 1 33.973 1.846c.593 4.987.981 10.135 1.24 15.399.593 12.05.334 24.655-.74 37.144Z" style="fill:url(#l);fill-rule:nonzero" transform="translate(-.288 -32.002) scale(35.0947)"/><defs><linearGradient id="a" x1="0" y1="0" x2="1" y2="0" gradientUnits="userSpaceOnUse" gradientTransform="scale(-133.17) rotate(-68.282 .074 1.606)"><stop offset="0" style="stop-color:#cf5c2b;stop-opacity:1"/><stop offset="1" style="stop-color:#59173e;stop-opacity:1"/></linearGradient><linearGradient id="b" x1="0" y1="0" x2="1" y2="0" gradientUnits="userSpaceOnUse" gradientTransform="scale(-236.1183) rotate(-78.118 -.189 .467)"><stop offset="0" style="stop-color:#cf5c2b;stop-opacity:1"/><stop offset="1" style="stop-color:#59173e;stop-opacity:1"/></linearGradient><linearGradient id="c" x1="0" y1="0" x2="1" y2="0" gradientUnits="userSpaceOnUse" gradientTransform="scale(-327.8934) rotate(-76.279 -.127 .346)"><stop offset="0" style="stop-color:#cf5c2b;stop-opacity:1"/><stop offset="1" style="stop-color:#59173e;stop-opacity:1"/></linearGradient><linearGradient id="d" x1="0" y1="0" x2="1" y2="0" gradientUnits="userSpaceOnUse" gradientTransform="scale(-71.5746) rotate(85.79 .127 -1.967)"><stop offset="0" style="stop-color:#cf5c2b;stop-opacity:1"/><stop offset="1" style="stop-color:#59173e;stop-opacity:1"/></linearGradient><linearGradient id="e" x1="0" y1="0" x2="1" y2="0" gradientUnits="userSpaceOnUse" gradientTransform="rotate(115.006 98.958 79.236) scale(48.0208)"><stop offset="0" style="stop-color:#cf5c2b;stop-opacity:1"/><stop offset="1" style="stop-color:#59173e;stop-opacity:1"/></linearGradient><linearGradient id="f" x1="0" y1="0" x2="1" y2="0" gradientUnits="userSpaceOnUse" gradientTransform="scale(-363.654) rotate(-61.748 -.104 .747)"><stop offset="0" style="stop-color:#cf5c2b;stop-opacity:1"/><stop offset="1" style="stop-color:#59173e;stop-opacity:1"/></linearGradient><linearGradient id="g" x1="0" y1="0" x2="1" y2="0" gradientUnits="userSpaceOnUse" gradientTransform="scale(-30.2887) rotate(-64.995 -3.65 4.62)"><stop offset="0" style="stop-color:#cf5c2b;stop-opacity:1"/><stop offset="1" style="stop-color:#59173e;stop-opacity:1"/></linearGradient><linearGradient id="h" x1="0" y1="0" x2="1" y2="0" gradientUnits="userSpaceOnUse" gradientTransform="scale(-229.372) rotate(-61.748 -.245 .943)"><stop offset="0" style="stop-color:#cf5c2b;stop-opacity:1"/><stop offset="1" style="stop-color:#59173e;stop-opacity:1"/></linearGradient><linearGradient id="i" x1="0" y1="0" x2="1" y2="0" gradientUnits="userSpaceOnUse" gradientTransform="rotate(115.005 10.436 36.724) scale(30.2886)"><stop offset="0" style="stop-color:#cf5c2b;stop-opacity:1"/><stop offset="1" style="stop-color:#59173e;stop-opacity:1"/></linearGradient><linearGradient id="j" x1="0" y1="0" x2="1" y2="0" gradientUnits="userSpaceOnUse" gradientTransform="scale(-229.373) rotate(-61.748 -.02 .372)"><stop offset="0" style="stop-color:#cf5c2b;stop-opacity:1"/><stop offset="1" style="stop-color:#59173e;stop-opacity:1"/></linearGradient><linearGradient id="k" x1="0" y1="0" x2="1" y2="0" gradientUnits="userSpaceOnUse" gradientTransform="rotate(90 57.426 69.965) scale(32.3178)"><stop offset="0" style="stop-color:#ffca2b;stop-opacity:1"/><stop offset="1" style="stop-color:#d15b24;stop-opacity:1"/></linearGradient><linearGradient id="l" x1="0" y1="0" x2="1" y2="0" gradientUnits="userSpaceOnUse" gradientTransform="rotate(-90 113.745 -13.644) scale(49.0043)"><stop offset="0" style="stop-color:#ffce3b;stop-opacity:1"/><stop offset="1" style="stop-color:#cc6923;stop-opacity:1"/></linearGradient></defs></svg>