<svg viewBox="0 0 386 137" xmlns="http://www.w3.org/2000/svg" xml:space="preserve" style="fill-rule:evenodd;clip-rule:evenodd;stroke-linejoin:round;stroke-miterlimit:2"><path d="M119.033 115.676a6.698 6.698 0 0 0 .762-2.043c.128-.794.255-1.532.382-2.213a38.489 38.489 0 0 0 0-9.363 76.188 76.188 0 0 0-1.335-9.193 370.666 370.666 0 0 0-5.149-21.11 582.403 582.403 0 0 1-4.957-21.279 242.007 242.007 0 0 1-2.289-13.279 82.918 82.918 0 0 1-.762-13.79c0-1.475.063-2.894.19-4.256.127-1.475.382-2.894.763-4.256.381-.908.953-1.588 1.716-2.042 1.653-.908 3.051-2.157 4.195-3.746.763-1.248 1.907-2.213 3.433-2.894.635-.227 1.144-.511 1.525-.851.509-.341.89-.851 1.144-1.532v-.341c.127-.113.191-.227.191-.34.381-.341.89-.454 1.526-.341.127.114.19.454.19 1.022a31.143 31.143 0 0 0-.763 4.767 59.766 59.766 0 0 0-.19 4.766c0 5.107.381 10.158 1.144 15.152.89 4.88 1.843 9.817 2.86 14.81a529.608 529.608 0 0 0 4.958 20.259 362.888 362.888 0 0 1 4.767 20.259 53.736 53.736 0 0 1 1.144 9.192 35.645 35.645 0 0 1-.762 9.023c-.636 2.951-1.717 5.618-3.242 8.001-1.526 2.27-3.623 4.2-6.293 5.789a12.463 12.463 0 0 0-3.241 2.894 19.671 19.671 0 0 1-2.67 2.894 373.7 373.7 0 0 1-2.86 2.213 16.033 16.033 0 0 1-2.861 2.043 116.656 116.656 0 0 0-4.004 2.043 93.74 93.74 0 0 1-3.623 2.042c-.763.454-1.271.568-1.526.341-.254-.341-.317-.681-.19-1.022.127-.227.317-.454.572-.681.254-.113.508-.283.762-.51 0-.341-.063-.511-.19-.511-3.941-3.178-7.31-6.753-10.107-10.725a117.96 117.96 0 0 1-7.246-12.768 350.58 350.58 0 0 1-5.72-12.768 116.842 116.842 0 0 1-4.195-13.279c-.255-.681-.636-1.191-1.145-1.532 0 1.362-.063 2.781-.19 4.256v4.086a175.437 175.437 0 0 0-.191 8.171c0 2.724-.127 5.448-.381 8.172-.255 2.27-.7 4.54-1.335 6.809a185.645 185.645 0 0 1-2.098 6.64c-.127.113-.19.227-.19.34 0 .114-.128.227-.382.341-.508.454-.89.851-1.144 1.191-.127.341-.127.852 0 1.533.127.794-.127 1.418-.763 1.872-.508.568-1.08.965-1.716 1.192-1.78.908-3.305 2.043-4.576 3.405a22.832 22.832 0 0 1-4.386 3.915v.17c-1.017 1.249-1.716 1.873-2.098 1.873-.381 0-1.144-.567-2.288-1.702-3.814-3.632-6.928-7.604-9.344-11.917-2.415-4.426-4.322-9.193-5.72-14.3a273.405 273.405 0 0 1-5.53-21.791l-4.577-22.131a210.05 210.05 0 0 0-3.051-12.768 150.166 150.166 0 0 0-4.004-12.768c-1.144-3.291-2.543-6.356-4.195-9.193a37.376 37.376 0 0 0-6.484-8.001c-.635-.681-.89-1.135-.762-1.362 0-.341.381-.795 1.144-1.362 1.398-.681 2.479-1.532 3.241-2.554a59.884 59.884 0 0 0 2.861-2.723c.89-1.022 2.034-1.816 3.432-2.384.381-.113.699-.511.954-1.191.762-1.703 1.716-1.93 2.86-.681 2.542 2.496 4.64 5.107 6.293 7.831a37.772 37.772 0 0 1 3.432 7.15 128.875 128.875 0 0 1 2.86 7.32 164.876 164.876 0 0 1 4.195 15.492 565.542 565.542 0 0 1 3.242 15.492 2426.037 2426.037 0 0 0 3.814 18.045 303.872 303.872 0 0 0 4.767 17.705 98.227 98.227 0 0 0 2.479 7.15 59.012 59.012 0 0 0 3.623 6.81c.254.227.445.567.572 1.021.254.34.636.624 1.144.851.254-.34.318-.681.191-1.021v-.851c.127-4.54.254-9.023.381-13.449.127-4.427.318-8.91.572-13.449.255-4.767.699-9.477 1.335-14.13a115.613 115.613 0 0 1 3.242-14.3c.254-.568.508-1.078.763-1.532.254-.454.699-.852 1.334-1.192 1.526-.681 2.924-1.929 4.195-3.745.763-1.249 1.78-2.1 3.051-2.554 1.653-.567 2.607-1.419 2.861-2.554.127-.567.699-.964 1.716-1.191.381 0 .636.17.763.51.127.227.318.454.572.681a48.972 48.972 0 0 1 2.288 5.959 375.315 375.315 0 0 1 1.907 5.958 330.246 330.246 0 0 1 4.195 14.981 105.182 105.182 0 0 0 5.339 14.471 339.13 339.13 0 0 0 5.149 11.746 75.15 75.15 0 0 0 6.292 11.066 113.74 113.74 0 0 0 4.196 5.447 46.378 46.378 0 0 0 4.957 4.767c.382.227.7.511.954.851.254.227.699.454 1.335.681ZM202.385 93.375c-.381-.227-.763-.284-1.144-.17h-.954c-5.339.227-10.487-.114-15.445-1.022-1.017 0-1.589-.227-1.717-.681-.254-.454-.254-.794 0-1.021.382-.227.7-.454.954-.681 1.017-.681 1.843-1.419 2.479-2.213l1.907-2.724c.381-.568.763-1.078 1.144-1.532.381-.454.89-.851 1.525-1.192 1.399-.567 2.162-1.419 2.289-2.553.127-.681.381-1.079.762-1.192.509-.114 1.081-.114 1.717 0 1.017.113 1.906.227 2.669.34.89 0 1.844.057 2.861.171 4.067.567 8.072.681 12.013.34 3.941-.454 7.882-.965 11.822-1.532l.763-.341 1.144-.34c.255-.227.572-.227.954 0 .127.34.127.681 0 1.021-.89 1.135-1.716 1.986-2.479 2.554a28.936 28.936 0 0 0-2.861 2.554 39.21 39.21 0 0 0-2.097 2.723c-.636.908-1.271 1.589-1.907 2.043-1.144 1.022-1.589 2.213-1.335 3.575.89 4.313 1.971 8.512 3.242 12.598a62.095 62.095 0 0 0 5.148 11.917c1.399 2.61 2.988 4.88 4.768 6.809.89.795.953 1.589.19 2.384-.508.681-.889 1.078-1.144 1.191-1.78 1.135-3.241 2.497-4.386 4.086a33.464 33.464 0 0 1-3.813 4.426l-.382.341c0 .113-.063.227-.19.34-.509 1.022-.954 1.532-1.335 1.532-.254.114-.699-.227-1.335-1.021a43.875 43.875 0 0 1-4.767-6.639 64.223 64.223 0 0 1-3.433-7.15 95.068 95.068 0 0 1-2.669-7.831 969.183 969.183 0 0 1-1.907-8.342c-.127-.227-.191-.397-.191-.511.127-.113.064-.284-.19-.511-.509 0-.827.171-.954.511 0 .341-.127.624-.381.851a132.891 132.891 0 0 1-4.005 4.767 67.012 67.012 0 0 1-4.004 4.256l-3.051 3.405a249.742 249.742 0 0 1-2.86 3.575c-2.034 2.497-4.64 4.54-7.819 6.128-3.813 2.043-7.691 1.93-11.632-.34-2.669-1.589-5.021-3.745-7.055-6.469-2.543-3.291-4.704-6.696-6.483-10.214a107.332 107.332 0 0 1-4.768-10.896c-2.923-7.717-4.894-15.492-5.911-23.323a135.048 135.048 0 0 1-.953-23.833c.254-4.313.89-8.512 1.907-12.598 1.017-4.199 2.542-8.285 4.576-12.257a33.669 33.669 0 0 1 2.479-4.086 15.258 15.258 0 0 1 3.242-3.575c.762-.681 1.271-1.248 1.525-1.702 1.271-2.043 2.67-3.689 4.195-4.937.509-.341.89-.681 1.144-1.022a8.87 8.87 0 0 1 .954-1.362 11.695 11.695 0 0 1 5.339-3.915c1.144-.454 2.288-.284 3.433.511.508.453.953.907 1.334 1.361a4.9 4.9 0 0 1 1.335 1.362 52.13 52.13 0 0 1 4.767 6.81l4.195 6.81a55.696 55.696 0 0 0 2.098 3.745 34.279 34.279 0 0 1 2.098 3.575c.254.227.444.511.572.851.127.227.445.454.953.681-.127-1.249-.254-2.44-.381-3.575a31.75 31.75 0 0 0-.572-3.405 42.868 42.868 0 0 1-.382-5.618c0-1.816.064-3.688.191-5.618.127-.908.572-1.702 1.335-2.383 1.779-1.248 3.114-2.724 4.004-4.426.509-1.135 1.335-2.043 2.479-2.724a73.292 73.292 0 0 1 1.716-1.192c.636-.454.954-1.135.954-2.043.254-.794.699-1.078 1.335-.851.508 0 .699.17.572.511v.681c-.255 3.972-.191 7.831.19 11.576a88.14 88.14 0 0 0 2.289 11.236 201.77 201.77 0 0 0 3.241 10.214 157.424 157.424 0 0 0 3.814 9.874c.254.341.381.738.381 1.192.127.34 0 .681-.381 1.021a10.968 10.968 0 0 0-2.479 3.235 11.876 11.876 0 0 1-2.479 3.064 30.138 30.138 0 0 0-2.097 1.703c-.636.454-1.208 1.078-1.717 1.872a11.86 11.86 0 0 1-2.479 3.065c-1.017.794-1.779 1.816-2.288 3.064-.381 1.021-1.335 1.248-2.86.681-1.907-.908-3.56-2.043-4.958-3.405a73.158 73.158 0 0 1-4.386-4.256 165.06 165.06 0 0 1-3.814-4.596 59.517 59.517 0 0 1-4.767-6.64 381.993 381.993 0 0 1-4.195-6.98l-3.814-6.469a69.506 69.506 0 0 0-4.195-6.299 8.094 8.094 0 0 0-1.335-1.532l-1.525-1.702c-.763-.908-1.271-.795-1.526.34a177.125 177.125 0 0 1-1.525 4.256 39.97 39.97 0 0 0-.954 4.427 581.456 581.456 0 0 0-.762 5.277 35.725 35.725 0 0 0-.382 5.277 136.296 136.296 0 0 0 .382 17.705c.508 5.789 1.589 11.577 3.241 17.365a143.777 143.777 0 0 0 4.958 14.64c2.034 4.654 4.577 9.137 7.628 13.449a218.115 218.115 0 0 1 2.86 3.916c1.017 1.135 2.225 2.27 3.623 3.405 1.526 1.135 3.433 2.099 5.721 2.894 3.941 1.021 6.928-.227 8.962-3.746a48.844 48.844 0 0 0 4.005-8.682 194.246 194.246 0 0 0 3.241-9.022c.127-.341.191-.738.191-1.192ZM246.369 37.026c.509-.228.826-.511.954-.852a3.56 3.56 0 0 1 .572-1.191 110.963 110.963 0 0 0 4.767-10.385 159.03 159.03 0 0 0 4.195-10.725c.254-.908.572-1.646.953-2.213.382-.681 1.081-1.249 2.098-1.703 1.525-.681 2.86-1.872 4.004-3.575.763-1.021 1.78-1.759 3.051-2.213 1.399-.454 2.352-1.248 2.861-2.383.381-.908 1.017-1.249 1.907-1.022.508 0 .762.171.762.511.127.341.255.624.382.851a36.868 36.868 0 0 1 1.716 6.129 526.484 526.484 0 0 1 1.525 6.299l5.149 23.493c.254 1.135.508 1.986.763 2.554.508-.227.762-.511.762-.852a6.28 6.28 0 0 1 .572-1.362 477.551 477.551 0 0 1 4.386-12.257 490.638 490.638 0 0 0 4.386-12.597c.254-.795.572-1.476.954-2.043.381-.681 1.017-1.192 1.906-1.533 1.526-.681 2.797-1.815 3.814-3.404 1.017-1.249 2.225-2.1 3.623-2.554 1.144-.34 2.034-1.135 2.67-2.383.254-.681.89-1.022 1.907-1.022.635 0 1.08.454 1.335 1.362a48.714 48.714 0 0 1 1.525 5.788 73.795 73.795 0 0 1 1.335 5.618 854.629 854.629 0 0 1 2.86 16.173 888.11 888.11 0 0 0 3.242 16.173 562.978 562.978 0 0 0 4.958 20.939 295.728 295.728 0 0 0 6.102 20.599 145.92 145.92 0 0 0 8.39 20.429c1.017 2.383 2.352 4.483 4.004 6.299.636.908.572 1.702-.19 2.383l-1.144.681a6.193 6.193 0 0 1-.954.681c-1.78.908-3.242 1.93-4.386 3.064a14.967 14.967 0 0 1-3.051 2.384c-1.017.681-1.843 1.589-2.479 2.724-.254.454-.572.624-.953.51-.381 0-.763-.227-1.144-.681a34.018 34.018 0 0 1-2.67-3.745 6606.55 6606.55 0 0 0-1.907-3.745 216.238 216.238 0 0 1-7.436-18.046 294.974 294.974 0 0 1-5.53-18.726 570.85 570.85 0 0 1-5.912-24.514 512.363 512.363 0 0 1-4.767-24.855l-.572-2.554c-.636.227-1.017.568-1.144 1.021 0 .454-.064.852-.191 1.192a542.105 542.105 0 0 1-3.051 7.661c-.89 2.497-2.034 4.994-3.432 7.49l-1.526 2.724c-.508.908-1.271 1.646-2.288 2.213-.636.454-.826 1.135-.572 2.043 2.67 9.647 5.784 18.954 9.344 27.92.127.113.318.397.572.851.763.681.635 1.475-.382 2.383-.762.908-1.462 1.476-2.097 1.703-1.399.454-2.733 1.361-4.005 2.723a33.785 33.785 0 0 1-3.241 2.554c-1.017.681-1.907 1.589-2.67 2.724-.254.567-.636.794-1.144.681-.381-.227-.699-.625-.953-1.192l-4.577-11.746a379.121 379.121 0 0 1-6.865-22.472 431.665 431.665 0 0 1-5.148-22.812 284.147 284.147 0 0 0-1.144-4.597 72.572 72.572 0 0 0-.954-4.596c0-.227-.063-.454-.191-.681 0-.227-.127-.454-.381-.681-.381.227-.636.511-.763.851a4.108 4.108 0 0 1-.572 1.022l-3.813 6.469a64.816 64.816 0 0 1-4.196 5.958 8.862 8.862 0 0 1-.953 1.362c-.254.34-.572.624-.953.851-.636.568-1.017 1.135-1.145 1.703 0 .567.128 1.191.382 1.872.89 2.951 1.716 5.845 2.479 8.682.89 2.724 1.716 5.562 2.479 8.512 1.525 5.789 2.987 11.52 4.385 17.195a259.13 259.13 0 0 1 3.624 17.194c1.017 5.447 1.398 11.009 1.144 16.683 0 .454-.064.908-.191 1.362 0 .341.064.681.191 1.022.254 1.248.127 2.156-.382 2.724-.508.68-1.207 1.191-2.097 1.532-1.907.908-3.56 1.986-4.958 3.234a31.135 31.135 0 0 1-4.195 3.745c-.382.227-.572.511-.572.852-.255.908-.827 1.248-1.717 1.021-.381-.113-.572-.34-.572-.681v-1.021c.509-7.15.064-14.13-1.334-20.94a294.785 294.785 0 0 0-4.577-20.428 718.028 718.028 0 0 0-5.148-19.067 328.705 328.705 0 0 0-5.912-18.897 1459.736 1459.736 0 0 0-4.195-12.087 476.195 476.195 0 0 1-4.386-12.257 186.663 186.663 0 0 0-1.907-4.597 176.01 176.01 0 0 1-2.288-4.596c-.508-1.135-.699-1.816-.572-2.043.127-.34.763-.851 1.907-1.532 1.78-1.022 3.178-2.213 4.195-3.575 1.017-1.022 2.225-1.873 3.623-2.554a7.76 7.76 0 0 0 1.716-.851c.382-.341.7-.908.954-1.702.127-.454.445-.681.953-.681.509 0 .89.17 1.144.51.255.227.382.511.382.852.127.34.318.624.572.851a68.268 68.268 0 0 1 4.386 10.895 375.687 375.687 0 0 0 4.004 10.895 79.788 79.788 0 0 1 1.716 5.108 227.26 227.26 0 0 1 1.907 4.937ZM364.699 110.569a82.508 82.508 0 0 0-1.716-6.469 440.893 440.893 0 0 0-1.907-6.299 295.97 295.97 0 0 1-7.437-26.557 600.397 600.397 0 0 1-5.53-26.898 172.925 172.925 0 0 1-2.288-16.003c0-.681.064-1.305.191-1.872.127-.568.572-1.079 1.334-1.532 1.017-.568 1.717-1.419 2.098-2.554a499.195 499.195 0 0 1-4.004-.341 405.77 405.77 0 0 0-3.623-.34 85.868 85.868 0 0 1-6.102-.851 116.203 116.203 0 0 0-6.102-1.192c-.763-.113-1.017-.511-.763-1.192 0-.454.254-.794.763-1.021a9.288 9.288 0 0 0 3.051-3.064 21.419 21.419 0 0 1 2.479-3.065 9.737 9.737 0 0 1 2.86-2.553c.508-.341.89-.851 1.144-1.532.381-1.362 1.208-1.873 2.479-1.533a68.724 68.724 0 0 0 13.348 2.384c4.449.227 8.899.397 13.348.511.254.113.509.17.763.17.381-.114.636 0 .763.34.127.568-.064 1.078-.572 1.532a5.675 5.675 0 0 0-.763.852 1.186 1.186 0 0 1-.572.51c-1.78 1.135-3.178 2.497-4.195 4.086a28.662 28.662 0 0 1-3.623 4.256c-.89 1.021-1.145 2.383-.763 4.086l1.907 10.555a310.4 310.4 0 0 0 2.097 10.555 638.55 638.55 0 0 0 4.958 22.301 336.098 336.098 0 0 0 6.484 21.961l3.432 10.214a76.986 76.986 0 0 0 4.195 10.044c.254.568.318 1.135.191 1.703-.127.454-.064.964.19 1.532.255.794.509 1.532.763 2.213.382.681.699 1.419.954 2.213.635 1.589.889 2.724.762 3.405-.127.681-.89 1.475-2.288 2.383a22.449 22.449 0 0 1-1.907 1.532 21.95 21.95 0 0 0-1.716 1.703 21.477 21.477 0 0 1-2.479 3.064c-.89.908-1.653 1.986-2.288 3.235-.509 1.021-1.399 1.248-2.67.681l-1.525-.681a8.074 8.074 0 0 1-1.526-.511 193.998 193.998 0 0 1-8.581-4.256 547.12 547.12 0 0 0-8.581-4.086l-.381-.34c-.127 0-.254-.057-.381-.17-1.272-.681-1.335-1.533-.191-2.554a9.537 9.537 0 0 0 2.67-2.213 16.608 16.608 0 0 0 2.097-2.724 7.253 7.253 0 0 1 2.67-2.724c.635-.34 1.144-.681 1.525-1.021.509-.454.763-1.135.763-2.043.254-1.022.953-1.249 2.098-.681l.762.681c.382.113.827.17 1.335.17Z" style="fill-rule:nonzero" transform="translate(0 -.6)"/><path d="M112.47 115.03c.38-.674.632-1.349.759-2.024.126-.787.253-1.518.379-2.193.38-3.149.38-6.241 0-9.277a75.352 75.352 0 0 0-1.327-9.109 366.701 366.701 0 0 0-5.122-20.917 574.545 574.545 0 0 1-4.931-21.086 238.268 238.268 0 0 1-2.276-13.157 81.943 81.943 0 0 1-.759-13.663c0-1.462.064-2.868.19-4.217.126-1.462.379-2.868.759-4.218.379-.899.948-1.574 1.707-2.024 1.643-.899 3.034-2.136 4.172-3.711.759-1.237 1.897-2.193 3.414-2.867.633-.225 1.139-.506 1.518-.844.506-.337.885-.843 1.138-1.518v-.337c.126-.113.19-.225.19-.338.379-.337.885-.45 1.517-.337.126.112.19.45.19 1.012a30.461 30.461 0 0 0-.759 4.723 58.732 58.732 0 0 0-.19 4.723c0 5.061.38 10.065 1.138 15.013a727.582 727.582 0 0 0 2.845 14.676 522.84 522.84 0 0 0 4.932 20.073 359.438 359.438 0 0 1 4.742 20.073 53.202 53.202 0 0 1 1.138 9.109 35.234 35.234 0 0 1-.759 8.941c-.632 2.923-1.707 5.566-3.225 7.928-1.517 2.249-3.603 4.161-6.259 5.735a12.397 12.397 0 0 0-3.224 2.868 19.494 19.494 0 0 1-2.655 2.867 363.89 363.89 0 0 1-2.846 2.193 15.862 15.862 0 0 1-2.845 2.024c-1.391.675-2.718 1.35-3.983 2.024a92.21 92.21 0 0 1-3.603 2.025c-.759.45-1.265.562-1.518.337-.253-.337-.316-.675-.189-1.012a2.68 2.68 0 0 1 .569-.675c.253-.112.505-.281.758-.506 0-.337-.063-.506-.189-.506-3.92-3.149-7.271-6.691-10.053-10.627a116.532 116.532 0 0 1-7.207-12.651 348.679 348.679 0 0 1-5.691-12.651 115.772 115.772 0 0 1-4.172-13.158c-.253-.675-.633-1.181-1.138-1.518 0 1.349-.064 2.755-.19 4.217v4.049c-.126 2.698-.19 5.397-.19 8.096a86.71 86.71 0 0 1-.379 8.097 42.453 42.453 0 0 1-1.328 6.747 182.04 182.04 0 0 1-2.086 6.579c-.127.113-.19.225-.19.338 0 .112-.126.224-.379.337-.506.45-.885.843-1.138 1.181-.127.337-.127.843 0 1.518.126.787-.127 1.406-.759 1.855-.506.563-1.075.956-1.707 1.181-1.77.9-3.287 2.024-4.552 3.374a22.648 22.648 0 0 1-4.362 3.88v.168c-1.012 1.237-1.707 1.856-2.087 1.856-.379 0-1.138-.563-2.276-1.687-3.793-3.599-6.891-7.535-9.294-11.808-2.402-4.386-4.299-9.109-5.69-14.169a270.426 270.426 0 0 1-5.5-21.592l-4.552-21.929a207.362 207.362 0 0 0-3.035-12.651 148.47 148.47 0 0 0-3.983-12.651c-1.138-3.262-2.529-6.298-4.173-9.109a37.053 37.053 0 0 0-6.449-7.928c-.632-.675-.885-1.125-.758-1.35 0-.337.379-.787 1.138-1.349 1.391-.675 2.465-1.519 3.224-2.531a58.163 58.163 0 0 0 2.845-2.699c.885-1.012 2.023-1.799 3.414-2.361.38-.113.696-.506.949-1.181.758-1.687 1.707-1.912 2.845-.675 2.528 2.474 4.615 5.061 6.259 7.76a37.352 37.352 0 0 1 3.414 7.085 127.63 127.63 0 0 1 2.845 7.253 162.95 162.95 0 0 1 4.173 15.35 560.43 560.43 0 0 1 3.224 15.35 2436.258 2436.258 0 0 0 3.793 17.881 300.94 300.94 0 0 0 4.742 17.543 97.228 97.228 0 0 0 2.466 7.085 58.387 58.387 0 0 0 3.604 6.747c.253.225.442.562.569 1.012.252.337.632.619 1.138.844.253-.338.316-.675.189-1.013v-.843c.127-4.498.253-8.94.38-13.326.126-4.386.316-8.828.569-13.326.253-4.723.695-9.39 1.327-14.001a114.33 114.33 0 0 1 3.225-14.169c.253-.562.506-1.069.759-1.518.252-.45.695-.844 1.327-1.181 1.518-.675 2.908-1.912 4.173-3.711.759-1.237 1.77-2.081 3.035-2.53 1.644-.563 2.592-1.406 2.845-2.531.126-.562.695-.956 1.707-1.18.379 0 .632.168.758.506.127.224.317.449.569.674a48.35 48.35 0 0 1 2.277 5.904c.632 1.912 1.264 3.88 1.896 5.904a324.156 324.156 0 0 1 4.173 14.844 103.902 103.902 0 0 0 5.311 14.338 336.02 336.02 0 0 0 5.121 11.64 74.342 74.342 0 0 0 6.259 10.964 112.744 112.744 0 0 0 4.173 5.398 46.11 46.11 0 0 0 4.931 4.723c.38.225.696.506.949.844.252.224.695.449 1.327.674ZM195.378 92.933c-.379-.225-.759-.281-1.138-.169h-.948c-5.311.225-10.432-.112-15.364-1.012-1.011 0-1.58-.225-1.707-.675-.253-.45-.253-.787 0-1.012.38-.225.696-.45.949-.675 1.011-.674 1.833-1.405 2.465-2.193l1.897-2.698c.379-.563.759-1.069 1.138-1.519.379-.449.885-.843 1.517-1.18 1.391-.563 2.15-1.406 2.276-2.531.127-.674.38-1.068.759-1.18.506-.113 1.075-.113 1.707 0 1.012.112 1.897.224 2.656.337.885 0 1.833.056 2.845.169 4.046.562 8.029.674 11.949.337 3.92-.45 7.84-.956 11.759-1.518l.759-.338 1.138-.337c.253-.225.569-.225.948 0 .127.337.127.675 0 1.012-.885 1.125-1.707 1.968-2.465 2.53a28.785 28.785 0 0 0-2.845 2.531 38.697 38.697 0 0 0-2.087 2.699c-.632.899-1.264 1.574-1.896 2.024-1.138 1.012-1.581 2.193-1.328 3.542.885 4.274 1.96 8.434 3.224 12.483a61.508 61.508 0 0 0 5.121 11.808c1.391 2.586 2.972 4.835 4.742 6.747.885.787.949 1.574.19 2.362-.506.674-.885 1.068-1.138 1.18-1.77 1.125-3.225 2.474-4.363 4.049a33.234 33.234 0 0 1-3.793 4.386l-.379.337c0 .112-.064.225-.19.337-.506 1.012-.948 1.518-1.328 1.518-.253.113-.695-.225-1.327-1.012a43.47 43.47 0 0 1-4.742-6.578 63.205 63.205 0 0 1-3.414-7.085 93.72 93.72 0 0 1-2.656-7.76 948.554 948.554 0 0 1-1.896-8.265c-.127-.225-.19-.394-.19-.506.126-.113.063-.281-.19-.506-.505 0-.822.169-.948.506 0 .337-.126.618-.379.843a132.266 132.266 0 0 1-3.983 4.723 66.624 66.624 0 0 1-3.984 4.218l-3.034 3.373a244.56 244.56 0 0 1-2.845 3.543c-2.023 2.474-4.616 4.498-7.777 6.072-3.793 2.024-7.65 1.912-11.57-.337-2.655-1.575-4.994-3.711-7.018-6.41-2.528-3.261-4.678-6.635-6.448-10.121a105.798 105.798 0 0 1-4.742-10.796c-2.908-7.647-4.868-15.35-5.88-23.11a133.355 133.355 0 0 1-.948-23.615 67.995 67.995 0 0 1 1.896-12.483c1.012-4.161 2.529-8.209 4.553-12.145a33.248 33.248 0 0 1 2.465-4.049 15.156 15.156 0 0 1 3.225-3.542c.758-.675 1.264-1.237 1.517-1.687 1.265-2.024 2.655-3.655 4.173-4.892.506-.337.885-.674 1.138-1.012a8.8 8.8 0 0 1 .948-1.349 11.638 11.638 0 0 1 5.311-3.88c1.138-.45 2.276-.281 3.414.506.506.45.948.9 1.328 1.35a4.85 4.85 0 0 1 1.327 1.349 51.639 51.639 0 0 1 4.742 6.747l4.173 6.748a55.014 55.014 0 0 0 2.086 3.711 33.984 33.984 0 0 1 2.087 3.542c.253.225.442.506.569.844.126.225.442.449.948.674a354.77 354.77 0 0 0-.379-3.542 31.433 31.433 0 0 0-.569-3.374 42.417 42.417 0 0 1-.38-5.566c0-1.8.064-3.655.19-5.567.126-.899.569-1.687 1.328-2.361 1.77-1.237 3.098-2.699 3.983-4.386.506-1.125 1.328-2.024 2.466-2.699.632-.45 1.201-.844 1.707-1.181.632-.45.948-1.124.948-2.024.253-.787.695-1.068 1.328-.844.505 0 .695.169.569.507v.674c-.253 3.936-.19 7.76.189 11.471a87.082 87.082 0 0 0 2.276 11.133 199.68 199.68 0 0 0 3.225 10.121 155.874 155.874 0 0 0 3.793 9.784c.253.337.379.731.379 1.18.127.338 0 .675-.379 1.012a10.878 10.878 0 0 0-2.466 3.206 11.788 11.788 0 0 1-2.465 3.036 30.004 30.004 0 0 0-2.087 1.687c-.632.449-1.201 1.068-1.707 1.855a11.754 11.754 0 0 1-2.465 3.036c-1.012.788-1.771 1.8-2.276 3.037-.38 1.012-1.328 1.237-2.846.675-1.896-.9-3.54-2.025-4.931-3.374a73.024 73.024 0 0 1-4.362-4.217 161.97 161.97 0 0 1-3.794-4.555 58.743 58.743 0 0 1-4.742-6.578 385 385 0 0 1-4.172-6.916l-3.794-6.411a69.108 69.108 0 0 0-4.172-6.241 8.075 8.075 0 0 0-1.328-1.518l-1.518-1.687c-.758-.899-1.264-.787-1.517.338a176.54 176.54 0 0 1-1.517 4.217 39.065 39.065 0 0 0-.949 4.385 574.21 574.21 0 0 0-.758 5.23 35.22 35.22 0 0 0-.38 5.229c-.253 5.96-.126 11.808.38 17.543.505 5.735 1.58 11.471 3.224 17.206a142.09 142.09 0 0 0 4.932 14.507c2.023 4.61 4.552 9.052 7.586 13.326a213.126 213.126 0 0 1 2.845 3.879c1.012 1.125 2.213 2.249 3.604 3.374 1.518 1.125 3.414 2.08 5.69 2.868 3.92 1.012 6.892-.225 8.915-3.711a48.384 48.384 0 0 0 3.983-8.603 190.847 190.847 0 0 0 3.224-8.941c.127-.337.19-.731.19-1.18ZM239.128 37.098c.505-.225.821-.506.948-.843.126-.45.316-.844.569-1.181a109.486 109.486 0 0 0 4.742-10.29 157.013 157.013 0 0 0 4.172-10.627c.253-.899.569-1.63.949-2.193.379-.674 1.075-1.237 2.086-1.686 1.518-.675 2.845-1.856 3.983-3.543.759-1.012 1.771-1.743 3.035-2.193 1.391-.449 2.339-1.237 2.845-2.361.379-.9 1.012-1.237 1.897-1.012.506 0 .758.168.758.506.127.337.253.618.38.843a36.516 36.516 0 0 1 1.707 6.073 515.116 515.116 0 0 1 1.517 6.241l5.121 23.278c.253 1.125.506 1.968.759 2.531.506-.225.759-.506.759-.844.126-.45.316-.899.569-1.349a466.792 466.792 0 0 1 4.362-12.145 490.057 490.057 0 0 0 4.363-12.483c.252-.787.569-1.462.948-2.024.379-.675 1.011-1.181 1.897-1.518 1.517-.675 2.781-1.8 3.793-3.374 1.012-1.237 2.213-2.08 3.604-2.53 1.138-.338 2.023-1.125 2.655-2.362.253-.675.885-1.012 1.897-1.012.632 0 1.075.45 1.328 1.349a48.018 48.018 0 0 1 1.517 5.736 73.493 73.493 0 0 1 1.328 5.566 846.506 846.506 0 0 1 2.845 16.025 869.632 869.632 0 0 0 3.224 16.025 554.863 554.863 0 0 0 4.932 20.748 292.327 292.327 0 0 0 6.069 20.411 144.823 144.823 0 0 0 8.345 20.242c1.012 2.362 2.34 4.442 3.984 6.241.632.9.569 1.687-.19 2.362l-1.138.675c-.253.225-.569.45-.949.674-1.77.9-3.224 1.912-4.362 3.037a14.863 14.863 0 0 1-3.035 2.361c-1.011.675-1.833 1.575-2.465 2.699-.253.45-.569.619-.949.506-.379 0-.758-.225-1.138-.674a33.882 33.882 0 0 1-2.655-3.711l-1.897-3.712a213.796 213.796 0 0 1-7.397-17.88 291.778 291.778 0 0 1-5.5-18.555 563.808 563.808 0 0 1-5.88-24.291 504.474 504.474 0 0 1-4.742-24.628l-.569-2.53c-.632.225-1.012.562-1.138 1.012 0 .45-.063.844-.19 1.181a531.12 531.12 0 0 1-3.034 7.591c-.886 2.474-2.024 4.948-3.415 7.422l-1.517 2.699c-.506.9-1.264 1.631-2.276 2.193-.632.45-.822 1.124-.569 2.024 2.655 9.559 5.753 18.78 9.294 27.664.126.113.316.394.569.844.759.674.632 1.462-.379 2.361-.759.9-1.455 1.462-2.087 1.687-1.391.45-2.718 1.35-3.983 2.699a33.494 33.494 0 0 1-3.224 2.53c-1.012.675-1.897 1.575-2.656 2.699-.253.562-.632.787-1.138.675-.379-.225-.695-.619-.948-1.181l-4.552-11.639a373.815 373.815 0 0 1-6.828-22.266 426.065 426.065 0 0 1-5.121-22.604c-.38-1.574-.759-3.092-1.138-4.555a71.35 71.35 0 0 0-.949-4.554c0-.225-.063-.45-.189-.675 0-.225-.127-.449-.38-.674-.379.225-.632.506-.758.843a4.138 4.138 0 0 1-.569 1.012l-3.794 6.41a64.092 64.092 0 0 1-4.173 5.904c-.253.45-.569.9-.948 1.35a3.235 3.235 0 0 1-.948.843c-.633.562-1.012 1.124-1.138 1.687 0 .562.126 1.181.379 1.855a296.662 296.662 0 0 1 2.466 8.603 139.313 139.313 0 0 1 2.465 8.434 1088.108 1088.108 0 0 1 4.363 17.037 256.54 256.54 0 0 1 3.604 17.038 71.933 71.933 0 0 1 1.138 16.531c0 .449-.064.899-.19 1.349 0 .337.063.675.19 1.012.253 1.237.126 2.137-.38 2.699-.506.675-1.201 1.181-2.086 1.518-1.897.9-3.541 1.968-4.932 3.205a30.9 30.9 0 0 1-4.172 3.711c-.38.225-.569.506-.569.844-.253.899-.822 1.237-1.707 1.012-.38-.113-.569-.338-.569-.675v-1.012c.505-7.085.063-14.001-1.328-20.748a291.185 291.185 0 0 0-4.552-20.242 707.707 707.707 0 0 0-5.121-18.893 324.986 324.986 0 0 0-5.88-18.724 1454.73 1454.73 0 0 0-4.173-11.976 469.46 469.46 0 0 1-4.362-12.145 186.767 186.767 0 0 0-1.897-4.555 172.523 172.523 0 0 1-2.276-4.554c-.506-1.125-.695-1.8-.569-2.025.126-.337.759-.843 1.897-1.518 1.77-1.012 3.161-2.193 4.172-3.542 1.012-1.012 2.213-1.856 3.604-2.53a7.717 7.717 0 0 0 1.707-.844c.38-.337.696-.9.949-1.687.126-.45.442-.674.948-.674s.885.168 1.138.506c.253.225.379.506.379.843.127.337.316.619.569.843a67.5 67.5 0 0 1 4.363 10.796 370.472 370.472 0 0 0 3.983 10.796 79.854 79.854 0 0 1 1.707 5.06 231.922 231.922 0 0 1 1.897 4.892ZM356.827 109.97a81.639 81.639 0 0 0-1.707-6.41 448.75 448.75 0 0 0-1.897-6.242 292.464 292.464 0 0 1-7.397-26.314 591.45 591.45 0 0 1-5.501-26.652 171.245 171.245 0 0 1-2.276-15.856c0-.675.063-1.294.19-1.856.126-.562.569-1.068 1.327-1.518 1.012-.562 1.708-1.406 2.087-2.53a495.702 495.702 0 0 1-3.983-.338 369.126 369.126 0 0 0-3.604-.337 85.145 85.145 0 0 1-6.069-.844 116.153 116.153 0 0 0-6.07-1.18c-.759-.113-1.011-.506-.759-1.181 0-.45.253-.787.759-1.012a9.216 9.216 0 0 0 3.035-3.037 21.303 21.303 0 0 1 2.466-3.036 9.673 9.673 0 0 1 2.845-2.53c.505-.338.885-.844 1.138-1.518.379-1.35 1.201-1.856 2.465-1.518a68.584 68.584 0 0 0 13.277 2.361c4.426.225 8.852.394 13.277.506.253.113.506.169.759.169.379-.113.632 0 .759.337.126.562-.064 1.069-.569 1.518a5.68 5.68 0 0 0-.759.844 1.18 1.18 0 0 1-.569.506c-1.77 1.124-3.161 2.474-4.173 4.048a28.367 28.367 0 0 1-3.604 4.217c-.885 1.012-1.138 2.362-.758 4.049l1.896 10.458a307.357 307.357 0 0 0 2.087 10.459 629.295 629.295 0 0 0 4.931 22.097 332.651 332.651 0 0 0 6.449 21.76l3.414 10.121a76.228 76.228 0 0 0 4.173 9.953c.253.562.316 1.124.19 1.687-.127.449-.064.955.189 1.518.253.787.506 1.518.759 2.193.379.674.695 1.405.948 2.192.633 1.575.885 2.699.759 3.374-.126.675-.885 1.462-2.276 2.362a22.507 22.507 0 0 1-1.897 1.518 21.505 21.505 0 0 0-1.707 1.687 21.303 21.303 0 0 1-2.466 3.036c-.885.9-1.643 1.968-2.276 3.205-.505 1.012-1.391 1.237-2.655.675l-1.517-.675a7.98 7.98 0 0 1-1.518-.506 193.397 193.397 0 0 1-8.535-4.217 550.778 550.778 0 0 0-8.535-4.049 60.73 60.73 0 0 1-.379-.337c-.127 0-.253-.056-.38-.169-1.264-.674-1.327-1.518-.189-2.53a9.466 9.466 0 0 0 2.655-2.193 16.328 16.328 0 0 0 2.086-2.699 7.208 7.208 0 0 1 2.656-2.699c.632-.337 1.138-.674 1.517-1.012.506-.45.759-1.124.759-2.024.253-1.012.948-1.237 2.086-.675l.759.675c.379.112.822.169 1.328.169Z" style="fill:#67c4aa;fill-rule:nonzero" transform="translate(0 -.6)"/><path d="M107.954 115.03c.38-.674.632-1.349.759-2.024.126-.787.253-1.518.379-2.193.38-3.149.38-6.241 0-9.277a75.352 75.352 0 0 0-1.327-9.109 366.701 366.701 0 0 0-5.122-20.917 574.545 574.545 0 0 1-4.931-21.086 238.268 238.268 0 0 1-2.276-13.157 81.943 81.943 0 0 1-.759-13.663c0-1.462.064-2.868.19-4.217.126-1.462.379-2.868.759-4.218.379-.899.948-1.574 1.707-2.024 1.644-.899 3.034-2.136 4.172-3.711.759-1.237 1.897-2.193 3.414-2.867.633-.225 1.139-.506 1.518-.844.506-.337.885-.843 1.138-1.518v-.337c.126-.113.19-.225.19-.338.379-.337.885-.45 1.517-.337.126.112.19.45.19 1.012a30.461 30.461 0 0 0-.759 4.723 58.732 58.732 0 0 0-.19 4.723c0 5.061.38 10.065 1.138 15.013a727.582 727.582 0 0 0 2.845 14.676 522.84 522.84 0 0 0 4.932 20.073 359.438 359.438 0 0 1 4.742 20.073 53.202 53.202 0 0 1 1.138 9.109 35.234 35.234 0 0 1-.759 8.941c-.632 2.923-1.707 5.566-3.225 7.928-1.517 2.249-3.603 4.161-6.259 5.735a12.397 12.397 0 0 0-3.224 2.868 19.494 19.494 0 0 1-2.655 2.867 363.89 363.89 0 0 1-2.846 2.193 15.862 15.862 0 0 1-2.845 2.024c-1.391.675-2.718 1.35-3.983 2.024a92.21 92.21 0 0 1-3.603 2.025c-.759.45-1.265.562-1.518.337-.253-.337-.316-.675-.189-1.012a2.68 2.68 0 0 1 .569-.675c.253-.112.505-.281.758-.506 0-.337-.063-.506-.189-.506-3.92-3.149-7.271-6.691-10.053-10.627a116.532 116.532 0 0 1-7.207-12.651 348.679 348.679 0 0 1-5.691-12.651 115.772 115.772 0 0 1-4.172-13.158c-.253-.675-.633-1.181-1.138-1.518 0 1.349-.064 2.755-.19 4.217v4.049c-.127 2.698-.19 5.397-.19 8.096a86.71 86.71 0 0 1-.379 8.097 42.342 42.342 0 0 1-1.328 6.747 182.04 182.04 0 0 1-2.086 6.579c-.127.113-.19.225-.19.338 0 .112-.126.224-.379.337-.506.45-.885.843-1.138 1.181-.127.337-.127.843 0 1.518.126.787-.127 1.406-.759 1.855-.506.563-1.075.956-1.707 1.181-1.77.9-3.287 2.024-4.552 3.374a22.648 22.648 0 0 1-4.362 3.88v.168c-1.012 1.237-1.707 1.856-2.087 1.856-.379 0-1.138-.563-2.276-1.687-3.793-3.599-6.891-7.535-9.294-11.808-2.402-4.386-4.299-9.109-5.69-14.169a270.426 270.426 0 0 1-5.5-21.592L18.43 58.521a207.362 207.362 0 0 0-3.035-12.651 148.47 148.47 0 0 0-3.983-12.651c-1.138-3.262-2.529-6.298-4.173-9.109A37.053 37.053 0 0 0 .79 16.182c-.632-.675-.885-1.125-.758-1.35 0-.337.379-.787 1.138-1.349 1.391-.675 2.465-1.519 3.224-2.531a58.163 58.163 0 0 0 2.845-2.699c.885-1.012 2.023-1.799 3.414-2.361.38-.113.696-.506.949-1.181.758-1.687 1.707-1.912 2.845-.675 2.529 2.474 4.615 5.061 6.259 7.76a37.352 37.352 0 0 1 3.414 7.085 127.63 127.63 0 0 1 2.845 7.253 162.95 162.95 0 0 1 4.173 15.35 560.43 560.43 0 0 1 3.224 15.35 2436.258 2436.258 0 0 0 3.793 17.881 300.94 300.94 0 0 0 4.742 17.543 97.228 97.228 0 0 0 2.466 7.085 58.387 58.387 0 0 0 3.604 6.747c.252.225.442.562.569 1.012.253.337.632.619 1.138.844.253-.338.316-.675.189-1.013v-.843c.127-4.498.253-8.94.38-13.326.126-4.386.316-8.828.569-13.326.253-4.723.695-9.39 1.327-14.001a114.33 114.33 0 0 1 3.225-14.169c.253-.562.506-1.069.759-1.518.252-.45.695-.844 1.327-1.181 1.518-.675 2.909-1.912 4.173-3.711.759-1.237 1.77-2.081 3.035-2.53 1.644-.563 2.592-1.406 2.845-2.531.126-.562.695-.956 1.707-1.18.379 0 .632.168.758.506.127.224.317.449.57.674a48.508 48.508 0 0 1 2.276 5.904c.632 1.912 1.264 3.88 1.896 5.904a324.156 324.156 0 0 1 4.173 14.844 103.902 103.902 0 0 0 5.311 14.338 336.02 336.02 0 0 0 5.121 11.64 74.252 74.252 0 0 0 6.259 10.964 112.744 112.744 0 0 0 4.173 5.398 46.11 46.11 0 0 0 4.931 4.723c.38.225.696.506.949.844.252.224.695.449 1.327.674ZM190.862 92.933c-.379-.225-.759-.281-1.138-.169h-.948c-5.311.225-10.432-.112-15.364-1.012-1.011 0-1.58-.225-1.707-.675-.253-.45-.253-.787 0-1.012.38-.225.696-.45.949-.675 1.011-.674 1.833-1.405 2.465-2.193l1.897-2.698c.379-.563.759-1.069 1.138-1.519.379-.449.885-.843 1.517-1.18 1.391-.563 2.15-1.406 2.276-2.531.127-.674.38-1.068.759-1.18.506-.113 1.075-.113 1.707 0 1.012.112 1.897.224 2.656.337.885 0 1.833.056 2.845.169 4.046.562 8.029.674 11.949.337 3.92-.45 7.84-.956 11.759-1.518l.759-.338 1.138-.337c.253-.225.569-.225.948 0 .127.337.127.675 0 1.012-.885 1.125-1.707 1.968-2.465 2.53a28.785 28.785 0 0 0-2.845 2.531 38.697 38.697 0 0 0-2.087 2.699c-.632.899-1.264 1.574-1.896 2.024-1.138 1.012-1.581 2.193-1.328 3.542.885 4.274 1.96 8.434 3.224 12.483a61.508 61.508 0 0 0 5.121 11.808c1.391 2.586 2.972 4.835 4.742 6.747.885.787.949 1.574.19 2.362-.506.674-.885 1.068-1.138 1.18-1.77 1.125-3.225 2.474-4.363 4.049a33.234 33.234 0 0 1-3.793 4.386l-.379.337c0 .112-.064.225-.19.337-.506 1.012-.948 1.518-1.328 1.518-.253.113-.695-.225-1.327-1.012a43.47 43.47 0 0 1-4.742-6.578 63.205 63.205 0 0 1-3.414-7.085 93.72 93.72 0 0 1-2.656-7.76 948.554 948.554 0 0 1-1.896-8.265c-.127-.225-.19-.394-.19-.506.126-.113.063-.281-.19-.506-.505 0-.822.169-.948.506 0 .337-.126.618-.379.843a132.266 132.266 0 0 1-3.983 4.723 66.624 66.624 0 0 1-3.984 4.218l-3.034 3.373a244.56 244.56 0 0 1-2.845 3.543c-2.023 2.474-4.616 4.498-7.777 6.072-3.793 2.024-7.65 1.912-11.57-.337-2.655-1.575-4.994-3.711-7.018-6.41-2.528-3.261-4.678-6.635-6.448-10.121a105.798 105.798 0 0 1-4.742-10.796c-2.908-7.647-4.868-15.35-5.88-23.11a133.355 133.355 0 0 1-.948-23.615 67.995 67.995 0 0 1 1.896-12.483c1.012-4.161 2.529-8.209 4.553-12.145a33.248 33.248 0 0 1 2.465-4.049 15.156 15.156 0 0 1 3.225-3.542c.758-.675 1.264-1.237 1.517-1.687 1.265-2.024 2.655-3.655 4.173-4.892.506-.337.885-.674 1.138-1.012a8.8 8.8 0 0 1 .948-1.349 11.638 11.638 0 0 1 5.311-3.88c1.138-.45 2.276-.281 3.414.506.506.45.948.9 1.328 1.35a4.85 4.85 0 0 1 1.327 1.349 51.639 51.639 0 0 1 4.742 6.747l4.173 6.748a55.014 55.014 0 0 0 2.086 3.711 33.984 33.984 0 0 1 2.087 3.542c.253.225.442.506.569.844.126.225.442.449.948.674a354.77 354.77 0 0 0-.379-3.542 31.433 31.433 0 0 0-.569-3.374 42.417 42.417 0 0 1-.38-5.566c0-1.8.064-3.655.19-5.567.126-.899.569-1.687 1.328-2.361 1.77-1.237 3.098-2.699 3.983-4.386.506-1.125 1.328-2.024 2.466-2.699.632-.45 1.201-.844 1.707-1.181.632-.45.948-1.124.948-2.024.253-.787.695-1.068 1.328-.844.505 0 .695.169.569.507v.674c-.253 3.936-.19 7.76.189 11.471a87.082 87.082 0 0 0 2.276 11.133 199.68 199.68 0 0 0 3.225 10.121 155.874 155.874 0 0 0 3.793 9.784c.253.337.379.731.379 1.18.127.338 0 .675-.379 1.012a10.878 10.878 0 0 0-2.466 3.206 11.788 11.788 0 0 1-2.465 3.036 30.004 30.004 0 0 0-2.087 1.687c-.632.449-1.201 1.068-1.707 1.855a11.754 11.754 0 0 1-2.465 3.036c-1.012.788-1.771 1.8-2.276 3.037-.38 1.012-1.328 1.237-2.846.675-1.896-.9-3.54-2.025-4.931-3.374a73.024 73.024 0 0 1-4.362-4.217 161.97 161.97 0 0 1-3.794-4.555 58.743 58.743 0 0 1-4.742-6.578 385 385 0 0 1-4.172-6.916l-3.794-6.411a69.108 69.108 0 0 0-4.172-6.241 8.075 8.075 0 0 0-1.328-1.518l-1.518-1.687c-.758-.899-1.264-.787-1.517.338a176.54 176.54 0 0 1-1.517 4.217 39.065 39.065 0 0 0-.949 4.385 574.21 574.21 0 0 0-.758 5.23 35.22 35.22 0 0 0-.38 5.229c-.253 5.96-.126 11.808.38 17.543.505 5.735 1.58 11.471 3.224 17.206a142.09 142.09 0 0 0 4.932 14.507c2.023 4.61 4.552 9.052 7.586 13.326a213.126 213.126 0 0 1 2.845 3.879c1.012 1.125 2.213 2.249 3.604 3.374 1.518 1.125 3.414 2.08 5.69 2.868 3.92 1.012 6.892-.225 8.915-3.711a48.384 48.384 0 0 0 3.983-8.603 190.847 190.847 0 0 0 3.224-8.941c.127-.337.19-.731.19-1.18ZM234.612 37.098c.505-.225.822-.506.948-.843.126-.45.316-.844.569-1.181a109.486 109.486 0 0 0 4.742-10.29 157.013 157.013 0 0 0 4.172-10.627c.253-.899.569-1.63.949-2.193.379-.674 1.075-1.237 2.086-1.686 1.518-.675 2.845-1.856 3.983-3.543.759-1.012 1.771-1.743 3.035-2.193 1.391-.449 2.339-1.237 2.845-2.361.379-.9 1.012-1.237 1.897-1.012.506 0 .758.168.758.506.127.337.253.618.38.843a36.42 36.42 0 0 1 1.707 6.073 515.116 515.116 0 0 1 1.517 6.241l5.121 23.278c.253 1.125.506 1.968.759 2.531.506-.225.759-.506.759-.844.126-.45.316-.899.569-1.349a466.792 466.792 0 0 1 4.362-12.145 490.057 490.057 0 0 0 4.363-12.483c.252-.787.569-1.462.948-2.024.379-.675 1.011-1.181 1.897-1.518 1.517-.675 2.781-1.8 3.793-3.374 1.012-1.237 2.213-2.08 3.604-2.53 1.138-.338 2.023-1.125 2.655-2.362.253-.675.885-1.012 1.897-1.012.632 0 1.075.45 1.328 1.349a48.018 48.018 0 0 1 1.517 5.736 73.493 73.493 0 0 1 1.328 5.566 846.506 846.506 0 0 1 2.845 16.025 869.632 869.632 0 0 0 3.224 16.025 554.863 554.863 0 0 0 4.932 20.748 292.327 292.327 0 0 0 6.069 20.411 144.358 144.358 0 0 0 8.346 20.242c1.011 2.362 2.339 4.442 3.983 6.241.632.9.569 1.687-.19 2.362l-1.138.675c-.253.225-.569.45-.948.674-1.771.9-3.225 1.912-4.363 3.037a14.863 14.863 0 0 1-3.035 2.361c-1.011.675-1.833 1.575-2.465 2.699-.253.45-.569.619-.949.506-.379 0-.758-.225-1.138-.674a33.882 33.882 0 0 1-2.655-3.711l-1.897-3.712a213.796 213.796 0 0 1-7.397-17.88 291.778 291.778 0 0 1-5.5-18.555 563.808 563.808 0 0 1-5.88-24.291 504.474 504.474 0 0 1-4.742-24.628l-.569-2.53c-.632.225-1.012.562-1.138 1.012 0 .45-.063.844-.19 1.181a531.12 531.12 0 0 1-3.034 7.591c-.886 2.474-2.024 4.948-3.415 7.422l-1.517 2.699c-.506.9-1.264 1.631-2.276 2.193-.632.45-.822 1.124-.569 2.024 2.655 9.559 5.753 18.78 9.294 27.664.126.113.316.394.569.844.759.674.632 1.462-.379 2.361-.759.9-1.455 1.462-2.087 1.687-1.391.45-2.718 1.35-3.983 2.699a33.494 33.494 0 0 1-3.224 2.53c-1.012.675-1.897 1.575-2.656 2.699-.253.562-.632.787-1.138.675-.379-.225-.695-.619-.948-1.181l-4.552-11.639a373.815 373.815 0 0 1-6.828-22.266 426.065 426.065 0 0 1-5.121-22.604c-.38-1.574-.759-3.092-1.138-4.555a71.35 71.35 0 0 0-.949-4.554c0-.225-.063-.45-.189-.675 0-.225-.127-.449-.38-.674-.379.225-.632.506-.758.843a4.138 4.138 0 0 1-.569 1.012l-3.794 6.41a64.092 64.092 0 0 1-4.173 5.904c-.253.45-.569.9-.948 1.35a3.235 3.235 0 0 1-.948.843c-.633.562-1.012 1.124-1.138 1.687 0 .562.126 1.181.379 1.855a296.662 296.662 0 0 1 2.466 8.603 139.313 139.313 0 0 1 2.465 8.434 1088.108 1088.108 0 0 1 4.363 17.037 256.54 256.54 0 0 1 3.604 17.038 71.933 71.933 0 0 1 1.138 16.531c0 .449-.064.899-.19 1.349 0 .337.063.675.19 1.012.253 1.237.126 2.137-.38 2.699-.506.675-1.201 1.181-2.086 1.518-1.897.9-3.541 1.968-4.932 3.205a30.9 30.9 0 0 1-4.172 3.711c-.38.225-.569.506-.569.844-.253.899-.822 1.237-1.707 1.012-.38-.113-.569-.338-.569-.675v-1.012c.505-7.085.063-14.001-1.328-20.748a291.185 291.185 0 0 0-4.552-20.242 707.707 707.707 0 0 0-5.121-18.893 324.986 324.986 0 0 0-5.88-18.724 1454.73 1454.73 0 0 0-4.173-11.976 469.46 469.46 0 0 1-4.362-12.145 186.767 186.767 0 0 0-1.897-4.555 172.523 172.523 0 0 1-2.276-4.554c-.506-1.125-.695-1.8-.569-2.025.126-.337.759-.843 1.897-1.518 1.77-1.012 3.161-2.193 4.172-3.542 1.012-1.012 2.213-1.856 3.604-2.53a7.717 7.717 0 0 0 1.707-.844c.38-.337.696-.9.949-1.687.126-.45.442-.674.948-.674s.885.168 1.138.506c.253.225.379.506.379.843.127.337.316.619.569.843a67.5 67.5 0 0 1 4.363 10.796 370.472 370.472 0 0 0 3.983 10.796 79.854 79.854 0 0 1 1.707 5.06 231.922 231.922 0 0 1 1.897 4.892ZM352.311 109.97a81.639 81.639 0 0 0-1.707-6.41 448.75 448.75 0 0 0-1.897-6.242 292.464 292.464 0 0 1-7.397-26.314 592.841 592.841 0 0 1-5.501-26.652 171.245 171.245 0 0 1-2.276-15.856c0-.675.063-1.294.19-1.856.126-.562.569-1.068 1.328-1.518 1.011-.562 1.707-1.406 2.086-2.53a495.702 495.702 0 0 1-3.983-.338 369.126 369.126 0 0 0-3.604-.337 85.145 85.145 0 0 1-6.069-.844 116.153 116.153 0 0 0-6.07-1.18c-.759-.113-1.011-.506-.759-1.181 0-.45.253-.787.759-1.012a9.216 9.216 0 0 0 3.035-3.037 21.303 21.303 0 0 1 2.466-3.036 9.673 9.673 0 0 1 2.845-2.53c.505-.338.885-.844 1.138-1.518.379-1.35 1.201-1.856 2.465-1.518a68.584 68.584 0 0 0 13.277 2.361c4.426.225 8.852.394 13.277.506.253.113.506.169.759.169.379-.113.632 0 .759.337.126.562-.064 1.069-.569 1.518a5.68 5.68 0 0 0-.759.844 1.18 1.18 0 0 1-.569.506c-1.77 1.124-3.161 2.474-4.173 4.048a28.367 28.367 0 0 1-3.604 4.217c-.885 1.012-1.138 2.362-.758 4.049l1.896 10.458a307.357 307.357 0 0 0 2.087 10.459 629.295 629.295 0 0 0 4.931 22.097 332.651 332.651 0 0 0 6.449 21.76l3.414 10.121a76.228 76.228 0 0 0 4.173 9.953c.253.562.316 1.124.19 1.687-.127.449-.064.955.189 1.518.253.787.506 1.518.759 2.193.379.674.695 1.405.948 2.192.633 1.575.885 2.699.759 3.374-.126.675-.885 1.462-2.276 2.362a22.507 22.507 0 0 1-1.897 1.518 21.505 21.505 0 0 0-1.707 1.687 21.235 21.235 0 0 1-2.466 3.036c-.885.9-1.643 1.968-2.276 3.205-.505 1.012-1.39 1.237-2.655.675l-1.517-.675a7.98 7.98 0 0 1-1.518-.506 193.397 193.397 0 0 1-8.535-4.217 550.778 550.778 0 0 0-8.535-4.049l-.379-.337c-.127 0-.253-.056-.38-.169-1.264-.674-1.327-1.518-.189-2.53a9.466 9.466 0 0 0 2.655-2.193 16.328 16.328 0 0 0 2.086-2.699 7.208 7.208 0 0 1 2.656-2.699c.632-.337 1.138-.674 1.517-1.012.506-.45.759-1.124.759-2.024.253-1.012.948-1.237 2.086-.675l.759.675c.379.112.822.169 1.328.169Z" style="fill:#fff;fill-rule:nonzero" transform="translate(0 -.6)"/></svg>