<svg viewBox="0 0 7327 9359" xmlns="http://www.w3.org/2000/svg" xml:space="preserve" style="fill-rule:evenodd;clip-rule:evenodd;stroke-linejoin:round;stroke-miterlimit:2"><path d="M1833.825 3855.63c73.982-16.377 99.288-19.72 248.537-1.103 224.84 28.288 498.031 83.382 772.85 152.629 268.003 67.746 534.706 144.82 744.94 214.428-225.815-16.015-497.055-59.558-766.685-114.29-272.541-55.836-541.829-118.756-758.57-172.73-148.273-36.855-174.88-43.94-241.072-78.935ZM1878.923 4009.379c72.356-11.532 98.312-13.394 245.952 11.911 220.954 37.597 491.542 102 758.57 177.953 263.45 74.832 520.427 155.231 726.776 225.22-220.628-24.186-485.054-75.574-747.544-139.217-268.004-64.042-532.755-135.891-747.22-195.088-144.06-40.2-171.318-47.647-236.534-80.78ZM2033.36 4484.78c73.331-14.515 98.637-15.997 243.023 5.585 214.79 31.27 475.98 91.209 733.915 157.473 251.447 63.662 500.31 129.546 694.33 187.623-212.186-1.103-467.212-33.132-720.286-83.762-258.912-52.111-515.565-118.755-721.263-177.934-141.458-41.338-167.089-50.268-229.72-88.985ZM2120.32 4726.014c70.729-4.844 95.71-2.982 236.535 27.927 210.235 46.526 463.959 120.617 714.122 195.07 242.048 72.59 481.168 139.234 668.05 198.052-202.463-14.895-448.397-56.215-692.704-118.756-251.14-64.402-499.351-145.2-700.513-211.825-138.855-45.785-164.16-55.094-225.49-90.468ZM2177.095 4890.193c72.68-6.706 96.703-6.344 236.209 23.064 207.976 43.942 460.073 115.412 707.308 184.659 240.421 67.746 473.395 129.184 657.674 182.416-200.836-1.861-443.209-32.77-685.239-90.467-249.512-58.438-495.12-136.632-694.023-203.999-137.246-46.164-161.9-55.853-221.93-95.673ZM2251.746 5181.297c71.054-7.447 96.035-6.326 232.305 25.686 204.397 48.405 450.023 123.6 690.119 194.328 232.305 68.126 458.446 128.824 635.278 180.194-195.323 2.964-430.23-24.583-665.464-81.9-242.03-59.197-482.143-141.476-675.514-214.808-134.318-50.63-158.34-63.282-216.724-103.5ZM2290.012 5317.188c70.729-5.585 95.058-1.5 233.28 38.338 205.699 59.938 450.675 146.682 693.048 231.926 229.702 80.779 454.867 150.405 627.813 209.222-191.437-.38-425.043-34.994-657.023-103.5-242.698-71.09-482.143-169.004-678.117-255.748-134.643-58.818-159.624-72.591-219.001-120.238ZM2350.998 5553.217c69.771-1.5 94.1 3.344 225.509 48.388 195.973 67.005 427.628 162.696 655.07 252.405 217.393 86.002 427.303 159.714 589.855 224.478-183.32-6.326-405.233-49.129-625.535-124.34-230.371-79.298-455.862-182.418-641.46-275.108-127.179-63.662-149.574-76.315-203.439-125.823ZM2397.741 5752.751c69.102.741 93.432 7.068 223.231 56.956 189.792 72.97 416.277 174.97 637.23 271.022 210.56 91.209 414 169.746 570.062 238.252-177.807-9.309-393.573-53.232-608.038-134.39-224.19-85.262-444.818-197.312-624.903-297.45-122.316-68.125-145.019-83.02-197.582-134.39ZM2419.486 5879.695c70.403 10.43 93.757 18.238 224.514 74.832 194.347 84.502 422.766 199.155 645.997 302.275 210.886 97.173 415.626 174.97 571.038 239.01-175.855-17.496-391.622-70.728-606.086-158.972-227.443-93.432-450.023-215.911-633.344-320.531-125.877-72.591-149.249-88.226-202.12-136.614ZM2464.566 6090.4c66.192 14.894 87.593 24.203 211.536 90.847 178.133 97.534 390.646 223.737 595.386 343.233 194.997 113.55 381.228 212.187 522.686 294.467-163.185-33.133-363.388-106.103-561.295-211.446-209.277-111.309-414.975-246.82-583.058-365.955-116.804-82.64-137.554-97.155-185.255-151.146ZM2498.963 6337.599c68.452 21.22 90.522 32.752 210.56 109.808 178.46 115.032 384.808 263.575 584.993 401.69 186.9 128.805 365.99 240.854 499.676 333.924-158.34-44.284-352.687-132.89-545.1-255.369-203.745-129.926-406.208-285.917-569.736-420.307-114.2-93.432-134.97-111.67-180.393-169.746ZM2531.409 6587.383c65.866 20.859 86.942 33.873 199.209 114.67 167.414 119.497 357.224 271.005 542.171 417.307 171.952 135.89 334.178 259.11 455.537 361.49-149.574-51.75-329.985-148.544-509.076-277.729-189.484-136.993-376.04-297.81-525.29-436.665-105.777-98.294-122.966-118.756-162.551-179.073ZM2558.341 6740.03c64.565 27.167 85.334 39.82 189.484 134.01 153.135 138.856 328.665 313.084 494.146 486.572 155.412 163.04 298.172 318.651 403.298 453.042-138.223-80.038-302.401-210.325-464.628-366.678-173.578-166.04-341.643-349.198-477.606-507.792-94.083-110.567-110.947-134.01-144.694-199.155ZM2589.81 7000.623c61.33 32.011 80.472 46.526 178.133 148.525 144.387 149.285 307.59 334.684 459.423 520.065 142.434 173.868 271.89 345.114 363.062 483.59-124.9-90.088-274.475-233.408-424.7-402.431-159.641-179.814-316.662-373.384-441.907-540.165-87.937-118.015-103.174-141.838-134.01-209.584ZM2604.09 7132.03c55.799 39.46 74.29 57.336 162.877 168.644 131.083 165.661 279.03 370.42 414 575.539 128.805 196.19 241.722 384.934 318.289 544.268-110.314-118.755-242.355-289.64-376.691-476.883-143.085-200.655-285.845-413.601-398.418-591.933-79.821-125.443-93.776-150.767-120.057-219.634ZM2621.93 7326.739c49.31 52.852 66.843 72.59 135.295 205.12 198.901 384.174 419.855 951.904 511.027 1363.644-162.226-351.802-396.484-916.911-560.662-1325.686-56.775-142.94-68.47-166.764-85.66-243.078ZM2612.188 7363.956c27.583 73.712 37.325 100.897 52.888 264.317 46.074 491.036 28.234 1213.998-58.076 1729.599 9.092-511.516 11.351-1224.79 3.579-1713.964-3.254-167.902-6.815-199.534 1.609-279.952Z"/><path d="M2609.928 7341.615c2.585 81.52 4.212 111.688-33.421 270.263-111.29 467.593-362.737 1100.087-607.713 1495.07 169.04-449.335 403.298-1076.624 551.263-1516.652 50.937-151.526 56.45-182.037 89.871-248.681ZM2591.112 7104.104c-8.116 81.9-8.767 110.947-61.98 262.835-156.39 446.733-468.19 1024.875-749.497 1371.091 221.93-403.931 518.167-984.676 702.446-1398.638 63.933-143.7 71.054-173.488 109.03-235.288ZM2558.992 6805.173c-8.441 84.503-14.605 111.67-73.007 259.093-86.635 218.152-206.674 475.401-353.338 707.327-144.386 228.943-319.59 424.771-476.63 571.815 125.244-184.64 280.331-401.69 416.295-633.615 137.553-234.529 260.195-482.83 362.086-682.383 70.078-139.216 82.08-163.799 124.594-222.237ZM2522.986 6524.1c-7.466 83.021-11.045 112.05-65.542 262.456-78.845 219.634-190.786 480.227-329.334 718.117-135.62 233.787-302.058 438.545-453.584 591.554 116.803-189.864 261.84-414.343 389.019-652.233 129.13-242.355 242.373-494.019 338.408-696.156 65.866-139.596 77.868-163.8 121.033-223.737ZM2480.472 6225.17c-8.766 82.26-12.978 111.308-68.777 258.351-81.773 217.791-195.648 473.901-334.846 708.068-136.922 229.323-302.402 432.96-453.585 584.107 118.105-186.14 263.45-408.396 390.971-642.183 129.456-237.51 246.26-487.674 343.921-687.588 67.475-136.632 79.82-163.059 122.316-220.755ZM2395.77 5778.436c-6.163 84.503-10.05 114.291-62.612 268.781-76.893 227.823-182.996 497.363-315.036 747.147-128.824 244.596-286.17 464.23-430.231 630.633 110.314-199.896 246.91-435.925 366.298-685.727 121.358-253.887 229.395-517.462 322.845-728.167 64.24-146.302 76.567-172.367 118.737-232.667ZM2331.856 5479.867c-4.537 82.279-9.074 109.826-59.377 257.99-74.941 218.893-179.417 478.365-305.312 719.98-123.943 237.51-275.126 451.197-411.07 614.256 99.92-194.709 227.767-427.755 340.666-668.989 116.153-247.56 222.906-500.327 315.055-702.482 63.914-138.114 76.242-164.161 120.038-220.755ZM2282.547 5287.78c-3.887 81.9-7.466 110.187-55.474 258.73-71.705 219.273-172.945 481.349-292.984 726.686-118.755 241.976-261.19 462.35-392.272 630.633 95.058-200.655 215.766-436.322 323.802-682.762 109.99-250.164 211.23-505.913 301.426-710.291 60.986-139.976 72.988-166.04 115.502-222.996ZM2193.959 4982.884c-11.026 84.502-16.864 113.17-74.615 265.798-85.985 226.72-201.487 497.002-337.106 747.545-133.035 246.801-290.4 470.177-431.533 642.165 110.315-201.035 247.886-440.408 371.83-692.794 127.503-257.63 243.33-521.566 345.222-732.271 69.427-143.7 83.381-170.126 126.202-230.443ZM2128.761 4784.452c-10.05 81.158-16.539 107.964-74.94 250.923-86.961 212.187-203.44 464.971-335.498 699.5-130.757 232.666-280.982 445.992-415.3 609.791 102.849-194.328 232.305-425.133 353.337-664.144 123.293-243.837 240.096-490.277 343.27-686.468 69.103-132.908 84.033-155.61 129.131-209.602ZM2068.407 4595.347c-11.351 81.52-19.142 109.067-78.52 256.11-88.243 220.394-206.348 482.849-342.293 730.41-132.71 242.354-284.561 467.212-420.832 641.803 105.127-202.517 237.837-444.872 361.129-693.915 125.895-254.267 244.958-511.516 349.433-715.135 71.055-137.373 85.334-163.818 131.083-219.273ZM2005.143 4396.933c-15.255 77.435-22.07 103.862-85.659 241.235-95.71 206.24-222.255 453.421-362.086 686.088-138.223 230.081-291.376 446.733-426.02 615.377 106.754-193.95 240.747-428.857 369.552-667.11 130.107-240.872 257.303-483.588 367.943-673.832 73.964-128.046 90.522-150.026 136.27-201.758ZM1938.626 4218.602c-11.677 76.693-18.491 103.86-79.496 242.355-92.473 208.102-214.464 457.524-351.06 695.414-134.97 235.65-283.26 457.886-416.927 632.115 102.849-199.914 231.003-441.89 355.597-683.864 126.871-245.7 250.814-490.657 358.2-682.763 72.03-129.546 86.961-153.749 133.686-203.257ZM1869.83 4040.288c-9.724 79.297-16.538 104.982-74.94 243.837-87.936 209.584-206.041 462.73-337.757 704.344-132.384 240.493-278.072 467.954-407.853 649.25 97.01-207.74 219.67-454.56 340.36-703.603 121.665-249.422 242.048-497.742 347.174-689.83 71.38-129.925 85.334-153.37 133.017-203.998ZM1791.98 3853.027c-12.978 76.314-20.443 101.638-83.056 237.89-93.775 204.378-220.954 450.077-360.153 691.673-137.571 239.752-288.772 471.678-423.09 653.354 102.849-208.844 232.648-456.043 360.477-704.345 127.83-248.301 254.375-493.26 365.973-681.64 74.633-126.203 90.865-150.027 139.85-196.932ZM1727.397 3730.927c-9.725 76.315-16.54 101.62-78.194 238.614-92.149 204.758-214.79 455.3-351.712 698.017-136.27 242.735-285.193 477.643-418.553 664.886 98.312-213.308 225.183-465.713 349.451-716.256 125.877-253.146 250.146-498.845 360.785-687.968 74.634-127.684 89.238-150.026 138.223-197.293Z"/><path d="M2433.422 5991.383c-10.7 81.52-15.581 109.808-71.705 254.628-84.033 216.67-198.558 469.816-335.805 702.482-135.62 230.443-298.822 433.322-445.16 586.33 117.778-183.9 263.466-403.551 390.32-637.7 128.48-237.15 244-487.313 341.986-686.106 66.825-136.253 79.477-160.817 120.364-219.634ZM2221.235 5115.033c-5.857 89.347-9.417 121.358-61.655 288.881-76.568 246.82-182.67 544.268-314.404 820.135-128.805 269.143-286.82 511.498-430.556 698.018 109.682-216.67 244.976-477.643 362.755-752.37 120.039-279.952 229.72-568.833 324.128-800.777 64.566-158.214 76.568-186.502 119.732-253.887ZM1599.893 3376.143c70.078 36.856 96.36 43.924 245.934 90.468 223.882 69.608 501.285 157.834 778.706 248.301 276.753 90.468 551.571 177.573 777.062 235.27-223.232-100.879-496.098-215.55-774.477-314.946-278.054-100.5-555.15-182.778-778.038-230.805-151.851-32.011-179.434-33.132-249.187-28.288ZM1731.301 3650.51c69.771 37.235 95.077 43.562 243.675 85.261 221.93 62.903 497.055 144.061 769.921 222.617 271.258 77.797 540.545 150.387 761.499 194.329-219.327-87.865-487.331-189.123-760.197-276.97-273.843-88.244-547.667-160.835-768.313-202.155-150.207-29.029-178.115-29.409-246.585-23.082ZM1440.27 3074.591c70.728 40.218 96.684 48.768 245.933 98.656 225.816 74.091 505.497 174.608 785.828 274.366 281.633 100.897 562.29 201.776 795.245 272.505-229.07-116.152-507.449-246.44-788.756-358.128-281.958-110.567-560.988-202.517-787.13-255.749-151.525-36.114-180.717-37.235-251.12-31.65ZM1530.14 3250.682c70.729 38.356 97.336 46.165 245.608 88.985 226.467 66.626 506.473 152.25 787.78 240.114 280.007 87.105 559.687 173.849 790.69 230.443-227.442-103.5-506.797-217.79-787.454-316.066-282.265-99.017-561.62-179.073-786.804-222.256-150.857-28.667-179.416-29.029-249.82-21.22ZM1408.15 3013.171c73.982 30.91 99.938 34.253 251.446 67.385 229.395 49.888 513.612 117.635 801.409 192.467 287.471 74.453 577.202 152.267 815.038 204-242.373-91.95-533.73-194.33-822.829-277.332-288.429-83.4-571.688-146.682-797.504-176.831-151.201-21.22-179.417-19.36-247.56-9.689ZM1330.606 2892.193c73.313 30.529 99.92 34.994 252.097 64.764 229.72 45.423 517.174 108.705 807.248 180.193 291.682 71.85 584.341 147.423 827.69 197.673-247.235-92.33-542.171-195.45-834.18-276.97-291.682-81.158-576.876-139.975-803.36-164.558-152.81-16.376-181.695-14.135-249.495-1.102ZM1242.994 2741.408c70.078 26.805 95.059 30.529 237.167 55.111 217.068 37.959 488.307 91.57 761.499 152.63 276.12 62.902 553.523 132.528 786.153 181.657-236.19-85.985-517.173-180.917-795.552-253.887-273.843-72.591-543.148-120.979-755.986-139.976-143.085-12.653-170.017-9.67-233.28 4.465ZM1106.073 2532.564c71.705 24.944 97.336 26.065 241.397 46.906 219.327 30.53 491.542 76.694 767.662 133.27 279.68 56.974 561.621 124.34 797.83 170.885-243.674-86.744-531.453-180.176-813.736-249.061-277.729-67.367-549.312-108.326-761.173-117.996-143.41-6.706-168.39-.76-231.98 15.996ZM1066.18 2467.42c68.452 17.498 92.456 15.636 227.118 22.342 205.373 10.05 461.7 32.373 720.937 66.264 264.1 34.235 530.477 82.641 752.732 114.653-234.257-69.988-507.449-141.459-774.151-185.761-261.515-45.044-514.914-62.18-713.472-52.87-133.035 6.325-157.04 12.67-213.163 35.373Z"/><path d="M989.92 2347.165c73.007 21.6 98.313 21.98 243.35 33.132 220.303 17.497 495.12 49.147 773.5 94.191 284.218 46.906 570.062 109.085 809.832 152.629-250.145-83.002-543.78-170.867-829.95-229.323-281.307-57.317-554.499-85.623-767.011-82.26-142.11 1.86-167.74 10.049-229.72 31.631ZM918.866 2236.616c67.494 11.532 90.847 10.05 225.816 11.912 205.065 3.344 461.067 18.238 720.63 49.128 264.1 31.65 533.08 81.9 756.618 117.274-237.492-68.868-512.636-141.097-780.965-182.797-261.497-40.2-514.571-50.25-710.87-36.476-132.384 9.688-155.737 17.877-211.229 40.959Z"/><path d="M972.405 2319.618c53.54 10.068 72.356 8.568 175.205 8.206 156.389-2.241 350.41 1.103 547.034 13.394 199.535 11.912 401.346 36.856 569.086 51.75-180.392-44.682-388.043-86.364-590.505-106.844-198.884-20.479-391.296-20.479-540.22-3.723-100.897 11.17-118.104 17.497-160.6 37.217ZM1167.077 2614.844c73.965 27.908 100.247 30.529 254.05 58.817 231.655 42.441 521.403 103.482 814.062 174.97 296.545 73.332 594.391 154.11 843.254 211.446-252.749-96.794-555.457-205.5-852.02-288.14-294.612-81.52-582.39-137.735-810.809-160.455-152.502-14.515-180.736-11.153-248.537 3.362ZM2107.992 4610.603c52.889-5.586 71.706-5.947 176.832 16.015 157.364 31.65 349.759 83.02 538.593 140.717 186.574 56.214 372.154 116.532 520.752 173.487-160.275-23.082-350.41-61.058-538.918-109.085-190.46-49.129-378.644-106.102-529.844-154.11-102.524-33.512-122.316-41.34-167.415-67.024ZM2229.658 5007.448c42.839-.74 57.444.38 138.873 24.565 244.976 71.488 589.873 201.775 821.527 312.722-125.57-28.306-274.493-67.765-421.139-117.635-148.29-50.647-292.984-105.361-409.787-153.387-80.146-33.512-95.077-41.32-129.474-66.265ZM2049.59 4513.809c-11.025 56.974-16.538 76.332-64.565 180.194-71.705 151.146-166.438 336.527-269.63 513.739-102.524 176.452-214.14 343.613-313.735 476.503 76.567-154.49 172.927-336.166 268.004-517.824 95.71-183.917 193.696-362.23 276.752-503.327 55.8-96.414 67.169-113.532 103.175-149.285ZM1815.966 3907c-9.074 64.782-14.587 87.123-62.613 204.017-72.681 176.831-171.319 390.14-280.006 599.362-108.687 209.584-227.443 411.74-333.545 572.936 77.543-183.917 178.458-399.466 278.072-613.895 99.92-214.428 200.51-425.513 287.127-589.674 58.095-110.205 70.747-129.926 110.965-172.746ZM2364.97 5627.651c-3.904 53.612-6.163 70.747-39.585 166.782-98.637 281.452-278.704 660.42-437.045 903.517 110.965-281.814 278.705-666.747 399.412-926.22 42.17-90.829 48.985-107.964 77.218-144.079ZM2158.604 4867.11c-4.537 52.853-7.14 70.73-41.538 165.282-100.897 278.47-280.964 656.698-435.418 902.017 105.777-285.52 272.234-669.35 396.484-926.96 43.49-88.968 50.954-104.983 80.472-140.338ZM2493.432 6408.69c-6.163 53.611-8.098 71.849-44.773 165.66-109.012 278.09-308.221 650.371-481.492 880.055 127.847-274.366 314.403-648.49 445.16-905.36 43.798-87.124 51.913-104.241 81.105-140.356ZM1925.991 4080.108c67.15 41.7 91.498 51.388 233.607 104.24 214.464 78.936 474.352 177.953 733.264 269.903 254.376 90.087 504.521 167.522 710.562 215.549-199.552-93.812-447.438-201.035-700.512-301.173-259.562-102.379-520.427-192.466-735.217-248.681-145.344-38.338-172.276-40.58-241.704-39.838ZM1969.12 4239.442c39.91-14.514 54.19-15.635 139.198-.361 254.05 44.664 622.95 163.04 878.627 285.519-131.083-15.256-287.471-49.509-441.275-88.967-156.063-39.459-309.523-86.364-434.442-130.667-84.683-30.15-101.873-35.374-142.109-65.524ZM2518.105 6243.028c44.14 9.31 58.076 15.274 138.548 57.697 236.21 125.1 559.036 319.428 764.752 467.954-117.78-42.061-258.28-104.602-393.899-181.296-141.458-78.917-279.355-167.523-388.693-243.837-76.893-53.232-90.197-64.783-120.708-100.518ZM2443.815 6000.673c61.637 9.31 83.382 16.015 200.51 68.126 172.928 76.694 378.644 182.056 578.504 278.09 190.786 91.589 377.993 172.368 519.45 237.511-160.925-24.564-357.223-81.14-551.245-166.022-203.438-88.985-403.623-198.052-566.826-294.846-112.917-66.644-133.035-79.658-180.393-122.859ZM2313.383 5424.032c64.24 3.723 87.268 7.808 210.235 51.732 183.646 64.782 401.364 156.37 616.462 243.855 206.692 83.761 408.178 160.437 565.85 224.84-173.903-24.185-384.138-76.676-594.066-152.99-217.067-79.677-430.881-175.73-605.436-259.852-119.406-58.077-141.458-68.868-193.045-107.585ZM2579.435 6989.813c-27.583 37.236-33.421 52.871-74.308 137.373-119.713 249.802-297.196 603.448-416.927 852.509 165.805-226.72 352.687-578.142 449.047-836.494 33.421-88.985 36.024-108.705 42.188-153.388ZM2619.978 7362.094c2.603 49.13 37.633 167.144 59.052 259.852 58.077 274.367 146.339 664.127 218.677 929.564-27.565-298.57-105.434-692.433-185.906-949.302-27.583-87.485-68.777-203.637-91.823-240.114ZM2538.874 6469.007c50.286 15.997 67.475 23.823 154.11 84.882 128.806 90.829 280.983 208.843 426.002 325.737 140.825 115.032 274.493 225.96 377.016 322.393-124.9-60.68-272.215-150.026-416.927-257.25-150.532-111.308-298.172-234.907-413.999-340.63-81.755-74.453-95.709-90.088-126.202-135.132ZM1676.135 3563.766c49.328 25.685 66.843 29.047 169.692 52.87 154.129 35.736 345.222 80.78 536.008 125.082 192.394 44.303 384.807 88.606 545.407 117.635-161.576-64.023-355.923-128.064-548.335-180.555-191.744-52.112-381.88-90.088-533.713-110.567-103.192-13.774-122.334-11.912-169.059-4.465ZM708.613 1899.329c70.73 18.238 96.36 16.376 237.167 24.564 217.068 11.55 489.609 39.097 764.752 86.003 283.567 48.026 569.412 118.756 810.809 171.246-250.797-90.087-544.106-185.02-829.3-244.596-277.746-58.076-547.684-83.002-757.287-75.935-141.132 4.465-165.805 13.774-226.141 38.718Z"/><path d="M642.096 1806.259c59.052 15.996 79.17 17.117 195.648 19.358 174.88 4.845 395.508 21.22 618.413 50.25 228.094 29.409 460.399 77.815 654.42 112.429-204.071-69.988-440.931-139.976-673.236-181.296-224.84-40.2-442.558-49.509-612.25-37.977-114.851 7.447-134.318 13.774-182.995 37.236ZM804.322 2046.01c70.73 18.239 95.728 17.118 237.511 22.703 215.115 8.93 485.053 29.789 759.872 69.247 280.006 40.58 565.85 101.259 804.644 144.44-249.82-85.622-541.177-173.107-823.786-226.34-277.729-52.87-545.082-69.246-753.383-56.593-140.174 7.826-164.83 18.617-224.858 46.544Z"/><path d="M568.131 1702.397c71.705 15.256 95.71 13.033 239.12 18.239 217.718 8.929 490.91 34.614 769.289 84.14 286.495 50.63 575.9 126.944 820.876 187.244-254.7-93.812-550.613-193.95-839.368-255.75-280.006-59.558-551.896-82.64-762.8-74.831-140.807 6.344-166.763 16.394-227.117 40.958Z"/><path d="M479.218 1595.554c71.055 14.894 96.035 12.291 239.445 15.635 217.393 5.206 490.91 24.944 769.94 72.59 286.82 48.768 578.828 125.842 824.762 185.4-256.31-96.794-554.824-198.793-844.23-257.61-280.656-57.715-552.221-77.435-764.1-62.92-141.134 9.308-165.788 20.478-225.817 46.905Z"/><path d="M410.767 1505.827c68.144 13.033 91.172 8.93 223.556 8.93 203.42-.362 459.748 13.412 720.612 52.13 269.305 39.458 541.196 107.584 772.525 161.937-240.747-87.106-519.777-177.953-791.016-229.703-262.491-49.508-517.517-58.437-713.798-42.422-132.058 11.911-155.105 21.22-211.88 49.128ZM258.608 1324.17c64.565 10.05 86.292 7.447 211.21 2.603 189.81-7.827 428.605-6.706 671.629 22.34 249.512 30.15 504.195 87.486 718.352 134.012-227.135-79.659-490.91-161.558-743.333-201.776-245.934-39.459-482.794-40.58-664.162-14.514-121.991 17.876-142.434 29.047-193.696 57.335Z"/><path d="M214.468 1269.437c63.932 2.983 85.66-4.103 209.602-21.582 188.183-25.323 426.345-41.7 667.416-26.805 249.82 15.635 505.497 68.126 719.31 111.308-230.678-74.091-495.12-148.544-749.496-175.35-244.958-26.064-479.865-5.946-658.65 36.115-120.038 28.288-141.132 42.061-188.182 76.314ZM325.758 1395.26c71.38 14.533 95.384 10.05 239.77 11.912 217.393 2.241 491.235 21.98 770.916 69.988 288.43 50.268 582.064 132.908 829.95 199.173-258.261-101.259-558.71-207.723-849.417-269.523-281.958-59.938-555.15-78.176-766.686-62.179-139.524 10.43-164.83 22.72-224.533 50.63ZM843.275 2121.566c48.659 13.773 65.541 12.291 162.552 16.015 148.272 4.844 332.876 13.394 518.8 30.15 189.81 17.497 382.855 45.785 545.082 63.281-169.692-49.508-367.925-97.896-558.386-123.22-187.857-24.564-371.178-29.408-513.287-17.496-97.336 7.447-113.567 12.652-154.761 31.27Z"/><path d="M7.143 1040.856c47.7.38 69.12 16.015 174.229 123.22C711.216 1831.944 1566.797 3003.12 2048.615 4330.65c473.72 1303.706 569.43 2661.024 579.804 3198.225-76.567-523.427-217.7-1881.486-713.146-3176.263C1410.733 3034.392 565.853 1864.335 79.499 1201.69c-39.585-49.147-100.265-132.168-72.356-160.835ZM3230.927 1825.238c42.838-70.73 59.052-93.811 176.831-200.276 178.133-160.075 407.185-339.89 645.672-510.395 232.955-166.402 470.448-325.357 663.511-443.75-171.318 169.763-391.621 355.904-618.088 533.097-228.744 178.693-460.073 349.56-647.93 484.71-127.848 92.311-151.201 108.326-219.996 136.614ZM3356.822 1898.57c44.773-66.265 62.288-88.588 183.302-188.744 180.736-150.025 413.692-321.272 650.86-480.968 233.931-157.852 466.58-306.378 657.022-421.79-172.602 159.335-393.23 335.046-619.372 499.966-230.696 169.005-463.977 330.202-653.136 459.386-127.504 87.106-151.851 103.5-218.676 132.15ZM3757.21 2115.258c43.471-69.247 60.986-90.468 177.157-190.985 172.602-149.646 396.159-316.428 620.998-476.142 218.695-155.973 436.72-308.62 610.949-422.53-152.159 169.384-354.296 351.06-566.176 517.462-217.05 170.125-440.931 328.34-624.252 451.198-126.853 84.14-150.55 97.914-218.676 120.997ZM3966.144 2217.619c47.7-60.3 66.517-78.918 186.248-169.746 178.766-135.15 405.233-285.917 629.44-433.34 217.393-142.2 428.93-285.899 598.621-393.863-153.785 151.508-355.272 319.41-567.802 470.557-218.677 155.231-445.794 296.708-629.765 410.24-127.504 78.934-151.201 92.708-216.742 116.152ZM4106.644 2289.848c47.7-62.92 65.216-81.9 182.995-173.108 175.205-135.15 399.412-286.278 618.414-434.822 213.163-144.44 417.252-287.399 581.413-396.845-144.694 159.714-336.78 332.063-545.082 484.71-214.14 157.834-437.352 298.93-620.673 410.618-126.22 76.676-149.9 89.709-217.067 109.447ZM4337.322 2438.012c46.074-62.559 64.89-81.918 181.694-167.902 175.53-129.547 397.134-272.505 611.924-414.343 207.65-137.373 406.552-275.487 564.224-380.469-137.88 158.594-322.827 327.599-525.94 475.022-209.259 151.887-430.863 285.537-614.184 387.916-126.546 71.47-151.2 81.9-217.718 99.776ZM4447.636 2504.276c47.376-60.679 67.168-77.435 190.46-159.714 183.647-122.1 411.722-256.49 636.905-389.76 213.489-126.202 416.928-256.87 576.551-354.043-136.92 153.009-325.43 316.067-533.08 453.06-216.741 143.7-447.745 265.8-640.79 361.11-132.385 65.886-158.666 76.315-230.046 89.347ZM4635.186 2624.514c48.985-56.956 69.428-72.97 190.768-146.302 181.061-109.067 404.925-226.72 622.318-344.734 207.65-112.79 402.648-228.202 558.71-312.325-134.968 142.579-319.916 290.002-523.354 412.842-213.164 128.064-437.027 234.908-626.512 317.549-129.781 56.214-153.478 65.161-221.93 72.97ZM4789.93 2729.496c49.96-54.732 71.054-69.608 194.347-138.494 180.085-100.138 404.274-208.843 621.016-317.169 206.024-103.861 399.72-210.705 552.872-286.658-132.71 135.891-313.752 277.729-516.866 391.26-212.187 118.756-438.328 215.55-628.138 288.52-129.13 49.888-154.436 57.335-223.231 62.54ZM4882.729 2802.846c56.468-48.768 78.194-62.18 206.041-126.582 190.443-95.294 423.742-196.552 645.98-301.914 210.252-99.776 403.623-208.481 554.173-287.019-136.596 128.805-323.152 263.558-530.477 372.263-219.652 115.411-453.259 206.62-648.256 278.85-133.686 49.508-159.967 56.955-227.461 64.402ZM5043.329 2917.498c56.467-42.44 77.218-52.87 206.674-104.602 186.574-73.35 415.644-153.388 634.97-231.944 208.627-75.193 401.672-154.11 553.198-208.463-136.92 107.205-324.453 215.17-530.495 298.93-217.7 88.227-447.42 156.353-639.814 205.88-133.686 34.614-157.365 40.579-224.533 40.2ZM5218.534 3067.144c61.655-39.82 84.683-49.129 217.718-90.449 197.582-61.059 435.744-120.256 662.861-181.676 212.187-58.076 408.486-120.997 560.663-161.937-140.175 95.293-333.22 187.622-545.407 254.628-224.858 70.729-464.628 121.358-663.512 156.352-138.223 24.203-164.179 27.927-232.323 23.082ZM5394.064 3219.412c59.703-37.959 82.75-45.785 212.205-77.797 192.395-48.767 420.488-92.69 641.767-136.252 205.716-40.58 396.81-82.641 545.733-106.844-138.53 83.02-326.406 158.594-533.08 209.584-219.002 53.991-450.349 88.226-641.767 108.706-135.294 14.894-159.967 14.153-224.858 2.603ZM5506.33 3307.276c62.939-32.391 85.334-39.838 217.068-56.214 194.021-23.462 426-39.46 649.883-48.406 210.56-7.809 407.184-11.171 564.223.74-147.621 53.612-344.246 92.33-555.475 110.206-225.165 20.462-457.145 24.185-650.84 19.72-134.662-3.343-160.944-6.687-224.859-26.046ZM5687.374 3468.472c63.281-26.064 85.984-31.288 217.718-36.494 194.346-9.309 424.067-7.447 645.346 3.362 207.65 10.05 404.907 28.65 554.173 54.714-144.06 35.736-338.733 53.233-548.986 52.491-223.556-.74-454.234-13.032-645.346-32.011-133.993-13.774-159.298-18.618-222.905-42.062ZM5777.588 3550.734c63.914-16.377 87.937-18.618 219.001-10.05 194.672 13.412 425.043 41.32 646.648 79.676 211.536 37.217 407.184 81.52 559.361 134.011-151.2 3.724-349.759-12.653-560.012-39.079-224.514-28.668-456.187-66.644-645.671-103.88-133.017-25.684-158.323-32.372-219.327-60.678ZM5908.978 3675.833c67.819-1.861 91.823-1.5 221.93 38.338 376.384 115.032 879.928 344.355 1195.94 565.49-330.291-121.359-842.277-337.667-1208.593-498.846-127.504-56.594-150.55-64.42-209.277-104.982ZM5924.559 3710.068c64.565 30.53 87.937 42.062 198.576 146.682 331.9 314.205 759.547 845.802 1011.97 1283.607-304.987-373.022-737.82-884.9-1041.505-1228.893-104.15-117.255-125.895-136.993-169.041-201.396Z"/><path d="M5909.629 3696.295c51.587 56.214 71.054 76.332 140.825 220.014 205.373 423.65 410.764 1077.745 475.98 1556.87-152.828-457.163-367.293-1093.381-529.52-1527.082-56.123-149.285-70.728-175.711-87.285-249.802ZM5751.306 3541.063c44.122 64.764 61.33 86.365 115.827 237.511 160.293 444.854 289.424 1108.619 299.148 1581.417-87.268-466.834-229.07-1119.428-349.433-1563.558-41.863-153.37-54.841-180.917-65.542-255.37ZM5546.24 3353.061c45.424 67.385 57.426 91.588 105.778 243.837 71.054 225.6 141.783 505.551 178.115 789.226 36.024 279.573 30.186 560.284 7.465 791.468-23.028-232.305-44.122-512.257-88.244-787.003-44.447-278.09-108.055-554.318-156.714-778.417-34.723-155.99-41.212-183.158-46.4-259.111ZM5349.31 3181.074c45.097 65.523 60.335 88.967 112.898 240.113 77.544 220.394 156.063 496.622 201.812 777.676 45.098 275.867 51.262 555.819 35.699 787.003-32.12-229.702-64.89-506.31-119.08-778.435-55.149-276.608-127.505-547.612-182.02-769.488-37.308-152.629-43.797-179.434-49.31-256.87ZM5137.104 3001.26c43.797 65.884 58.402 89.708 108.362 240.113 73.983 221.496 148.616 495.863 191.762 775.073 41.863 273.626 47.376 552.095 31.144 781.4-28.866-227.823-60.354-503.31-111.616-772.832-51.912-274.005-121.014-546.13-172.927-767.626-35.048-151.888-42.188-180.935-46.725-256.128ZM4804.228 2749.614c47.05 65.505 62.287 90.088 118.755 242.337 83.707 224.496 172.277 502.586 230.027 787.003 56.793 278.09 78.195 561.385 76.242 795.914-42.82-231.546-88.894-509.636-155.737-784.003-67.801-278.83-150.857-553.956-212.513-779.917-43.146-155.611-50.285-184.658-56.774-261.334ZM4576.767 2587.297c47.05 62.54 60.353 85.984 114.869 232.287 79.803 216.67 163.203 486.192 220.303 759.817 55.799 269.161 77.869 543.148 80.128 769.127-47.032-219.653-97.643-488.434-163.51-751.63-67.494-270.263-145.362-536.442-202.463-754.973-39.26-150.406-46.4-179.055-49.327-254.628ZM4424.283 2489.382c47.05 61.8 61.98 84.503 118.104 229.323 82.424 214.428 169.367 482.83 232.956 754.594 62.631 268.04 94.751 540.165 103.5 765.402-54.172-219.652-111.598-485.071-184.279-747.905-73.657-267.3-157.039-531.236-217.067-749.768-41.52-148.526-48.66-176.832-53.214-251.646ZM4175.095 2342.7c43.49 69.247 57.1 94.553 108.688 249.802 76.585 231.185 158.665 517.083 214.157 804.862 54.823 283.296 78.827 569.212 82.731 805.223-43.471-232.305-90.847-514.1-156.063-793.691-65.541-286.278-143.736-568.092-198.902-800.397-38.283-158.575-44.447-188.364-50.61-265.799ZM4007.68 2252.992c42.17 65.885 53.847 90.468 98.964 239.373 67.15 221.875 137.879 495.5 185.905 769.108 48.026 271.402 70.73 544.648 74.29 769.506-44.773-221.514-92.781-490.295-151.833-758.335-60.354-273.246-126.872-543.148-172.62-766.144-30.819-150.767-33.73-178.676-34.705-253.508ZM3849.684 2165.869c41.519 67.385 52.888 93.45 99.92 246.078 71.055 228.582 146.339 510.757 200.204 796.674 52.563 279.951 81.104 562.506 89.87 796.655-48.026-229.305-100.914-508.895-164.504-785.864-64.89-282.555-136.595-562.145-185.58-791.45-33.421-155.25-38.934-185.779-39.91-262.093ZM3683.553 2075.04c36.35 67.746 47.7 91.95 85.66 241.234 56.774 224.117 117.128 502.569 158.99 781.038 41.52 275.487 63.59 553.198 70.079 781.78-41.863-224.118-89.239-499.966-142.11-773.23-53.539-276.59-110.639-552.077-147.314-776.935-24.98-151.508-26.607-180.176-25.305-253.887ZM3526.839 2000.587c38.284 64.023 49.96 88.967 90.847 237.131 60.68 223.376 125.244 499.225 172.62 778.815 47.032 276.97 76.567 554.68 86.617 786.244-48.333-225.6-103.825-501.466-162.226-773.97-59.053-277.35-119.388-552.078-159.624-775.815-26.933-150.405-31.144-179.814-28.234-252.405ZM3369.475 1928.376c41.537 64.403 52.237 88.226 95.076 234.528 64.873 220.376 134.644 496.242 187.532 774.694 51.913 278.47 86.292 558.042 103.826 791.467-57.1-226.34-120.057-501.086-185.273-775.832-64.891-276.228-130.107-550.215-171.952-771.71-28.233-150.786-32.77-179.074-29.21-253.147ZM3199.783 1856.508c37 65.144 47.375 88.985 85.659 236.77 57.426 221.496 116.153 499.224 163.854 783.261 47.375 281.814 80.797 568.851 95.383 806.723-53.52-231.545-111.29-512.618-171.3-792.57-59.703-280.331-118.756-556.56-153.153-781.038-24.33-150.387-27.258-179.796-20.443-253.146ZM3079.093 1821.153c39.585 62.54 50.286 85.984 89.546 233.407 58.727 220.394 123.617 497.743 173.578 781.038 50.286 282.935 86.96 570.315 105.777 811.188-59.703-231.184-122.641-513.739-186.556-792.57-64.258-282.193-124.92-557.3-160.943-781.417-24.655-150.767-27.89-178.314-21.402-251.646ZM2940.87 1760.474c33.747 65.523 43.147 91.208 77.219 237.872 51.912 224.117 108.036 503.689 154.761 789.967 46.725 287.4 83.382 578.901 103.825 822.359-55.473-237.873-115.176-525.271-173.903-809.326-59.052-285.538-114.2-564.73-145.362-788.847-21.402-149.285-23.028-178.693-16.54-252.025ZM2832.834 1720.997c32.12 65.162 38.934 89.726 67.8 239.011 44.774 225.6 92.15 508.154 133.687 798.155 42.495 290.743 77.218 587.451 97.336 836.494-55.817-243.096-112.917-536.821-166.457-824.961-53.214-288.14-101.222-570.695-125.244-797.776-15.889-150.406-16.54-178.314-7.122-250.923ZM2594.998 1651.389c41.212 60.317 51.262 83.4 95.384 225.599 67.493 214.808 145.362 488.433 212.53 769.867 67.15 283.675 126.528 574.057 164.18 820.117-76.26-234.528-160.944-517.083-242.048-797.396-79.821-277.729-154.762-550.613-199.878-770.247-30.493-147.785-34.054-174.97-30.168-247.94ZM2492.8 1616.774c35.68 61.782 46.056 85.244 84.665 229.305 59.377 220.393 124.268 497.001 184.622 784.02 61.004 288.881 116.152 585.589 151.526 837.614-73.983-239.734-152.828-530.495-226.467-816.393-73.657-284.055-137.572-561.386-174.88-784.02-24.997-149.647-26.932-177.573-19.466-250.526ZM2399.675 1597.777c31.162 65.523 37.977 89.726 68.795 236.029 46.725 222.616 102.524 504.05 156.714 795.173 54.497 294.846 105.452 596.018 140.482 852.508-68.126-250.164-141.133-547.974-206.349-839.838-63.915-288.52-121.033-570.333-148.272-795.19-18.817-149.285-18.817-177.573-11.37-248.682ZM2278.01 1557.216c30.818 62.902 38.934 88.226 69.753 233.787 46.4 222.996 102.216 505.55 157.039 798.897 56.124 295.587 109.663 601.224 148.272 860.334-73.639-250.922-151.508-550.974-219.001-845.079-67.169-289.622-122.317-572.918-149.249-798.155-18.166-149.646-17.515-177.934-6.814-249.784ZM2122.923 1518.86c28.866 59.938 36.006 82.279 65.541 219.272 44.448 208.844 95.71 473.901 148.273 747.527 53.539 279.59 111.29 568.091 151.2 812.688-73.332-236.408-151.526-519.325-217.718-796.312-64.89-271.746-115.827-536.442-141.458-748.267-16.557-139.976-16.232-167.523-5.838-234.908ZM1931.16 1466.369c28.235 56.955 33.097 77.814 59.378 208.843 40.869 198.793 87.92 451.198 138.223 711.412 51.262 267.678 106.085 542.406 145.995 777.314-73.983-227.46-153.46-498.845-215.766-763.523-61.962-258.37-107.06-510.775-127.83-711.05-13.628-134.77-12.327-159.335 0-222.996ZM1837.078 1447.372c23.68 57.714 28.541 79.676 49.31 211.464 31.47 201.775 68.144 457.145 112.266 722.202 44.773 271.023 98.963 551.716 138.223 792.209-72.03-235.649-149.9-511.877-206.692-782.52-54.823-262.455-89.546-517.842-102.85-719.618-9.073-135.873-6.488-160.437 9.743-223.737ZM1724.487 1425.428c26.281 56.576 30.167 78.538 52.888 210.705 33.729 200.655 72.681 456.024 119.063 721.1 47.7 272.125 105.777 553.56 147.965 794.052-77.869-233.787-158.015-511.136-218.694-781.779-59.378-263.196-96.36-518.945-109.664-719.98-8.748-135.872-6.814-161.557 8.442-224.098ZM1660.897 1413.498c18.817 60.697 20.444 83.02 32.446 216.67 18.166 204.379 40.868 465.351 77.218 735.615 37.633 277.728 90.521 564.747 130.432 811.187-70.404-244.578-143.41-529.374-191.762-806.723-46.725-269.522-69.102-529.735-71.054-733.752-.976-135.512 4.555-160.076 22.72-222.997Z"/><path d="M4960.941 2871.713c42.17 67.006 55.799 90.829 103.825 239.373 71.705 222.237 144.061 495.121 187.858 771.71 43.471 273.626 49.96 549.493 38.609 776.195-27.908-226.34-57.426-499.966-109.338-769.109-52.563-272.884-121.99-544.268-173.27-765.023-35.031-150.785-41.195-178.332-47.684-253.146ZM4275.36 2415.291c50.285 68.506 67.15 94.57 131.715 256.129 95.727 238.251 200.836 535.7 274.493 838.373 72.03 295.948 106.428 595.638 117.128 844.32-53.539-243.096-115.827-537.942-198.558-829.065-84.683-296.328-182.02-591.174-256.002-832.787-49.96-164.54-58.401-194.311-68.777-276.97ZM2030.449 1487.969c21.727 45.044 26.589 61.04 45.405 161.558 27.909 151.887 60.029 344.354 93.776 542.406 34.397 201.776 70.403 409.878 95.076 587.071-52.888-172.349-107.404-377.107-150.875-577.762-42.514-196.57-70.404-389.037-84.358-541.665-10.068-103.861-8.441-122.48.976-171.608ZM2771.504 1669.645c72.663-29.788 95.71-45.803 231.004-132.529 202.462-129.926 454.56-289.26 707.959-446.734 253.074-157.11 502.587-315.325 699.21-454.921-221.278 106.843-486.354 243.457-745.61 395.725-260.213 151.146-508.406 314.566-697.24 459.006-127.847 98.656-147.965 120.256-195.323 179.453ZM3032.694 1760.094c72.356-29.409 94.426-45.044 226.466-134.39 196.95-133.27 443.21-295.588 686.233-458.266 241.397-161.938 478.239-325.755 663.186-471.678-210.253 113.17-463.652 255.388-712.188 411.36-249.82 156.732-489.59 324.255-672.911 471.298-125.245 100.518-145.363 122.859-190.786 181.676ZM2473.658 1582.16c75.284-27.927 98.637-42.82 236.21-126.582 206.673-127.685 467.863-280.693 729.052-434.08 262.799-153.75 524.964-306.379 734.566-442.631-234.582 100.517-512.961 230.804-782.267 376.366-268.98 147.061-524.638 304.896-718.985 448.233-129.781 95.674-151.2 117.997-198.576 178.694ZM2645.302 1635.753c73.639-29.408 97.661-45.043 229.702-133.27 202.788-134.029 454.885-297.087 709.911-460.145 253.4-161.937 506.473-324.236 706.025-469.057-225.834 108.326-495.446 250.544-755.66 405.414-262.165 155.61-511.01 322.374-697.909 472.039-125.552 100.517-146.32 123.22-192.07 185.02ZM2413.63 1563.904c71.704-37.597 92.148-55.474 220.953-153.37 194.672-148.544 438.997-327.599 690.444-505.19C3576.15 728.152 3830.85 551.32 4032.336 397.57c-229.395 128.426-499.984 288.881-757.27 461.249-257.303 171.625-498.374 353.663-678.116 512.997-121.358 106.465-140.5 130.667-183.32 192.088ZM2284.173 1539.34c71.073-36.857 92.8-55.095 219.67-155.991 192.07-151.888 436.07-337.27 686.866-518.204 252.423-182.417 507.774-362.972 712.17-522.307-232.955 132.167-506.797 294.846-765.384 470.937-257.936 175.71-497.706 362.592-674.863 526.771-118.43 110.567-137.572 135.132-178.459 198.793ZM2129.737 1501.724c66.5-36.855 86.617-54.352 203.113-150.767 178.44-147.043 404.907-326.116 637.863-501.447 235.884-176.47 476.63-348.82 672.93-500.345-221.605 128.064-479.866 285.157-723.866 456.403-240.096 167.903-462.35 349.199-626.186 505.93-109.682 105.724-127.197 129.547-163.854 190.226ZM1904.572 1462.284c66.5-39.838 85.641-59.577 201.161-160.076 175.53-154.129 398.418-339.528 630.09-520.083 234.908-183.52 477.589-361.472 674.538-517.824-227.117 133.27-489.934 297.448-733.59 474.28-239.445 174.59-458.79 362.972-616.461 526.012-106.103 110.206-120.383 134.77-155.738 197.69ZM1836.428 1447.751c59.703-42.44 75.916-62.902 176.18-166.402 153.135-157.473 350.085-347.337 556.108-530.495 209.603-187.623 429.58-366.316 608.364-521.547-210.253 138.114-449.047 305.636-666.765 488.053-214.465 177.573-405.883 368.54-542.48 534.2-91.822 111.31-104.8 134.771-131.407 196.191Z"/><path d="M1708.58 1422.807c65.542-43.182 83.726-63.282 194.365-171.608 168.065-164.179 384.138-361.851 610.623-552.836 231.655-194.328 474.353-378.969 672.26-540.165-229.376 141.458-493.169 313.825-733.59 501.448-236.19 184.278-448.721 383.451-598.62 556.18-100.572 115.411-113.55 141.837-145.038 206.981ZM1590.476 1400.484c55.166-46.165 71.054-65.885 168.715-172.729 148.942-161.937 340.686-356.645 545.426-542.786 208.3-189.105 431.188-368.919 612.557-522.668-211.537 141.097-452.283 310.102-669.983 495.862-211.554 180.935-398.761 376.366-530.495 544.269-88.895 112.808-100.571 137.373-126.22 198.052Z"/><path d="M1679.389 1417.222c44.447-35.735 57.1-51.732 130.432-134.752 110.314-127.323 251.121-280.332 399.412-429.237 149.899-151.508 309.523-295.587 438.654-419.186-156.063 112.429-330.292 249.422-487.331 397.225-154.762 144.82-292.334 298.93-388.694 430.718-65.541 88.606-73.982 106.844-92.473 155.232ZM1998.654 1472.334c69.753-39.097 90.197-58.456 217.375-161.576 191.437-155.611 436.07-343.975 688.817-527.513 256.653-185.4 519.144-366.316 731.982-525.27-239.445 133.63-522.705 298.55-784.852 477.244-260.214 177.952-500.634 368.557-677.791 535.7-118.105 111.309-135.946 136.632-175.53 201.415ZM3886.991 2145.028c34.38-46.526 47.683-61.8 135.945-130.288 132.06-103.5 300.775-221.134 470.774-331.34 167.758-109.446 337.125-215.17 478.257-293.345-128.48 112.049-287.796 237.51-451.975 354.042-166.113 117.635-335.48 227.461-472.726 314.567-93.45 58.437-112.266 68.867-160.275 86.364ZM4215.964 2331.53c30.186-34.994 41.537-45.785 114.218-93.812 218.676-145.181 544.756-328.719 778.038-435.183-106.736 80.418-237.493 171.608-373.113 253.526-136.92 82.64-273.517 159.696-386.76 218.893-77.217 40.2-92.798 46.526-132.383 56.576ZM3786.402 2122.687c26.932 49.526 34.723 67.764 63.589 180.555 40.887 165.66 85.985 374.142 120.057 583.727 34.072 208.481 56.124 417.325 65.867 592.674-39.26-171.626-81.123-379.348-123.618-585.589-43.49-208.102-82.099-414.342-108.706-582.244-18.816-113.17-21.4-134.77-17.19-189.123ZM3249.761 1875.867c33.078 53.612 42.82 73.712 79.478 196.19 55.817 184.64 115.194 416.566 164.83 653.336 49.96 236.77 88.243 476.522 110.313 677.177-56.449-193.588-115.827-428.857-174.879-661.904-59.052-233.425-115.827-465.35-153.786-651.853-25.63-125.84-28.884-150.025-25.956-212.946ZM4690.334 2666.575c29.843 41.32 38.935 55.474 73.332 150.785 100.897 280.314 203.096 696.156 237.818 996.57-92.148-290.743-206.674-700.241-278.379-982.796-25.305-98.656-30.818-116.532-32.77-164.559ZM4079.711 2287.986c28.885 41.682 37.959 56.215 70.73 151.508 97.66 279.952 199.226 695.035 237.835 994.346-97.986-288.881-212.855-697.277-280.982-980.952-23.046-98.637-27.257-115.773-27.583-164.902ZM5257.812 3122.238c28.233 43.182 37.958 58.076 68.777 154.509 91.497 286.278 175.855 712.152 191.761 1015.566-75.59-298.57-170.017-715.894-232.955-1004.775-21.745-97.535-26.282-116.153-27.583-165.3ZM3433.715 1911.62c73.657-24.203 96.685-36.494 230.696-112.808 201.486-115.412 447.746-253.146 688.817-394.984 236.842-139.596 462.984-284.796 639.49-415.825-199.86 93.07-442.558 214.79-684.263 346.217-247.886 135.131-489.608 279.572-677.466 411.721-127.196 89.726-148.272 109.465-197.274 165.68ZM3561.544 1991.278c19.467-42.44 29.21-54.732 99.288-112.049 208.952-171.626 544.756-383.072 802.385-500.345-103.174 94.19-235.884 195.45-369.895 290.381-135.62 96.794-273.824 186.502-390.302 255.008-78.845 46.165-94.1 55.835-141.476 67.005ZM5174.755 2983.763c36.982-28.668 50.937-35.736 133.993-69.609 245.283-99.776 594.41-219.652 832.228-278.47-109.664 64.403-248.537 132.168-392.273 186.141-149.248 56.956-302.058 104.24-426.651 137.373-87.287 23.082-103.826 25.685-147.297 24.565ZM4973.92 2869.851c49.634-42.82 69.427-55.473 184.929-112.049 170.342-83.761 381.553-173.488 583.365-265.058 192.413-87.485 375.408-179.814 516.216-246.458-129.782 111.309-304.987 228.582-495.122 323.514-199.86 99.396-409.136 182.037-584.992 243.837-121.99 42.802-144.06 49.508-204.397 56.214ZM4529.41 2562.353c48.333-49.147 67.15-64.403 181.693-131.788 170.65-100.897 382.53-209.964 589.53-320.152 198.883-105.74 389.669-212.566 541.846-292.984-139.2 122.1-321.218 253.146-518.168 366.696-203.746 117.255-415.3 220.014-591.156 299.31-121.015 55.094-143.41 65.144-203.746 78.918ZM5673.437 3468.834c2.929 48.767 8.442 64.782 30.494 157.852 66.517 274.728 155.105 669.712 220.953 944.079-19.467-295.208-99.92-696.156-188.508-958.232-30.168-90.467-40.218-106.843-62.939-143.699ZM5929.114 3702.621c31.795 33.132 128.805 89.347 200.51 138.494 208.627 149.646 509.401 357.748 722.564 489.536-201.811-191.346-497.073-410.619-711.212-529.754-72.682-40.94-172.928-90.829-211.862-98.276ZM5327.24 3128.944c45.748-29.029 62.612-37.217 162.226-62.902 147.296-38.356 328.014-76.315 503.22-108.706 170.667-30.909 334.195-58.456 465.929-71.85-126.22 56.577-285.845 110.93-454.886 150.388-175.53 40.959-356.266 71.109-503.562 88.606-104.15 11.911-123.943 11.911-172.928 4.464ZM2940.527 1742.597c50.955-21.22 65.542-32.753 153.478-98.276 132.041-97.914 296.22-218.893 459.748-340.27 164.505-122.478 329.316-245.319 461.7-353.283-154.761 83.761-332.57 193.95-502.26 310.481-169.042 116.514-328.34 241.976-449.373 348.82-81.755 73.331-94.408 89.726-123.293 132.528ZM1234.571 1328.255c61.637-43.544 78.827-65.524 184.604-172.729 162.227-166.04 374.107-364.454 599.597-551.715 232.305-193.208 479.54-371.522 684.28-527.513-234.257 136.632-501.61 304.155-742.356 490.277-233.932 180.935-442.233 379.728-587.92 553.216-98.313 115.773-110.315 142.2-138.205 208.464Z"/><path d="M1130.402 1314.481c51.913-35.735 67.169-51.37 151.852-142.958 128.155-136.994 295.569-301.913 472.726-459.748 181.043-161.937 376.691-313.463 536.64-444.51-188.508 113.93-400.695 253.525-592.132 410.257-185.254 151.508-346.83 319.79-461.049 463.851-77.218 97.535-87.593 117.635-108.037 173.108ZM1392.568 1356.181c61.637-43.562 78.845-64.782 183.646-174.229 159.299-166.04 364.997-367.816 585.643-559.903 224.84-195.811 466.562-381.21 663.187-542.045-230.697 138.873-492.537 310.12-727.12 498.863-231.003 184.64-431.839 387.536-573.315 563.627-95.384 117.996-106.085 145.923-132.04 213.687Z"/><path d="M1014.25 1299.967c60.68-46.526 76.26-67.385 182.02-178.694 160.943-168.264 372.154-368.919 601.549-556.541 235.884-193.226 488.957-370.799 701.144-524.169-239.445 136.994-511.985 302.655-755.985 490.277-236.842 182.056-445.143 383.452-591.156 558.422-97.01 116.893-109.338 144.82-137.572 210.705Z"/><path d="M885.445 1294.761c59.703-46.165 76.242-68.506 180.718-180.935 158.665-170.505 366.316-375.625 595.06-565.868 234.908-195.07 490.566-374.125 702.771-528.995-242.373 136.252-517.842 302.655-760.866 492.519-235.865 183.899-442.214 387.536-584.992 567.73-95.058 120.617-105.759 148.164-132.691 215.549Z"/><path d="M781.945 1285.073c56.775-45.044 70.729-66.626 165.137-173.109 145.362-163.42 337.124-359.248 547.034-540.544 216.742-188.003 452.626-357.008 651.184-503.69-225.165 131.047-480.191 289.261-705.682 470.196-218.043 175.331-405.9 373.022-536.333 542.027-86.943 115.032-97.661 139.976-121.34 205.12ZM562.6 1277.246c52.238-44.664 66.192-63.662 152.827-167.523 131.065-157.834 302.384-348.44 493.82-522.668 196.932-178.332 414-341.752 595.368-479.866-210.886 125.082-449.373 278.09-654.42 451.94C950.317 728.15 779.993 917.255 666.1 1081.434c-76.242 110.188-84.358 134.752-103.5 195.81Z"/><path d="M653.79 1274.282c59.703-46.906 74.308-69.247 178.784-183.538 156.696-172.729 364.69-377.866 594.066-568.092 236.86-195.07 497.074-371.54 715.1-523.048-246.585 134.77-526.266 299.69-771.55 488.434-238.143 183.158-444.51 389.398-586.293 570.315-93.775 119.496-104.15 148.164-130.107 215.929ZM1466.55 1378.884c43.472-29.03 54.173-43.562 125.878-118.755 108.705-115.412 246.277-257.231 389.362-394.605 146.32-139.614 301.733-274.366 428.604-391.64-151.526 100.518-322.845 224.859-474.353 359.61-149.267 133.289-283.26 276.609-377.667 399.088-65.542 83.02-73.658 100.137-91.823 146.302ZM2718.616 1702.018c17.515 33.132 22.395 45.423 41.862 120.237 57.426 221.514 125.552 555.819 159.624 799.277-76.242-242.337-154.762-574.419-191.111-794.794-12.978-76.314-14.262-88.985-10.375-124.72Z"/><path d="M210.256 1276.505c34.398-37.977 59.053-43.923 199.535-51.37 785.502 52.852 2110.917 204.378 3264.344 767.626 1133.003 552.836 2028.169 1446.664 2362.69 1822.29-373.781-313.085-1301.718-1171.178-2444.77-1700.191-1163.82-538.304-2480.794-697.638-3232.225-781.761-58.076-2.983-152.177-13.412-149.574-56.594Z"/></svg>