<svg viewBox="0 0 7993 10714" xmlns="http://www.w3.org/2000/svg" xml:space="preserve" style="fill-rule:evenodd;clip-rule:evenodd;stroke-linejoin:round;stroke-miterlimit:2"><path d="M4352.13 1580.96c-37.617-77.075-51.594-102.63-162.742-229.82-168.034-191.932-385.928-415.556-613.985-631.415-223.307-211.275-451.423-415.585-638.002-571.874 160.088 200.133 369.328 427.33 584.675 646.823 217.698 221.452 438.577 436.075 618.613 607.29 121.793 115.642 144.333 136.69 211.441 178.996ZM4219.467 1622.482c-40.558-73.365-56.615-97.805-170.93-220.97-170.838-183.896-393.376-398.684-621.628-604.532-225.01-203.028-449.132-396.165-632.967-549.258 162.501 190.86 372.39 407.096 588.655 615.598 220.156 212.496 444.307 418.103 625.52 584.222 121.928 111.27 145.584 132.528 211.35 174.94ZM3795.333 1737.882c-38.567-75.416-53.81-99.931-163.677-221.935-163.798-181.091-376.852-390.18-591.776-592.877-209.873-197.841-418.6-392.034-586.138-539.112 140.866 194.993 330.626 413.972 533.066 619.956 206.135 210.642 420.621 411.499 597.008 569.326 121.386 108.193 143.987 126.738 211.517 164.642ZM3575.584 1787.23c-43.558-67.486-61.605-89.875-175.271-202.818-170.914-169.542-388.356-363.886-604.652-554.611-208.697-184.845-411.605-368.665-575.267-508.912 144.002 178.497 334.636 383.048 538.268 574.905 209.571 197.555 428.144 383.395 605.963 532.975 123.407 103.338 146.535 121.838 210.96 158.46ZM3426.457 1824.002c-42.759-70.681-59.404-92.573-171.156-205.38-167.265-168.29-382.55-362.845-592.56-553.194-204.687-185.523-400.146-368.137-558.214-509.515 134.261 184.98 315.594 391.929 514.129 584.554 204.777 198.61 420.229 382.853 597.61 530.608 121.326 101.349 144.364 118.929 210.19 152.927ZM3180.625 1912.791c-42.126-69.807-58.816-92.302-170.99-200.706-167.1-163.345-380.5-349.02-586.906-532.508-199.877-177.231-390.437-353.739-541.449-489.207 127.22 182.192 301.105 384.828 495.207 570.367 199.847 192.188 413.837 369.389 591.505 508.083 123.03 96.207 147.017 112.129 212.633 143.971ZM3063.687 1951.027c-42.865-68.797-62.058-88.895-180.262-194.887-176.357-157.51-397.04-336.611-614.603-514.114-206.692-168.501-402.137-338.963-555.998-466.696 126.421 176.342 304.421 373.294 504.344 551.143 208.44 184.876 433.09 353.649 620.633 487.398 128.653 92.271 154.284 108.359 225.886 137.156ZM2864.141 2022.568c-45.005-65.48-64.71-85.231-181.513-181.68-175.256-145.147-393.09-307.663-603.778-469.259-202.123-153.952-390.662-307.874-541.765-423.078 125.487 165.833 301.044 347.723 497.966 510.254 205.501 170.477 424.556 322.288 609.341 443.508 127.342 83.663 150.832 97.142 219.75 120.255ZM2699.363 2087.867c-47.04-64.048-67.485-82.789-186.97-175.89-174.744-136.448-393.724-290.445-604.366-442.392-200.782-145.027-388.236-290.008-538.434-398.126 124.718 160.285 296.642 335.028 493.414 489.78 205.244 161.46 426.998 303.984 613.94 415.962 126.963 76.531 152.052 89.558 222.416 110.666ZM2598.226 2135.616c-52.845-58.861-74.27-76.577-198.897-166.406-185.086-133.659-413.384-282.454-631.248-433.12-204.898-142.479-392.834-289.6-538.991-398.382 128.427 153.394 306.548 324.459 508.324 474.4 213.975 158.808 443.04 298.18 635.244 411.244 131.94 77.33 157.797 89.965 225.568 112.264ZM2426.498 2208.393c-54.247-53.433-74.888-68.42-201.37-145.6-183.503-112.912-409.6-240.389-625.639-364.73-205.44-118.114-394.884-236.725-544.494-323.373 130.432 133.266 311.93 278.474 513.963 404.066 213.28 132.995 441.412 249.692 632.997 340.682 132.573 63.233 156.35 73.878 224.543 88.955ZM2236.285 2311.204c-58.951-51.443-81.989-65.902-213.476-135.166-195.626-102.781-432.427-213.085-657.814-323.48C1155 1750.125 961.11 1645.625 809.434 1572.26c134.88 122.26 322.74 253.491 533.292 365.228 221.965 117.556 461.6 220.125 660.241 298.948 138.046 54.64 164.431 64.123 233.318 74.768ZM2045.967 2415.9c-57.685-49.378-80.316-62.314-208.546-122.517-191.133-89.151-419.671-183.051-640.068-274.253-206.044-85.638-396.634-168.607-545.686-224.754 133.794 110.213 318.474 224.257 524.065 319.906 218.241 100.443 449.765 185.358 642.089 248.214 136.583 44.478 161.762 49.393 228.146 53.403ZM1924.853 2474.172c-60.263-44.794-82.894-57.73-215.437-102.57-195.384-66.64-429.17-134.502-655.055-192.79-213.16-55.997-412.796-103.55-573.125-127.824 145.93 84.809 341.737 165.426 554.686 231.117 226.956 70.35 462.43 126.527 658.854 165.637 136.75 27.938 164.386 30.14 230.077 26.43ZM1728.896 2585.607c-61.892-38.718-85.352-48.774-218.694-84.19-195.957-51.941-429.275-102.39-654.587-142.328-211.532-37.753-412.57-64.606-566.643-73.848 143.715 66.294 339.929 127.25 553.104 174.2 226.76 50.102 461.6 90.132 657.316 115.28 136.96 18.259 162.908 19.66 229.504 10.886ZM1630.307 2643.714c-63.55-29.837-87.583-37.346-221.558-58.68-198.762-31.737-434.749-57.308-662.579-70.847-217.683-12.56-419.475-14.399-577.86 1.07 153.078 37.376 355.714 66.897 571.332 89.619 230.092 23.625 468.717 39.306 663.724 47.357 136.96 6.106 162.908 4.704 226.94-8.519ZM1486.456 2733.317c-67.606-17.625-92.272-22.887-227.106-14.519-390.98 24.5-920.563 127.537-1259.406 266.76 344.95-40.95 881.468-130.267 1265.859-200.933 134.774-24.26 158.52-26.084 220.653-51.308ZM1468.394 2762.07c-68.285 14.232-92.513 19.84-213.507 94.608-362.062 222.689-838.965 630.901-1129.486 990.58 339.265-285.8 819.335-674.036 1155.162-931.463 115.144-88.593 139.478-101.996 187.83-153.726Z"/><path d="M1484.858 2751.847c-56.57 41.87-78.31 56.916-160.39 177.774-242.455 356.302-503.38 930.62-607.849 1371.187 191.283-399.724 460.395-955.45 660.121-1330.675 68.284-129.27 85.351-151.072 108.118-218.286ZM1658.048 2640.91c-49.995 51.563-69.445 67.952-136.719 199.334-198.188 386.306-382.792 987.445-430.375 1435.054 125.773-424.074 322.469-1011.644 480.22-1406.483 55.107-136.824 69.898-159.666 86.874-227.905ZM1880.963 2508.97c-50.915 53.207-65.917 73.878-127.01 207.506-89.828 197.932-184.498 448.061-243.404 709-58.906 257.82-75.928 525.287-71.164 750.9 41.779-215.753 85.683-477.22 152.58-727.967 67.923-254.275 154.043-502.685 221.83-703.95 47.146-140.79 55.846-164.943 67.168-235.489ZM2094.44 2389.725c-50.523 51.624-68.058 71.27-134.02 202.214-96.041 192.264-197.993 436.799-266.82 693.336-68.058 252.722-97.051 516.888-99.63 739.426 50.645-210.627 106.28-465.671 183.353-712.031 78.04-250.506 172.694-491.574 245.893-690.2 50.463-137.035 59.464-160.917 71.224-232.745ZM2324.155 2266.847c-49.619 52.77-66.068 72.34-128.729 203.601-92.678 193.515-190.906 437.1-256.567 692.416-64.952 251.184-92.437 513.993-95.166 734.963 47.78-209.436 102.117-463.726 175.542-708.201 74.36-249.24 166.723-491.664 236.892-690.637 47.84-136.176 57.534-161.37 68.028-232.142ZM2682.311 2103.743c-53.297 50.93-70.259 70.847-140.172 203.073-102.946 194.118-215.014 438.005-296.52 695.371-79.864 251.592-124.281 516.542-141.198 739.728 62.057-210.718 131.126-464.465 221.317-709.815 91.397-250.144 197.103-492.222 278.248-693.11 55.74-138.754 65.66-164.596 78.325-235.247ZM2926.53 2000.133c-53.493 48.76-68.36 67.862-135.453 195.173-98.121 187.454-205.078 424.647-283.992 671.489-78.687 243.39-123.466 498.373-143.94 712.227 65.66-197.947 138.09-441.397 226.427-677.233 90.613-240.721 190.846-476.994 266.05-671.444 51.88-133.417 61.545-158.912 70.908-230.212ZM3088.654 1941.619c-52.453 48.352-69.28 66.7-137.669 191.63-101.303 185.252-211.155 420.515-297.41 664.282-85.412 241.173-139.84 491.423-166.15 703.92 72.068-196.018 151.901-435.774 246.224-668.399 96.584-237.826 202.093-469.908 280.645-663.392 53.855-132.663 63.836-157.57 74.36-228.041ZM3352.94 1858.65c-49.332 55.875-64.861 76.606-129.813 212.753-96.479 202.575-202.847 455.313-282.41 716.237-78.31 256.763-125.607 522.889-148.479 746.302 62.872-210.778 133.538-467.798 221.589-718.877 90.477-257.23 191.69-507.012 266.789-714.835 51.368-142.102 60.112-168.773 72.325-241.58ZM3530.247 1811.865c-48.231 52.966-61.906 73.215-119.667 204.672-85.683 195.686-178.739 439.437-250.355 689.038-70.742 247.039-115.566 501.42-137.533 713.84 63.248-200.54 133.689-445.06 215.045-685.871 83.346-245.998 172.527-487.519 237.057-688.783 43.708-136.749 48.714-162.757 55.453-232.896ZM3697.739 1764.72c-47.493 55.09-60.791 76.546-121.506 211.38-90.388 200.797-189.007 452.208-266.488 712.001-75.913 253.114-127.387 515.26-155.083 736.305 66.972-207.415 142.855-460.846 229.745-709.649 88.397-253.295 183.593-503.47 251.757-709.739 46.332-140.715 54.187-168.23 61.575-240.299ZM3873.493 1715.598c-42.518 56.192-55.59 76.999-105.872 209.964-76.35 199.847-159.817 450.519-224.618 706.377-64.62 251.787-109.023 510.812-133.915 726.912 60.806-203.435 130.628-454.755 206.48-702.563 76.638-251.003 156.2-499.76 211.668-705.216 37.602-138.06 42.306-164.355 46.257-235.474ZM4037.969 1680.242c-43.965 51.956-57.806 73.47-110.38 205.079-79.803 197.66-167.597 445.604-238.414 701.07-69.475 252.225-121.883 509.772-150.71 727.485 66.821-203.043 145.448-453.278 226.397-698.748 82.412-250.265 165.592-498.102 224.242-701.342 39.622-136.688 46.513-162.877 48.865-233.544ZM4203.862 1648.52c-46.784 50.96-59.916 71.164-115.174 200.209-83.557 195.188-176.658 441.427-252.059 694.18-75.46 252.134-132.467 510.103-168.894 727.877 76.155-202.018 161.627-448.499 249.557-694.904 88.382-247.37 176.673-492.87 236.816-694.677 40.964-136.81 47.613-162.667 49.754-232.685ZM4381.56 1618.215c-41.914 53.644-54.774 73.818-105.177 205.546-76.577 197.374-157.616 447.835-229.172 707.101-70.666 257.004-127.296 522.105-161.928 744.703 73.44-207.988 154.465-461.57 237.766-714.096 83.014-252.813 164.973-502.113 218.573-707.086 35.717-137.895 40.904-164.853 39.939-236.168ZM4507.078 1611.943c-44.975 49.875-57.52 70.636-109.4 200.932-77.225 196.184-165.44 445.423-239.047 703-73.667 256.96-134.066 522.407-172.301 747.191 78.974-206.933 166.195-461.057 253.22-711.428 87.356-252.903 171.064-500.786 225.78-705.548 36.817-137.684 42.697-163.149 41.748-234.147ZM4652.255 1585.498c-38.869 54.307-51.217 77.24-97.036 208.561-69.973 201.144-149.957 454.303-220.246 715.65-70.742 262.311-131.382 531.196-171.005 758.604 75.31-214.396 158.264-473.752 240.902-730.59 82.592-257.457 161.234-510.496 211.004-715.756 32.943-138.574 37.587-165.486 36.381-236.47ZM4765.167 1571.943c-37.768 54.52-46.362 76.803-88.593 211.849-63.143 204.58-133.734 462.52-199.59 727.817-66.219 267.211-125.065 540.936-165.667 772.791 75.762-218.497 157.872-484.321 234.93-745.954 77.603-261.377 149.068-518.773 191.63-728.676 27.652-139.961 30.713-166.437 27.29-237.827ZM5011.829 1559.143c-46.196 48.428-58.514 68.556-114.707 193.319-85.457 189.112-187.046 431.747-277.162 683.957-91.096 253.552-174.608 515.758-233.122 741.748 96.463-205.697 205.124-454.273 309.683-703.09 104.017-245.666 201.295-487.925 264.965-686.626 42.925-133.237 48.82-158.4 50.343-229.308ZM5118.62 1550.172c-41.688 50.207-54.278 70.35-104.47 198.324-77.51 195.882-166.059 444.518-250.445 703.076-85.517 261.15-164.868 530.472-221 761.86 94.006-212.029 197.766-469.817 295.541-724.59 97.097-253.144 184.529-501.992 240.224-704.975 37.195-136.463 41.899-162.757 40.15-233.695ZM5214.254 1553.127c-36.924 54.76-45.608 76.124-88.608 208.426-65.314 201.656-144.605 456.64-223.066 720.58-79.23 267.754-154.842 542.353-210.838 778.099 89.332-221.588 187.65-488.559 277.388-751.02 87.81-259.794 168.17-514.869 214.035-721.334 30.486-138.664 32.672-165.668 31.089-234.75ZM5341.248 1542.046c-36.501 53.478-47.1 74.691-89.86 206.661-64.755 201.928-143.714 457.485-223.608 723.746-80.27 268.162-159.108 546.168-219.04 783.512 94.519-221.437 197.978-488.558 290.52-753.131 90.78-260.065 169.377-516.542 215.106-724.545 30.245-138.333 31.888-165.29 26.882-236.243ZM5501.171 1540.779c-34.617 50.192-43.226 69.355-83.663 193.952-62.223 187.665-135.528 427.45-210.747 676.132-76.426 253.477-158.958 514.672-218.814 737.663 93.583-207.627 195.188-458.993 284.912-706.498 88.155-243.918 160.33-484.231 203.148-679.193 28.873-129.483 30.637-155.204 25.164-222.056ZM5700.068 1534.462c-33.23 47.568-39.924 66.867-77.481 184.347-56.976 179.403-124.914 409.359-196.636 645.572-73.651 242.002-152.112 490.97-211.17 704.854 93.795-199.229 195.867-439.407 280.827-676.51 83-231.614 149.625-461.132 186.745-646.852 24.696-124.431 25.254-148.495 17.715-211.411ZM5797.617 1537.553c-28.963 49.679-35.084 69.234-67.183 189.971-48.398 184.242-105.6 418.842-171.91 660.8-67.485 247.053-144.906 501.554-204.25 721.378 92.182-208.11 193.832-452.946 273.002-697 76.818-236.981 132.407-471.43 162.184-660.24 20.113-127.13 18.756-151.33 8.157-214.91ZM5912.972 1542.151c-30.727 48.277-36.306 67.802-69.777 188.343-50.72 182.584-110.997 416.204-179.282 657.407-70.153 247.611-151.917 502.188-214.034 721.334 97.926-204.581 201.686-450.233 285.289-693.426 81.205-236.454 138.649-471.386 168.516-659.262 20.189-126.195 20.174-150.514 9.288-214.396ZM5978.753 1545.604c-23.716 53.569-27.063 73.832-50.116 198.43-35.084 190.212-79.05 432.969-137.73 681.424-60.504 255.165-137.337 516.15-197.585 741.04 90.945-215.799 187.921-470.496 259.538-722.917 69.007-245.32 112.279-486.78 130.718-680.792 11.775-129.195 8.443-154.148-4.825-217.185Z"/><path d="M2513.448 2184.059c-47.674 53.237-63.791 73.38-124.899 203.887-90.402 194.555-185.735 437.251-251.878 690.124-66.143 250.054-95.438 510.828-101.997 728.405 46.528-208.079 98.8-461.254 173.357-705.201 75.31-247.762 167.491-489.237 236.967-686.898 47.583-135.844 55.906-161.22 68.45-230.317ZM3245.999 1905.358c-56.6 53.72-75.928 74.466-154.51 213.085-116.079 205.29-247.22 463.666-346.02 734.12-97.157 264.678-155.942 542.141-186.503 776.832 74.058-219.267 161.098-484.609 268.327-743.03 109.565-262.688 232.323-520.627 326.298-732.958 63.822-145.72 75.024-172.286 92.408-248.049ZM5597.981 1532.396c-25.978 37.572-32.054 51.519-59.193 142.81-40.858 138.046-88.638 314.117-138.77 494.152-51.11 184.469-104.212 373.807-143.669 536.67 67.636-151.676 139.011-334.23 199.425-514.868 59.072-177.397 103.037-353.453 129.452-495.177 17.912-97.021 18.515-114.526 12.755-163.587ZM4831.01 1536.708c-70.803-44.146-93.584-64.861-223.534-177.593-194.856-169.874-437.673-377.546-682.374-585.037-243.873-207.265-484.669-413.55-672.56-590.6 215.542 152.128 473.934 342.492 725.224 544.72 250.521 202.607 489.885 414.32 669.302 593.692 122.728 123.044 140.745 148.238 183.941 214.818ZM4559.079 1564.556c-71.104-44.433-92.197-64.365-219.07-179.237-189.052-171.653-425.476-380.832-659.292-591.173C3448.65 585.208 3222.04 376.39 3046.06 195.781c204.114 155.023 450.172 347.422 689.19 552.003 240.992 205.652 470.752 419.158 644.908 600.566 119.003 123.994 137.895 149.746 178.92 216.206ZM5139.924 1521.134c-73.984-43.242-96.117-62.766-228.6-173.402-199.545-167.582-451.875-372.209-705.351-577.664-253.733-205.14-507.405-409.645-708.895-586.726 229.594 148.058 501.524 335.029 762.946 535.102 261.166 200.088 508.099 408.318 692.959 587.826 124.446 121.024 144.408 146.67 186.94 214.864ZM4961.939 1533.075c-72.43-44.01-95.182-64.41-222.192-177.714-194.977-174.246-437.899-385.959-683.309-598.365-243.962-211.306-487.669-422.943-678.515-605.662 220.639 154.48 482.573 351.07 733.878 556.42 253.884 206.979 492.765 422.174 670.192 606.703 119.486 123.345 138.695 149.67 179.946 218.618ZM5202.961 1517.982c-69.867-51.714-89.498-73.651-211.32-195.836-185.63-185.056-419.25-411.318-660.091-636.299-240.329-225.357-484.744-450.956-676.947-642.586 222.644 173.613 484.277 388.01 731.843 609.28 246.706 220.73 476.632 448.258 646.31 640.34 114.088 129.754 131.17 156.591 170.205 225.101ZM5336.107 1524.104c-68.993-51.172-89.784-73.923-210.687-197.767-182.614-187.815-415.314-419.143-655.176-648.27-241.339-230.559-485.558-459.927-680.46-657.557 225.72 177.714 490.293 394.658 738.854 620.814 247.626 225.011 475.456 456.475 642.27 652.87 111.886 132.436 129.014 159.892 165.199 229.91ZM5496.03 1522.852c-64.259-50.04-83.271-71.088-194.118-188.976-168.894-180.307-384.36-401.036-607.034-620.483-224.468-221.166-455.208-439.573-642.24-628.248 214.623 172.166 463.998 380.185 697.347 597.43 230.076 214.095 440.522 436.528 594.716 622.519 103.61 125.08 118.808 152.083 151.329 217.758ZM5727.403 1536.361c-64.515-52.815-81.778-75.581-191.102-197.645-165.622-186.233-377.486-412.268-597.641-636.932-223.157-227.815-455.42-451.092-642.843-644.079 220.035 177.91 473.874 393.316 706.423 616.864 228.915 219.206 435.818 447.55 583.122 638.546 98.528 128.954 110.967 155.58 142.041 223.246ZM5797.647 1537.854c-56.448-53.539-71.254-76.215-165.049-197.811C5490.014 1156.117 5305.395 930.76 5111.127 710c-197.375-225.147-405.951-444.926-575.041-633.329 202.199 178.89 431.145 392.472 637.731 614.301 202.772 218.739 381.903 443.343 506.892 631.037 83.829 125.608 95.438 151.993 116.938 215.844Z"/><path d="M5929.3 1542.558c-62.826-55.152-79.034-78.325-183.186-206.466-157.104-194.163-360.117-430.647-574.98-662.955-220.006-238.097-450.7-468.038-638.772-665.352 221.83 185.855 475.336 409.705 704.07 642.028 224.845 228.599 424.692 466.003 562.542 663.77 92.905 132.889 104.379 160.857 130.326 228.975ZM6051.108 1549.403c-52.619-56.388-66.882-79.11-157.872-202.817-138.016-187.454-316.378-415.57-509.787-638.892-195.113-227.227-406.976-447.338-578.99-635.168 203.872 182.478 434.265 397.19 640.083 622.518 199.635 219.96 374.153 447.79 494.95 637.098 80.965 127.1 90.93 153.334 111.616 217.261Z"/><path d="M5959.907 1544.488c-42.502-43.573-53.886-61.56-121.114-156.546-102.48-145.75-232.58-323.63-370.822-498.584-140.126-177.608-290.46-350.86-411.243-497.77 148.917 142.508 314.388 311.914 462.52 487.864 145.389 172.769 272.203 350.317 359.56 497.107 58.604 98.876 66.037 118.16 81.099 167.929ZM5631.769 1524.375c-68.33-52.785-87.538-76.004-207.838-202.38-181.845-191.328-414.831-425.747-656.819-657.497C4522.185 430.215 4269.9 198.766 4067.007-.01c233.062 180.79 505.867 401.669 757.428 630.992 250.054 227.905 478.548 463.666 644.712 662.005 111.405 133.1 127.251 161.295 162.622 231.388ZM3661.81 1736.766c-31.36-52.68-44.311-69.897-128.035-154.977-125.863-127.764-287.7-277.841-451.167-421.858-161.083-141.74-324.911-280.735-461.284-386.335 121.642 135.287 272.82 290.701 429.788 438.11 159.606 149.354 321.911 292.541 454.937 406.238 90.055 77.029 107.922 91.322 155.761 118.822ZM3312.58 1838.899c-27.501-39.94-37.86-52.408-108.149-115.009-210.567-187.483-526.281-435.366-753.945-589.213 101.393 100.323 226.805 216.9 357.704 325.183 131.804 109.128 264.543 213.507 374.59 295.285 75.431 56.208 90.66 65.435 129.8 83.754ZM3765.435 1737.761c-31.089 41.13-40.572 56.645-78.25 157.601-55.71 148.118-117.662 335.752-169.497 527.156-51.081 190.71-90.764 384.451-113.787 548.64 53.222-154.736 112.189-342.415 172.09-528.633 60.535-188.433 116.576-375.239 157.435-528.543 27.637-103.82 32.115-123.541 32.01-176.22ZM4329.5 1625.392c-37.723 42.985-48.73 59.554-96.358 167.657-70.923 163.496-149.942 369.811-219.84 584.042-69.731 212.964-128.02 432.38-166.496 618.221 72.4-171.11 151.63-381.194 230.469-589.68 78.838-208.471 154.842-415.148 208.682-584.283 35.989-113.591 41.326-135.905 43.543-195.957ZM2804.39 2050.068c-33.244 32.296-43.617 43.83-86.723 126.573-124.612 243.465-261.603 615.236-321.73 892.805 117.315-254.969 266.186-618.447 362.031-870.552 33.697-87.824 40.708-103.413 46.423-148.826ZM3454.606 1828.963c-32.642 32.853-43.287 44.402-84.221 127.28-121.22 244.702-257.502 615.478-321.293 891.51 122.712-252.33 272.006-614.287 363.283-868.788 32.008-88.292 37.934-104.108 42.23-150.002ZM2192.11 2354.777c-32.25 34.375-43.136 46.271-82.246 131.155-115.445 251.667-235.203 636.857-276.258 921.136 100.76-266.88 230.74-641.139 317.66-901.792 29.355-87.749 35.702-104.846 40.844-150.5ZM4140.207 1617.431c-73.094-39.26-94.835-57.58-224.95-159.998-194.827-154.3-433.332-341.15-667.223-531.227-228.93-186.157-446.403-374.892-615.266-539.624 195.414 133.673 431.929 304.482 666.8 484.186 240.706 184.151 474.536 376.415 653.758 544.585 121.943 114.39 141.393 137.262 186.88 202.078ZM4004.437 1663.929c-17.022-44.312-25.902-58.484-92.241-128.593-198.792-210.687-521.442-487.262-773.38-657.316 97.081 112.882 223.322 238.73 351.809 359.378 129.768 122.727 262.779 239.243 375.33 330.776 75.927 61.771 90.944 74.767 138.482 95.755ZM2287.713 2242.362c-35.039-36.14-48.759-46.754-130.477-97.398-240.645-150.183-585.368-342.778-822.365-452.449 106.912 86.12 241.55 181.589 383.652 266.11 146.7 87.523 297.863 167.176 421.963 226.806 86.633 41.793 102.6 47.221 147.227 56.93ZM2500.527 2179.294c-47.403-52.8-65.978-68.902-178.317-148.916-166.33-118.506-373.31-250.823-570.578-384.014-187.951-126.226-366.373-255.18-503.74-350.724 122.968 134.88 290.866 285.968 476.466 419.28 194.63 139.96 400.749 265.809 573.427 364.112 119.968 68.103 141.966 80.164 202.742 100.262ZM2976.224 1987.574c-44.568-57.429-63.354-76.004-174.185-166.436-164.778-134.548-371.063-286.254-572.418-437.779-193.183-145.102-377.41-290.37-525.904-400.81 130.884 147.258 305.854 313.62 495.84 465.551 197.043 157.827 403.54 302.974 575.539 417.847 119.139 80.03 140.82 94.609 201.128 121.627ZM1742.57 2589.663c-6.784 45.518-13.66 59.84-43.738 142.358-89.844 246.254-210.929 601.636-300.23 847.845 43.392-276.378 158.068-639.6 267.95-868.335 38.266-79.185 50.207-91.488 76.019-121.868ZM1464.051 2753.099c-34.21 24.59-137.608 56.312-214.501 86.602-223.534 94.896-545.34 224.167-772.883 301.648 220.352-136.372 537.815-277.735 764.877-342.401 77.375-21.907 183.005-46.98 222.507-45.85ZM2121.413 2345.218c-43.935-38.462-60.972-49.71-159.214-96.705-147.017-69.731-327.022-146.79-501.781-216.839-170.839-68.842-334.395-132.09-466.983-174.442 123.18 82.789 281.293 170.22 449.509 246.164 174.442 78.491 355.367 147.68 503.62 197.962 103.972 35.25 124.235 39.985 174.849 43.86ZM4653.929 1567.888c-49.529-31.09-63.58-45.413-147.319-127.688-126.527-123.014-282.786-274.54-439.18-427.617-157.511-153.274-314.826-307.513-439.996-439.693 149.957 114.676 322.183 259.476 484.503 408.89 161.702 148.54 313.95 303.85 427.707 433 77.15 87.537 88.608 106.158 114.285 153.108ZM6417.874 1560.741c-58.786-55.514-74.813-79.637-173.1-205.817-151.646-194.028-350.317-430.602-563.537-659.623-220.08-235.897-456.897-461.556-652.341-656.02 226.986 182.583 484.472 402.347 713.63 633.374 222.869 224.724 417.74 461.329 551.987 658.16 90.176 132.83 100.278 160.602 123.36 229.926Z"/><path d="M6524.8 1571.416c-49.452-45.443-63.61-63.822-142.659-169.572-118.883-158.943-275.85-354.674-442.92-544.811-170.974-194.48-357.146-382.597-508.822-543.575 182.569 151.027 386.245 331.35 567.91 523.612 175.376 185.977 325.906 382.597 430.45 545.309 71.029 110.229 79.804 132.196 96.042 189.037ZM6255.343 1551.333c-59.268-54.85-74.722-78.718-172.06-206.541-148.42-194.314-341.24-432.336-549.32-664.644-212.044-237.238-442.226-467.556-629.046-665.895 222.598 185.162 474.823 406.946 698.115 639.118 218.844 228.222 406.78 466.365 536.338 665.503 86.497 134.096 95.573 162.577 115.973 232.459Z"/><path d="M6643.804 1583.477c-57.926-58.092-72.008-81.763-170.235-210.43-149.414-196.41-348.266-434.84-565.678-665.353-223.458-237.163-466.32-463.53-668.745-657.045 231.735 184.031 494.635 403.614 727.274 637.128 225.72 226.036 420.802 465.113 554.732 664.463 89.166 133.553 99.102 162.591 122.652 231.237Z"/><path d="M6774.854 1608.505c-56.765-57.262-71.525-82.426-168.547-212.768-147.71-198.43-341.918-439.769-558.727-672.529-222.477-238.49-467.133-466.56-670.222-661.583 235.278 184.333 500.997 404.91 732.159 640.113 224.83 228.313 417.575 468.521 548.068 671.926 86.618 135.65 95.724 164.446 117.27 234.841Z"/><path d="M6880.44 1622.422c-53.343-55.394-66.069-79.185-153.425-201.672-134.292-188.403-313.272-417.394-511.551-637.475-204.34-227.016-430.376-441.487-619.955-625.247 217.607 175 463.982 382.973 677.745 606.024 207.13 215.859 381.617 446.192 500.364 636.932 79.652 127.537 88.05 154.525 106.821 221.438ZM7103.52 1664.743c-49.453-54.489-61.937-75.506-141.559-193.68-119.908-179.418-278.534-399.634-458.902-607.91-185.267-214.396-392.969-418.359-565.572-591.489 204.099 166.873 433.663 366.072 628.188 577.755 188.84 205.651 346.185 423.802 448.634 605.405 68.827 121.96 74.707 148.239 89.211 209.919Z"/><path d="M7170.07 1676.533c-44.04-57.775-54.051-81.507-124.416-205.5-107.017-187.123-253.37-415.918-422.912-630.796-175.453-223.066-379.642-430.135-550.465-604.683 202.47 172.95 427.842 376.883 614.195 597.4 179.101 212.15 321.293 440.07 410.49 628.474 60.202 125.849 64.8 152.882 73.108 215.105Z"/><path d="M7296.25 1698.893c-44.658-52.423-54.714-73.667-121.792-188.298-102.313-174.14-238.942-385.416-396.83-585.429-162.817-206.42-349.622-398.533-508.656-562.904 189.324 159.772 396.558 349.427 568.407 553.496 166.949 197.947 301.95 409.373 386.848 583.197 57.821 117.345 62.616 140.61 72.024 199.938ZM7012.304 1641.449c-57.414-58.454-70.772-83.135-167.115-215.09-145.042-198.988-339.657-441.85-557.28-674.534-224.151-238.957-473.873-465.958-683.535-658.508 239.846 183.61 510.134 403.78 744.28 639.028 226.73 228.132 419.34 469.923 548.536 674.067 85.2 134.834 93.855 164.612 115.114 235.037ZM6178.706 1557.273c-41.507-38.672-52.122-53.93-118.16-141.845-100.91-134.352-228.84-300.275-363.297-463.108-136.93-166.346-283.57-328.711-403.207-468.868 145.901 130.01 309.05 285.59 452.795 449.147 140.459 160.104 264.664 326.977 351.191 464.495 58.379 93.282 66.596 112.189 80.678 160.18ZM6115.518 1570.737c-19.284 42.578-21.093 61.756-28.813 178.423-12.589 177.593-28.088 407.519-59.63 646.37-32.37 244.837-89.196 498.735-134.005 722.856 76.682-196.122 155.053-433.873 201.777-673.147 45.292-231.026 63.384-465.234 55.89-654.738-4.598-126.798-11.669-151.103-35.22-219.764Z"/><path d="M6219.339 1586.056c-19.691 41.04-22.118 59.343-31.195 176.145-14.504 177.443-33.004 407.323-67.771 646.461-35.793 246.073-94.654 501.404-141.8 726.988 79.682-196.078 163.179-434.281 213.808-672.348 49.558-232.037 70.138-465.853 63.414-655.734-4.402-127.748-11.443-151.75-36.456-221.512Z"/><path d="M6302.745 1582.935c-15.137 46.256-14.971 66.188-17.972 187.122-4.086 184.619-14.489 422.807-46.09 670.071-32.296 254.818-93.207 517.491-143.685 748.367 79.622-205.742 159.757-454.243 205.863-703.437 44.643-241.264 57.006-481.82 43.24-677.625-8.699-130.161-17.504-155.566-41.356-224.498Z"/><path d="M6393.057 1586.975c-12.288 47.87-10.207 67.953-8.473 193.123 2.82 191.81 1.809 437.884-26.355 693.26-29.808 264.256-91.247 536.338-143.353 776.079 81.401-216.19 161.747-474.386 204.475-733.863 41.251-248.757 45.187-498.54 24.742-699.035-13.419-134.412-23.867-159.983-51.036-229.564ZM6523.308 1603.349c-10.84 27.47-11.112 39.653-10.735 113.5.588 112.506-.316 256.628-5.865 406.765-5.428 151.39-21.364 309.956-32.536 448.755 66.535-242.605 99.524-589.454 79.049-829.542-6.483-81.416-11.866-95.905-29.913-139.478Z"/><path d="M6628.833 1610.39c-17.279 43.648-17.475 62.676-22.6 184.106-8.127 184.981-21.17 424.044-61.154 671.746-41.235 258.104-114.63 524.095-175.784 759.976 91.458-207.114 184.906-455.57 240.902-706.588 53.78-242.395 71.39-484.97 60.821-681.38-7.81-132.422-15.74-157.269-42.185-227.86Z"/><path d="M6722.431 1626.93c-8.88 46.316-8.05 64.635-6.392 182.96 2.533 179.674.95 410.218-27.034 649.356-29.023 245.787-93.025 501.268-148.238 724.771 79.306-203.224 161.13-445.016 201.777-688.42 39.26-234.555 42.789-467.752 24.395-654.422-11.519-125.23-20.445-149.052-44.508-214.245ZM6039.107 1566.998c-18.47 33.456-21.711 48.714-31.707 143.142-15.65 143.58-35.899 329.66-62.178 521.26-27.139 196.983-65.812 401.866-95.574 581.932 58.047-155.49 117.602-345.718 156.139-536.866 37.526-187.318 56.267-375.118 55.95-530.05-.482-102.208-4.794-123.03-22.63-179.418ZM4882.21 1580.447c-20.353 27.395-25.962 37.557-51.759 104.409-75.792 196.982-172.014 499.308-226.08 723.339 96.915-212.904 202.74-511.114 257.787-712.152 19.073-69.053 21.229-81.401 20.053-115.596Z"/><path d="M7461.692 1743.883c-31.934-43.89-56.328-55.424-198.686-94.398-801.107-127.93-2157.88-282.967-3372.974-9.89-1193.985 268.99-2173.922 915.662-2543.476 1197 403.629-213.627 1414.503-818.173 2616.736-1062.046 1224.667-248.048 2573.148-100.67 3342.352-10.418 58.74 9.695 154.857 21.018 156.048-20.248ZM6625.878 5318.573c-76.14 5.277-101.937 8.518-246.813 68.6-218.738 90.734-482.165 219.448-743.843 361.715-255.663 139.569-508.144 287.249-705.79 413.173 222.252-78.868 485.03-196.62 744.447-324.67 261.724-129.498 519.105-265.146 726.415-377.29 139.915-75.853 165.547-89.995 225.584-141.528ZM6606.503 5474.937c-74.36 10.117-100.202 15.861-242.982 81.055-213.552 97.111-471.868 234.418-725.465 381.888-250.008 144.981-491.845 293.264-685.827 417.62 215.678-85.457 470.059-208.999 721.108-342.536 255.722-135.815 507.525-279.078 710.704-394.9 136.463-78.039 162.817-93.176 222.462-143.127ZM6530.832 5966.858c-74.934 6.724-100.806 12.167-240.706 73.048-208.683 90.764-458.691 220.76-704.448 355.684-239.801 131.578-476.315 263.503-659.367 373.46 210.28-60.972 459.053-162.17 702.82-282.892 248.545-122.079 492.629-257.471 687.832-371.334 133.704-78.416 157.043-93.915 213.869-147.966ZM6483.52 6217.71c-70.863 15.726-95.59 24.802-230.198 93.313-201.837 103.55-442.12 244.837-678.906 385.808-229.097 135.935-455.118 266.593-630.947 375.284 198.46-71.45 436.256-180.096 669.062-307.92 239.56-131.261 473.436-277.268 662.427-396.814 130.311-83.09 153.907-98.62 208.562-149.67ZM6453.788 6389.047c-72.974 13.418-96.735 21.153-230.665 88.05-199.681 100.233-438.85 238.942-673.177 374.078-227.86 131.442-449.916 254.893-624.645 357.568 199.892-58.484 435.91-156.68 667.072-278.443 238.399-126.15 469.802-269.458 657.18-388.854 128.17-82.592 151.178-98.68 204.235-152.4ZM6427.538 6683.85c-71.917 13.01-96.493 20.82-226.97 89.904-195.445 102.042-427.346 242.892-654.422 377.063-219.538 130.387-434.507 251.019-602.059 348.99 194.736-52.393 424.21-144.71 648.466-264.92 231.524-123.979 456.565-268.583 636.993-392.653 124.612-86.015 146.61-104.198 197.992-158.385ZM6411.466 6822.468c-71.526 14.534-94.986 25.676-225.87 102.283-194.6 114.42-423.953 265.644-650.818 414.153-215.603 140.94-427.933 269.76-590.057 373.791 189.971-54.156 416.67-153.077 636.525-282.876 229.126-135.604 451.725-295.27 631.836-432.095 124.416-94.096 147.393-113.62 198.384-175.256ZM6389.725 7061.681c-69.837 18.123-93.237 29.883-215.995 109.189-184.438 118.807-399.286 274.041-610.667 422.701-201.868 142.524-398.428 271.479-549.425 378.255 180.925-58.017 394.779-160.783 601.531-294.38 216.568-139.162 423.53-300.533 592.832-439.513 116.093-96.162 135.89-114.767 181.724-176.252ZM6376.713 7261.754c-69.309 20.882-92.603 33.879-213.084 117.346-177.337 122.23-385.793 282.183-590.012 434.883-194.555 145.298-383.532 276.997-528.377 385.703 176.447-59.48 383.018-161.581 583.498-298.36 209.18-142.872 409.811-311.162 572.553-456.716 110.425-98.755 130.643-118.657 175.422-182.856ZM6374.723 7387.89c-67.756 29.159-90.1 43.633-210.521 133.944-179.267 133.945-387.421 306.337-593.088 466.968-194.058 150.862-385.009 281.806-529.146 386.396 172.542-66.61 378.676-176.779 577.408-320.886 210.446-152.957 411.65-330.022 577.181-480.823 113.274-103.384 133.644-124.537 178.166-185.6ZM6364.591 7598.939c-63.881 32.853-83.723 48.05-194.796 145.63-162.018 141.438-352.683 320.976-536.594 490.88-174.864 161.928-343.848 307.407-471.883 424.903 157.179-77.391 344.286-202.682 523.583-357.524 189.91-163.586 372.359-349.879 519.994-509.35 103.142-110.273 120.903-130.266 159.696-194.54ZM6371.195 7841.846c-64.183 38.808-84.869 56.57-191.63 162.802-158.852 158.612-339.973 356.634-516.436 543.017-164.28 173.749-323.645 329.6-441.713 455.238 150.363-86.768 328.454-224.649 500.408-394.733 180.896-179.297 356.8-384.014 497.876-555.999 97.911-120.089 115.943-143.232 151.495-210.325ZM6379.503 8085.839c-62.043 38.31-81.085 56.222-179.614 163.285-146.263 159.666-310.92 356.513-470.285 545.73-149.067 176.75-290.49 338.783-393.437 469.305 140.202-90.84 303.789-233.047 460.606-405.197 165.908-182.93 324.776-386.758 450.292-559.511 89.03-122.11 103.173-146.142 132.438-213.612ZM6377.904 8237.5c-59.449 43.06-78.49 60.986-166.511 179.25-130.01 174.111-276.047 387.678-411.575 597.205-128.472 197.344-245.108 384.285-327.55 540.393 125.05-114.42 266.126-283.283 402.348-476.03 145.403-205.41 282.695-425.686 391.401-613.155 76.366-130.01 88.835-157.63 111.887-227.664ZM6389.212 8490.583c-55.257 47.358-72.475 67.305-152.987 190.515-118.521 181.166-250.596 401.91-371.032 619.126-113.516 203.48-214.276 400.84-282.259 557.536 109.55-120.512 235.188-297.969 356.498-499.354 129.166-213.929 253.612-440.854 350.724-633.525 68.314-134.894 79.547-161.144 99.056-234.298ZM6396.374 8618.693c-48.774 53.027-64.213 74.677-134.066 204.717-103.594 192.942-216.793 427.255-317.478 658.598-95.92 220.925-176.855 430.21-227.182 602.15 90.131-143.082 193.56-340.984 296.325-555.366 109.596-229.006 216.16-470.54 299.326-670.056 59.178-139.99 68.375-167.627 83.075-240.043ZM6410.908 8807.896c-40.587 62.555-54.519 85.955-101.077 230.122-134.774 417.71-261.617 1014.598-284.836 1427.907 103.399-376.852 244.279-974.705 340.049-1406.06 33.47-150.787 41.522-176.131 45.864-251.969ZM6426.77 8839.196c-15.364 77.15-20.49 104.726-9.213 263.653 34.21 474.884 170.371 1150.112 341.074 1610.868-92.965-478.638-212.376-1148.83-284.354-1611.591-24.56-158.672-25.721-189.746-47.508-262.93ZM6405.073 8588.615c21.38 74.767 26.551 102.057 104.319 229.76 228.855 376.022 633.359 832 970.106 1077.997-287.159-317.162-676.51-779.803-927.694-1117.032-86.905-117.526-99.268-143.232-146.73-190.725ZM6388.006 8298.637c22.073 76.275 32.702 100.88 114.873 223.201 121.627 180.518 283.268 388.914 467.254 564.758 181.423 174.518 387.3 309.744 568.286 403.87-154.781-138.257-344.994-298.571-517.929-478.532-175.045-182.267-338.526-380.832-471.55-540.061-93.358-110.711-109.265-130.493-160.934-173.236ZM6377.754 8023.947c21.183 75.43 29.55 102.117 107.982 228.192 114.933 184.544 268.84 397.689 445.438 582.006 173.914 181.725 372.344 327.912 547.947 428.431-147.273-145.147-328.033-315.368-493.278-503.5-168.245-191.283-322.197-395.698-450.986-559.043-89.15-112.34-104.786-132.136-157.103-176.086ZM6370.743 7730.894c22.193 74.691 31.315 100.7 110.817 223.563 117.118 181.543 272.006 390.542 449.071 571.075 174.095 177.669 371.831 322.032 546.228 421.42-147.484-141.71-328.349-310.045-493.217-493.835-168.667-186.896-324.866-389.23-455.027-549.651-89.693-109.173-105.75-130.809-157.872-172.572ZM6382.201 7286.526c19.48 77.753 28.632 104.047 105.872 234.916 113.47 192.475 263.17 416.294 435.26 614.09 168.487 193.772 361.052 356.363 531.755 471.99-142.9-157.089-316.95-340.366-476.632-542.098-162.411-204.913-313.061-421.163-440.78-593.63-87.597-119.35-104.212-140.926-155.475-185.268ZM6396.6 6986.869c17.505 76.983 26.747 101.107 101.62 226.88 110.289 184.333 256.25 399.754 421.209 590.72 162.32 188.706 347.165 347.015 509.153 462.476-131.321-155.31-296.31-337.546-448.649-533.066-155.731-200.209-303.487-408.303-428.46-571.679-85.684-112.957-102.269-134.231-154.873-175.331ZM6413.924 6792.314c17.655 75.747 25.66 101.212 97.835 227.242 106.987 186.805 250.717 404.609 410.218 601.365 157.962 194.706 335.39 361.157 493.79 481.94-127.25-161.295-286.254-349.367-433.844-549.681-150.74-205.019-293.37-416.686-416.233-583.68-84.146-114.028-99.931-135.377-151.766-177.186Z"/><path d="M6379.669 7497.5c23.414 73.049 33.049 98.68 112.625 219.357 118.823 179.523 273.997 385.386 448.574 565.512 172.558 178.739 368.168 323.614 538.51 426.169-146.807-139.9-327.144-305.477-491.786-489.915-167.054-187.032-322.695-389.125-452.222-548.656-88.88-109.249-105.6-128.94-155.701-172.467ZM6779.649 4800.629c-63.037 54.594-88.367 69.038-229.036 154.616-211.834 128.457-472.32 289.947-733.984 453.428-260.924 162.788-519.632 322.876-734.315 440.674 205.923-157.857 459.128-343.02 718.876-515.667 259.553-172.015 522.15-328.093 735.537-436.105 145.57-73.561 172.859-81.311 242.922-96.946ZM6694.493 5096.035c-63.323 54.322-87.673 67.741-228.704 149.293-210.823 121.506-470.33 275.745-729.31 426.818-257.441 150.002-512.681 294.2-725.645 397.809 203.586-144.544 453.67-316.016 710.297-474.989 258.391-160.692 518.667-306.276 731.3-407.67 145.117-69.46 172.919-77.571 242.062-91.261ZM6889.018 4472.174c-63.535 58.077-87.764 72.732-227.83 162.004-211.878 134.065-474.054 306.94-736.984 480.507-263.185 173.9-525.467 348.658-745.427 480.326 208.02-173.93 464.134-374.952 725.827-559.315 261.724-184.061 524.85-349.547 740.165-463.334 145.072-76.004 173.266-85.714 244.25-100.188ZM6828.408 4662.81c-63.43 56.207-88.759 70.635-228.87 153.363-215.286 126.271-479.15 286.51-744.749 448.469-264.075 160.888-528.392 322.107-748.743 440.417 209.662-161.627 469.244-348.296 731.3-519.602 264.587-173.402 529.809-327.535 746.286-431.446 145.328-70.109 173.371-78.552 244.776-91.202ZM6911.543 4405.307c-68.63 49.815-93.719 60.791-238.776 133.99-220.367 112.069-491.95 255.859-765.81 407.64-273.605 151.465-549.32 306.85-777.482 422.732 225.69-155.58 499.067-333.822 772.687-494.318 272.594-159.787 544.042-299.19 763.444-391.537 147.966-61.922 176.236-67.877 245.937-78.507ZM6968.61 4269.237c-67.832 49.422-93.96 61.122-240.253 132.557-221.287 107.787-496.715 248.185-773.214 397.72-278.098 149.971-556.692 303.441-790.553 419.52 230.182-156.908 506.937-337.019 784.446-496.61 276.484-158.882 550.164-294.44 771.661-381.677 149.354-58.604 178.182-64.319 247.913-71.51ZM7030.788 4102.152c-64.967 45.126-89.588 55.439-226.79 119.2-209.782 96.765-470.345 223.985-732.355 359.438-264.09 136.568-528.588 280.645-752.211 392.698 221.211-147.997 485.196-316.046 749.377-463.53 260.819-145.63 520.552-267.152 728.978-345.733 140.624-52.846 167.989-56.856 233.001-62.073ZM7132.815 3867.598c-67.244 44.07-92.347 51.94-232.308 112.204-213.055 90.522-476.316 212.044-741.492 342.476-268.81 132.316-537.936 276.197-765.268 386.396 227.996-151.088 499.203-320.419 768.6-464.315 264.422-141.905 527.427-257.185 737.481-326.54 140.926-46.633 167.145-48.05 232.987-50.221ZM7161.612 3794.85c-64.756 35.432-88.759 40.392-222.236 85.111-202.606 67.772-453.987 161.114-706.212 266.367-256.717 106.61-513.57 226.94-729.61 320.54 221.829-132.152 481.682-276.454 739.32-394.056 253.778-115.068 502.67-202.877 701.1-250.626 133.206-32.537 158.717-32.944 217.638-27.335Z"/><path d="M7217.428 3659.835c-68.601 41.07-93.554 47.674-236.394 100.097-216.296 78.657-484.096 185.946-753.328 307.377-275.503 124.507-549.41 263.518-780.345 372.796 234.946-149.233 512.742-314.78 787.733-450.775 270.333-133.703 537.62-237.51 749.09-294.214 142.208-38.341 168.88-37.92 233.244-35.28ZM7270.997 3536.233c-65.526 29.898-89.257 34.828-223.398 75.25-203.179 61.258-454.997 146.851-708.488 250.039-257.532 103.55-515.968 227.453-732.837 323.931 225.357-132.15 486.447-277.81 746.995-393.165 253.581-111.315 503.333-192.656 701.115-235.354 132.769-28.45 157.33-27.214 216.613-20.7Z"/><path d="M7230.967 3629.003c-51.308 24.877-70.214 29.068-172.301 57.247-156.214 42.699-348.598 100.188-542.293 167.16-196.35 67.817-393.181 148.464-557.506 209.677 171.818-92.754 371.726-190.514 569.718-267.211 194.57-75.46 385.356-129.678 536.504-156.033 101.92-17.881 120.21-17.022 165.878-10.84ZM7085.563 3961.619c-68.766 48.261-94.82 57.775-242.862 127.808-223.427 105.178-501.63 244.882-781.084 394.99-282.77 152.279-565.889 313-803.926 436.934 235.354-162.983 518.532-350.21 799.96-511.4 279.877-160.435 556.934-294.742 780.196-380.576 149.459-57.368 178.135-61.816 247.716-67.756ZM6477.248 6105.416c-54.308 9.56-72.793 15.575-173.764 65.179-151.163 74.676-334.048 177.457-513.013 284.565-176.372 105.615-351.07 214.833-488.95 310.452 155.369-67.259 338.39-156.334 517.566-255.044 181.724-100.489 359.121-206.828 502.007-295.104 97.066-59.841 115.264-72.084 156.154-110.048ZM6420.739 6514.232c-42.729 11.323-56.675 16.313-134.081 62.238-231.991 136.81-553.284 356.453-765.495 526.085 119.743-61.56 261.814-140.73 399.227-229.443 138.966-89.483 274.177-181.438 382.295-260.351 74.767-54.112 88.11-65.902 118.054-98.53ZM6387.96 7135.725c12.53 48.76 17.762 64.816 66.612 145.856 144.318 236.47 385.642 542.474 582.353 726.837-156.606-234.102-386.2-548.656-548.837-759.147-56.6-73.486-66.279-87.583-100.127-113.546ZM6388.428 7906.708c14.414 48.593 19.706 65.253 71.541 143.232 154.42 230.876 413.098 524.412 622.73 692.34-172.105-222.115-418.284-521.773-591.023-726.686-57.85-69.309-68.872-82.984-103.248-108.886ZM6571.344 5555.419c-59.932 59.012-83.075 73.56-215.995 163.737-199.545 135.151-441.955 301.256-684.922 461.178-238.128 156.38-473.843 300.065-671.067 403.509 183.202-144.574 412.359-316.046 647.486-481.518 241.294-169.436 486.267-328.288 690.501-441.412 138.483-76.652 164.476-86.784 233.997-105.494ZM6554.322 5716.88c-42.02-1.84-56.434 1.025-138.574 39.562-245.666 114.661-592.726 328.831-826.934 516.647 127.718-51.368 277.675-127.492 424.24-208.004 148.675-81.31 293.55-168.517 410.55-245.425 79.244-52.634 95.467-62.51 130.718-102.78ZM6336.76 7757.942c-42.443 20.655-56.525 30.335-128.609 92.92-214.14 184.468-503.349 458.917-683.897 657.196 110.545-73.215 239.455-171.774 362.68-282.289 127.492-114.33 250.174-236.952 346.637-339.777 67.23-71.496 78.16-85.895 103.188-128.05ZM6370.909 7508.898c-60.43 26.008-80.512 38.402-188.66 120.135-160.013 121.295-346.698 278.67-529.975 425.445-174.382 140.051-347.271 269.368-477.311 370.52 155.792-68.54 341.949-177.231 520.899-311.764 188.117-141.288 369.178-300.653 515.335-437.236 101.228-95.137 119.757-112.702 159.712-167.1ZM6406.099 6929.274c-63.294 21.274-85.382 32.597-200.873 108.133-171.969 112.4-373.595 260.502-573.517 403.479-191.48 137.216-379.416 265.402-525.573 371.74 168.562-71.57 369.63-180.653 565.437-312.035 203.013-135.754 399.739-287.174 558.847-415.57 110.26-88.458 130.553-104.62 175.679-155.747ZM6397.595 8477.979c33.426 27.244 41.945 40.512 95.83 107.997 160.225 201.671 394.764 483.658 554.928 684.712-202.44-166.391-445.68-445.408-584.253-660.257-47.16-74.33-52.574-92.241-66.505-132.452ZM6417.829 8839.694c6.09 46.528-9.635 167.974-15.68 261.105-12.846 274.584-36.91 666.453-65.043 937.102-21.35-289.27-8.519-682.013 29.4-946.691 13.147-89.709 34.874-210.763 51.323-251.516ZM6353.118 7976.59c-47.945 28.933-63.656 41.568-139.75 123.225-113.455 122.426-245.304 276.122-370.309 427.33-121.807 147.485-236.71 289.993-322.71 409.645 114.3-91.955 246.45-217.924 372.827-359.905 131.351-147.093 257.366-305.251 355.834-437.236 69.355-93.222 80.95-112.34 104.108-163.06ZM6734.674 4998.908c-44.402 37.964-61.047 46.317-159.456 97.247-147.634 77.783-329.75 173.945-513.028 269.277-183.97 96.644-368.273 192.686-522.633 265.161 150.274-105.78 333.069-221.648 515.924-324.73 181.754-103.294 364.956-193.319 512.651-255.226 99.765-42.004 119.004-45.593 166.542-51.73ZM7424.376 3159.26c-67.063 36.88-92.649 42.608-231.615 89.694-213.853 72.506-480.13 175.603-746.376 297.094-274.072 125.306-546.937 272.956-778.446 391.01 234.615-156.063 510.767-327.7 784.31-464.812 266.549-133.357 531.303-232.263 740.618-285.666 141.408-35.13 167.34-33.727 231.509-27.32Z"/><path d="M7475.14 3052.756c-55.604 31.48-75.913 38.296-190.92 73.878-173.116 54.202-390.347 131.382-607.502 221.648-221.845 92.558-444.715 203.918-632.545 290.928 191.856-123.859 415.51-256.793 640.068-361.443 217.02-100.851 432.426-171.322 602.963-208.773 115.43-24.696 136.388-24.395 187.936-16.238ZM7352.76 3324.068c-67.018 37.512-92.046 43.181-231.992 88.488-213.084 69.008-477.793 165.41-744.386 280.072-272.112 116.712-545.806 255.074-776.923 362.499 235.127-150.485 510.239-315.489 783.014-445.98 267.317-127.81 530.88-218.815 740.21-265.976 140.398-31.315 166.496-28.043 230.077-19.103Z"/><path d="M7531.845 2933.858c-68.887 34.873-93.221 39.246-234.192 85.26-214.97 69.175-482.935 171.488-751.579 296.613-276.483 128.653-552.138 281.534-785.622 407.865 237.766-160.39 515.577-337.787 792.694-477.4 268.508-135.71 535.222-233.862 746.572-285.878 140.941-34.165 168.05-31.933 232.127-26.46Z"/><path d="M7603.205 2808.673c-67.847 34.15-93.855 38.04-235.293 81.914-215.738 66.761-484.291 162.576-754.413 286.284-277.192 126.828-554.867 281.459-789.753 407.292 239.077-163.933 519.12-343.712 797.005-480.899 270.046-133.673 536.745-229.021 749.965-275.278 141.499-31.104 167.869-27.862 232.49-19.313Z"/><path d="M7655.87 2705.123c-65.133 31.09-88.804 33.848-220.76 71.255-202.47 57.142-455.343 143.142-707.975 252.797-261.045 112.913-520.37 254.05-741.401 370.852 224.86-149.882 487.217-314.674 748.82-439.483 253.264-120.933 504.977-201.52 703.316-241.158 132.844-27.516 157.314-24.41 218-14.263ZM7777.421 2491.24c-62.75 27.455-84.416 31.27-209.602 62.464-189.88 46.045-427.18 114.737-663.92 210.808-243.284 98.845-487.337 225.508-692.702 329.073 213.04-139.162 461.66-290.566 706.438-400.147 237.705-106.444 473.436-174.381 657.98-201.234 123.918-17.987 147.167-13.207 201.806-.965Z"/><path d="M7812.943 2426.936c-63.354 20.655-86.196 20.52-212.482 39.35-190.86 28.979-430.195 81.01-667.9 163.467-246.466 84.477-491.514 206.24-697.361 307.346 216.96-134.834 468.053-279.906 716.644-377.048 239.184-93.176 476.15-141.272 661.086-151.63 124.356-7.116 147.53-.15 200.013 18.515Z"/><path d="M7880.579 2305.505c-59.012 23.7-80.15 24.35-197.405 43.92-178.543 30.063-400.448 79.591-621.538 156.183-228.252 78.793-454.756 188.916-647.712 282.319 201.626-126.92 434.024-259.387 663.739-348.915 222.9-86.723 444.156-134.337 615.613-146.61 116.124-7.93 136.659-3.226 187.303 13.103ZM7723.068 2575.927c-68.932 34.256-93.945 37.12-236.83 79.879-215.211 63.595-484.835 159.5-755.695 284.218-278.399 128.487-556.677 288.47-792.754 422.22 240.51-169.06 522-353.966 800.956-494.364 270.392-135.89 538.539-230.106 751.638-274.795 141.333-29.837 168.336-25.721 232.685-17.158ZM7327.31 3406.796c-46.815 26.34-63.28 30.622-159.486 60.776-146.655 46.211-328.756 106.203-511.159 174.955-186.127 69.716-372.857 150.695-531.317 213.868 160.496-94.835 348.643-196.53 535.418-274.101 182.569-75.929 363.931-132.12 507.45-161.838 97.383-19.977 115.581-20.037 159.093-13.66Z"/><path d="M7981.58 2153.347c-47.387 13.916-66.203 34.315-153.334 165.591-417.38 777.617-1076.007 2121.876-1338.334 3506.934-257.155 1360.889-129.98 2665.465-52.332 3173.232-10.554-514.1-91.895-1831.823 188.584-3190.149 286.073-1383.76 935.082-2723.09 1309.702-3483.775 31.24-57.685 77.874-152.595 45.714-171.833ZM5060.875 3594.672c-56.705-32.325-76.848-41.748-200.737-65.857-186.91-35.898-418.148-63.158-652.492-79.531-229.096-15.605-458.615-23.671-641.395-22.54 185.675 46.301 412.781 82.034 640.973 108.63 230.348 26.4 459.837 46.317 644.999 59.63 126.09 9.257 148.735 10.343 208.652-.332ZM4996.405 3705.836c-56.615-28.285-77.18-36.412-201.083-54.595-185.358-27.636-416.143-46.814-645.707-55.514-226.88-8.94-449.102-11.443-628.806-9.332 182.765 38.145 406.192 66.098 629.77 83.753 228.313 18.786 455.676 30.184 639.843 38.582 123.873 5.715 147.333 6.74 205.983-2.894ZM4785.476 4047.136c-56.569-30.773-76.833-38.613-197.404-58.967-179.403-30.983-401.564-50.945-622.142-65.434-214.894-14.685-428.22-27.034-595.666-30.697 171.728 54.413 383.833 95.543 597.792 120.918 218.86 25.57 438.307 39.532 615.749 45.744 121.476 3.12 143.715 2.684 201.671-11.564ZM4671.147 4217.341c-56.359-22.374-76.909-27.38-196.47-39.411-178.438-17.339-397.01-24.53-612.99-30.08-209.12-4.93-414.545-13.915-576.096-15.634 166.436 40.874 373.008 71.903 581.84 85.578 214.834 14.066 430.316 14.051 604.94 13.026 120.646.09 142.87-.663 198.776-13.479ZM4595.505 4334.189c-57.625-24.44-77.165-30.17-195.173-43.272-176.176-19.102-392.97-27.696-605.436-36.682-206.737-8.564-406.419-20.264-565.045-25.661 162.727 51.171 364.263 89.512 570.668 106.52 212.21 18.062 425.1 19.524 598.29 17.685 119.2-1.025 141.091-2.367 196.696-18.59ZM4482.396 4548.238c-56.011-24.59-76.636-30.214-192.429-39.773-174.125-14.61-386.396-18.319-593.45-24.35-200.268-6.03-394.115-16.373-546.454-21.41 157.48 53.208 352.593 92.74 553.149 108.104 206.571 15.74 415.51 12.574 585.398 4.191 117.406-5.865 139.072-9.68 193.786-26.762ZM4426.596 4647.099c-56.147-23.023-76.803-26.159-195.625-30.14-177.397-5.593-391.296-.105-602.496 5.142-200.375 4.885-395.201 1.81-545.821 3.8 154.72 49.709 350.09 82.984 550.314 88.698 208.968 6.182 420.847-9.71 595.017-27.847 119.245-12.575 141.966-16.796 198.611-39.653ZM4334.294 4820.621c-56.072-19.283-76.682-21.801-191.208-20.248-170.688 2.548-375.465 18.74-575.704 31.104-191.283 12.182-374.59 16.479-517.732 26.219 149.218 42.728 336.656 66.43 528.512 63.535 200.767-3.362 401.865-27.335 568.83-53.238 114.45-17.444 134.985-21.786 187.302-47.372ZM4260.582 4968.166c-56.177-17.414-76.938-18.666-191.072-12.786-166.843 9.062-368.349 31.511-564.713 50.705-186.956 18.032-365.665 28.149-504.344 42.155 145.615 38.99 327.927 60.037 516.24 50.93 196.65-9.86 395.653-42.064 559.511-75.174 111.33-22.148 132.528-28.103 184.378-55.83ZM4219.738 5064.101c-58.77-9.996-79.155-10.026-194.977 1.297-172.648 17.067-378.164 49.227-577.317 73.652-188.434 22.841-367.806 31.465-505.4 42.562 145.525 31.843 329.646 45.865 519.316 30.712 200.737-15.846 403.147-55.529 570.291-91.427 114.873-24.968 136.554-31.587 188.087-56.796ZM4145.016 5221.4c-56.177-5.246-75.039-3.542-187.529 17.777-161.822 31.677-356.634 77.225-543.816 119.908-178.437 40.331-346.924 70.425-476.104 99.478 138.151 16.284 313.076 9.62 492.478-23.007 189.55-34.482 380.516-89.664 537.83-141.197 109.566-35.718 128.819-42.126 177.141-72.958ZM4072.6 5410.603c-59.312-.92-79.094 2.73-190.242 32.974-165.2 45.382-359.046 110.801-545.927 169.044-174.457 54.323-339.596 97.519-464.57 137.111 136.116 5.865 309.291-14.368 487.337-62.147 188.358-50.886 380.5-123.014 537.136-188.208 108.767-44.688 128.578-53.946 176.267-88.774ZM4000.683 5602.263c-57.112-.497-76.501 4.373-181.754 39.698-156.998 52.122-338.044 123.874-514.16 193.002-163.812 63.957-317.433 120.466-433.828 170.824 130.492-2.367 293.762-32.913 462.023-89.8 178.271-60.278 358.005-140.639 503.952-212.978 103.308-50.735 120.993-62.616 163.767-100.746ZM3951.29 5717.98c-57.142 5.141-76.305 9.664-177.683 57.73-149.022 71.375-322.65 165.215-487.955 261.12-155.22 89.996-298.994 177.428-408.349 257.698 126.256-28.164 282.696-89.603 442.363-172.527 170.657-87.658 339.641-190.74 478.426-282.394 96.132-64.123 114.134-78.522 153.198-121.627ZM3878.528 5918.445c-55.378 9.65-73.53 16.268-170.899 72.717-144 81.823-309.728 188.057-465.987 296.853-146.806 102.042-282.62 205.576-381.587 292.722 117.375-39.532 264.332-115.702 416.55-211.984 161.717-102.449 323.992-216.779 455.42-317.75 92.769-71.3 109.368-86.196 146.503-132.558ZM3843.369 6020.125c-52.258 17.158-70.426 26.581-162.336 92.513-135.98 98.56-292.917 223.955-439.165 353.377-139.72 123.542-265.176 245.486-356.317 353.121 110.877-66.384 248.681-168.863 391.326-283.932 152.233-123.406 306.26-256.959 429.742-370.61 86.89-79.517 102.78-96.222 136.75-144.469ZM3793.373 6171.454c-49.513 29.702-67.003 40.618-146.55 129.135-230.528 256.085-512.244 653.321-660.814 959.718 195.068-239.485 487.307-631.429 694.03-916.552 72.023-99.69 85.818-115.581 113.334-172.301ZM3794.64 6203.764c-35.567 51.835-48.504 71.074-90.644 198.008-126.316 381.722-243.164 965.869-266.804 1401.673 85.532-412.36 213.205-984.7 308.341-1374.851 32.838-133.583 41.251-158.023 49.106-224.83Z"/><path d="M3800.46 6186.712c-17.008 64.816-23.853 88.503-22.15 225.538 5.007 403.916 93.675 976.785 220.217 1357.316-55.318-404.383-130.688-968.477-170.718-1359.894-13.479-135.03-12.56-160.993-27.35-222.96ZM3858.777 6000.962c-8.352 67.47-13.011 91.277 2.413 226.76 45.608 399.015 192.61 943.902 357.267 1294.821-106.279-381.737-240.314-924.347-314.117-1304.621-25.691-131.76-26.113-157.601-45.563-216.96ZM3939.108 5769.906c-8.398 69.957-8.473 93.357 11.911 226.518 30.486 197.42 80.874 434.839 157.556 659.291 75.28 221.136 181.543 424.225 281.926 582.956-67.846-180.668-153.952-395.23-221.648-616.743-68.752-223.91-122.924-455.057-169-641.425-31.767-129.965-37.089-152.867-60.745-210.597ZM4019.168 5553.836c-8.805 68.435-11.52 92.694 5.457 227.408 23.913 196.77 67.305 434.808 136.056 661.839 67.274 222.794 164.718 430.421 259.417 592.455-60.143-182.6-136.765-400.508-196.259-624.313-60.384-227.785-106.429-459.037-147.439-646.476-28.149-129.045-33.17-151.66-57.232-210.913ZM4107.595 5325.161c-7.72 68.345-9.62 92.513 8.533 225.267 26.566 195.897 72.114 430.934 142.238 655.04 69.158 219.523 165.938 425.943 260.803 586.725-61.53-179.975-138.83-396.271-199.65-616.85-61.711-224.226-110.44-455.237-153.47-640.942-29.1-127.386-34.527-151.54-58.454-209.24ZM4257.325 4989.334c-10.358 69.204-12.453 94.337 1.795 231.795 20.896 202.652 57.745 446.584 119.018 681.138 59.75 229.715 147.183 446.961 233.454 617.86-53.132-189.142-120.571-413.806-171.788-645.21-52.107-235.398-91.79-474.702-128.985-668.096-25.073-133.99-30.23-158.159-53.494-217.487ZM4363.137 4766.585c-11.369 67.123-12.514 90.613 1.22 222.493 20.792 195.188 58.198 430.33 116.05 657.09 57.232 222.764 140.82 433.512 220.984 599.963-45.457-182.358-106.504-402.287-154.238-625.278-49.061-228.81-89.589-459.308-127.477-645.149-26.16-127.974-31.315-152.143-56.54-209.12ZM4437.964 4625.493c-11.685 66.52-14.187 90.131-2.096 221.86 18.003 194.495 52.574 431.145 105.088 659.005 52 225.116 127.432 438.759 202.651 607.848-40.3-185.629-95.151-406.117-137.985-632.047-43.679-229.277-79.11-460.56-114.978-648.134-23.702-127.884-28.556-151.766-52.68-208.532ZM4565.11 4404.267c-6.454 70.41-6.951 95.091 11.895 232.444 28.375 204.159 72.838 451.137 136.976 687.32 62.992 232.534 149.625 452.976 232.413 627.614-52.664-190.122-120.662-417.847-174.864-652.416-56.298-239.696-102.193-481.563-146.384-677.128-29.928-133.553-36.486-158.219-60.037-217.834ZM4653.717 4262.24c-6.709 67.637-6.272 90.66 15.183 220.624 31.994 192.912 80.075 425.853 144.333 648.3 63.565 220.654 146.308 431.145 225.358 597.4-47.915-182.764-110.47-401.307-165.306-624.614-55.483-227.589-105.298-455.705-153.078-639.721-31.857-124.974-39.818-147.017-66.49-201.988ZM4736.883 4126.336c-5.534 68.465-4.177 92.649 17.007 225.75 31.255 199.846 79.26 440.899 144.273 674.82 63.474 228.75 145.192 449.011 223.97 624.328-48.292-189.896-111.767-418.661-166.014-650.728-55.484-236.65-105.329-474.114-152.852-664.387-32.732-128.623-39.562-153.274-66.384-209.783ZM4824.089 3983.812c-1.659 66.249-1.222 89.272 25.6 215.633 40.181 190.318 97.353 421.51 168.2 644.606 69.808 220.699 154.722 434.13 233.063 604.501-50.976-183.428-116.667-406.69-177.594-631.308-61.424-227.061-120.164-454.68-175.316-636.178-37.03-122.004-46.317-143.61-73.953-197.254ZM4910.36 3858.22c-4.553 64.319-3.8 87.945 20.369 214.848 37 191.223 90.402 422.762 157.737 649.296 66.324 224.136 145.856 441.156 222.628 615.402-46.694-187.243-106.791-414.741-163.511-640.973-58.152-230.167-113.757-459.007-165.697-641.093-35.175-122.487-42.955-145.48-71.526-197.48ZM4998.335 3733.412c-6.574 66.052-5.926 88.442 16.328 215.21 32.914 190.967 82.698 424.692 145.298 652.899 63.354 227.513 139.93 447.925 211.984 626.966-40.859-191.81-94.925-421.722-147.454-652.703-53.147-231.87-105.615-462.234-155.595-643.566-34.18-123.511-41.387-146.248-70.561-198.806ZM5095.085 3603.447c-3.182 64.515-1.99 86.844 23.957 212.346 38.899 188.252 97.066 418.42 165.547 648.587 67.756 228.056 147.77 453.458 223.789 634.323-45.156-194.238-105.359-426.094-163.752-658.733-58.349-232.323-116.185-461.902-172.302-642.059-37.195-120.737-45.804-143.97-77.24-194.464ZM5169.61 3522.543c-5.955 63.822-5.065 85.88 19.827 211.788 37.3 188.389 91.066 421.134 157.646 651.165 66.023 230.092 143.79 457.56 217.713 642.345-40.738-196.5-97.488-432.095-152.429-665.67-55.936-235.654-111.857-465.082-166.919-645.646-37.014-121.702-44.643-143.157-75.837-193.982ZM5247.74 3415.149c-.83 63.354 1.794 86.512 30.501 209.572 43.754 187.815 104.65 418.042 174.563 649.024 70.546 231.87 149.625 462.022 223.261 649.642-46.196-199.742-107.183-437.146-167.672-672.092-60.851-235.851-122.245-465.717-180.91-644.094-39.246-119.305-48.578-141.544-79.743-192.052ZM5311.622 3336.763c.437 62.314 4.236 83.497 37.527 206.15 49.543 185.734 117.903 414.363 192.7 645.209 74.632 232.112 157.284 465.701 232.896 657.196-47.9-203.647-113.018-444.73-178.709-680.144-65.977-235.383-133.779-464.058-198.897-641.545-42.578-117.134-52.604-138.061-85.517-186.866ZM5458.443 3177.368c-7.93 63.068-6.815 84.477 13.026 208.652 29.114 188.192 72.039 424.089 125.608 660.588 54.292 238.625 116.546 478.08 178.588 675.786-29.943-206.511-70.998-451.921-114.224-694.346-43.015-239.937-87.643-473.813-134.654-655.416-31.617-122.185-38.99-143.655-68.344-195.264ZM5519.912 3105.45c-3.453 61.41-2.563 83.467 21.817 206.617 37.014 188.403 90.462 420.56 150.665 658.341 60.61 239.29 128.321 482.015 194.148 682.496-33.456-209.316-81.884-458.133-132.226-701.161-49.981-241.807-104.228-473.888-157.631-653.97-36.11-120.842-44.825-142.191-76.773-192.323ZM5580.326 3048.881c1.236 62.253 5.005 83.105 36.004 204.415 46.995 184.393 108.827 416.113 175.015 653.97 67.274 240.886 139.976 484.713 207.717 688.45-41.507-214.2-96.448-465.852-155.264-709.377-58.258-240.435-119.335-472.833-181.166-649.99-40.739-117.932-51.021-138.513-82.306-187.468ZM5653.646 2963.74c.512 60.128 3.588 82.291 34.557 203.285 47.553 184.665 109.444 416.988 176.1 657 66.565 242.183 138.845 490.413 204.747 697.753-37.723-217.351-89.995-472.667-147.982-719.072-56.569-242.772-119.29-475.336-181.679-652.748-41.296-117.888-51.835-138.453-85.743-186.217ZM5752.13 2865.106c.768 56.992 3.89 76.652 32.038 190.424 43.543 173.176 102.75 390.783 163.903 615.07 62.691 229.127 125.623 466.968 185.419 663.95-32.944-206.556-78.658-449.372-131.367-682.525-51.504-228.584-110.953-445.845-169.135-612.718-38.658-109.716-48.609-129.708-80.859-174.2ZM5871.811 2739.318c.302 54.835 4.313 72.25 32.733 180.066 42.457 164.235 100.127 370.746 158.144 584.102 59.886 219.085 119.893 445.664 176.085 635.786-28.858-200.375-70.033-435.185-120.737-657.904-48.85-217.292-107.817-423.064-165.577-579.067-38.733-104.71-48.458-122.23-80.648-162.983ZM5933.236 2682.04c3.663 52.996 8.307 71.285 41.175 177.141 50.403 161.958 116.561 366.147 180.609 580.197 65.841 218.874 128.366 449.282 187.363 643.204-33.38-205.26-77.3-443.252-134.367-667.282-55.65-217.306-122.773-420.169-186.58-574.06-42.683-103.113-53.72-120.195-88.2-159.2ZM6006.797 2614.645c1.523 53.177 6.679 71.42 38.296 178.332 48.276 162.456 112.837 367.113 175.361 582.233 64.153 221.211 124.145 453.7 181.091 649.069-28.616-206.632-71.043-446.312-125.32-672.469-52.333-219.779-118.491-423.968-181.981-577.272-42.925-102.78-53.509-120.843-87.447-159.893ZM6048.53 2576.923c8.564 53.161 15.243 70.018 55.228 173.371 60.911 157.903 139.327 359.438 211.034 574.046 73.591 220.367 139.463 454.815 199.982 653.607-37.707-211.125-87.974-453.218-153.56-678.349-63.927-218.738-142.267-419.354-214.713-569.673-49.151-99.403-61.967-115.084-97.97-153.002Z"/><path d="M4188.076 5150.192c-6.377 68.239-7.493 92.03 11.58 222.824 28.706 195.7 75.415 428.461 144.031 650.833 67.832 219.945 163.195 425.566 253.687 586.107-61.936-178.377-139.84-392.441-199.877-613.08-61.107-223.669-108.992-454.439-152.203-639.193-29.054-126.769-34.632-149.656-57.218-207.491ZM4519.094 4503.173c-11.368 73.033-14.399 99.81-2.473 247.762 17.113 217.954 48.895 484.156 105.51 739.411 55.273 249.436 139.162 484.774 221.724 671.911-49.167-202.591-111.3-446.75-156.923-697.678-46.347-255.858-82.743-516.044-116.862-726.55-24.048-143.745-28.526-169.527-50.976-234.856ZM5807.719 2800.245c.588 42.97 2.925 56.795 25.782 138.92 34.782 124.085 81.612 279.5 128.909 440.191 48.367 163.39 97.503 332.314 144.122 473.42-24.35-150.273-59.072-325.167-100.414-491.995-40.482-163.481-90.417-317.071-135.528-435.23-30.079-80.86-38.024-93.554-62.871-125.306ZM5337.253 3271.178c-63.384 11.293-86.03 10.207-215.286 8.096-193.726-2.88-434.07-4.372-674.806-4.267-240.45.377-478.381-1.643-671.353-14.247 199.048-22.54 440.387-43.272 683.475-50.448 243.314-7.81 482.18-1.508 671.444 18.288 128.427 14.037 150.77 20.761 206.526 42.578ZM5181.084 3456.671c-63.082 11.595-84.688 10.102-212.602 4.75-190.876-7.494-428.16-14.248-663.12-22.465-233.65-8.64-464.572-20.34-651.12-43.181 193.378-12.996 428.49-24.44 664.96-23.535 237.57.814 472.184 14.353 658.04 38.507 126.98 16.042 149.64 23.354 203.842 45.924ZM5521.209 3071.346c-64.787 13.916-87.086 13.735-216.87 14.79-195.881.438-440.582 7.75-685.329 14.761-246.058 7.433-491.272 15.107-692.476 10.72 206.224-33.486 455.027-64.862 703.03-80.889 248.079-15.092 490.654-15.982 683.143.407 128.397 10.6 152.354 17.188 208.502 40.21ZM5416.287 3188.947c-64.123 12.303-87.281 11.58-214.818 7.433-195.354-5.85-437.04-10.343-680.762-13.087-242.38-3.18-484.261-6.724-681.258-21.77 202.771-23.506 449.448-42.217 694.059-47.66 246.224-5.578 486.93 3.061 676.585 27.184 127.537 16.299 150.71 23.264 206.194 47.9ZM5558.012 3030.306c-65.57 5.262-87.086 1.583-215.467-11.835-194.706-19.932-436.678-39.668-683.143-54.956-246.21-15.304-494.665-28.541-696.23-49.107 212.616-10.674 466.982-16.358 715.86-7.523 248.561 8.232 489.252 31.828 677.128 66.415 125.939 22.676 148.479 31.556 201.852 57.006ZM5642.685 2953.503c-64.756 5.187-87.327 1.915-215.648-14.006-194.238-23.717-437.99-47.976-685.54-66.28-248.924-18.499-499.249-34.375-705.142-57.67 216.538-9.452 473.904-15.106 725.119-4.296 250.46 11.187 492.026 38.446 679.796 78.024 126.06 27.033 148.901 36.2 201.415 64.228ZM5740.942 2855.502c-61.394 3.332-82.366-.392-201.852-17.73-182.523-26.325-411.635-54.082-643.777-76.26-234.81-21.636-471.597-38.1-668.88-59.359 206.676-7.343 450.986-9.936 689.747 4.161 234.63 13.555 461.344 44.945 636.947 84.99 118.174 27.124 139.418 36.743 187.815 64.198ZM5889.723 2723.985c-62.66 1.266-83.542-4.343-203.631-25.36-183.097-32.823-411.68-66.867-645.044-93.614-236.665-27.078-477.024-46.965-676.223-71.495 212.768-6.001 462.777-5.684 703.272 12.634 236.71 18.65 463.756 56.57 637.022 104.002 117.044 32.506 136.267 43.874 184.604 73.833ZM5933.809 2682.312c-58.756-3.77-77.648-11.429-187.952-41.432-167.959-45.73-379.4-94.7-594.957-134.895-219.764-41.703-443.975-72.385-629.74-104.665 202.093 5.246 436.21 19.148 659.91 53.312 219.748 32.34 427.691 84.749 586.544 144.077 106.52 39.381 124.944 50.825 166.195 83.603Z"/><path d="M6017.411 2605.584c-62.947-1.824-83.602-8.081-203.043-36.954-181.348-43.573-409.404-89.83-642.541-126.255-238.339-36.593-480.748-61.289-682.691-88.985 217.291-1.116 470.797 4.81 712.95 32.641 237.767 27.29 464.15 76.185 635.108 134.096 114.601 38.658 133.75 52.227 180.217 85.457ZM6094.817 2535.657c-56.75-8.625-75.325-15.68-184.876-49.499-166.511-50.824-376.053-105.901-591.565-148.6-219.387-43.602-445.965-73.455-633.193-103.715 204.416 6.89 440.176 20.957 664.916 57.534 218.723 36.17 425.264 94.006 581.674 156.35 104.876 42.336 122.306 54.805 163.044 87.93Z"/><path d="M6036.499 2588.29c-45.096-5.925-60.022-11.76-143.188-39.215-126.104-42.608-283.66-90.508-444.985-132.15-163.587-42.367-331.455-74.994-469.652-107.169 153.968 11.112 329.495 32.145 496.881 68.556 164.612 35.733 320.177 85.683 437.643 138.106 79.532 35.266 92.362 45.035 123.3 71.873ZM5825.208 2774.056c-64.952 3.03-86.557-1.583-216.1-18.952-195.052-26.762-440.598-53.041-690.124-72.099-253.039-18.756-508.792-31.647-720.58-50.976 221.784-11.503 486.794-19.705 741.311-8.563 252.933 11.579 496.127 41.823 684.877 83.18 126.422 27.923 148.525 38.1 200.616 67.41ZM4701.994 4128.205c-41.854-18.379-57.006-23.565-145.916-33.35-132.904-15.5-298.12-24.681-461.193-28.119-161.19-3.618-322.334-3.8-452.675 3.227 133.628 23.535 294.32 42.788 455.841 53.222 162.878 10.328 325.409 13.81 456.474 14.836 89.136.105 106.43-.83 147.47-9.816ZM4531.548 4414.746c-34.497-11.866-46.423-14.535-116.712-16.645-210.914-6.62-513.677 7.764-721.183 36.064 106.61 10.071 234.449 17.61 361.971 15.514 128.91-1.9 256.07-8.02 359.408-16.057 70.681-5.714 84.326-8.187 116.516-18.876ZM4767.067 4065.937c-1.357 48.443-.377 65.51 19.646 161.295 30.5 140.051 73.5 313.287 124.808 482.331 50.99 168.457 110.726 331.455 167.446 463.847-33.833-143.805-78.778-314.674-122.908-485.301-43.995-172.211-90.93-341.03-132.408-476.045-28.028-91.322-33.893-108.253-56.584-146.127ZM5065.79 3640.356c-4.358 54.338-3.996 73.636 13.433 179.945 26.657 160.661 67.682 357.448 117.647 553.737 49.68 196.318 109.128 389.275 165.878 546.303-29.174-167.612-71.782-366.75-113.455-564.728-41.96-197.947-85.065-393.602-125.23-547.45-26.702-103.609-33.32-122.968-58.273-167.807ZM4309.688 4876.452c-6.649 43.934-8.066 58.408 1.508 143.91 28.827 251.502 105.419 602.225 189.398 838.498-38.657-254.999-104.514-607.305-155.098-846.88-17.293-83.573-19.51-99.268-35.808-135.528ZM4614.668 4320.62c-5.88 43.557-6.996 58.303 3.633 143.398 30.818 249.465 107.922 599.827 188.419 836.718-33.878-256.356-98.83-607.501-152.354-846.503-19.103-82.774-22.33-97.444-39.698-133.614ZM4063.992 5469.057c-4.704 44.372-6.318 59.796 6.212 144.725 37.496 251.35 131.185 601.788 229.76 831.125-53.72-253.325-136.644-601.923-195.686-841.98-19.811-81.462-23.415-97.353-40.286-133.87ZM4945.806 3750.6c-62.163 15.86-83.24 17.142-208.004 22.72-187.664 7.192-415.977 18.636-642.028 24.908-222.01 5.895-438.608 2.578-613.894-12.86 178.347-23.174 398.427-44.493 621.071-58.56 228.599-14.278 455.916-18.485 639.782-7.554 124.567 7.524 146.745 12.394 203.073 31.345ZM4881.804 3867.01c-29.416-21.983-40.965-26.551-112.52-36.653-213.598-30.395-533.58-32.235-762.525-.769 109.023 22.013 241.475 35.386 372.932 43.845 133.161 9.242 265.975 11.67 375.224 8.714 74.029-1.658 88.683-1.719 126.889-15.137ZM4074.033 5329.715c-37.316-4.132-49.724-3.016-122.456 10.071-213.914 38.522-510.194 110.018-703.513 175.392 102.72-2.985 227.876-16.404 351.613-42.472 128.608-26.204 256.432-61.38 358.654-93.93 71.888-22.676 84.704-28.195 115.702-49.061ZM4178.17 5154.82c-51.608-8.775-70.364-8.956-174.517 2.262-153.696 16.298-339.22 47.297-518.531 71.812-170.975 23.445-336.913 39.592-463.003 54.655 134.623 22.525 303.879 28.209 475.954 10.9 180.684-18.409 362.303-53.418 511.882-88.352 103.58-23.64 121.869-28.721 168.216-51.277ZM4388.376 4726.917c-52.604-13.992-71.843-16.313-179.463-13.509-160.24 3.784-353 20.776-543.077 34.406-182.222 13.238-359.423 21.982-498.675 32.612 144.981 25.962 324.67 38.823 508.309 32.31 190.107-7.086 380.576-28.556 536.76-50.373 107.59-15.273 127.416-18.288 176.146-35.446ZM3888.871 5912.52c15.545 36.954 17.354 51.141 35.25 129.346 51.504 231.69 130.825 561.29 182.509 792.03-93.01-224.844-180.307-555.59-211.215-787.899-10.961-79.757-9.439-96.116-6.544-133.477ZM3788.624 6200.251c-10.931 38.703-60.852 124.25-94.91 192.776-96.826 204.792-239.063 494.107-345.538 688.24 76.698-232.308 210.793-527.428 322.71-712.378 37.829-62.947 92.378-145.48 117.738-168.638ZM4016.182 5505.453c-43.512-.452-58.83 1.538-140.156 27.863-120.662 39.2-265.192 93.96-403.63 150.032-134.683 55.423-263.26 109.37-363.614 159.847 111.872-15.966 247.49-49.03 383.893-97.443 141.981-49.845 283.812-110.59 396.845-165.004 79.712-38.34 94.141-47.116 126.662-75.295ZM5241.363 3401.685c-44.418 7.735-59.269 5.639-146.625-1.794-131.186-11.61-293.838-25.375-456.233-39.487-163.527-14.625-327.354-29.536-462.46-48.262 142.358-9.363 311.086-9.544 476.195-1.598 164.597 8.293 325.273 27.53 451.815 50.78 85.668 16.012 100.896 22.118 137.308 40.361ZM6326.265 2320.024c-60.414-3.935-80.949-11.745-196.44-42.231-177.638-47.644-403.221-96.614-634.263-130.734-238.248-35.672-482.21-53.373-686.792-74.284 219.236-6.59 473.617-6.046 715.122 20.61 235.203 25.963 457.922 76.426 626.394 137.05 113.38 40.03 131.472 53.992 175.98 89.589Z"/><path d="M6396.66 2262.882c-50.493-2.639-67.198-7.056-161.852-35.356-142.328-41.779-323.766-86.286-509.214-121.084-189.896-35.944-386.426-57.896-549.892-80.95 177.744-2.547 382.023 2.805 577.423 30.472 189.036 26.37 367.112 75.852 502.067 129.21 91.804 36.035 106.58 46.242 141.468 77.708ZM6221.796 2412.658c-60.399-3.936-80.632-11.474-196.304-43.8-175.588-49.09-397.779-102.72-627.192-142.915-233.816-40.739-476.044-66.385-676.932-94.488 217.623-3.332 469.215 2.457 707.614 33.742 234.208 30.11 453.414 86.814 619.533 151.39 112.008 42.954 129.95 58.182 173.281 96.07Z"/><path d="M6475.423 2198.759c-60.926-6.68-79.848-14.655-196.68-47.81-177.564-49.845-403.283-100.353-637.475-133.266-240.827-34.18-488.589-48.73-697.844-64.244 222.84-8.775 480.447-11.64 725.163 14.399 237.299 25.149 461.3 77.692 630.66 139.177 112.702 41.643 131.699 56.463 176.176 91.744Z"/><path d="M6566.836 2136.626c-60.113-6.77-79.894-15.273-196.32-50.04-176.703-52.409-401.518-107.983-635.906-143.067-240.993-36.035-490.91-50.388-700.799-66.777 224.86-10.524 484.804-14.534 729.445 13.705 237.48 27.003 460.892 82.08 629.65 148.932 112.174 44.794 130.1 60.022 173.93 97.247Z"/><path d="M6638.316 2082.198c-57.444-7.328-75.4-16.615-182.312-51.293-164.582-53.508-374.455-109.173-592.183-146.368-224.936-38.733-457.364-54.971-654.256-71.903 210.537-6.74 452.614-6.965 681.59 22.36 221.332 28.767 429.08 88.065 585.112 152.308 104.274 44.583 121.235 58.017 162.05 94.896ZM6794.304 1976.522c-54.052-8.865-71.028-16.373-171.321-52.89-152.008-55.891-345.296-117.406-547.269-157.586-207.46-40.92-423.696-61.409-605.24-80.03 198.204-4.703 426.23-1.16 637.671 32.537 205.908 32.657 398.05 93.66 539.76 161.687 95.695 45.97 110.29 60.248 146.399 96.282Z"/><path d="M6840.063 1944.348c-52.378-14.308-68.601-25.631-165.713-72.099-147.514-69.385-337.44-144.921-534.935-195.791-205.018-52.981-421.043-77.24-602.029-98.71 200.043.739 427.496 9.936 638.048 54.956 202.742 42.894 389.065 120.647 526.16 200.933 92.107 54.398 106.626 70.862 138.469 110.71Z"/><path d="M6927.796 1883.482c-50.342-9.83-66.158-19.63-157.103-61.033-138.197-62.419-314.192-131.11-498.66-179.085-190.228-48.714-388.899-73.275-558.184-94.549 186.111-.196 396.271 10.253 591.052 52.001 188.404 40.452 363.615 109.52 491.634 182.523 86.513 49.604 99.705 63.385 131.261 100.143ZM6995.478 1838.431c-44.614-18.756-58.153-30.32-137.896-80.21-120.963-76.124-275.835-160.752-439.934-221.15-169.482-62.722-348.779-95.575-501.238-123.045 171.064 10.825 362.498 33.546 536.609 90.251 168.004 55.379 320.584 141.755 431.039 225.056 75.22 56.856 85.819 72.114 111.42 109.098Z"/><path d="M6979.36 1849.543c-40.527-12.574-52.95-23.927-124.748-63.942-109.897-61.831-248.033-129.558-394.055-182.237-148.298-53.72-304.587-90.508-434.507-121.235 147.198 14.218 314.117 39.442 466.576 88.11 148.856 47.75 285.515 117.165 385.823 187.349 67.26 46.965 77.376 59.78 100.911 91.955ZM6727.196 2015.919c-60.414-7.056-78.96-16.932-196.048-52.86-176.115-54.972-401.201-110.516-636.359-145.223-242.259-34.994-494.815-45.367-707.508-56.826 227.272-13.856 489.69-20.58 735.793 5.654 238.972 25.631 463.078 82.517 631.383 150.334 111.36 44.87 129.392 61.032 172.739 98.92ZM6176.882 2463.136c-41.975-1.523-55.258-7.192-134.458-29.702-120.783-34.994-271.508-76.336-425.19-111.48-156.71-35.507-317.885-63.128-452.222-91.594 146.323 4.629 315.413 17.505 474.024 46.92 156.154 29.325 305.462 73.275 418.344 119.893 77.3 31.723 89.483 40.286 119.502 65.963ZM6143.742 2511.639c6.83 42.713 14.112 57.338 59.856 146.142 69.22 135.332 159.667 310.528 243.345 500.997 86.03 195.55 161.566 413.55 231.69 601.5-38.583-187.664-93.283-406.598-168.291-606.566-72.657-194.886-162.878-373.535-249.45-505.445-57.595-87.733-72.673-101.348-117.15-136.628Z"/><path d="M6214.574 2459.125c5.624 41.583 12.379 56.253 57.158 146.384 68.208 136.357 156.59 312.684 239.198 506.364 84.628 198.174 159.003 418.148 228.056 609.296-36.11-190.364-88.05-411.74-160.028-614.166-70.426-197.253-158.913-377.937-245.275-510.48-58.514-88.91-73.56-102.208-119.109-137.398Z"/><path d="M6264.75 2406.612c10.826 42.05 19.48 56.554 70.094 145.222 77.919 135.483 174.608 313.559 262.372 510.21 90.975 202.274 167.25 428.325 236.002 625.111-39.94-196.575-98.439-424.526-177.865-631.278-77.255-200.691-174.216-381.858-267.015-513.511-62.811-88.216-78.884-100.79-123.587-135.754Z"/><path d="M6322.285 2354.37c13.208 41.22 22.887 55.317 78.718 144.453 84.99 135.483 191.132 313.016 284.52 514.763 96.659 208.003 176.824 441.186 248.636 644.862-43.693-205.275-106.098-440.357-191.992-652.446-83.27-204.22-189.006-386.155-288.32-517.838-67.5-89.03-84.838-100.58-131.562-133.794ZM6409.43 2286.99c5.353 26.34 10.434 34.602 42.669 87.84 49.332 80.36 111.6 183.895 172.995 295.616 62.57 112.852 121.747 236.303 174.758 342.536-64.123-214.984-194.57-484.487-311.116-644.56-39.683-54.746-49.242-61.364-79.305-81.432ZM6094.711 2555.619c3.453 35.551 7.886 48.563 43.045 122.41 52.258 112.838 120.798 258.83 187.861 412.751 68.6 158.777 133.915 329.375 193.665 477.402-31.978-147.41-77.662-320.389-136.99-481.865-57.58-156.952-127.809-303.728-195.64-414.544-44.433-74.27-55.846-86.347-91.94-116.154ZM5387.203 3270.74c-.618 32.492.12 43.649 13.419 106.988 38.627 188.267 110.696 464.269 174.291 658.085-32.642-212.195-96.267-491.122-150.032-669.303-18.017-61.363-21.862-70.998-37.678-95.77Z"/><path d="M7049.077 1814.91c-38.583-12.121-58.62-5.336-163.135 53.314C6336.277 2265.188 5431.56 2980.868 4800.9 3919.176c-619.699 921.422-943.54 1984.328-1049.411 2412.231 156.771-399.74 517.778-1451.322 1153.262-2360.14 647.335-925.145 1542.945-1642.498 2056.607-2046.836 40.934-28.315 105.404-78.989 87.719-109.52Z"/></svg>